<svg xmlns="http://www.w3.org/2000/svg" width="73.545" height="73" viewBox="0 0 73.545 73"><defs><style>.a{fill:#0093a3;}</style></defs><g transform="translate(0 -0.178)"><path class="a" d="M39.929,5.363,6.251.245A5.431,5.431,0,0,0,1.9,1.441,5.48,5.48,0,0,0,0,5.547V70.114a3.073,3.073,0,0,0,3.064,3.064h9.959V57.09a5.349,5.349,0,0,1,5.363-5.363h7.661A5.349,5.349,0,0,1,31.41,57.09V73.178H44.434V10.664a5.366,5.366,0,0,0-4.5-5.3ZM16.854,44.832h-4.6a2.3,2.3,0,0,1,0-4.6h4.6a2.3,2.3,0,0,1,0,4.6Zm0-9.193h-4.6a2.3,2.3,0,0,1,0-4.6h4.6a2.3,2.3,0,0,1,0,4.6Zm0-9.193h-4.6a2.3,2.3,0,1,1,0-4.6h4.6a2.3,2.3,0,0,1,0,4.6Zm0-9.193h-4.6a2.3,2.3,0,0,1,0-4.6h4.6a2.3,2.3,0,0,1,0,4.6Zm15.322,27.58h-4.6a2.3,2.3,0,0,1,0-4.6h4.6a2.3,2.3,0,0,1,0,4.6Zm0-9.193h-4.6a2.3,2.3,0,0,1,0-4.6h4.6a2.3,2.3,0,0,1,0,4.6Zm0-9.193h-4.6a2.3,2.3,0,1,1,0-4.6h4.6a2.3,2.3,0,0,1,0,4.6Zm0-9.193h-4.6a2.3,2.3,0,0,1,0-4.6h4.6a2.3,2.3,0,0,1,0,4.6Z" transform="translate(0 0)"/><path class="a" d="M37.318,13.92,15.5,9.351v44.89H36.185a5.369,5.369,0,0,0,5.363-5.363V19.16A5.337,5.337,0,0,0,37.318,13.92ZM30.056,45.048h-4.6a2.3,2.3,0,1,1,0-4.6h4.6a2.3,2.3,0,1,1,0,4.6Zm0-9.193h-4.6a2.3,2.3,0,1,1,0-4.6h4.6a2.3,2.3,0,1,1,0,4.6Zm0-9.193h-4.6a2.3,2.3,0,1,1,0-4.6h4.6a2.3,2.3,0,1,1,0,4.6Z" transform="translate(31.998 18.937)"/></g></svg>