<svg xmlns="http://www.w3.org/2000/svg" width="518" height="120.981" viewBox="0 0 518 120.981">
  <g id="Grupo_1514" data-name="Grupo 1514" transform="translate(-98.456 281.043)">
    <path id="Trazado_3421" data-name="Trazado 3421" d="M173.285-220.685" transform="translate(-10.59 -8.542)" fill="#fff"/>
    <path id="Trazado_3422" data-name="Trazado 3422" d="M173.285-220.685" transform="translate(-10.59 -8.542)" fill="#fff"/>
    <path id="Trazado_3423" data-name="Trazado 3423" d="M173.285-220.685" transform="translate(-10.59 -8.542)" fill="#fff"/>
    <g id="Grupo_1331" data-name="Grupo 1331" transform="translate(143.61 -203.567)">
      <path id="Trazado_3424" data-name="Trazado 3424" d="M154.013-185.094a1.912,1.912,0,0,0,1.093-.316,1.905,1.905,0,0,0,.7-.852h.693a2.6,2.6,0,0,1-.956,1.3,2.8,2.8,0,0,1-1.677.51,2.657,2.657,0,0,1-2.063-.87,3.041,3.041,0,0,1-.747-2.108,3.041,3.041,0,0,1,.747-2.107,2.657,2.657,0,0,1,2.063-.87,2.808,2.808,0,0,1,1.677.509,2.6,2.6,0,0,1,.956,1.3H155.8a1.9,1.9,0,0,0-.7-.852,1.912,1.912,0,0,0-1.093-.316,2.615,2.615,0,0,0-1.036.179,1.974,1.974,0,0,0-.694.5,2.4,2.4,0,0,0-.571,1.659,2.4,2.4,0,0,0,.571,1.659A2.187,2.187,0,0,0,154.013-185.094Z" transform="translate(-151.054 190.74)" fill="#fff"/>
      <path id="Trazado_3425" data-name="Trazado 3425" d="M161.757-184.991a1.775,1.775,0,0,1-1.572.773,1.989,1.989,0,0,1-1.545-.659,2.324,2.324,0,0,1-.579-1.606,2.328,2.328,0,0,1,.579-1.607,2.043,2.043,0,0,1,1.589-.658,1.744,1.744,0,0,1,1.528.781v-.711h.658v4.39h-.658Zm-1.483.176a1.39,1.39,0,0,0,1.124-.492,1.752,1.752,0,0,0,.395-1.176,1.755,1.755,0,0,0-.395-1.177,1.393,1.393,0,0,0-1.124-.492,1.461,1.461,0,0,0-1.142.492,1.707,1.707,0,0,0-.413,1.177,1.7,1.7,0,0,0,.413,1.176A1.459,1.459,0,0,0,160.273-184.815Z" transform="translate(-152.046 190.505)" fill="#fff"/>
      <path id="Trazado_3426" data-name="Trazado 3426" d="M165.121-184.566h-.658v-6.147h.658Z" transform="translate(-152.952 190.783)" fill="#fff"/>
      <path id="Trazado_3427" data-name="Trazado 3427" d="M167.24-190.529v.861h-.712v-.861Zm-.685,1.6h.658v4.39h-.658Z" transform="translate(-153.244 190.757)" fill="#fff"/>
      <path id="Trazado_3428" data-name="Trazado 3428" d="M170.468-190.171a1.024,1.024,0,0,0-.7.206.843.843,0,0,0-.233.663v.334h1.018v.579h-1.018v3.811h-.658v-3.811h-.755v-.579h.755v-.386a1.326,1.326,0,0,1,.43-1.08,1.8,1.8,0,0,1,1.194-.361h.052v.624Z" transform="translate(-153.47 190.795)" fill="#fff"/>
      <path id="Trazado_3429" data-name="Trazado 3429" d="M172.476-190.529v.861h-.711v-.861Zm-.684,1.6h.658v4.39h-.658Z" transform="translate(-153.985 190.757)" fill="#fff"/>
      <path id="Trazado_3430" data-name="Trazado 3430" d="M175.875-184.815a1.234,1.234,0,0,0,.747-.237,1.37,1.37,0,0,0,.474-.615h.712a2,2,0,0,1-.738,1.045,2.222,2.222,0,0,1-1.334.4,2.037,2.037,0,0,1-1.572-.659,2.282,2.282,0,0,1-.588-1.606,2.286,2.286,0,0,1,.588-1.607,2.04,2.04,0,0,1,1.572-.658,2.227,2.227,0,0,1,1.334.4,2.005,2.005,0,0,1,.738,1.046H177.1a1.37,1.37,0,0,0-.474-.615,1.234,1.234,0,0,0-.747-.238,1.747,1.747,0,0,0-.715.132,1.432,1.432,0,0,0-.5.36,1.686,1.686,0,0,0-.43,1.177,1.685,1.685,0,0,0,.43,1.176A1.541,1.541,0,0,0,175.875-184.815Z" transform="translate(-154.241 190.505)" fill="#fff"/>
      <path id="Trazado_3431" data-name="Trazado 3431" d="M182.835-184.991a1.775,1.775,0,0,1-1.571.773,1.987,1.987,0,0,1-1.545-.659,2.324,2.324,0,0,1-.579-1.606,2.328,2.328,0,0,1,.579-1.607,2.04,2.04,0,0,1,1.589-.658,1.742,1.742,0,0,1,1.527.781v-.711h.659v4.39h-.659Zm-1.483.176a1.389,1.389,0,0,0,1.124-.492,1.752,1.752,0,0,0,.395-1.176,1.755,1.755,0,0,0-.395-1.177,1.392,1.392,0,0,0-1.124-.492,1.461,1.461,0,0,0-1.142.492,1.71,1.71,0,0,0-.412,1.177,1.708,1.708,0,0,0,.412,1.176A1.458,1.458,0,0,0,181.351-184.815Z" transform="translate(-155.029 190.505)" fill="#fff"/>
      <path id="Trazado_3432" data-name="Trazado 3432" d="M188.921-185.269a1.775,1.775,0,0,1-1.572.773,1.99,1.99,0,0,1-1.545-.659,2.324,2.324,0,0,1-.579-1.606,2.328,2.328,0,0,1,.579-1.607,2.043,2.043,0,0,1,1.589-.658,1.744,1.744,0,0,1,1.528.781v-2.467h.658v6.147h-.658Zm-1.484.176a1.391,1.391,0,0,0,1.125-.492,1.757,1.757,0,0,0,.395-1.176,1.759,1.759,0,0,0-.395-1.177,1.393,1.393,0,0,0-1.125-.492,1.461,1.461,0,0,0-1.141.492,1.707,1.707,0,0,0-.413,1.177,1.7,1.7,0,0,0,.413,1.176A1.458,1.458,0,0,0,187.436-185.093Z" transform="translate(-155.89 190.783)" fill="#fff"/>
      <path id="Trazado_3433" data-name="Trazado 3433" d="M193.487-188.749a2.086,2.086,0,0,1,1.6.658,2.286,2.286,0,0,1,.579,1.607,2.286,2.286,0,0,1-.579,1.606,2.084,2.084,0,0,1-1.6.659,2.086,2.086,0,0,1-1.6-.659,2.286,2.286,0,0,1-.579-1.606,2.286,2.286,0,0,1,.579-1.607A2.088,2.088,0,0,1,193.487-188.749Zm0,3.934a1.39,1.39,0,0,0,1.124-.492,1.752,1.752,0,0,0,.395-1.176,1.755,1.755,0,0,0-.395-1.177,1.393,1.393,0,0,0-1.124-.492,1.391,1.391,0,0,0-1.124.492,1.755,1.755,0,0,0-.4,1.177,1.753,1.753,0,0,0,.4,1.176A1.388,1.388,0,0,0,193.487-184.815Z" transform="translate(-156.751 190.505)" fill="#fff"/>
      <path id="Trazado_3434" data-name="Trazado 3434" d="M199.713-188.749v.658h-.079a1.406,1.406,0,0,0-1.159.571,2.057,2.057,0,0,0-.421,1.3v1.932H197.4v-4.39h.658v1.08a1.6,1.6,0,0,1,.913-1.01,1.6,1.6,0,0,1,.7-.141Z" transform="translate(-157.612 190.505)" fill="#fff"/>
      <path id="Trazado_3435" data-name="Trazado 3435" d="M204.17-184.991a1.775,1.775,0,0,1-1.571.773,1.99,1.99,0,0,1-1.546-.659,2.324,2.324,0,0,1-.579-1.606,2.328,2.328,0,0,1,.579-1.607,2.043,2.043,0,0,1,1.59-.658,1.743,1.743,0,0,1,1.527.781v-.711h.658v4.39h-.658Zm-1.483.176a1.39,1.39,0,0,0,1.124-.492,1.752,1.752,0,0,0,.395-1.176,1.755,1.755,0,0,0-.395-1.177,1.393,1.393,0,0,0-1.124-.492,1.461,1.461,0,0,0-1.142.492,1.711,1.711,0,0,0-.413,1.177,1.709,1.709,0,0,0,.413,1.176A1.459,1.459,0,0,0,202.686-184.815Z" transform="translate(-158.048 190.505)" fill="#fff"/>
      <path id="Trazado_3436" data-name="Trazado 3436" d="M212.434-185.269a1.776,1.776,0,0,1-1.572.773,1.989,1.989,0,0,1-1.545-.659,2.324,2.324,0,0,1-.579-1.606,2.328,2.328,0,0,1,.579-1.607,2.043,2.043,0,0,1,1.589-.658,1.744,1.744,0,0,1,1.528.781v-2.467h.658v6.147h-.658Zm-1.484.176a1.388,1.388,0,0,0,1.124-.492,1.753,1.753,0,0,0,.4-1.176,1.755,1.755,0,0,0-.4-1.177,1.391,1.391,0,0,0-1.124-.492,1.461,1.461,0,0,0-1.141.492,1.707,1.707,0,0,0-.413,1.177,1.7,1.7,0,0,0,.413,1.176A1.458,1.458,0,0,0,210.949-185.093Z" transform="translate(-159.218 190.783)" fill="#fff"/>
      <path id="Trazado_3437" data-name="Trazado 3437" d="M217.052-184.815a1.327,1.327,0,0,0,1.273-.737h.72a2.12,2.12,0,0,1-.725.966,2.087,2.087,0,0,1-1.277.369,2.123,2.123,0,0,1-1.616-.659,2.247,2.247,0,0,1-.606-1.606,2.283,2.283,0,0,1,.58-1.607,2.085,2.085,0,0,1,1.6-.658,2.085,2.085,0,0,1,1.6.658,2.283,2.283,0,0,1,.58,1.607v.264H215.5a1.6,1.6,0,0,0,.483,1A1.486,1.486,0,0,0,217.052-184.815ZM217-188.152a1.453,1.453,0,0,0-1.018.378,1.555,1.555,0,0,0-.475.94h2.986a1.559,1.559,0,0,0-.474-.94A1.456,1.456,0,0,0,217-188.152Z" transform="translate(-160.079 190.505)" fill="#fff"/>
      <path id="Trazado_3438" data-name="Trazado 3438" d="M225.708-185.094a1.914,1.914,0,0,0,1.093-.316,1.9,1.9,0,0,0,.7-.852h.694a2.6,2.6,0,0,1-.957,1.3,2.8,2.8,0,0,1-1.677.51,2.659,2.659,0,0,1-2.064-.87,3.041,3.041,0,0,1-.746-2.108,3.04,3.04,0,0,1,.746-2.107,2.659,2.659,0,0,1,2.064-.87,2.805,2.805,0,0,1,1.677.509,2.606,2.606,0,0,1,.957,1.3H227.5a1.9,1.9,0,0,0-.7-.852,1.914,1.914,0,0,0-1.093-.316,2.609,2.609,0,0,0-1.036.179,1.967,1.967,0,0,0-.694.5,2.4,2.4,0,0,0-.571,1.659,2.4,2.4,0,0,0,.571,1.659A2.185,2.185,0,0,0,225.708-185.094Z" transform="translate(-161.201 190.74)" fill="#fff"/>
      <path id="Trazado_3439" data-name="Trazado 3439" d="M232.39-188.749v.658h-.079a1.408,1.408,0,0,0-1.159.571,2.057,2.057,0,0,0-.421,1.3v1.932h-.658v-4.39h.658v1.08a1.6,1.6,0,0,1,.913-1.01,1.6,1.6,0,0,1,.7-.141Z" transform="translate(-162.237 190.505)" fill="#fff"/>
      <path id="Trazado_3440" data-name="Trazado 3440" d="M235.38-185.057a1.327,1.327,0,0,0,1.273-.737h.72a2.126,2.126,0,0,1-.725.966,2.087,2.087,0,0,1-1.277.369,2.122,2.122,0,0,1-1.616-.659,2.243,2.243,0,0,1-.606-1.606,2.286,2.286,0,0,1,.579-1.607,2.087,2.087,0,0,1,1.6-.658,2.086,2.086,0,0,1,1.6.658,2.286,2.286,0,0,1,.579,1.607v.264h-3.679a1.594,1.594,0,0,0,.482,1A1.49,1.49,0,0,0,235.38-185.057Zm-.052-3.337a1.455,1.455,0,0,0-1.019.378,1.559,1.559,0,0,0-.474.94h2.986a1.564,1.564,0,0,0-.475-.94A1.453,1.453,0,0,0,235.328-188.394Zm-.088-2.063h.94l-.94.922H234.7Z" transform="translate(-162.673 190.747)" fill="#fff"/>
      <path id="Trazado_3441" data-name="Trazado 3441" d="M242.544-185.269a1.775,1.775,0,0,1-1.572.773,1.99,1.99,0,0,1-1.545-.659,2.324,2.324,0,0,1-.579-1.606,2.328,2.328,0,0,1,.579-1.607,2.043,2.043,0,0,1,1.589-.658,1.743,1.743,0,0,1,1.528.781v-2.467h.658v6.147h-.658Zm-1.484.176a1.388,1.388,0,0,0,1.124-.492,1.753,1.753,0,0,0,.4-1.176,1.755,1.755,0,0,0-.4-1.177,1.391,1.391,0,0,0-1.124-.492,1.461,1.461,0,0,0-1.141.492,1.707,1.707,0,0,0-.413,1.177,1.7,1.7,0,0,0,.413,1.176A1.458,1.458,0,0,0,241.059-185.093Z" transform="translate(-163.479 190.783)" fill="#fff"/>
      <path id="Trazado_3442" data-name="Trazado 3442" d="M245.93-190.529v.861h-.711v-.861Zm-.685,1.6h.658v4.39h-.658Z" transform="translate(-164.381 190.757)" fill="#fff"/>
      <path id="Trazado_3443" data-name="Trazado 3443" d="M247.75-184.536v-3.811h-.9v-.579h.9V-190.5h.658v1.572h1.01v.579h-1.01v3.811Z" transform="translate(-164.612 190.753)" fill="#fff"/>
      <path id="Trazado_3444" data-name="Trazado 3444" d="M252.438-188.749a2.088,2.088,0,0,1,1.6.658,2.286,2.286,0,0,1,.579,1.607,2.286,2.286,0,0,1-.579,1.606,2.086,2.086,0,0,1-1.6.659,2.083,2.083,0,0,1-1.6-.659,2.286,2.286,0,0,1-.579-1.606,2.286,2.286,0,0,1,.579-1.607A2.085,2.085,0,0,1,252.438-188.749Zm0,3.934a1.388,1.388,0,0,0,1.124-.492,1.753,1.753,0,0,0,.4-1.176,1.755,1.755,0,0,0-.4-1.177,1.391,1.391,0,0,0-1.124-.492,1.392,1.392,0,0,0-1.124.492,1.755,1.755,0,0,0-.395,1.177,1.752,1.752,0,0,0,.395,1.176A1.389,1.389,0,0,0,252.438-184.815Z" transform="translate(-165.094 190.505)" fill="#fff"/>
      <path id="Trazado_3445" data-name="Trazado 3445" d="M258.877-187.5q-.088-.685-1.1-.685t-1.015.633a.443.443,0,0,0,.216.4,1.95,1.95,0,0,0,.54.224c.216.058.452.112.706.162a3.6,3.6,0,0,1,.707.211,1.514,1.514,0,0,1,.541.373.936.936,0,0,1,.215.65,1.123,1.123,0,0,1-.483.98,2.243,2.243,0,0,1-1.307.338,2.092,2.092,0,0,1-1.4-.44,1.344,1.344,0,0,1-.509-1.01h.685a.916.916,0,0,0,.685.816,1.514,1.514,0,0,0,.452.07,3.018,3.018,0,0,0,.416-.027,1.708,1.708,0,0,0,.378-.1.584.584,0,0,0,.422-.571.474.474,0,0,0-.216-.417,1.909,1.909,0,0,0-.54-.237c-.216-.062-.452-.117-.706-.167a3.793,3.793,0,0,1-.707-.207,1.5,1.5,0,0,1-.54-.36.886.886,0,0,1-.215-.633,1.094,1.094,0,0,1,.434-.925,2.11,2.11,0,0,1,1.287-.33,1.935,1.935,0,0,1,1.273.386,1.264,1.264,0,0,1,.447.86Z" transform="translate(-165.905 190.505)" fill="#fff"/>
    </g>
    <g id="Grupo_1332" data-name="Grupo 1332" transform="translate(180.653 -242.019)">
      <path id="Trazado_3446" data-name="Trazado 3446" d="M198.1-230.6a2.6,2.6,0,0,1-1.258.317,2.563,2.563,0,0,1-1.87-.774,2.588,2.588,0,0,1-.77-1.869,2.565,2.565,0,0,1,.767-1.862,2.549,2.549,0,0,1,1.868-.778,2.628,2.628,0,0,1,1.193.28,2.555,2.555,0,0,1,.935.79l-.517.36a1.936,1.936,0,0,0-.708-.593,2.013,2.013,0,0,0-.9-.211,1.936,1.936,0,0,0-1.416.591,1.93,1.93,0,0,0-.6,1.423,1.931,1.931,0,0,0,.6,1.423,1.93,1.93,0,0,0,1.416.588,1.921,1.921,0,0,0,1.581-.762v-.935h-1.581v-.633h2.207v1.768A2.6,2.6,0,0,1,198.1-230.6Z" transform="translate(-194.204 235.584)" fill="#fff"/>
      <path id="Trazado_3447" data-name="Trazado 3447" d="M204.326-230.4l-1.144-1.761a1.04,1.04,0,0,0-.942-.437h-.755l0,2.2h-.626l0-5.032h2.135a1.656,1.656,0,0,1,1.093.387,1.324,1.324,0,0,1,.482,1.028,1.263,1.263,0,0,1-.323.863,1.527,1.527,0,0,1-.812.5c.119.01.285.175.5.5l1.144,1.76Zm-.693-4.2a1.033,1.033,0,0,0-.64-.2h-1.509v1.567h1.51a.983.983,0,0,0,.64-.209.685.685,0,0,0,.3-.575A.705.705,0,0,0,203.633-234.6Z" transform="translate(-195.146 235.564)" fill="#fff"/>
      <path id="Trazado_3448" data-name="Trazado 3448" d="M209.664-230.872a1.939,1.939,0,0,1-1.422.6,1.942,1.942,0,0,1-1.424-.595,1.928,1.928,0,0,1-.59-1.416l0-3.149h.625l0,3.148a1.363,1.363,0,0,0,.4.978,1.34,1.34,0,0,0,.985.4,1.334,1.334,0,0,0,.978-.4,1.365,1.365,0,0,0,.4-.978l0-3.149h.633l0,3.148A1.933,1.933,0,0,1,209.664-230.872Z" transform="translate(-195.905 235.565)" fill="#fff"/>
      <path id="Trazado_3449" data-name="Trazado 3449" d="M215.156-233a1.655,1.655,0,0,1-1.092.4l-1.509,0,0,2.2h-.626l0-5.032,2.135,0a1.661,1.661,0,0,1,1.093.387,1.325,1.325,0,0,1,.482,1.028A1.289,1.289,0,0,1,215.156-233Zm-.453-1.6a1.034,1.034,0,0,0-.64-.2l-1.509,0v1.567h1.51a.989.989,0,0,0,.639-.209.684.684,0,0,0,.3-.575A.707.707,0,0,0,214.7-234.606Z" transform="translate(-196.712 235.565)" fill="#fff"/>
      <path id="Trazado_3450" data-name="Trazado 3450" d="M221.4-231.081a2.551,2.551,0,0,1-1.869.778,2.547,2.547,0,0,1-1.869-.775,2.575,2.575,0,0,1-.771-1.868,2.575,2.575,0,0,1,.768-1.87,2.542,2.542,0,0,1,1.868-.77,2.54,2.54,0,0,1,1.869.767,2.543,2.543,0,0,1,.778,1.868A2.547,2.547,0,0,1,221.4-231.081Zm-.448-3.292a1.942,1.942,0,0,0-1.424-.588,1.934,1.934,0,0,0-1.416.591,1.928,1.928,0,0,0-.595,1.423,1.926,1.926,0,0,0,.6,1.423,1.933,1.933,0,0,0,1.416.588,1.941,1.941,0,0,0,1.423-.591,1.939,1.939,0,0,0,.589-1.423A1.943,1.943,0,0,0,220.955-234.373Z" transform="translate(-197.415 235.586)" fill="#fff"/>
    </g>
    <g id="Grupo_1333" data-name="Grupo 1333" transform="translate(131.008 -233.183)">
      <path id="Trazado_3451" data-name="Trazado 3451" d="M148.009-225.293l-11.635,24.709H138.4l3.814-8.063H152.57l3.693,8.063h4.127l-11.375-24.709Zm-5.08,15.085,4.509-9.554,4.387,9.554Z" transform="translate(-136.374 225.293)" fill="#fff"/>
      <path id="Trazado_3452" data-name="Trazado 3452" d="M181.6-213.107a7.68,7.68,0,0,0,1.872-1.369,5.755,5.755,0,0,0,1.205-1.768,5.239,5.239,0,0,0,.425-2.108,5.738,5.738,0,0,0-.555-2.522,5.529,5.529,0,0,0-1.647-1.994,8.053,8.053,0,0,0-2.731-1.309,13.967,13.967,0,0,0-3.824-.469h-8.358v24.155h4.058V-211.85h2.843l8.392,11.358h4.7l-8.791-11.722A10.022,10.022,0,0,0,181.6-213.107Zm-4.69-.32a8.37,8.37,0,0,1-2.523.364h-2.341v-10.074h3.572a5.594,5.594,0,0,1,2.046.364,4.813,4.813,0,0,1,1.612,1.014,4.607,4.607,0,0,1,1.058,1.561,5.09,5.09,0,0,1,.381,1.986,4.7,4.7,0,0,1-.476,2.132,4.732,4.732,0,0,1-1.327,1.622A6.268,6.268,0,0,1,176.906-213.428Z" transform="translate(-140.848 225.202)" fill="#fff"/>
      <path id="Trazado_3453" data-name="Trazado 3453" d="M201.26-220.611a9.275,9.275,0,0,1,3.173-2.185,10.027,10.027,0,0,1,3.919-.763,7.1,7.1,0,0,1,4.3,1.369,12.185,12.185,0,0,1,3.4,4.3l1.751-1.18a15.144,15.144,0,0,0-1.786-2.34,12.013,12.013,0,0,0-2.384-1.986,12.648,12.648,0,0,0-2.965-1.379,11.551,11.551,0,0,0-3.546-.52,15.019,15.019,0,0,0-3.815.468,13.91,13.91,0,0,0-3.286,1.309,12.65,12.65,0,0,0-2.7,2.02,12.388,12.388,0,0,0-2.02,2.593,12.612,12.612,0,0,0-1.266,3.018,12.382,12.382,0,0,0-.442,3.3,12.5,12.5,0,0,0,.434,3.295,12.491,12.491,0,0,0,1.24,2.991,12.184,12.184,0,0,0,1.977,2.558,12.043,12.043,0,0,0,2.653,1.985,13.81,13.81,0,0,0,3.251,1.283,14.953,14.953,0,0,0,3.763.459,12.705,12.705,0,0,0,3.763-.52,12.224,12.224,0,0,0,3.018-1.379,11.538,11.538,0,0,0,2.35-1.985,16.156,16.156,0,0,0,1.76-2.341l-1.7-1.093a11.8,11.8,0,0,1-1.318,2.021,10.81,10.81,0,0,1-1.812,1.786,9.585,9.585,0,0,1-2.193,1.283,6.276,6.276,0,0,1-2.444.494,10.494,10.494,0,0,1-3.963-.737,8.959,8.959,0,0,1-3.164-2.132,9.979,9.979,0,0,1-2.1-3.408,12.777,12.777,0,0,1-.763-4.56,12.671,12.671,0,0,1,.78-4.577A10.3,10.3,0,0,1,201.26-220.611Z" transform="translate(-144.472 225.293)" fill="#fff"/>
      <path id="Trazado_3454" data-name="Trazado 3454" d="M240.13-211.144a13.3,13.3,0,0,0-2.185-1.6q-1.232-.729-2.506-1.4t-2.505-1.327a16.7,16.7,0,0,1-2.186-1.361,7.483,7.483,0,0,1-1.543-1.5,2.844,2.844,0,0,1-.59-1.743,3.273,3.273,0,0,1,.286-1.327,3.443,3.443,0,0,1,.85-1.161,4.358,4.358,0,0,1,1.422-.832,5.715,5.715,0,0,1,2-.321,7.007,7.007,0,0,1,2.307.355,5.732,5.732,0,0,1,1.811,1.015,6.386,6.386,0,0,1,1.353,1.578,9.57,9.57,0,0,1,.927,2.029l2.081-.954a8,8,0,0,0-2.87-4.161,9.061,9.061,0,0,0-5.418-1.44,10.537,10.537,0,0,0-3.373.495,7.3,7.3,0,0,0-2.471,1.361A5.711,5.711,0,0,0,226-221.383a6.345,6.345,0,0,0-.52,2.575,5.1,5.1,0,0,0,.573,2.454,7.317,7.317,0,0,0,1.5,1.925,12.174,12.174,0,0,0,2.124,1.561q1.2.7,2.436,1.344t2.436,1.275a14.123,14.123,0,0,1,2.124,1.362,6.874,6.874,0,0,1,1.5,1.586,3.461,3.461,0,0,1,.573,1.968,3.123,3.123,0,0,1-.416,1.622,3.849,3.849,0,0,1-1.1,1.187,4.971,4.971,0,0,1-1.561.729,6.615,6.615,0,0,1-1.778.242,7.231,7.231,0,0,1-2.228-.337,6.37,6.37,0,0,1-1.908-.989,6.764,6.764,0,0,1-1.5-1.586,8.154,8.154,0,0,1-1.023-2.115l-2.185.9a10.157,10.157,0,0,0,1.231,2.393,7.211,7.211,0,0,0,1.8,1.786,7.913,7.913,0,0,0,2.418,1.11,11.594,11.594,0,0,0,3.1.381,11.824,11.824,0,0,0,3.771-.546,7.988,7.988,0,0,0,2.714-1.491,6.1,6.1,0,0,0,1.639-2.2,6.693,6.693,0,0,0,.546-2.7,4.546,4.546,0,0,0-.59-2.3A7.8,7.8,0,0,0,240.13-211.144Z" transform="translate(-148.923 225.293)" fill="#fff"/>
      <path id="Trazado_3455" data-name="Trazado 3455" d="M259.64-225.293h-1.006L247-200.584h2.029l3.814-8.063H263.2l3.693,8.063h4.127Zm-6.087,15.085,4.509-9.554,4.387,9.554Z" transform="translate(-152.03 225.293)" fill="#fff"/>
    </g>
    <g id="Grupo_1334" data-name="Grupo 1334" transform="translate(304.642 -239.96)">
      <path id="Trazado_3456" data-name="Trazado 3456" d="M338.633-229.531h4.482a14.755,14.755,0,0,1,5.244.671,5.341,5.341,0,0,1,2.536,2.174,6.715,6.715,0,0,1,.928,3.6,6.044,6.044,0,0,1-1.215,3.863,6.308,6.308,0,0,1-3.3,2.143,18.94,18.94,0,0,1-4.452.347v9.4h-4.225Zm4.225,8.677H344.2a7.232,7.232,0,0,0,2.2-.227,1.956,1.956,0,0,0,.974-.749,2.2,2.2,0,0,0,.355-1.264,2.023,2.023,0,0,0-1-1.878,5.68,5.68,0,0,0-2.686-.439h-1.192Z" transform="translate(-338.633 232.67)" fill="#fff"/>
      <path id="Trazado_3457" data-name="Trazado 3457" d="M357.161-222.868h3.531v2.067a4.411,4.411,0,0,1,1.524-1.856,3.681,3.681,0,0,1,2.083-.634,3.853,3.853,0,0,1,1.675.423l-1.283,3.546a2.821,2.821,0,0,0-1.192-.362,1.887,1.887,0,0,0-1.607,1.177,10.781,10.781,0,0,0-.656,4.618l.015.8v6.64h-4.089Z" transform="translate(-341.255 231.786)" fill="#fff"/>
      <path id="Trazado_3458" data-name="Trazado 3458" d="M377.379-223.291a8.707,8.707,0,0,1,4.369,1.162,8.392,8.392,0,0,1,3.191,3.154,8.472,8.472,0,0,1,1.147,4.3,8.625,8.625,0,0,1-1.154,4.346,8.341,8.341,0,0,1-3.146,3.162,8.7,8.7,0,0,1-4.392,1.139,8.19,8.19,0,0,1-6.028-2.513,8.333,8.333,0,0,1-2.5-6.1,8.3,8.3,0,0,1,2.822-6.414A8.246,8.246,0,0,1,377.379-223.291Zm.068,3.879a4.239,4.239,0,0,0-3.2,1.336,4.742,4.742,0,0,0-1.277,3.418,4.828,4.828,0,0,0,1.263,3.471,4.218,4.218,0,0,0,3.2,1.328,4.269,4.269,0,0,0,3.219-1.343,4.794,4.794,0,0,0,1.285-3.456,4.765,4.765,0,0,0-1.262-3.433A4.27,4.27,0,0,0,377.447-219.412Z" transform="translate(-342.912 231.786)" fill="#fff"/>
      <path id="Trazado_3459" data-name="Trazado 3459" d="M393.076-229.847H397.2v6.051h2.444v3.546H397.2v12.872h-4.121v-12.872h-2.113V-223.8h2.113Z" transform="translate(-346.039 232.714)" fill="#fff"/>
      <path id="Trazado_3460" data-name="Trazado 3460" d="M419.959-213.467H406.725a4.4,4.4,0,0,0,1.531,2.784,4.8,4.8,0,0,0,3.176,1.034,5.492,5.492,0,0,0,3.969-1.615l3.471,1.63a8.2,8.2,0,0,1-3.109,2.724,9.727,9.727,0,0,1-4.3.883,8.5,8.5,0,0,1-6.293-2.437,8.3,8.3,0,0,1-2.429-6.1,8.578,8.578,0,0,1,2.422-6.24,8.135,8.135,0,0,1,6.075-2.483,8.434,8.434,0,0,1,6.307,2.483,8.971,8.971,0,0,1,2.43,6.557Zm-4.12-3.244a4.133,4.133,0,0,0-1.61-2.234,4.671,4.671,0,0,0-2.789-.86,4.93,4.93,0,0,0-3.023.966,5.382,5.382,0,0,0-1.512,2.128Z" transform="translate(-347.706 231.786)" fill="#fff"/>
      <path id="Trazado_3461" data-name="Trazado 3461" d="M438.7-222.868H442.8V-208.8q0,4.166-1.675,6.127-2.25,2.657-6.776,2.656a11.867,11.867,0,0,1-4.06-.6,7.3,7.3,0,0,1-2.776-1.774,7.223,7.223,0,0,1-1.675-2.844h4.542a3.76,3.76,0,0,0,1.554,1.049,6.446,6.446,0,0,0,2.249.355,5.93,5.93,0,0,0,2.671-.513,3.092,3.092,0,0,0,1.426-1.328,6.73,6.73,0,0,0,.415-2.806,6.821,6.821,0,0,1-2.278,1.562,7.243,7.243,0,0,1-2.7.476,7.422,7.422,0,0,1-5.584-2.385,8.382,8.382,0,0,1-2.279-6.036,8.4,8.4,0,0,1,2.415-6.277,7.2,7.2,0,0,1,5.221-2.144,6.947,6.947,0,0,1,2.678.521,8.466,8.466,0,0,1,2.527,1.713Zm-4.27,3.425a4.29,4.29,0,0,0-3.214,1.3,4.52,4.52,0,0,0-1.268,3.283,4.586,4.586,0,0,0,1.3,3.365,4.4,4.4,0,0,0,3.26,1.313,4.216,4.216,0,0,0,3.161-1.283,4.627,4.627,0,0,0,1.246-3.365,4.573,4.573,0,0,0-1.253-3.335A4.317,4.317,0,0,0,434.425-219.442Z" transform="translate(-350.975 231.786)" fill="#fff"/>
      <path id="Trazado_3462" data-name="Trazado 3462" d="M451.888-230.673a2.518,2.518,0,0,1,1.859.785,2.6,2.6,0,0,1,.775,1.9,2.575,2.575,0,0,1-.768,1.878,2.49,2.49,0,0,1-1.836.777,2.521,2.521,0,0,1-1.873-.792,2.647,2.647,0,0,1-.774-1.924,2.534,2.534,0,0,1,.767-1.856A2.519,2.519,0,0,1,451.888-230.673Zm-2.06,6.76h4.12v16.418h-4.12Z" transform="translate(-354.291 232.831)" fill="#fff"/>
      <path id="Trazado_3463" data-name="Trazado 3463" d="M475.4-213.467H462.166a4.411,4.411,0,0,0,1.531,2.784,4.807,4.807,0,0,0,3.177,1.034,5.492,5.492,0,0,0,3.969-1.615l3.471,1.63a8.2,8.2,0,0,1-3.109,2.724,9.733,9.733,0,0,1-4.3.883,8.5,8.5,0,0,1-6.293-2.437,8.293,8.293,0,0,1-2.429-6.1,8.574,8.574,0,0,1,2.422-6.24,8.134,8.134,0,0,1,6.074-2.483,8.436,8.436,0,0,1,6.308,2.483,8.975,8.975,0,0,1,2.43,6.557Zm-4.12-3.244a4.133,4.133,0,0,0-1.61-2.234,4.667,4.667,0,0,0-2.789-.86,4.933,4.933,0,0,0-3.023.966,5.382,5.382,0,0,0-1.512,2.128Z" transform="translate(-355.552 231.786)" fill="#fff"/>
      <path id="Trazado_3464" data-name="Trazado 3464" d="M482.124-222.868h4.12v1.683a9.879,9.879,0,0,1,2.539-1.643,6.137,6.137,0,0,1,2.329-.463,5.639,5.639,0,0,1,4.144,1.706,5.858,5.858,0,0,1,1.431,4.286v10.85h-4.074v-7.19a18.233,18.233,0,0,0-.264-3.9,2.674,2.674,0,0,0-.919-1.47,2.572,2.572,0,0,0-1.618-.5,3.031,3.031,0,0,0-2.145.837,4.464,4.464,0,0,0-1.242,2.314,18.7,18.7,0,0,0-.18,3.331v6.587h-4.12Z" transform="translate(-358.941 231.786)" fill="#fff"/>
      <path id="Trazado_3465" data-name="Trazado 3465" d="M515.721-230.181h4.12v22.756h-4.12v-1.736a8.079,8.079,0,0,1-2.42,1.653,6.757,6.757,0,0,1-2.63.506,7.3,7.3,0,0,1-5.5-2.467,8.606,8.606,0,0,1-2.321-6.135,8.818,8.818,0,0,1,2.246-6.232,7.154,7.154,0,0,1,5.456-2.43,6.93,6.93,0,0,1,2.774.559,7.562,7.562,0,0,1,2.4,1.675Zm-4.331,9.718a4.163,4.163,0,0,0-3.173,1.35,4.866,4.866,0,0,0-1.264,3.464,4.918,4.918,0,0,0,1.286,3.5,4.165,4.165,0,0,0,3.165,1.373,4.242,4.242,0,0,0,3.218-1.35,4.933,4.933,0,0,0,1.279-3.539,4.791,4.791,0,0,0-1.279-3.471A4.3,4.3,0,0,0,511.39-220.463Z" transform="translate(-361.874 232.762)" fill="#fff"/>
      <path id="Trazado_3466" data-name="Trazado 3466" d="M535.073-223.291a8.7,8.7,0,0,1,4.368,1.162,8.388,8.388,0,0,1,3.192,3.154,8.472,8.472,0,0,1,1.147,4.3,8.618,8.618,0,0,1-1.155,4.346,8.329,8.329,0,0,1-3.146,3.162,8.692,8.692,0,0,1-4.391,1.139,8.19,8.19,0,0,1-6.028-2.513,8.333,8.333,0,0,1-2.5-6.1,8.3,8.3,0,0,1,2.822-6.414A8.244,8.244,0,0,1,535.073-223.291Zm.068,3.879a4.238,4.238,0,0,0-3.2,1.336,4.742,4.742,0,0,0-1.277,3.418,4.831,4.831,0,0,0,1.262,3.471,4.221,4.221,0,0,0,3.2,1.328,4.268,4.268,0,0,0,3.219-1.343,4.794,4.794,0,0,0,1.285-3.456,4.762,4.762,0,0,0-1.263-3.433A4.267,4.267,0,0,0,535.141-219.412Z" transform="translate(-365.23 231.786)" fill="#fff"/>
      <path id="Trazado_3467" data-name="Trazado 3467" d="M581.358-225.721,578.4-222.9a9.151,9.151,0,0,0-6.785-3.187,7.291,7.291,0,0,0-5.36,2.175,7.28,7.28,0,0,0-2.179,5.363,7.934,7.934,0,0,0,.965,3.943,6.922,6.922,0,0,0,2.729,2.7,7.921,7.921,0,0,0,3.921.982,8.076,8.076,0,0,0,3.362-.688,12.039,12.039,0,0,0,3.347-2.5l2.865,2.989a15.747,15.747,0,0,1-4.648,3.329,12.686,12.686,0,0,1-5,.928,11.5,11.5,0,0,1-8.473-3.282,11.366,11.366,0,0,1-3.3-8.413,11.507,11.507,0,0,1,1.5-5.9,11.163,11.163,0,0,1,4.3-4.15,12.128,12.128,0,0,1,6.029-1.569,12.6,12.6,0,0,1,5.289,1.16A12.653,12.653,0,0,1,581.358-225.721Z" transform="translate(-369.941 232.762)" fill="#fff"/>
      <path id="Trazado_3468" data-name="Trazado 3468" d="M587.558-222.868h3.531v2.067a4.41,4.41,0,0,1,1.524-1.856,3.681,3.681,0,0,1,2.083-.634,3.853,3.853,0,0,1,1.675.423l-1.283,3.546a2.821,2.821,0,0,0-1.192-.362,1.887,1.887,0,0,0-1.607,1.177,10.784,10.784,0,0,0-.656,4.618l.015.8v6.64h-4.089Z" transform="translate(-373.862 231.786)" fill="#fff"/>
      <path id="Trazado_3469" data-name="Trazado 3469" d="M616.518-214.867H603.283a4.408,4.408,0,0,0,1.532,2.784,4.8,4.8,0,0,0,3.176,1.034,5.492,5.492,0,0,0,3.969-1.615l3.471,1.63a8.2,8.2,0,0,1-3.109,2.724,9.729,9.729,0,0,1-4.3.883,8.5,8.5,0,0,1-6.293-2.437,8.293,8.293,0,0,1-2.429-6.1,8.574,8.574,0,0,1,2.422-6.24,8.134,8.134,0,0,1,6.074-2.483,8.436,8.436,0,0,1,6.308,2.483,8.971,8.971,0,0,1,2.429,6.557Zm-4.119-3.244a4.141,4.141,0,0,0-1.61-2.234,4.67,4.67,0,0,0-2.789-.86,4.934,4.934,0,0,0-3.024.966,5.382,5.382,0,0,0-1.512,2.128Zm-3.849-15.076h4.874l-5.523,5.916h-2.957Z" transform="translate(-375.524 233.187)" fill="#fff"/>
      <path id="Trazado_3470" data-name="Trazado 3470" d="M635.234-230.181h4.12v22.756h-4.12v-1.736a8.075,8.075,0,0,1-2.419,1.653,6.76,6.76,0,0,1-2.63.506,7.307,7.307,0,0,1-5.5-2.467,8.61,8.61,0,0,1-2.321-6.135,8.814,8.814,0,0,1,2.247-6.232,7.154,7.154,0,0,1,5.456-2.43,6.926,6.926,0,0,1,2.773.559,7.553,7.553,0,0,1,2.4,1.675Zm-4.33,9.718a4.165,4.165,0,0,0-3.174,1.35,4.869,4.869,0,0,0-1.263,3.464,4.918,4.918,0,0,0,1.286,3.5,4.165,4.165,0,0,0,3.165,1.373,4.242,4.242,0,0,0,3.219-1.35,4.936,4.936,0,0,0,1.278-3.539,4.794,4.794,0,0,0-1.278-3.471A4.3,4.3,0,0,0,630.9-220.463Z" transform="translate(-378.788 232.762)" fill="#fff"/>
      <path id="Trazado_3471" data-name="Trazado 3471" d="M648.447-230.673a2.52,2.52,0,0,1,1.859.785,2.6,2.6,0,0,1,.774,1.9,2.577,2.577,0,0,1-.767,1.878,2.491,2.491,0,0,1-1.836.777,2.524,2.524,0,0,1-1.874-.792,2.651,2.651,0,0,1-.774-1.924,2.534,2.534,0,0,1,.768-1.856A2.516,2.516,0,0,1,648.447-230.673Zm-2.06,6.76h4.12v16.418h-4.12Z" transform="translate(-382.109 232.831)" fill="#fff"/>
      <path id="Trazado_3472" data-name="Trazado 3472" d="M655.87-229.847h4.12v6.051h2.444v3.546H659.99v12.872h-4.12v-12.872h-2.113V-223.8h2.113Z" transform="translate(-383.231 232.714)" fill="#fff"/>
      <path id="Trazado_3473" data-name="Trazado 3473" d="M674.01-223.291a8.705,8.705,0,0,1,4.369,1.162,8.394,8.394,0,0,1,3.192,3.154,8.481,8.481,0,0,1,1.147,4.3,8.626,8.626,0,0,1-1.155,4.346,8.335,8.335,0,0,1-3.146,3.162,8.7,8.7,0,0,1-4.391,1.139A8.191,8.191,0,0,1,668-208.54a8.336,8.336,0,0,1-2.5-6.1,8.308,8.308,0,0,1,2.822-6.414A8.245,8.245,0,0,1,674.01-223.291Zm.068,3.879a4.237,4.237,0,0,0-3.2,1.336,4.739,4.739,0,0,0-1.278,3.418,4.831,4.831,0,0,0,1.263,3.471,4.22,4.22,0,0,0,3.2,1.328,4.268,4.268,0,0,0,3.219-1.343,4.793,4.793,0,0,0,1.285-3.456,4.765,4.765,0,0,0-1.263-3.433A4.268,4.268,0,0,0,674.078-219.412Z" transform="translate(-384.893 231.786)" fill="#fff"/>
      <path id="Trazado_3474" data-name="Trazado 3474" d="M699.312-220.574l-2.551,2.55a4.315,4.315,0,0,0-2.822-1.539,1.78,1.78,0,0,0-1.087.294.885.885,0,0,0-.392.732.9.9,0,0,0,.249.61,4.65,4.65,0,0,0,1.23.762l1.509.755a8.894,8.894,0,0,1,3.274,2.4,4.742,4.742,0,0,1,.89,2.867,4.737,4.737,0,0,1-1.607,3.652,6.155,6.155,0,0,1-4.308,1.464,6.847,6.847,0,0,1-5.735-2.807L690.5-211.6a5.848,5.848,0,0,0,1.7,1.365,3.747,3.747,0,0,0,1.727.521,2.066,2.066,0,0,0,1.313-.392,1.139,1.139,0,0,0,.5-.906q0-.95-1.8-1.856l-1.388-.695q-3.984-2.006-3.984-5.025a4.36,4.36,0,0,1,1.5-3.327,5.454,5.454,0,0,1,3.841-1.381,6.665,6.665,0,0,1,3.01.7A6.66,6.66,0,0,1,699.312-220.574Z" transform="translate(-388.072 231.786)" fill="#fff"/>
    </g>
    <g id="Grupo_1335" data-name="Grupo 1335" transform="translate(439.119 -209.671)">
      <path id="Trazado_3475" data-name="Trazado 3475" d="M504.036-173.4a12.626,12.626,0,0,0,2.431-.216,14.62,14.62,0,0,0,2.188-.615V-172a8.723,8.723,0,0,1-2.18.684,14.668,14.668,0,0,1-2.786.251,11.832,11.832,0,0,1-3.313-.45,6.855,6.855,0,0,1-2.681-1.453,6.742,6.742,0,0,1-1.774-2.621,10.6,10.6,0,0,1-.64-3.9,11.066,11.066,0,0,1,.622-3.9,8.206,8.206,0,0,1,1.657-2.76,6.765,6.765,0,0,1,2.381-1.662,7.346,7.346,0,0,1,2.813-.553,7.183,7.183,0,0,1,2.581.458,5.293,5.293,0,0,1,2.08,1.445,7.053,7.053,0,0,1,1.389,2.544,12.083,12.083,0,0,1,.51,3.737v.355q0,.147-.018.667h-11.35a6.714,6.714,0,0,0,.476,2.673,4.7,4.7,0,0,0,1.3,1.781,5.145,5.145,0,0,0,1.929.995A8.785,8.785,0,0,0,504.036-173.4ZM502.62-186.07a4.112,4.112,0,0,0-1.726.362,4.467,4.467,0,0,0-1.392.987,4.973,4.973,0,0,0-.963,1.462,5.728,5.728,0,0,0-.456,1.791h8.41a6.234,6.234,0,0,0-.254-1.809,4.4,4.4,0,0,0-.744-1.462,3.5,3.5,0,0,0-1.209-.977A3.715,3.715,0,0,0,502.62-186.07Z" transform="translate(-495.28 196.556)" fill="#fff"/>
      <path id="Trazado_3476" data-name="Trazado 3476" d="M519.522-185.656h.052a8.609,8.609,0,0,1,.994-1.064,6.476,6.476,0,0,1,1.22-.865,6.3,6.3,0,0,1,1.479-.579,7.03,7.03,0,0,1,1.756-.208,6.992,6.992,0,0,1,2.111.311,4.338,4.338,0,0,1,1.713,1A4.8,4.8,0,0,1,530-185.249a7.77,7.77,0,0,1,.423,2.743v11H527.74v-10.571a4.606,4.606,0,0,0-.822-3.064,3.023,3.023,0,0,0-2.4-.933,5.187,5.187,0,0,0-2.682.769,7.148,7.148,0,0,0-2.231,2.12V-171.5h-2.682v-16.437H519Z" transform="translate(-498.344 196.556)" fill="#fff"/>
      <path id="Trazado_3477" data-name="Trazado 3477" d="M554.6-173.4a12.626,12.626,0,0,0,2.431-.216,14.661,14.661,0,0,0,2.189-.615V-172a8.747,8.747,0,0,1-2.181.684,14.667,14.667,0,0,1-2.786.251,11.834,11.834,0,0,1-3.314-.45,6.855,6.855,0,0,1-2.681-1.453,6.739,6.739,0,0,1-1.774-2.621,10.6,10.6,0,0,1-.641-3.9,11.087,11.087,0,0,1,.621-3.9,8.22,8.22,0,0,1,1.657-2.76,6.773,6.773,0,0,1,2.381-1.662,7.348,7.348,0,0,1,2.814-.553,7.189,7.189,0,0,1,2.581.458,5.29,5.29,0,0,1,2.079,1.445,7.066,7.066,0,0,1,1.39,2.544,12.11,12.11,0,0,1,.509,3.737v.355q0,.147-.017.667H548.514a6.713,6.713,0,0,0,.476,2.673,4.681,4.681,0,0,0,1.3,1.781,5.13,5.13,0,0,0,1.929.995A8.778,8.778,0,0,0,554.6-173.4Zm-1.416-12.666a4.111,4.111,0,0,0-1.725.362,4.461,4.461,0,0,0-1.392.987,4.977,4.977,0,0,0-.963,1.462,5.729,5.729,0,0,0-.457,1.791h8.41a6.2,6.2,0,0,0-.254-1.809,4.4,4.4,0,0,0-.744-1.462,3.494,3.494,0,0,0-1.209-.977A3.713,3.713,0,0,0,553.189-186.07Z" transform="translate(-502.437 196.556)" fill="#fff"/>
      <path id="Trazado_3478" data-name="Trazado 3478" d="M567.7-172.851v-25.054h2.682v25.054Z" transform="translate(-505.529 197.905)" fill="#fff"/>
      <path id="Trazado_3479" data-name="Trazado 3479" d="M598.761-171.5h-2.682v-10.571a6.2,6.2,0,0,0-.234-1.826,3.24,3.24,0,0,0-.675-1.238,2.648,2.648,0,0,0-1.056-.709,3.984,3.984,0,0,0-1.375-.224,4.667,4.667,0,0,0-2.612.769,7.775,7.775,0,0,0-2.111,2.12V-171.5h-2.682v-16.437h2.077l.519,2.284h.052a9.422,9.422,0,0,1,.978-1.064,6.288,6.288,0,0,1,1.176-.865,5.909,5.909,0,0,1,1.428-.579,6.571,6.571,0,0,1,1.7-.208,5.036,5.036,0,0,1,3.045.883,5.686,5.686,0,0,1,1.869,2.4h.07a8.753,8.753,0,0,1,2.495-2.413,6.075,6.075,0,0,1,3.276-.874,7.59,7.59,0,0,1,1.836.242,4.658,4.658,0,0,1,1.786.891,4.91,4.91,0,0,1,1.351,1.791,6.942,6.942,0,0,1,.537,2.942v11h-2.682v-10.571a6.2,6.2,0,0,0-.234-1.826,3.23,3.23,0,0,0-.674-1.238,2.651,2.651,0,0,0-1.055-.709,4,4,0,0,0-1.376-.224,4.712,4.712,0,0,0-2.622.769,7.7,7.7,0,0,0-2.119,2.12Z" transform="translate(-508.025 196.556)" fill="#fff"/>
      <path id="Trazado_3480" data-name="Trazado 3480" d="M626.032-171a8.8,8.8,0,0,1-2.3-.276,6.267,6.267,0,0,1-1.791-.779,5.227,5.227,0,0,1-1.307-1.2,5.989,5.989,0,0,1-.848-1.531,6.1,6.1,0,0,1-.346-1.367,11.9,11.9,0,0,1-.1-1.627v-10.087h2.683v10.07a6.235,6.235,0,0,0,.363,2.284,3.4,3.4,0,0,0,1.34,1.636,4.289,4.289,0,0,0,2.363.6,4.141,4.141,0,0,0,2.448-.658,3.6,3.6,0,0,0,1.324-1.764,6.455,6.455,0,0,0,.294-2.094v-10.07h2.682v10.1a11.629,11.629,0,0,1-.1,1.549,6.806,6.806,0,0,1-.3,1.324,5.962,5.962,0,0,1-.856,1.566,5.327,5.327,0,0,1-1.342,1.238,6.475,6.475,0,0,1-1.842.8A8.982,8.982,0,0,1,626.032-171Z" transform="translate(-512.837 196.485)" fill="#fff"/>
      <path id="Trazado_3481" data-name="Trazado 3481" d="M643.5-185.656h.051a8.687,8.687,0,0,1,1-1.064,6.469,6.469,0,0,1,1.219-.865,6.325,6.325,0,0,1,1.48-.579,7.029,7.029,0,0,1,1.756-.208,7,7,0,0,1,2.111.311,4.338,4.338,0,0,1,1.713,1,4.8,4.8,0,0,1,1.151,1.808,7.767,7.767,0,0,1,.423,2.743v11h-2.682v-10.571a4.606,4.606,0,0,0-.822-3.064,3.024,3.024,0,0,0-2.4-.933,5.187,5.187,0,0,0-2.682.769,7.151,7.151,0,0,0-2.232,2.12V-171.5H640.9v-16.437h2.077Z" transform="translate(-515.889 196.556)" fill="#fff"/>
      <path id="Trazado_3482" data-name="Trazado 3482" d="M661.562-180.863a12.348,12.348,0,0,1,.337-3.036,9.479,9.479,0,0,1,.891-2.309,6.383,6.383,0,0,1,1.3-1.653,7.5,7.5,0,0,1,1.54-1.082,6.515,6.515,0,0,1,1.618-.6,7.129,7.129,0,0,1,1.548-.182,6.275,6.275,0,0,1,2.612.5,6.069,6.069,0,0,1,1.991,1.471h.052v-10.157h2.682v25.054h-2.024l-.554-1.834h-.07a8.234,8.234,0,0,1-.726.8,5,5,0,0,1-.978.736,5.376,5.376,0,0,1-1.3.528,6.571,6.571,0,0,1-1.7.2,7.918,7.918,0,0,1-2.648-.458,6.116,6.116,0,0,1-2.31-1.471,7.467,7.467,0,0,1-1.635-2.613A10.782,10.782,0,0,1,661.562-180.863Zm2.8-.034a9.567,9.567,0,0,0,.32,2.569,5.8,5.8,0,0,0,.925,1.956,4.1,4.1,0,0,0,1.489,1.237,4.54,4.54,0,0,0,2.024.433,4.96,4.96,0,0,0,1.54-.226,5.32,5.32,0,0,0,1.237-.571,5.372,5.372,0,0,0,.934-.735,5.236,5.236,0,0,0,.615-.718v-8.6a6.569,6.569,0,0,0-1.92-1.358,5.489,5.489,0,0,0-2.353-.51,4.941,4.941,0,0,0-1.6.286,3.92,3.92,0,0,0-1.557,1.029,5.694,5.694,0,0,0-1.186,2A9.347,9.347,0,0,0,664.364-180.9Z" transform="translate(-518.813 197.905)" fill="#fff"/>
      <path id="Trazado_3483" data-name="Trazado 3483" d="M699.279-179.7a10.684,10.684,0,0,1-.554,3.529,7.973,7.973,0,0,1-1.566,2.726,6.944,6.944,0,0,1-2.449,1.756,8.015,8.015,0,0,1-3.218.622,8.22,8.22,0,0,1-3.279-.622,6.924,6.924,0,0,1-2.456-1.756,7.723,7.723,0,0,1-1.549-2.726,10.987,10.987,0,0,1-.537-3.529,10.765,10.765,0,0,1,.553-3.547,8.043,8.043,0,0,1,1.567-2.734,6.86,6.86,0,0,1,2.457-1.764,8.064,8.064,0,0,1,3.227-.623,8.22,8.22,0,0,1,3.27.623,6.772,6.772,0,0,1,2.457,1.764,7.908,7.908,0,0,1,1.54,2.734A11.051,11.051,0,0,1,699.279-179.7Zm-2.8,0a9.047,9.047,0,0,0-.373-2.708,6.008,6.008,0,0,0-1.039-2.007,4.393,4.393,0,0,0-1.582-1.246,4.729,4.729,0,0,0-2.007-.424,4.726,4.726,0,0,0-2.007.424,4.405,4.405,0,0,0-1.584,1.246,6.02,6.02,0,0,0-1.038,2.007,9.044,9.044,0,0,0-.372,2.708,8.963,8.963,0,0,0,.372,2.69,5.8,5.8,0,0,0,1.047,2,4.5,4.5,0,0,0,1.591,1.237,4.735,4.735,0,0,0,2.008.424,4.666,4.666,0,0,0,2-.424,4.443,4.443,0,0,0,1.574-1.237,5.9,5.9,0,0,0,1.039-2A8.966,8.966,0,0,0,696.476-179.7Z" transform="translate(-521.942 196.556)" fill="#fff"/>
    </g>
    <path id="Trazado_3484" data-name="Trazado 3484" d="M302.86-223.684s-26.317,67.668-133.811,68.614c0,0,46.559,11.442,86.385-9.453h0v0C274.952-174.764,292.85-192.765,302.86-223.684Z" transform="translate(-9.991 -8.118)" fill="#fff"/>
    <path id="Trazado_3485" data-name="Trazado 3485" d="M98.456-201.331s18.708-84.9,120.556-77.513C219.012-278.844,110.808-301.507,98.456-201.331Z" fill="#fff"/>
  </g>
</svg>
