<svg xmlns="http://www.w3.org/2000/svg" width="74.19" height="105.201" viewBox="0 0 74.19 105.201"><defs><style>.a{fill:#0093a3;}</style></defs><path class="a" d="M141.57,0h-61.5a6.351,6.351,0,0,0-6.343,6.343V98.857a6.35,6.35,0,0,0,6.343,6.343h50.26a2.21,2.21,0,0,0,1.562-.647l15.378-15.378a2.208,2.208,0,0,0,.647-1.561V6.343A6.35,6.35,0,0,0,141.57,0Zm-9.035,97.661V91.749a1.929,1.929,0,0,1,1.927-1.927h5.912ZM80.066,4.417h61.5A1.929,1.929,0,0,1,143.5,6.343v6.825H78.14V6.343A1.929,1.929,0,0,1,80.066,4.417ZM78.14,98.857V17.585H143.5v67.82h-9.035a6.35,6.35,0,0,0-6.343,6.343v9.035H80.066A1.929,1.929,0,0,1,78.14,98.857Z" transform="translate(-73.723)"/><path class="a" d="M129.66,144.778h28.918a2.208,2.208,0,0,0,0-4.417H129.66a2.208,2.208,0,0,0,0,4.417Z" transform="translate(-116.152 -110.841)"/><path class="a" d="M309.16,144.778h7.466a2.208,2.208,0,0,0,0-4.417H309.16a2.208,2.208,0,0,0,0,4.417Z" transform="translate(-257.9 -110.841)"/><path class="a" d="M129.66,228.153h28.918a2.208,2.208,0,0,0,0-4.417H129.66a2.208,2.208,0,0,0,0,4.417Z" transform="translate(-116.152 -176.681)"/><path class="a" d="M309.16,228.153h7.466a2.208,2.208,0,0,0,0-4.417H309.16a2.208,2.208,0,0,0,0,4.417Z" transform="translate(-257.9 -176.681)"/><path class="a" d="M160.787,309.319a2.208,2.208,0,0,0-2.208-2.208H129.66a2.208,2.208,0,1,0,0,4.417h28.918A2.208,2.208,0,0,0,160.787,309.319Z" transform="translate(-116.152 -242.521)"/><path class="a" d="M309.16,311.528h7.466a2.208,2.208,0,1,0,0-4.417H309.16a2.208,2.208,0,0,0,0,4.417Z" transform="translate(-257.9 -242.521)"/><path class="a" d="M265.692,371.528a2.208,2.208,0,0,0,0-4.417H244.66a2.208,2.208,0,1,0,0,4.417Z" transform="translate(-206.966 -289.902)"/></svg>