<svg xmlns="http://www.w3.org/2000/svg" width="21.98" height="21.392" viewBox="0 0 21.98 21.392">
  <g id="Grupo_2564" data-name="Grupo 2564" transform="translate(-230.419 -202.294)">
    <path id="Trazado_3648" data-name="Trazado 3648" d="M238.212,217.658c.359-.427.7-.825,1.032-1.228q3.814-4.611,7.626-9.223c1.1-1.334,2.207-2.668,3.323-3.992a2.218,2.218,0,0,1,1.355-.91.672.672,0,0,1,.838.641,2.462,2.462,0,0,1-.479,1.629q-2.739,4.3-5.5,8.591-2.726,4.238-5.465,8.469c-.24.372-.461.758-.719,1.118a2.364,2.364,0,0,1-3.782-.027c-1.554-1.87-3.161-3.7-4.73-5.556a7.4,7.4,0,0,1-1.066-1.464,2.173,2.173,0,0,1,.852-2.809,2.262,2.262,0,0,1,2.816.3c.6.62,1.144,1.3,1.709,1.953.652.758,1.3,1.52,1.95,2.278C238.027,217.5,238.1,217.555,238.212,217.658Z" transform="translate(0)" fill="#0093a3"/>
  </g>
</svg>
