<?xml version="1.0" encoding="UTF-8" standalone="no"?>
<!DOCTYPE svg PUBLIC "-//W3C//DTD SVG 1.1//EN" "http://www.w3.org/Graphics/SVG/1.1/DTD/svg11.dtd">
<svg width="100%" height="100%" viewBox="0 0 22 22" version="1.1" xmlns="http://www.w3.org/2000/svg" xmlns:xlink="http://www.w3.org/1999/xlink" xml:space="preserve" xmlns:serif="http://www.serif.com/" style="fill-rule:evenodd;clip-rule:evenodd;stroke-linejoin:round;stroke-miterlimit:2;">
    <g id="Grupo_2564" transform="matrix(1,0,0,1,-230.419,-202.294)">
        <path id="Trazado_3648" d="M238.212,217.658C238.571,217.231 238.912,216.833 239.244,216.43C241.787,213.356 244.329,210.282 246.87,207.207C247.97,205.873 249.077,204.539 250.193,203.215C250.512,202.751 250.997,202.425 251.548,202.305C251.602,202.291 251.658,202.284 251.714,202.284C252.079,202.284 252.38,202.581 252.386,202.946C252.425,203.528 252.255,204.106 251.907,204.575C250.081,207.442 248.248,210.305 246.407,213.166C244.59,215.991 242.768,218.814 240.942,221.635C240.702,222.007 240.481,222.393 240.223,222.753C239.776,223.34 239.08,223.685 238.342,223.685C237.593,223.685 236.886,223.329 236.441,222.726C234.887,220.856 233.28,219.026 231.711,217.17C231.297,216.727 230.939,216.236 230.645,215.706C230.161,214.696 230.533,213.468 231.497,212.897C232.387,212.326 233.563,212.452 234.313,213.197C234.913,213.817 235.457,214.497 236.022,215.15C236.674,215.908 237.322,216.67 237.972,217.428C238.027,217.5 238.1,217.555 238.212,217.658Z" style="fill:rgb(253,156,21);fill-rule:nonzero;"/>
    </g>
</svg>
