<?xml version="1.0" encoding="UTF-8" standalone="no"?>
<!DOCTYPE svg PUBLIC "-//W3C//DTD SVG 1.1//EN" "http://www.w3.org/Graphics/SVG/1.1/DTD/svg11.dtd">
<svg width="100%" height="100%" viewBox="0 0 415 710" version="1.1" xmlns="http://www.w3.org/2000/svg" xmlns:xlink="http://www.w3.org/1999/xlink" xml:space="preserve" xmlns:serif="http://www.serif.com/" style="fill-rule:evenodd;clip-rule:evenodd;stroke-linejoin:round;stroke-miterlimit:2;">
    <path d="M414.408,116.065L414.408,628.354L0,710L0,0L414.408,116.065Z" style="fill:rgb(0,49,114);"/>
    <g>
        <clipPath id="_clip1">
            <path d="M414.408,116.065L414.408,628.354L0,710L0,0L414.408,116.065Z"/>
        </clipPath>
        <g clip-path="url(#_clip1)">
            <g id="elipse2" transform="matrix(1,0,0,1,414.408,370.209)">
                <g transform="matrix(1,0,0,1,-295,-295)">
                    <circle id="elipse21" serif:id="elipse2" cx="295" cy="295" r="295" style="fill:rgb(26,70,128);"/>
                </g>
            </g>
            <g id="elipse1" transform="matrix(1,0,0,1,414.408,370.209)">
                <g transform="matrix(1,0,0,1,-168,-168)">
                    <circle id="elipse11" serif:id="elipse1" cx="168" cy="168" r="168" style="fill:rgb(49,89,141);"/>
                </g>
            </g>
        </g>
    </g>
    <g id="Mesa-de-trabajo1" serif:id="Mesa de trabajo1" transform="matrix(8.77489,0,0,3.72689,-3790.91,-134.244)">
        <rect x="432.018" y="36.02" width="47.227" height="190.507" style="fill:none;"/>
    </g>
</svg>
