<svg xmlns="http://www.w3.org/2000/svg" width="111.293" height="160" viewBox="0 0 111.293 160"><defs><style>.a{fill:#0093a3;}</style></defs><g transform="translate(0 0)"><path class="a" d="M270.613,361.895A2.106,2.106,0,0,0,268.507,364v4.211a2.106,2.106,0,1,0,4.211,0V364A2.106,2.106,0,0,0,270.613,361.895Z" transform="translate(-208.935 -248.78)"/><path class="a" d="M270.613,321.474a2.106,2.106,0,0,0-2.106,2.106v4.211a2.106,2.106,0,1,0,4.211,0V323.58A2.106,2.106,0,0,0,270.613,321.474Z" transform="translate(-208.935 -220.993)"/><path class="a" d="M270.613,240.632a2.106,2.106,0,0,0-2.106,2.106v4.211a2.106,2.106,0,1,0,4.211,0v-4.211A2.106,2.106,0,0,0,270.613,240.632Z" transform="translate(-208.935 -165.419)"/><path class="a" d="M270.613,281.053a2.106,2.106,0,0,0-2.106,2.106v4.211a2.106,2.106,0,1,0,4.211,0v-4.211A2.106,2.106,0,0,0,270.613,281.053Z" transform="translate(-208.935 -193.206)"/><path class="a" d="M300.462,257.862a2.106,2.106,0,0,0-2.106,2.106v4.211a2.106,2.106,0,1,0,4.211,0v-4.211A2.106,2.106,0,0,0,300.462,257.862Z" transform="translate(-229.454 -177.264)"/><path class="a" d="M300.462,298.283a2.106,2.106,0,0,0-2.106,2.106V304.6a2.106,2.106,0,1,0,4.211,0v-4.211A2.106,2.106,0,0,0,300.462,298.283Z" transform="translate(-229.454 -205.051)"/><path class="a" d="M300.462,338.7a2.106,2.106,0,0,0-2.106,2.106v4.211a2.106,2.106,0,1,0,4.211,0V340.81A2.106,2.106,0,0,0,300.462,338.7Z" transform="translate(-229.454 -232.838)"/><path class="a" d="M300.462,379.125a2.106,2.106,0,0,0-2.106,2.106v4.211a2.106,2.106,0,1,0,4.211,0v-4.211A2.106,2.106,0,0,0,300.462,379.125Z" transform="translate(-229.454 -260.625)"/><path class="a" d="M330.31,275.1A2.106,2.106,0,0,0,328.2,277.2v4.211a2.106,2.106,0,1,0,4.211,0V277.2A2.106,2.106,0,0,0,330.31,275.1Z" transform="translate(-249.973 -189.113)"/><path class="a" d="M330.31,315.52a2.106,2.106,0,0,0-2.106,2.106v4.211a2.106,2.106,0,1,0,4.211,0v-4.211A2.106,2.106,0,0,0,330.31,315.52Z" transform="translate(-249.973 -216.9)"/><path class="a" d="M330.31,396.362a2.106,2.106,0,0,0-2.106,2.106v4.211a2.106,2.106,0,1,0,4.211,0v-4.211A2.106,2.106,0,0,0,330.31,396.362Z" transform="translate(-249.973 -272.474)"/><path class="a" d="M330.31,355.941a2.106,2.106,0,0,0-2.106,2.106v4.211a2.106,2.106,0,1,0,4.211,0v-4.211A2.106,2.106,0,0,0,330.31,355.941Z" transform="translate(-249.973 -244.687)"/><path class="a" d="M161.165,215.824a2.1,2.1,0,0,0,2.106-2.106v-4.211a2.106,2.106,0,0,0-4.211,0v4.211a2.1,2.1,0,0,0,2.106,2.106Z" transform="translate(-133.696 -142.575)"/><path class="a" d="M161.165,134.982a2.1,2.1,0,0,0,2.106-2.106v-4.211a2.106,2.106,0,1,0-4.211,0v4.211a2.1,2.1,0,0,0,2.106,2.106Z" transform="translate(-133.696 -87.001)"/><path class="a" d="M161.165,94.561a2.1,2.1,0,0,0,2.106-2.106V88.244a2.106,2.106,0,1,0-4.211,0v4.211a2.1,2.1,0,0,0,2.106,2.106Z" transform="translate(-133.696 -59.214)"/><path class="a" d="M161.165,175.4a2.1,2.1,0,0,0,2.106-2.106v-4.211a2.106,2.106,0,0,0-4.211,0V173.3a2.1,2.1,0,0,0,2.106,2.106Z" transform="translate(-133.696 -114.788)"/><path class="a" d="M161.165,256.245a2.1,2.1,0,0,0,2.106-2.106v-4.211a2.106,2.106,0,1,0-4.211,0v4.211a2.1,2.1,0,0,0,2.106,2.106Z" transform="translate(-133.696 -170.362)"/><path class="a" d="M161.165,296.666a2.1,2.1,0,0,0,2.106-2.106v-4.211a2.106,2.106,0,1,0-4.211,0v4.211a2.1,2.1,0,0,0,2.106,2.106Z" transform="translate(-133.696 -198.149)"/><path class="a" d="M191.014,233.054a2.1,2.1,0,0,0,2.106-2.106v-4.211a2.106,2.106,0,0,0-4.211,0v4.211a2.1,2.1,0,0,0,2.106,2.106Z" transform="translate(-154.216 -154.42)"/><path class="a" d="M191.014,192.633a2.1,2.1,0,0,0,2.106-2.106v-4.211a2.106,2.106,0,1,0-4.211,0v4.211a2.1,2.1,0,0,0,2.106,2.106Z" transform="translate(-154.216 -126.633)"/><path class="a" d="M191.014,111.791a2.1,2.1,0,0,0,2.106-2.106v-4.211a2.106,2.106,0,1,0-4.211,0v4.211a2.1,2.1,0,0,0,2.106,2.106Z" transform="translate(-154.216 -71.059)"/><path class="a" d="M191.014,273.476a2.1,2.1,0,0,0,2.106-2.106v-4.211a2.106,2.106,0,1,0-4.211,0v4.211a2.1,2.1,0,0,0,2.106,2.105Z" transform="translate(-154.216 -182.207)"/><path class="a" d="M191.014,152.212a2.1,2.1,0,0,0,2.106-2.106v-4.211a2.106,2.106,0,1,0-4.211,0v4.211a2.1,2.1,0,0,0,2.106,2.106Z" transform="translate(-154.216 -98.846)"/><path class="a" d="M220.863,169.449a2.1,2.1,0,0,0,2.106-2.106v-4.211a2.106,2.106,0,1,0-4.211,0v4.211a2.1,2.1,0,0,0,2.106,2.106Z" transform="translate(-174.735 -110.695)"/><path class="a" d="M220.863,250.291a2.1,2.1,0,0,0,2.106-2.106v-4.211a2.106,2.106,0,0,0-4.211,0v4.211a2.1,2.1,0,0,0,2.106,2.106Z" transform="translate(-174.735 -166.269)"/><path class="a" d="M220.863,129.028a2.1,2.1,0,0,0,2.106-2.106v-4.211a2.106,2.106,0,1,0-4.211,0v4.211a2.1,2.1,0,0,0,2.106,2.106Z" transform="translate(-174.735 -82.908)"/><path class="a" d="M220.863,209.87a2.1,2.1,0,0,0,2.106-2.106v-4.211a2.106,2.106,0,1,0-4.211,0v4.211a2.1,2.1,0,0,0,2.106,2.106Z" transform="translate(-174.735 -138.482)"/><path class="a" d="M220.863,331.133a2.1,2.1,0,0,0,2.106-2.106v-4.211a2.106,2.106,0,1,0-4.211,0v4.211a2.1,2.1,0,0,0,2.106,2.106Z" transform="translate(-174.735 -221.843)"/><path class="a" d="M220.863,290.712a2.1,2.1,0,0,0,2.106-2.106v-4.211a2.106,2.106,0,1,0-4.211,0v4.211a2.1,2.1,0,0,0,2.106,2.106Z" transform="translate(-174.735 -194.056)"/><path class="a" d="M250.712,146.258a2.1,2.1,0,0,0,2.106-2.106v-4.211a2.106,2.106,0,1,0-4.211,0v4.211a2.1,2.1,0,0,0,2.106,2.106Z" transform="translate(-195.254 -94.753)"/><path class="a" d="M189.189,69.062a1.952,1.952,0,0,0-.031-.232,2.094,2.094,0,0,0-.209-.623c-.009-.017-.008-.037-.018-.054s-.023-.022-.031-.035a2.1,2.1,0,0,0-.45-.51,1.93,1.93,0,0,0-.168-.129c-.044-.03-.079-.069-.125-.1L164.335,53.637V26.317c0-.049-.016-.1-.019-.144a1.946,1.946,0,0,0-.031-.232,2.094,2.094,0,0,0-.209-.623c-.009-.017-.008-.037-.018-.054s-.023-.022-.031-.036a2.089,2.089,0,0,0-.45-.509,2.051,2.051,0,0,0-.168-.13c-.044-.03-.079-.069-.125-.1l-42-24.244a1.963,1.963,0,0,0-.236-.08,2.056,2.056,0,0,0-.423-.142,2.855,2.855,0,0,0-.79,0,2.058,2.058,0,0,0-.416.141,1.926,1.926,0,0,0-.237.08L98.1,12.422a2.073,2.073,0,0,0-.556.491c-.04.048-.076.095-.112.146a2.088,2.088,0,0,0-.312.639l0,.02a2.105,2.105,0,0,0-.07.528v87.909l-5.49,3.178c-.06.029-.2.1-.253.134L82.62,110.5c-2.95,1.112-4.7,4.152-4.7,8.229a2.106,2.106,0,0,0,1.053,1.824l37.32,21.527c.018.012.033.029.052.04l30.493,17.588a2,2,0,0,0,1.729.166l.033-.006c.014,0,.023-.018.037-.023a2.091,2.091,0,0,0,.313-.129l10.5-6.063,5.445,3.135a2.094,2.094,0,0,0,2.552-.355l20.711-11.961a2,2,0,0,0,.2-.172,2.066,2.066,0,0,0,.325-.286,2.849,2.849,0,0,0,.4-.685,2.042,2.042,0,0,0,.086-.429,1.927,1.927,0,0,0,.051-.252V69.206C189.208,69.157,189.192,69.111,189.189,69.062ZM120.234,4.506,158.02,26.318l-16.87,9.741L103.365,14.246Zm39.889,25.461V51.2l-6.175-3.555a1.953,1.953,0,0,0-.211-.071,2.061,2.061,0,0,0-.456-.153,2.819,2.819,0,0,0-.785,0,2.047,2.047,0,0,0-.4.137,1.966,1.966,0,0,0-.243.082L143.255,52.6v-12.9Zm-21.08,9.739V55.034l-8.279,4.78a2.073,2.073,0,0,0-.556.491c-.04.048-.076.095-.112.146a2.088,2.088,0,0,0-.312.639l0,.02a2.1,2.1,0,0,0-.07.528v56.144a15.913,15.913,0,0,0-3.829-3.251,12.156,12.156,0,0,0-1.158-.592,8.941,8.941,0,0,0-2.289-.683,6.678,6.678,0,0,0-2.482.124,24.145,24.145,0,0,0-5.239-9.479,2.1,2.1,0,0,0,2.1-2.105V97.585a2.106,2.106,0,0,0-4.211,0V101.8c0,.023.013.043.013.066a16.658,16.658,0,0,0-2.327-1.672,8.634,8.634,0,0,0-8.734-.615c-.044.021-.092.021-.134.045l-.167.1V17.894Zm-9.58,85.215.021-.012c.015-.008.027-.021.042-.029l.03-.02c.039-.023.078-.047.115-.072.064-.031.117-.06.14-.072a2.742,2.742,0,0,1,.724-.148,4.128,4.128,0,0,1,1.15.144,6.142,6.142,0,0,1,1.349.588,14.685,14.685,0,0,1,5.536,6.676l-6.869,3.962a21.115,21.115,0,0,0-2.62-4.237c-.025-.031-.049-.062-.076-.091a15.852,15.852,0,0,0-4.411-3.868l-.01-.005Zm-9.133.407a16.962,16.962,0,0,0-5.006-4.716l-.051-.026,4.194-2.421.025-.015.915-.528.015-.013a2.184,2.184,0,0,0,.207-.1,2.348,2.348,0,0,1,1.209-.088,4.613,4.613,0,0,1,1.156.354,7.672,7.672,0,0,1,.745.379,12.56,12.56,0,0,1,3.485,3.189Zm-16.8-22.059c.014-.008.021-.022.034-.03l.034-.013a4.577,4.577,0,0,1,4.583.611,18.608,18.608,0,0,1,7.892,11.421l-6.75,3.9a22.728,22.728,0,0,0-9.593-12.882c-.255-.146-.5-.256-.741-.379Zm13.1,24.191a6.436,6.436,0,0,0-.555.413,3.391,3.391,0,0,0-.609.627c-.152.177-.282.331-.432.535a2.119,2.119,0,0,0-.16.249,4.746,4.746,0,0,0-.333.6,4.649,4.649,0,0,0-.245.58,3.079,3.079,0,0,0-.23.615,9.4,9.4,0,0,0-.31,1.491c-.006.039-.012.1-.018.156a10.51,10.51,0,0,0-.076,1.281c0,.294,0,.617.039,1.061.027.235.066.481.1.725L82.2,117.556a3.456,3.456,0,0,1,2.032-3.169c.058-.018.117-.041.175-.066a5.509,5.509,0,0,1,3.895.915,2.106,2.106,0,0,0,3.161-1.822,4.79,4.79,0,0,1,1.448-3.991l.031-.021.409-.249c.022-.008.045-.017.068-.027a5.009,5.009,0,0,1,4.22.8,18.553,18.553,0,0,1,8.17,12.864,2.106,2.106,0,0,0,3.477,1.343c.051-.041.113-.093.144-.121a2.067,2.067,0,0,1,.278-.226l.078-.04c.027-.014.056-.019.082-.034l.133-.077.083-.034a2.3,2.3,0,0,1,1.215-.084,4.586,4.586,0,0,1,1.15.352,7.958,7.958,0,0,1,.738.372,12.663,12.663,0,0,1,3.481,3.2Zm2.4,11.353-.041-.095c-.025-.056-.051-.113-.082-.168-.062-.158-.121-.319-.173-.471a1.9,1.9,0,0,0-.117-.268c-.187-.574-.36-1.135-.481-1.686l-.062-.3-.045-.23c-.053-.349-.091-.683-.123-.956-.017-.208-.014-.415-.014-.607a7.1,7.1,0,0,1,.049-.835c.006-.035.012-.082.017-.134a4.931,4.931,0,0,1,.183-.816c.022-.064.045-.128.066-.191l.037-.1.091-.179c.018-.035.107-.185.123-.222a2.14,2.14,0,0,0,.15-.249l.008.006.22-.222c.057-.049.114-.1.172-.147.025-.014.053-.019.077-.034l.179-.1c.036-.012.072-.025.107-.039a1.92,1.92,0,0,1,.611-.113,4.046,4.046,0,0,1,1.158.148,6,6,0,0,1,1.353.59,11.8,11.8,0,0,1,3.179,2.8,2.382,2.382,0,0,0,.224.273,16.4,16.4,0,0,1,2.873,5.653,2.105,2.105,0,0,0,3.823.555,2.641,2.641,0,0,1,1.133-1.047,1.72,1.72,0,0,1,.395-.14,5.416,5.416,0,0,1,3.948.9,11.685,11.685,0,0,1,2.028,1.5c.216.183.419.368.635.584a18.521,18.521,0,0,1,5.6,12.087Zm37.6,11.6-6.139,3.544a22.643,22.643,0,0,0-6.029-13.646c-.033-.039-.046-.088-.083-.125l-.041-.041c-.023-.023-.053-.029-.077-.051-.193-.2-.373-.424-.573-.62-.286-.286-.572-.549-.837-.771a15.481,15.481,0,0,0-2.7-1.978c-.255-.148-.507-.239-.761-.366l4.223-2.436.013,0,.356-.208.216-.125a4.785,4.785,0,0,1,4.419.714,11.684,11.684,0,0,1,2.028,1.5c.218.185.422.372.635.584a18.463,18.463,0,0,1,5.6,12.169,7.435,7.435,0,0,1-.243,1.861Zm4.362-.727c.034-.377.093-.741.093-1.134a22.586,22.586,0,0,0-6.852-15.17c-.286-.284-.568-.545-.831-.765a15.465,15.465,0,0,0-2.7-1.976,8.653,8.653,0,0,0-8.47-.771,18.458,18.458,0,0,0-7.093-8.217,10.947,10.947,0,0,0-1.221-.6V65.289l29.994,17.306V151.37Zm5.026-70.74-23.8-13.733c-.011-.007-.017-.018-.028-.025l-6.166-3.553L152.9,51.9l29.994,17.309ZM185,141.434l-16.868,9.742V82.6L185,72.856Z" transform="translate(-77.915 0)"/></g></svg>