<svg xmlns="http://www.w3.org/2000/svg" width="107.682" height="91.513" viewBox="0 0 107.682 91.513"><defs><style>.a{fill:#0093a3;}</style></defs><g transform="translate(0 4.657)"><path class="a" d="M107.34,108.783a1.581,1.581,0,0,0-2.221-.257l-3.1,2.459-25.058-32.9,14.325-9.194a1.58,1.58,0,0,0-1.707-2.66L73.813,76.351a1.6,1.6,0,0,0-.4,2.288l2.869,3.767-2.04,1.562-8.1-2.676a1.613,1.613,0,0,0-.5-.08H47.1a1.58,1.58,0,0,0-1.533,1.2l-1.044,4.174-2.634-1.109a1.582,1.582,0,0,0-.8-.113l-7.327.858-2.49-1.445,2.368-4.1a1.6,1.6,0,0,0-.578-2.159L2.371,60.793A1.58,1.58,0,1,0,.79,63.53L24.844,77.417,4.084,113.374l-1.714-.989A1.58,1.58,0,0,0,.79,115.122l8.352,4.822a1.6,1.6,0,0,0,2.159-.578l1.208-2.093,3.409,1.818a6.638,6.638,0,0,0,7.945,9.363,6.482,6.482,0,0,0,1.306,3.9,6.689,6.689,0,0,0,7.33,2.323,6.628,6.628,0,0,0,5.582,6.456,6.709,6.709,0,0,0,1.065.085,6.57,6.57,0,0,0,2.01-.315,6.638,6.638,0,0,0,5.586,6.448,6.71,6.71,0,0,0,1.065.085,6.587,6.587,0,0,0,3.877-1.262l3.687-2.668a6.612,6.612,0,0,0,1.906-2.139l6.487,3.536a6.638,6.638,0,0,0,9.773-6.568,6.631,6.631,0,0,0,7.8-7.268,6.638,6.638,0,0,0,7.805-7.265,6.548,6.548,0,0,0,1.2.111,6.664,6.664,0,0,0,1.884-.273,6.638,6.638,0,0,0,4.493-8.243,6.718,6.718,0,0,0-.469-1.171l2.772-1.968,1.464,1.923a1.6,1.6,0,0,0,2.239.281l4.363-3.46A1.581,1.581,0,0,0,107.34,108.783ZM9.354,116.416l-2.532-1.462L27.581,79l2.532,1.462Zm14.495,8.543a3.477,3.477,0,1,1-4.076-5.634l11.18-8.089a3.477,3.477,0,0,1,4.077,5.633Zm8.661,6.219a3.494,3.494,0,0,1-4.815-.724,3.6,3.6,0,0,1,.83-4.976l8.357-6.046a5.691,5.691,0,0,1,.926-.561,3.456,3.456,0,0,1,4.1,1.09,3.509,3.509,0,0,1-.719,4.934Zm8.661,6.218a3.477,3.477,0,0,1-4.079-5.632l5.955-4.309.232-.168a3.46,3.46,0,0,1,4.8.7,3.509,3.509,0,0,1-.72,4.935Zm13.751,1.235a3.448,3.448,0,0,1-1.4,2.315l-3.687,2.668a3.477,3.477,0,1,1-4.077-5.634l3.453-2.5.234-.17a3.5,3.5,0,0,1,4.8.7A3.448,3.448,0,0,1,54.921,138.631ZM93.4,118.937a3.51,3.51,0,0,1-4.717,1.389l-18.272-9.96a1.581,1.581,0,0,0-1.513,2.776l15.312,8.346a3.477,3.477,0,1,1-3.328,6.106l-15.536-8.468a1.58,1.58,0,0,0-1.513,2.776l12.578,6.856a3.477,3.477,0,0,1-3.331,6.1L59.91,127.683a1.581,1.581,0,0,0-1.513,2.776l10.208,5.564a3.477,3.477,0,1,1-3.328,6.106l-7.16-3.9a6.657,6.657,0,0,0-6.309-6.739c.03-.14.057-.282.078-.425a6.657,6.657,0,0,0-6.241-7.6c.03-.14.057-.282.078-.425a6.657,6.657,0,0,0-6.241-7.6c.03-.14.057-.282.078-.425a6.638,6.638,0,0,0-10.46-6.335l-11.03,7.979-3.98-2.123,15.6-27.023,2.938,1.706a1.583,1.583,0,0,0,.977.2l7.436-.871,2.7,1.137-1.552,6.21a1.591,1.591,0,0,0-.047.383v13.486a8.324,8.324,0,0,0,16.647,0V96.732l.287-.46L92.009,114.22A3.509,3.509,0,0,1,93.4,118.937Zm.754-7.1a6.761,6.761,0,0,0-.63-.391L60.759,93.586l1.216-1.945a1.581,1.581,0,0,0-2.681-1.675l-3.421,5.474a1.583,1.583,0,0,0-.24.838v13.486a5.163,5.163,0,1,1-10.326,0V96.473l3.025-12.1H65.387l8.652,2.858a1.593,1.593,0,0,0,1.456-.246l2.7-2.065L97.1,109.744Z" transform="translate(0 -60.58)"/></g><g transform="translate(95.666 0)"><path class="a" d="M466.635,39.166a1.58,1.58,0,0,0-2.184-.476L455.6,44.373a1.58,1.58,0,1,0,1.707,2.66l8.855-5.683A1.581,1.581,0,0,0,466.635,39.166Z" transform="translate(-454.869 -38.439)"/></g></svg>