<svg xmlns="http://www.w3.org/2000/svg" width="905.596" height="904.309" viewBox="0 0 905.596 904.309">
  <path id="Ellipse" d="M830.145,277.973l31.913-22.191a450.371,450.371,0,0,1,43.538,165l-38.544-3.513A410.555,410.555,0,0,0,830.145,277.973ZM488.374,40,484.733.011C629.344,9.9,755.309,87.571,831.1,201.467l-35.526,16.109C726.914,118.108,615.8,50.192,488.374,40ZM723.1,274.277l-8.962,4.062A310.2,310.2,0,0,0,478.263,141.5l-.927-10.16A321.482,321.482,0,0,1,723.1,274.277Zm16.9,177.861c0,157.5-127.741,285.175-285.314,285.175S169.365,609.633,169.365,452.138,297.106,166.957,454.679,166.957,739.994,294.637,739.994,452.138ZM455.956,230.123c-122.675,0-222.121,99.4-222.121,222.015s99.446,222.015,222.121,222.015,222.121-99.4,222.121-222.015S578.63,230.123,455.956,230.123Zm-.072,421.74c-110.361,0-199.824-89.419-199.824-199.73S345.522,252.4,455.883,252.4s199.824,89.424,199.824,199.73S566.245,651.862,455.883,651.862Zm0-381.825c-100.617,0-182.184,81.528-182.184,182.095s81.567,182.1,182.184,182.1,182.184-81.528,182.184-182.1S556.5,270.037,455.883,270.037Zm-1.2,336.949A154.857,154.857,0,1,1,609.611,452.132,154.892,154.892,0,0,1,454.679,606.986ZM320.091,172.068l-6.265-8.879a319.777,319.777,0,0,1,119.123-31.863l-.943,10.316A308.571,308.571,0,0,0,320.091,172.068Zm-6.476-43.128L284.859,88.2a400.581,400.581,0,0,1,132.524-35.8l-4.517,49.426A350.681,350.681,0,0,0,313.615,128.94Zm-35.709-50.58L254.289,44.9A450.763,450.763,0,0,1,422.178,0l-3.685,40.27A411.01,411.01,0,0,0,277.906,78.359Zm-2.5,107.048,4.656,10.077a312.138,312.138,0,0,0-79.991,80.2l-10.615-4.989A323.44,323.44,0,0,1,275.409,185.408Zm-102.5,55.125-45.73-21.486a405.08,405.08,0,0,1,95.24-94.618l21.048,45.547A354.924,354.924,0,0,0,172.911,240.533ZM116.7,214.124,79.014,196.417a455.79,455.79,0,0,1,121.132-120.2l17.274,37.39A415.671,415.671,0,0,0,116.7,214.124ZM41.358,452.044A411.562,411.562,0,0,0,80.085,626.858L45.919,650.947a453.659,453.659,0,0,1,1.409-400.631L81.3,274.621A411.519,411.519,0,0,0,41.358,452.044ZM217.421,790.474l-17.3,37.434A455.5,455.5,0,0,1,77.205,705.073L115.067,687.6A415.674,415.674,0,0,0,217.421,790.474ZM88.342,621.037a403.456,403.456,0,0,1,2.2-339.807l41.341,29.577a353.5,353.5,0,0,0-.977,280.226ZM133.4,452.077a319.945,319.945,0,0,1,33.583-143.14l9.716,6.953a310.749,310.749,0,0,0-.133,269.849L165.975,593.2A320.128,320.128,0,0,1,133.4,452.077ZM124.04,683.465l47.4-21.869a354.738,354.738,0,0,0,72.022,72.527l-22.047,47.711A405.135,405.135,0,0,1,124.04,683.465Zm64.137-51.857,11.847-5.466a311.924,311.924,0,0,0,80.829,80.806l-5.46,11.814A323.271,323.271,0,0,1,188.177,631.608ZM415.63,863.556l3.4,40.3A450.838,450.838,0,0,1,254.273,859.2l23.634-33.478A410.966,410.966,0,0,0,415.63,863.556Zm-132.3-45.508L313.6,775.164a350.632,350.632,0,0,0,96.832,26.8l4.417,52.373A400.458,400.458,0,0,1,283.328,818.048Zm146.325-58.005,1.065,12.608a319.946,319.946,0,0,1-116.9-31.68l7.453-10.56A308.48,308.48,0,0,0,429.653,760.043ZM711.737,627.052l10.138,4.683A321.448,321.448,0,0,1,475.1,772.972l1.221-12.452A310.12,310.12,0,0,0,711.737,627.052Zm82.194,61.828,35.442,16.375C752.851,818.564,626.408,895.414,481.582,904.309L485.5,864.3C613.107,854.983,724.628,787.794,793.931,688.881Zm26.73-65.979L778.826,593.38a350.372,350.372,0,0,0,27.18-101l50.492-4.6A400.216,400.216,0,0,1,820.661,622.9Zm35.576-206.622L806.006,411.7a350.553,350.553,0,0,0-26.2-98.73l41.03-28.528A400.107,400.107,0,0,1,856.237,416.279Zm-362.281-314.9L489.478,52.14C611.692,62.511,718.352,127.38,785.042,222.354l-45.409,20.593A352.686,352.686,0,0,0,493.956,101.383ZM745.065,312.816a319.6,319.6,0,0,1,30.892,117.07l-10.16-.927a308.281,308.281,0,0,0-28.872-110.483ZM486.4,855.1l5.111-52.14A352.6,352.6,0,0,0,738.2,663.133l46.763,21.6C717.7,780.441,609.855,845.571,486.4,855.1ZM775.957,474.251a319.51,319.51,0,0,1-31.869,119.09l-8.912-6.287a308.186,308.186,0,0,0,30.47-111.859Zm91.095,12.563L905.6,483.3a450.412,450.412,0,0,1-44.909,167.839l-31.763-22.413A410.653,410.653,0,0,0,867.052,486.814Z" transform="translate(0)" fill="#082b68" fill-rule="evenodd"/>
</svg>
