<svg xmlns="http://www.w3.org/2000/svg" width="45.407" height="45.408" viewBox="0 0 45.407 45.408">
  <g id="Grupo_1517" data-name="Grupo 1517" transform="translate(-1676.628 -7402)">
    <circle id="Elipse_69" data-name="Elipse 69" cx="22" cy="22" r="22" transform="translate(1677 7403)" fill="#07336f"/>
    <path id="facebook" d="M45.408,22.7a22.7,22.7,0,1,0-22.7,22.7c.133,0,.266,0,.4-.009V27.732H18.225V22.047H23.1V17.861c0-4.851,2.962-7.494,7.29-7.494a39.623,39.623,0,0,1,4.372.222v5.073h-2.98c-2.35,0-2.811,1.117-2.811,2.758v3.618h5.632l-.736,5.685h-4.9V44.53A22.711,22.711,0,0,0,45.408,22.7Z" transform="translate(1676.628 7402)" fill="#fff"/>
  </g>
</svg>
