<svg id="fb" xmlns="http://www.w3.org/2000/svg" width="61" height="61" viewBox="0 0 61 61">
  <g id="facebook-logo_1_" data-name="facebook-logo (1)" transform="translate(22.517 12.867)">
    <path id="Trazado_63" data-name="Trazado 63" d="M136.59,11.593V8.545a6.715,6.715,0,0,1,.064-1.063,2.063,2.063,0,0,1,.29-.741,1.184,1.184,0,0,1,.73-.5,5.2,5.2,0,0,1,1.342-.14h3.048V0h-4.873q-4.23,0-6.076,2.007t-1.846,5.915v3.671h-3.65v6.1h3.65V35.381h7.321V17.691h4.873l.644-6.1Z" transform="translate(-125.619)" fill="#9c9ca8"/>
  </g>
  <g id="Elipse_16" data-name="Elipse 16" fill="none" stroke="#9c9ca8" stroke-width="1">
    <circle cx="30.5" cy="30.5" r="30.5" stroke="none"/>
    <circle cx="30.5" cy="30.5" r="30" fill="none"/>
  </g>
</svg>
