<svg xmlns="http://www.w3.org/2000/svg" width="107.681" height="68.906" viewBox="0 0 107.681 68.906"><defs><style>.a{fill:#0093a3;}</style></defs><g transform="translate(30.347 0)"><path class="a" d="M186.339,131l-9.166-4.074a1.8,1.8,0,0,1-1.066-1.64v-2.517a13.358,13.358,0,0,0,5.058-10.465v-3.543a3.269,3.269,0,0,0,1.686-2.857v-.344a13.394,13.394,0,0,0-13.379-13.379H166.1a13.394,13.394,0,0,0-13.379,13.379v3.12a3.308,3.308,0,0,0,1.259,2.65,3.078,3.078,0,0,0,.427.277v.7a13.358,13.358,0,0,0,5.058,10.465v2.517a1.8,1.8,0,0,1-1.066,1.64L149.234,131a8.328,8.328,0,0,0-4.942,7.6v20.906a1.577,1.577,0,0,0,3.155,0V138.606a5.156,5.156,0,0,1,.032-.543l4.224,4.224a3.458,3.458,0,0,1,1.019,2.461v14.764a1.577,1.577,0,1,0,3.155,0V144.748a6.591,6.591,0,0,0-1.943-4.692l-5.035-5.035a5.153,5.153,0,0,1,1.617-1.136l9.011-4.005,6.683,6.683v22.949a1.577,1.577,0,0,0,3.155,0V136.563l6.683-6.683,9.011,4a5.15,5.15,0,0,1,1.617,1.136l-5.035,5.035a6.591,6.591,0,0,0-1.943,4.692v14.764a1.577,1.577,0,0,0,3.155,0V144.748a3.458,3.458,0,0,1,1.019-2.461l4.223-4.223a5.152,5.152,0,0,1,.032.542v20.906a1.577,1.577,0,1,0,3.155,0V138.606A8.33,8.33,0,0,0,186.339,131Zm-18.553,2.676-5.864-5.864a4.941,4.941,0,0,0,.7-2.526v-.642a13.368,13.368,0,0,0,10.332,0v.642a4.939,4.939,0,0,0,.7,2.526Zm0-11.148a10.235,10.235,0,0,1-10.224-10.224V111.6a9.326,9.326,0,0,0,2.865-1.86,1.577,1.577,0,0,0-2.14-2.318,5.666,5.666,0,0,1-2.342,1.4.254.254,0,0,1-.042.008.32.32,0,0,1-.027-.143v-3.12A10.236,10.236,0,0,1,166.1,95.339h3.372A10.236,10.236,0,0,1,179.7,105.563v.344a.1.1,0,0,1-.071.1c-9.445,1.865-14.183-1.65-15.781-3.249a1.577,1.577,0,0,0-2.231,2.231c4.9,4.9,12.046,4.987,16.4,4.464v2.85A10.236,10.236,0,0,1,167.786,122.53Z" transform="translate(-144.292 -92.184)"/></g><g transform="translate(0 8.43)"><path class="a" d="M28.444,154.074V150.7a11.691,11.691,0,0,0-5.361-9.822,6.635,6.635,0,1,0-12.665,0,11.69,11.69,0,0,0-5.36,9.822v3.372a11.687,11.687,0,0,0,5.058,9.62v3.469a1.785,1.785,0,0,1-.992,1.605L3.668,171.5A6.6,6.6,0,0,0,0,177.43v13.733a1.577,1.577,0,1,0,3.155,0V178.113l2.57,2.57a3.458,3.458,0,0,1,1.019,2.461v8.02a1.577,1.577,0,1,0,3.155,0v-8.02a6.592,6.592,0,0,0-1.943-4.692l-3.576-3.576c-.017-.017-.036-.032-.053-.048a3.518,3.518,0,0,1,.753-.509l5.456-2.728a5.025,5.025,0,0,0,.782-.488l3.857,3.857v16.206a1.577,1.577,0,1,0,3.155,0V174.958l3.857-3.857a5,5,0,0,0,.782.488l1.5.752a1.577,1.577,0,1,0,1.411-2.821l-1.5-.752a1.785,1.785,0,0,1-.992-1.6v-3.469A11.687,11.687,0,0,0,28.444,154.074ZM16.751,135.42a3.484,3.484,0,0,1,3.48,3.48,3.535,3.535,0,0,1-.055.621,11.692,11.692,0,0,0-6.846,0,3.459,3.459,0,0,1,3.42-4.1Zm0,6.744a8.548,8.548,0,0,1,8.538,8.538v.572a9.9,9.9,0,0,1-10.648-3.2,1.577,1.577,0,0,0-2.377-.169,10.319,10.319,0,0,1-4.045,2.582A8.546,8.546,0,0,1,16.751,142.164Zm0,29.91-3.645-3.645a5,5,0,0,0,.165-1.266v-1.925a11.714,11.714,0,0,0,6.961,0v1.925a4.994,4.994,0,0,0,.165,1.266Zm0-9.462a8.548,8.548,0,0,1-8.538-8.538v-.327a12.647,12.647,0,0,0,5.069-2.525,14.232,14.232,0,0,0,2.925,2.129,12.546,12.546,0,0,0,6.028,1.556,13.216,13.216,0,0,0,3.041-.364A8.549,8.549,0,0,1,16.751,162.611Z" transform="translate(0 -132.265)"/></g><g transform="translate(75.866 11.802)"><path class="a" d="M388.874,180.785l-8.828-4.414a1.785,1.785,0,0,1-.992-1.6v-2.235a9.983,9.983,0,0,0,3.372-7.482v-1.8h.109a1.577,1.577,0,0,0,1.577-1.577v-3.372A10.018,10.018,0,0,0,374.1,148.3h-3.372a10.018,10.018,0,0,0-10.007,10.007v3.372a1.577,1.577,0,0,0,1.577,1.577l.109,0v1.8a9.984,9.984,0,0,0,3.372,7.482v2.235a1.784,1.784,0,0,1-.992,1.6,1.577,1.577,0,1,0,1.411,2.822,5.024,5.024,0,0,0,.782-.488l3.857,3.857v21.264a1.577,1.577,0,0,0,3.155,0V182.561l3.857-3.857a5,5,0,0,0,.782.488l8.542,4.271-2.591,2.591a6.592,6.592,0,0,0-1.943,4.692v13.078a1.577,1.577,0,1,0,3.155,0V190.746a3.458,3.458,0,0,1,1.019-2.461l2.454-2.454a3.514,3.514,0,0,1,.115.888v17.105a1.577,1.577,0,1,0,3.155,0V186.719A6.6,6.6,0,0,0,388.874,180.785Zm-24.993-21.01V158.3h0a6.86,6.86,0,0,1,6.852-6.852H374.1a6.86,6.86,0,0,1,6.852,6.852v1.752a24.124,24.124,0,0,1-11.035-3.064,1.577,1.577,0,0,0-1.99.2A10.331,10.331,0,0,1,363.881,159.775Zm8.538,19.9-3.645-3.645a5,5,0,0,0,.165-1.266v-.336a10,10,0,0,0,6.961,0v.336a4.985,4.985,0,0,0,.165,1.266Zm0-7.776a6.86,6.86,0,0,1-6.852-6.852v-2.543h0a13.348,13.348,0,0,0,3.7-2.259,28.023,28.023,0,0,0,10,2.844v1.958A6.86,6.86,0,0,1,372.419,171.9Z" transform="translate(-360.726 -148.298)"/></g></svg>