<svg xmlns="http://www.w3.org/2000/svg" width="437.546" height="434.656" viewBox="0 0 437.546 434.656">
  <g id="Grupo_1512" data-name="Grupo 1512" transform="translate(-284.965 -498.317)">
    <path id="Trazado_4240" data-name="Trazado 4240" d="M411.633,543.353l7.882-27.588L447.1,529.559l9.853-25.618,21.677,19.706L496.369,500l15.765,21.677,21.677-17.735L547.6,525.618l25.618-13.794,7.882,23.647,25.618-7.882,5.912,25.618,29.559-3.941v27.588h27.588l-5.912,27.588,29.559,1.971L681.6,632.03l25.618,11.824L693.428,667.5l23.647,13.794-15.765,21.677,19.706,17.735-19.706,17.735,15.765,21.677-23.647,13.794,13.794,23.647L681.6,805.442l5.912,27.588L661.9,836.972l3.941,25.618H638.252l-1.971,27.588-27.588-5.912-3.941,25.618L577.163,902l-9.853,21.677-23.647-11.824-13.794,19.706L508.192,915.8l-17.735,15.765-15.765-17.735L453.015,929.59l-11.824-23.647-25.618,11.824-7.882-25.618L380.1,900.031V870.472l-27.588,3.941V848.8l-27.588-5.912,7.882-25.618-25.618-5.912,11.824-23.647-27.588-11.824,15.765-23.647L286.5,737.457l19.706-21.677L286.5,696.074l21.677-15.765-15.765-21.677,25.618-11.823-9.853-27.588,25.618-3.941-5.912-27.588h27.588V558.133l27.588,3.941,1.971-25.618Z" transform="translate(0 0)" fill="#14295f" stroke="#fff" stroke-width="2"/>
    <circle id="Elipse_65" data-name="Elipse 65" cx="179.324" cy="179.324" r="179.324" transform="translate(324.927 537.441)" fill="#0a4372"/>
    <circle id="Elipse_66" data-name="Elipse 66" cx="168.486" cy="168.486" r="168.486" transform="translate(333.794 548.28)" fill="#004378"/>
    <circle id="Elipse_67" data-name="Elipse 67" cx="113.309" cy="113.309" r="113.309" transform="translate(390.942 603.456)" fill="#152959"/>
    <g id="Grupo_1508" data-name="Grupo 1508" transform="translate(450.06 707.898)">
      <path id="Trazado_4241" data-name="Trazado 4241" d="M471.049,605.5H444.98a23.617,23.617,0,0,1-44.547,0h-24.1a6.853,6.853,0,0,0-6.834,6.834V677.49a6.853,6.853,0,0,0,6.834,6.834h94.715a6.853,6.853,0,0,0,6.834-6.834V612.334A6.853,6.853,0,0,0,471.049,605.5Z" transform="translate(-369.5 -605.5)" fill="#fff"/>
    </g>
    <g id="Grupo_1509" data-name="Grupo 1509" transform="translate(493.413 733.516)">
      <path id="Trazado_4242" data-name="Trazado 4242" d="M408.265,626.382a7.874,7.874,0,1,0-4.814,7.264A7.883,7.883,0,0,0,408.265,626.382Z" transform="translate(-390.529 -618.5)" fill="#1a275b"/>
      <path id="Trazado_4243" data-name="Trazado 4243" d="M391.5,643.735h19.706L405.294,626h-6.919Z" transform="translate(-391.5 -611.221)" fill="#1a275b"/>
    </g>
    <g id="Grupo_1510" data-name="Grupo 1510" transform="translate(455.971 654.692)">
      <path id="Trazado_4244" data-name="Trazado 4244" d="M387.766,624.809c2.585-16.77,15.92-29.559,32.028-29.559s29.443,12.789,32.028,29.559h15.042a38.314,38.314,0,0,0,.225-3.941c0-23.4-21.174-42.368-47.294-42.368S372.5,597.469,372.5,620.868a38.332,38.332,0,0,0,.225,3.941Z" transform="translate(-372.5 -578.5)" fill="#fff"/>
    </g>
    <path id="Trazado_4245" data-name="Trazado 4245" d="M476.459,606.044l3.739,7.576,8.36,1.215-6.05,5.9,1.428,8.326-7.478-3.931-7.478,3.931,1.428-8.326-6.05-5.9,8.36-1.215Z" transform="translate(172.631 102.926)" fill="#fff"/>
    <g id="Grupo_1511" data-name="Grupo 1511" transform="translate(345.342 565.727)">
      <path id="Trazado_4246" data-name="Trazado 4246" d="M328.459,606.044l3.739,7.576,8.36,1.215-6.05,5.9,1.428,8.326-7.478-3.931-7.478,3.931,1.428-8.326-6.05-5.9,8.36-1.215Z" transform="translate(-316.36 -462.801)" fill="#fff"/>
      <path id="Trazado_4247" data-name="Trazado 4247" d="M340.328,600.37l-18.5-6.923,2.243-5.993a23.377,23.377,0,0,1,1.941-4.337,5.186,5.186,0,0,1,2.806-1.984,6.137,6.137,0,0,1,4,.276,6.418,6.418,0,0,1,2.633,1.691,5.4,5.4,0,0,1,1.236,2.25,5.77,5.77,0,0,1,.152,2.266,22.654,22.654,0,0,1-1.184,3.973l-.91,2.436,6.976,2.611Zm-13.97-9.486,5.25,1.965.765-2.043a10.275,10.275,0,0,0,.814-3.06,2.626,2.626,0,0,0-.471-1.508,2.661,2.661,0,0,0-1.281-.962,2.55,2.55,0,0,0-1.886-.03,2.764,2.764,0,0,0-1.383,1.194,19.379,19.379,0,0,0-1.131,2.641Z" transform="translate(-311.049 -487.193)" fill="#fff"/>
      <path id="Trazado_4248" data-name="Trazado 4248" d="M343.47,592.594l-17.17-9.756,4.146-7.3a14.381,14.381,0,0,1,2.735-3.738,4.543,4.543,0,0,1,2.779-1.06,5.692,5.692,0,0,1,3.133.788,5.278,5.278,0,0,1,2.546,2.948,6.281,6.281,0,0,1-.343,4.3,9.354,9.354,0,0,1,2.495-1.041,22.7,22.7,0,0,1,3.91-.388l4.54-.193-2.357,4.146-5.159.384a27.784,27.784,0,0,0-3.563.392,3.076,3.076,0,0,0-1.307.636,6.556,6.556,0,0,0-1.184,1.636l-.4.7,7.169,4.071Zm-7.94-9.1,1.458-2.564a15.3,15.3,0,0,0,1.559-3.236,2.148,2.148,0,0,0-.173-1.385,2.566,2.566,0,0,0-1.088-1.082,2.381,2.381,0,0,0-1.663-.335,2.445,2.445,0,0,0-1.415.924q-.3.39-1.5,2.5l-1.537,2.706Z" transform="translate(-306.713 -497.071)" fill="#fff"/>
      <path id="Trazado_4249" data-name="Trazado 4249" d="M336.951,578.012a12.506,12.506,0,0,1-2.737-4.355,9.278,9.278,0,0,1-.459-3.242,7.679,7.679,0,0,1,.694-3.033,10.852,10.852,0,0,1,2.627-3.439,9.273,9.273,0,0,1,6.992-2.692q3.76.242,7,3.813a10.341,10.341,0,0,1,3.106,7.287,9.2,9.2,0,0,1-3.33,6.672,9.291,9.291,0,0,1-6.992,2.719A10.188,10.188,0,0,1,336.951,578.012Zm2.95-2.861a7.4,7.4,0,0,0,4.566,2.723,5.323,5.323,0,0,0,5.817-5.263,7.533,7.533,0,0,0-2.331-4.844,7.428,7.428,0,0,0-4.5-2.749,5.514,5.514,0,0,0-5.857,5.344A7.449,7.449,0,0,0,339.9,575.151Z" transform="translate(-299.482 -506.294)" fill="#fff"/>
      <path id="Trazado_4250" data-name="Trazado 4250" d="M357.89,572.6,345.635,561.7l-3.9,4.377-2.495-2.221,10.434-11.721,2.5,2.221-3.888,4.367,12.255,10.909Z" transform="translate(-294.149 -515.13)" fill="#fff"/>
      <path id="Trazado_4251" data-name="Trazado 4251" d="M359.142,569.64l-11.5-14.736,10.6-8.273,1.945,2.493-7.717,6.02,2.55,3.267,7.179-5.6,1.937,2.483-7.179,5.6,3.127,4.01,7.991-6.235,1.937,2.483Z" transform="translate(-285.994 -520.467)" fill="#fff"/>
      <path id="Trazado_4252" data-name="Trazado 4252" d="M368.213,553.654l-1.661-2.883L374,546.479l3.929,6.816a10.814,10.814,0,0,1-2.081,3.663,13.178,13.178,0,0,1-3.711,3.2,10.8,10.8,0,0,1-5.328,1.571,8.25,8.25,0,0,1-4.856-1.492,12.017,12.017,0,0,1-3.632-3.979,11.369,11.369,0,0,1-1.618-5.4,8.728,8.728,0,0,1,1.442-5.076,10.232,10.232,0,0,1,3.606-3.214,9.448,9.448,0,0,1,5.748-1.533,6.965,6.965,0,0,1,4.434,2.365l-3.06,2.621a4.183,4.183,0,0,0-2.509-1.206,4.734,4.734,0,0,0-2.911.708,5.407,5.407,0,0,0-2.775,3.512,6.979,6.979,0,0,0,1.121,5.029,7.737,7.737,0,0,0,3.986,3.788,5.212,5.212,0,0,0,4.426-.522,6.842,6.842,0,0,0,1.931-1.679,8.672,8.672,0,0,0,1.277-2.113l-1.251-2.172Z" transform="translate(-277.209 -525.931)" fill="#fff"/>
      <path id="Trazado_4253" data-name="Trazado 4253" d="M374.664,557.218,367.29,538.9l3.7-1.488,7.374,18.319Z" transform="translate(-266.928 -529.417)" fill="#fff"/>
      <path id="Trazado_4254" data-name="Trazado 4254" d="M373.465,536.471l7.236-.869a14.315,14.315,0,0,1,3.778-.073,6.612,6.612,0,0,1,3.173,1.452,8.623,8.623,0,0,1,2.252,2.95,14.564,14.564,0,0,1,1.2,4.558,13.02,13.02,0,0,1-.1,4.245,8.723,8.723,0,0,1-1.685,3.716,7.012,7.012,0,0,1-2.593,1.9,12.118,12.118,0,0,1-3.454.833l-7.451.895Zm4.357,2.842,1.559,12.988,2.956-.355a10.953,10.953,0,0,0,2.371-.475,3.685,3.685,0,0,0,1.5-1.007,4.2,4.2,0,0,0,.812-2.018,12.927,12.927,0,0,0-.03-3.64,11.781,11.781,0,0,0-.822-3.443,4.513,4.513,0,0,0-1.35-1.764,3.78,3.78,0,0,0-1.943-.7,17.888,17.888,0,0,0-3.273.2Z" transform="translate(-260.934 -531.334)" fill="#fff"/>
      <path id="Trazado_4255" data-name="Trazado 4255" d="M404.335,552.317l-4.32.388-2.118-4.314-7.863.706-1.222,4.613-4.213.378,5.9-20.358,4.2-.376Zm-8.01-7.126-3.366-7.057-2,7.537Z" transform="translate(-250.128 -533.354)" fill="#fff"/>
      <path id="Trazado_4256" data-name="Trazado 4256" d="M401.63,553.172V533.425h6.4a23.259,23.259,0,0,1,4.741.3,5.2,5.2,0,0,1,2.844,1.933,6.136,6.136,0,0,1,1.145,3.847,6.457,6.457,0,0,1-.66,3.058,5.424,5.424,0,0,1-1.677,1.945,5.75,5.75,0,0,1-2.069.936,22.673,22.673,0,0,1-4.134.284h-2.6v7.449Zm3.987-16.407v5.6H407.8a10.282,10.282,0,0,0,3.151-.309,2.6,2.6,0,0,0,1.7-2.507,2.55,2.55,0,0,0-.635-1.777,2.758,2.758,0,0,0-1.6-.877,19.358,19.358,0,0,0-2.869-.134Z" transform="translate(-233.598 -533.285)" fill="#fff"/>
      <path id="Trazado_4257" data-name="Trazado 4257" d="M412.063,542.815a12.533,12.533,0,0,1,2.353-4.576,9.242,9.242,0,0,1,2.556-2.046,7.615,7.615,0,0,1,2.962-.948,10.833,10.833,0,0,1,4.3.5,9.285,9.285,0,0,1,5.88,4.645,12.1,12.1,0,0,1-4.4,14.354,9.2,9.2,0,0,1-7.437.536,9.3,9.3,0,0,1-5.9-4.631A10.193,10.193,0,0,1,412.063,542.815Zm3.967,1.08a7.4,7.4,0,0,0-.018,5.317,5.323,5.323,0,0,0,7.494,2.321,7.542,7.542,0,0,0,2.979-4.473,7.438,7.438,0,0,0,.069-5.279,5.513,5.513,0,0,0-7.583-2.314A7.446,7.446,0,0,0,416.03,543.894Z" transform="translate(-224.078 -531.562)" fill="#fff"/>
      <path id="Trazado_4258" data-name="Trazado 4258" d="M421.431,556.77l6.7-18.577,7.894,2.849a14.366,14.366,0,0,1,4.146,2.061,4.54,4.54,0,0,1,1.517,2.56,5.691,5.691,0,0,1-.244,3.22,5.274,5.274,0,0,1-2.475,3.009,6.284,6.284,0,0,1-4.3.392,9.365,9.365,0,0,1,1.448,2.282,22.809,22.809,0,0,1,1.044,3.788l.962,4.442-4.487-1.618-1.251-5.021a28.247,28.247,0,0,0-.991-3.445,3.105,3.105,0,0,0-.849-1.18,6.623,6.623,0,0,0-1.813-.891l-.761-.274-2.8,7.754Zm7.618-9.366,2.775,1a15.18,15.18,0,0,0,3.455.987,2.138,2.138,0,0,0,1.334-.406,2.568,2.568,0,0,0,.883-1.255,2.363,2.363,0,0,0,.047-1.695,2.441,2.441,0,0,0-1.151-1.239q-.432-.228-2.714-1.05l-2.928-1.056Z" transform="translate(-214.379 -528.657)" fill="#fff"/>
      <path id="Trazado_4259" data-name="Trazado 4259" d="M448.524,570.8l-3.336-2.771,1.537-4.552-6.073-5.043-4.119,2.412-3.255-2.7,18.531-10.281,3.246,2.694Zm-.658-10.7,2.587-7.376-6.734,3.935Z" transform="translate(-202.88 -519.273)" fill="#fff"/>
      <path id="Trazado_4260" data-name="Trazado 4260" d="M442.247,568.12,455.74,553.7l6.129,5.734a14.33,14.33,0,0,1,3,3.531,4.545,4.545,0,0,1,.384,2.95,5.685,5.685,0,0,1-1.5,2.861,5.261,5.261,0,0,1-3.462,1.787,6.26,6.26,0,0,1-4.1-1.336,9.367,9.367,0,0,1,.428,2.67,22.583,22.583,0,0,1-.534,3.892l-.871,4.459-3.482-3.257.832-5.108a27.486,27.486,0,0,0,.447-3.555,3.053,3.053,0,0,0-.313-1.419,6.579,6.579,0,0,0-1.314-1.535l-.589-.552-5.632,6.02Zm10.7-5.6,2.154,2.016a15.169,15.169,0,0,0,2.782,2.27,2.151,2.151,0,0,0,1.387.156,2.586,2.586,0,0,0,1.306-.806,2.365,2.365,0,0,0,.711-1.539,2.444,2.444,0,0,0-.568-1.592q-.307-.381-2.079-2.038l-2.272-2.126Z" transform="translate(-194.175 -513.607)" fill="#fff"/>
      <path id="Trazado_4261" data-name="Trazado 4261" d="M461.835,577.343l1.892,3.589a8.684,8.684,0,0,1-5.478,1.342,9.3,9.3,0,0,1-7.553-9.021,10.3,10.3,0,0,1,3.358-7.011q3.464-3.509,7.191-3.663a8.728,8.728,0,0,1,6.682,2.761,8.209,8.209,0,0,1,2.686,5.66,7.762,7.762,0,0,1-1.115,4.008l-3.472-2.1a4.075,4.075,0,0,0-.636-5.283,4.5,4.5,0,0,0-3.644-1.381q-2.078.163-4.558,2.676-2.631,2.666-2.786,4.743a4.373,4.373,0,0,0,1.375,3.59,3.994,3.994,0,0,0,2.656,1.2A5.868,5.868,0,0,0,461.835,577.343Z" transform="translate(-185.977 -504.997)" fill="#fff"/>
      <path id="Trazado_4262" data-name="Trazado 4262" d="M458.669,576.869l2.633,2.873a4.734,4.734,0,0,0-1.438,2.861,4.293,4.293,0,0,0,1.005,2.859,4.427,4.427,0,0,0,2.4,1.829,2.419,2.419,0,0,0,2.111-.365,1.793,1.793,0,0,0,.706-1.044,3.294,3.294,0,0,0-.179-1.661q-.228-.706-1.23-3.068a10.817,10.817,0,0,1-1.143-4.771,5.139,5.139,0,0,1,2.081-3.843,5.078,5.078,0,0,1,2.771-1.011,5.355,5.355,0,0,1,3.08.765,9.914,9.914,0,0,1,2.885,2.694,8.332,8.332,0,0,1,2.061,5.453,5.745,5.745,0,0,1-2.29,4.193l-2.536-3.082a3.4,3.4,0,0,0,1.09-2.191,4.014,4.014,0,0,0-.987-2.42,4.553,4.553,0,0,0-2.205-1.746,1.438,1.438,0,0,0-1.36.23,1.516,1.516,0,0,0-.6,1.194,10.478,10.478,0,0,0,1.149,3.722,19.233,19.233,0,0,1,1.45,4.292,5.545,5.545,0,0,1-.292,2.952,6.22,6.22,0,0,1-5.147,3.679,5.664,5.664,0,0,1-3.364-.808,11.221,11.221,0,0,1-3.159-3,8.548,8.548,0,0,1-2.075-5.638A7.528,7.528,0,0,1,458.669,576.869Z" transform="translate(-180.764 -496.313)" fill="#fff"/>
      <path id="Trazado_4263" data-name="Trazado 4263" d="M464.866,601.049l-1.354-4.121,3.724-3.039-2.459-7.5-4.771-.15-1.318-4.02,21.162,1.153,1.314,4.006ZM470,591.638l6.115-4.869-7.794-.25Z" transform="translate(-178.217 -485.925)" fill="#fff"/>
      <path id="Trazado_4264" data-name="Trazado 4264" d="M469.685,629.452l-.386,3.878a4.735,4.735,0,0,0-3.092.834,4.313,4.313,0,0,0-1.462,2.656,4.427,4.427,0,0,0,.234,3.005,2.412,2.412,0,0,0,1.677,1.33,1.793,1.793,0,0,0,1.251-.169,3.278,3.278,0,0,0,1.117-1.24q.375-.641,1.468-2.964a10.837,10.837,0,0,1,2.794-4.032,5.142,5.142,0,0,1,4.253-1.007,5.043,5.043,0,0,1,2.6,1.389,5.331,5.331,0,0,1,1.482,2.808,9.841,9.841,0,0,1-.085,3.945,8.322,8.322,0,0,1-2.69,5.171,5.751,5.751,0,0,1-4.653,1.088l.6-3.945a3.413,3.413,0,0,0,2.363-.648,4.036,4.036,0,0,0,1.147-2.349,4.583,4.583,0,0,0-.169-2.808,1.444,1.444,0,0,0-1.08-.859,1.522,1.522,0,0,0-1.291.347,10.5,10.5,0,0,0-2.01,3.336,19.227,19.227,0,0,1-2.235,3.943,5.512,5.512,0,0,1-2.392,1.748,6.217,6.217,0,0,1-6.174-1.385,5.655,5.655,0,0,1-1.64-3.047,11.191,11.191,0,0,1,.132-4.355,8.55,8.55,0,0,1,2.822-5.3A7.529,7.529,0,0,1,469.685,629.452Z" transform="translate(-175.817 -440.117)" fill="#fff"/>
      <path id="Trazado_4265" data-name="Trazado 4265" d="M463.982,637.989l17.184,9.733-7.216,12.74-2.907-1.646,5.252-9.272-3.809-2.158-4.887,8.627-2.895-1.64,4.885-8.627-4.676-2.649-5.437,9.6-2.895-1.64Z" transform="translate(-180.263 -431.796)" fill="#fff"/>
      <path id="Trazado_4266" data-name="Trazado 4266" d="M461.025,655.545l2.688,1.963-5.07,6.94-6.353-4.641a10.853,10.853,0,0,1,.418-4.193,13.244,13.244,0,0,1,2.1-4.432,10.819,10.819,0,0,1,4.235-3.594,8.27,8.27,0,0,1,5.045-.6,12.034,12.034,0,0,1,4.932,2.17,11.362,11.362,0,0,1,3.663,4.278,8.708,8.708,0,0,1,.737,5.226,10.213,10.213,0,0,1-2,4.4,9.444,9.444,0,0,1-4.635,3.73,6.97,6.97,0,0,1-5.013-.369l1.74-3.636a4.162,4.162,0,0,0,2.779.087,4.733,4.733,0,0,0,2.379-1.823,5.417,5.417,0,0,0,1.113-4.335,6.985,6.985,0,0,0-3.06-4.144,7.729,7.729,0,0,0-5.179-1.85,5.215,5.215,0,0,0-3.837,2.27,6.819,6.819,0,0,0-1.084,2.318,8.569,8.569,0,0,0-.315,2.449l2.024,1.478Z" transform="translate(-184.49 -423.212)" fill="#fff"/>
      <path id="Trazado_4267" data-name="Trazado 4267" d="M468.131,666.451l-2.674,2.958-7.934-7.171a22.177,22.177,0,0,0-2.548-2.1,3.2,3.2,0,0,0-2.262-.4,4.232,4.232,0,0,0-2.31,1.458,4.026,4.026,0,0,0-1.2,2.365,2.741,2.741,0,0,0,.569,1.911,21.957,21.957,0,0,0,2.371,2.38l8.105,7.325-2.674,2.958-7.7-6.954a26.638,26.638,0,0,1-3.512-3.61,5.543,5.543,0,0,1-1.039-2.546,6.027,6.027,0,0,1,.363-2.8,10.14,10.14,0,0,1,2.1-3.22,10.9,10.9,0,0,1,3.36-2.743,6.153,6.153,0,0,1,2.808-.577,5.444,5.444,0,0,1,2.375.639,24.083,24.083,0,0,1,3.981,3.072Z" transform="translate(-191.225 -414.633)" fill="#fff"/>
      <path id="Trazado_4268" data-name="Trazado 4268" d="M449.072,662.05l12.239,15.5-6.586,5.2a14.393,14.393,0,0,1-3.941,2.436,4.564,4.564,0,0,1-2.976-.063,5.69,5.69,0,0,1-2.605-1.908,5.267,5.267,0,0,1-1.247-3.691,6.274,6.274,0,0,1,1.933-3.854,9.31,9.31,0,0,1-2.7.024,22.827,22.827,0,0,1-3.768-1.11l-4.28-1.529,3.744-2.956,4.924,1.586a27.9,27.9,0,0,0,3.449.975,3.039,3.039,0,0,0,1.45-.1,6.514,6.514,0,0,0,1.712-1.068l.635-.5-5.11-6.469Zm3.933,11.416-2.313,1.829a15.142,15.142,0,0,0-2.662,2.41,2.142,2.142,0,0,0-.361,1.348,2.582,2.582,0,0,0,.6,1.415,2.368,2.368,0,0,0,1.415.932,2.426,2.426,0,0,0,1.659-.323q.423-.248,2.325-1.75l2.442-1.927Z" transform="translate(-201.075 -408.442)" fill="#fff"/>
      <path id="Trazado_4269" data-name="Trazado 4269" d="M435.91,669.05l11,16.4L443.6,687.67l-11-16.4Z" transform="translate(-203.539 -401.648)" fill="#fff"/>
      <path id="Trazado_4270" data-name="Trazado 4270" d="M443.669,690.03l-6.8,2.611a14.2,14.2,0,0,1-3.644.993A6.593,6.593,0,0,1,429.79,693a8.658,8.658,0,0,1-2.907-2.313,14.506,14.506,0,0,1-2.276-4.125,12.939,12.939,0,0,1-.94-4.14,8.7,8.7,0,0,1,.725-4.016,6.99,6.99,0,0,1,2.051-2.475,12.051,12.051,0,0,1,3.145-1.655l7.005-2.688Zm-4.919-1.691-4.686-12.212-2.781,1.066a10.768,10.768,0,0,0-2.183,1.04,3.663,3.663,0,0,0-1.208,1.342,4.189,4.189,0,0,0-.292,2.154,12.84,12.84,0,0,0,.918,3.523,11.752,11.752,0,0,0,1.638,3.137,4.5,4.5,0,0,0,1.74,1.379,3.794,3.794,0,0,0,2.057.207,18.155,18.155,0,0,0,3.123-1Z" transform="translate(-212.215 -399.182)" fill="#fff"/>
      <path id="Trazado_4271" data-name="Trazado 4271" d="M411.977,680.942l4.178-1.17,2.871,3.854,7.6-2.132.359-4.759,4.073-1.143-2.075,21.091-4.059,1.139Zm9.179,5.541,4.6,6.322.589-7.776Z" transform="translate(-223.555 -395.298)" fill="#fff"/>
      <path id="Trazado_4272" data-name="Trazado 4272" d="M419.231,699.511h-7.287a14.2,14.2,0,0,1-3.758-.376,6.6,6.6,0,0,1-2.978-1.819,8.633,8.633,0,0,1-1.886-3.2,14.556,14.556,0,0,1-.646-4.666,12.988,12.988,0,0,1,.6-4.2,8.716,8.716,0,0,1,2.116-3.49,7,7,0,0,1,2.8-1.575,12,12,0,0,1,3.529-.418h7.5Zm-3.987-3.34V683.09h-2.978a10.847,10.847,0,0,0-2.412.189,3.669,3.669,0,0,0-1.608.822,4.157,4.157,0,0,0-1.044,1.906,12.871,12.871,0,0,0-.4,3.618,11.787,11.787,0,0,0,.4,3.516,4.491,4.491,0,0,0,1.131,1.911,3.783,3.783,0,0,0,1.844.93,18.037,18.037,0,0,0,3.275.189Z" transform="translate(-232.582 -391.249)" fill="#fff"/>
      <path id="Trazado_4273" data-name="Trazado 4273" d="M401.725,679.764v19.747H388.187v-3.34h9.549V691.5h-8.243v-3.342h8.243v-8.391Z" transform="translate(-246.645 -391.249)" fill="#fff"/>
      <path id="Trazado_4274" data-name="Trazado 4274" d="M389.343,680.17l-2.442,19.6-3.957-.493,2.442-19.6Z" transform="translate(-251.733 -391.333)" fill="#fff"/>
      <path id="Trazado_4275" data-name="Trazado 4275" d="M391.414,681.753l-6.3,18.717-3.677-1.238-3.454-15.077-4.207,12.5-3.51-1.18,6.3-18.717,3.791,1.275,3.439,14.744,4.107-12.2Z" transform="translate(-264.037 -394.167)" fill="#fff"/>
      <path id="Trazado_4276" data-name="Trazado 4276" d="M361.658,671.274l4.038,1.584-.031,4.8,7.348,2.883,3.155-3.583,3.937,1.545-14.37,15.578-3.925-1.539Zm3.983,9.953-.142,7.815,5.157-5.847Z" transform="translate(-272.394 -399.489)" fill="#fff"/>
      <path id="Trazado_4277" data-name="Trazado 4277" d="M373.47,674.441l-11.41,16.118-3.167-2.243,1.023-15.434-7.62,10.764-3.023-2.14,11.412-16.118,3.265,2.312-.944,15.111,7.441-10.509Z" transform="translate(-284.415 -405.202)" fill="#fff"/>
      <path id="Trazado_4278" data-name="Trazado 4278" d="M349.164,665.874l-2.3-3.34a8.691,8.691,0,0,1,5.281-1.98,9.309,9.309,0,0,1,8.562,8.072,10.274,10.274,0,0,1-2.507,7.356q-3.024,3.893-6.71,4.487a8.741,8.741,0,0,1-6.96-1.955,8.213,8.213,0,0,1-3.334-5.3,7.777,7.777,0,0,1,.637-4.113l3.695,1.677a4.076,4.076,0,0,0,1.253,5.171,4.5,4.5,0,0,0,3.782.942q2.045-.4,4.211-3.192,2.3-2.959,2.209-5.039a4.376,4.376,0,0,0-1.791-3.405,3.992,3.992,0,0,0-2.779-.879A5.856,5.856,0,0,0,349.164,665.874Z" transform="translate(-292.322 -409.895)" fill="#fff"/>
      <path id="Trazado_4279" data-name="Trazado 4279" d="M353.245,658.681,338.458,671.77l-2.643-2.985L350.6,655.7Z" transform="translate(-297.477 -414.609)" fill="#fff"/>
      <path id="Trazado_4280" data-name="Trazado 4280" d="M353.888,659.935l-16.017,11.55L329.3,659.608l2.712-1.953,6.231,8.643,3.551-2.562-5.8-8.042,2.7-1.945,5.8,8.042,4.359-3.145-6.452-8.948,2.7-1.945Z" transform="translate(-303.796 -422.319)" fill="#fff"/>
      <path id="Trazado_4281" data-name="Trazado 4281" d="M348.452,652.816l-17.168,9.76-4.148-7.3a14.374,14.374,0,0,1-1.813-4.262,4.557,4.557,0,0,1,.512-2.932,5.679,5.679,0,0,1,2.278-2.288,5.28,5.28,0,0,1,3.837-.678,6.279,6.279,0,0,1,3.517,2.495,9.311,9.311,0,0,1,.386-2.676,22.544,22.544,0,0,1,1.665-3.557l2.158-4,2.357,4.144-2.311,4.631a27.917,27.917,0,0,0-1.486,3.261,3.063,3.063,0,0,0-.12,1.448,6.522,6.522,0,0,0,.8,1.854l.4.7,7.167-4.075Zm-11.879,2.166-1.458-2.564a15.313,15.313,0,0,0-1.98-3,2.163,2.163,0,0,0-1.279-.56,2.562,2.562,0,0,0-1.488.382,2.365,2.365,0,0,0-1.137,1.255,2.446,2.446,0,0,0,.069,1.691q.183.455,1.379,2.562l1.537,2.706Z" transform="translate(-307.718 -432.385)" fill="#fff"/>
      <path id="Trazado_4282" data-name="Trazado 4282" d="M338.75,627.616l1.127,4.189L336,634.637l2.053,7.622,4.755.406,1.1,4.085-21.07-2.29-1.1-4.071Zm-5.636,9.122-6.367,4.534,7.77.668Z" transform="translate(-311.14 -441.864)" fill="#fff"/>
    </g>
  </g>
</svg>
