<?xml version="1.0" encoding="UTF-8" standalone="no"?>
<!DOCTYPE svg PUBLIC "-//W3C//DTD SVG 1.1//EN" "http://www.w3.org/Graphics/SVG/1.1/DTD/svg11.dtd">
<svg width="100%" height="100%" viewBox="0 0 400 400" version="1.1" xmlns="http://www.w3.org/2000/svg" xmlns:xlink="http://www.w3.org/1999/xlink" xml:space="preserve" xmlns:serif="http://www.serif.com/" style="fill-rule:evenodd;clip-rule:evenodd;stroke-linejoin:round;stroke-miterlimit:2;">
    <rect id="Mesa-de-trabajo1" serif:id="Mesa de trabajo1" x="0" y="0" width="400" height="400" style="fill:none;"/>
    <g id="Mesa-de-trabajo11" serif:id="Mesa de trabajo1">
        <g id="vector1" transform="matrix(1.48699,0,0,1.48699,200,200)">
            <g transform="matrix(1,0,0,1,-134.5,-115.346)">
                <clipPath id="_clip1">
                    <rect x="0" y="0" width="269" height="230.692"/>
                </clipPath>
                <g clip-path="url(#_clip1)">
                    <g id="vector11" serif:id="vector1" transform="matrix(1,0,0,1,-303.988,-247.467)">
                        <g id="Grupo_1760" transform="matrix(1,0,0,1,334.478,283.359)">
                            <g id="Trazado_3486" transform="matrix(1,0,0,1,-254.217,-169.52)">
                                <path d="M388.684,358.734L347.052,358.734L350.474,308.547L385.262,308.547L388.684,358.734Z" style="fill:rgb(17,2,57);fill-rule:nonzero;"/>
                            </g>
                            <g id="Trazado_3487" transform="matrix(1,0,0,1,-262.165,-142.874)">
                                <path d="M402.088,324.053C401.584,323.299 400.735,322.846 399.828,322.845L351.8,322.845C350.894,322.846 350.045,323.3 349.541,324.053L343.249,333.438C342.95,333.886 342.79,334.412 342.79,334.951C342.79,336.444 344.018,337.673 345.511,337.673L406.111,337.673C407.603,337.673 408.831,336.444 408.831,334.952C408.831,334.413 408.671,333.886 408.371,333.438L402.088,324.053Z" style="fill:rgb(17,2,57);fill-rule:nonzero;"/>
                            </g>
                            <path id="Rectángulo_364" d="M227.302,4.091C227.302,1.833 225.469,0 223.211,0L4.091,0C1.833,0 0,1.833 0,4.091L0,148.279C0,150.537 1.833,152.37 4.091,152.37L223.211,152.37C225.469,152.37 227.302,150.537 227.302,148.279L227.302,4.091Z" style="fill:rgb(17,2,57);"/>
                            <g id="Rectángulo_365" transform="matrix(1,0,0,1,10.465,10.095)">
                                <rect x="0" y="0" width="206.372" height="130.602" style="fill:rgb(254,254,254);"/>
                            </g>
                            <g id="Rectángulo_366" transform="matrix(1,0,0,1,15.621,24.318)">
                                <rect x="0" y="0" width="196.06" height="116.379" style="fill:rgb(229,230,237);"/>
                            </g>
                            <g id="Rectángulo_367" transform="matrix(1,0,0,1,15.621,24.318)">
                                <rect x="0" y="0" width="196.06" height="9.628" style="fill:rgb(179,238,246);"/>
                            </g>
                            <g id="Rectángulo_368" transform="matrix(1,0,0,1,141.276,65.348)">
                                <rect x="0" y="0" width="60.888" height="8.037" style="fill:rgb(254,254,254);"/>
                            </g>
                            <g id="Rectángulo_369" transform="matrix(1,0,0,1,141.276,79.557)">
                                <rect x="0" y="0" width="60.888" height="8.038" style="fill:rgb(254,254,254);"/>
                            </g>
                            <g id="Rectángulo_370" transform="matrix(1,0,0,1,141.276,93.766)">
                                <rect x="0" y="0" width="60.888" height="8.037" style="fill:rgb(254,254,254);"/>
                            </g>
                            <g id="Rectángulo_371" transform="matrix(1,0,0,1,33.703,43.607)">
                                <rect x="0" y="0" width="60.889" height="8.037" style="fill:rgb(254,254,254);"/>
                            </g>
                            <g id="Rectángulo_372" transform="matrix(1,0,0,1,33.703,57.817)">
                                <rect x="0" y="0" width="60.889" height="8.037" style="fill:rgb(254,254,254);"/>
                            </g>
                        </g>
                        <g id="Grupo_1763" transform="matrix(1,0,0,1,303.988,247.467)">
                            <g id="Grupo_1761" transform="matrix(1,0,0,1,0,96.193)">
                                <g id="Trazado_3488" transform="matrix(1,0,0,1,-303.988,-281.057)">
                                    <path d="M426.233,281.057L311.279,281.057C311.278,281.057 311.278,281.057 311.277,281.057C307.279,281.057 303.989,284.347 303.988,288.345L303.988,325.413C303.99,329.412 307.28,332.701 311.279,332.701L383.3,332.701L410.729,356.026L397.7,332.7L426.231,332.7C430.229,332.699 433.518,329.41 433.519,325.412L433.519,288.345C433.518,284.348 430.23,281.059 426.233,281.057Z" style="fill:rgb(253,156,21);fill-rule:nonzero;"/>
                                </g>
                                <g id="Rectángulo_373" transform="matrix(1,0,0,1,43.317,9.995)">
                                    <rect x="0" y="0" width="77.469" height="4.46" style="fill:white;"/>
                                </g>
                                <g id="Rectángulo_374" transform="matrix(1,0,0,1,43.317,19.095)">
                                    <rect x="0" y="0" width="77.469" height="4.46" style="fill:white;"/>
                                </g>
                                <g id="Rectángulo_375" transform="matrix(1,0,0,1,43.317,28.195)">
                                    <rect x="0" y="0" width="77.469" height="4.46" style="fill:white;"/>
                                </g>
                                <g id="Rectángulo_376" transform="matrix(1,0,0,1,43.317,37.295)">
                                    <rect x="0" y="0" width="51.417" height="4.46" style="fill:white;"/>
                                </g>
                                <g id="Trazado_3489" transform="matrix(1,0,0,1,-299.241,-274.497)">
                                    <path d="M336.424,299.523C336.423,307.72 329.677,314.465 321.48,314.465C313.282,314.465 306.536,307.719 306.536,299.521C306.536,291.324 313.281,284.578 321.478,284.577C321.478,284.577 321.479,284.577 321.479,284.577C329.678,284.577 336.424,291.323 336.424,299.522C336.424,299.522 336.424,299.523 336.424,299.523Z" style="fill:rgb(17,2,57);fill-rule:nonzero;"/>
                                </g>
                                <g id="Elipse_62" transform="matrix(1,0,0,1,18.02,16.232)">
                                    <ellipse cx="4.218" cy="4.35" rx="4.218" ry="4.35" style="fill:white;"/>
                                </g>
                                <g id="Trazado_3490" transform="matrix(1,0,0,1,-294.438,-264.404)">
                                    <path d="M316.753,289.992L316.598,289.992C312.491,289.992 309.112,293.371 309.111,297.478L309.111,302.252C313.749,305.081 319.602,305.081 324.24,302.252L324.24,297.478C324.239,293.371 320.86,289.992 316.753,289.992Z" style="fill:white;fill-rule:nonzero;"/>
                                </g>
                            </g>
                            <g id="Grupo_1762" transform="matrix(1,0,0,1,139.47,0)">
                                <g id="Trazado_3491" transform="matrix(1,0,0,1,-352.69,-247.467)">
                                    <path d="M474.932,247.467L359.978,247.467C359.978,247.467 359.977,247.467 359.977,247.467C355.979,247.467 352.69,250.756 352.69,254.754C352.69,254.754 352.69,254.755 352.69,254.755L352.69,291.823C352.69,291.823 352.69,291.824 352.69,291.824C352.69,295.822 355.979,299.111 359.977,299.111C359.977,299.111 359.978,299.111 359.978,299.111L393.26,299.111L384.342,322.436L407.664,299.111L474.931,299.111C478.929,299.111 482.219,295.821 482.219,291.823L482.219,254.755C482.219,250.757 478.93,247.468 474.932,247.467Z" style="fill:rgb(208,209,222);fill-rule:nonzero;"/>
                                </g>
                                <g id="Rectángulo_377" transform="matrix(1,0,0,1,43.315,9.996)">
                                    <rect x="0" y="0" width="77.469" height="4.461" style="fill:white;"/>
                                </g>
                                <g id="Rectángulo_378" transform="matrix(1,0,0,1,43.315,19.096)">
                                    <rect x="0" y="0" width="77.469" height="4.46" style="fill:white;"/>
                                </g>
                                <g id="Rectángulo_379" transform="matrix(1,0,0,1,43.315,28.196)">
                                    <rect x="0" y="0" width="77.469" height="4.46" style="fill:white;"/>
                                </g>
                                <g id="Rectángulo_380" transform="matrix(1,0,0,1,43.315,37.296)">
                                    <rect x="0" y="0" width="51.417" height="4.46" style="fill:white;"/>
                                </g>
                                <g id="Trazado_3492" transform="matrix(1,0,0,1,-347.945,-240.907)">
                                    <path d="M385.125,265.933C385.124,274.13 378.378,280.875 370.181,280.875C361.983,280.875 355.237,274.129 355.237,265.931C355.237,257.733 361.983,250.987 370.181,250.987C370.181,250.987 370.182,250.987 370.182,250.987C378.38,250.988 385.126,257.735 385.125,265.933Z" style="fill:rgb(17,2,57);fill-rule:nonzero;"/>
                                </g>
                                <g id="Trazado_3493" transform="matrix(1,0,0,1,-340.963,-236.903)">
                                    <path d="M367.416,257.485C367.346,259.749 365.464,261.573 363.199,261.573C360.885,261.573 358.98,259.668 358.98,257.354C358.98,255.04 360.885,253.135 363.199,253.135C363.2,253.135 363.2,253.135 363.201,253.135C365.55,253.173 367.452,255.136 367.416,257.485Z" style="fill:white;fill-rule:nonzero;"/>
                                </g>
                                <g id="Trazado_3494" transform="matrix(1,0,0,1,-343.142,-230.814)">
                                    <path d="M365.453,256.4L365.3,256.4C361.192,256.401 357.812,259.781 357.811,263.889L357.811,268.663C362.45,271.488 368.301,271.488 372.94,268.663L372.94,263.889C372.939,259.782 369.56,256.402 365.453,256.4Z" style="fill:white;fill-rule:nonzero;"/>
                                </g>
                            </g>
                        </g>
                        <g id="Grupo_1765" transform="matrix(1,0,0,1,481.156,398.223)">
                            <path id="Rectángulo_381" d="M59.024,2.345C59.024,1.051 57.973,0 56.679,0L2.345,0C1.051,0 0,1.051 0,2.345L0,16.388C0,17.682 1.051,18.733 2.345,18.733L56.679,18.733C57.973,18.733 59.024,17.682 59.024,16.388L59.024,2.345Z" style="fill:rgb(253,156,21);"/>
                            <g id="Grupo_1764" transform="matrix(1,0,0,1,15.883,4.751)">
                                <g id="Trazado_3495" transform="matrix(1,0,0,1,-371.4,-301.769)">
                                    <path d="M379.121,304.074C379.123,305.018 378.464,305.845 377.543,306.053C378.651,306.24 379.459,307.23 379.419,308.353C379.419,309.917 378.053,310.893 375.905,310.893L371.405,310.893L371.405,301.766L375.738,301.766C377.806,301.769 379.121,302.668 379.121,304.074ZM376.673,304.489C376.673,303.942 376.273,303.619 375.605,303.63L373.784,303.63L373.784,305.4L375.6,305.4C376.268,305.4 376.672,305.062 376.672,304.49L376.673,304.489ZM376.959,308.057C376.959,307.484 376.438,307.121 375.605,307.132L373.784,307.132L373.784,309.045L375.6,309.045C376.437,309.046 376.958,308.682 376.958,308.058L376.959,308.057Z" style="fill:white;fill-rule:nonzero;"/>
                                </g>
                                <g id="Trazado_3496" transform="matrix(1,0,0,1,-365.44,-301.769)">
                                    <path d="M378.842,308.968C378.864,308.969 378.885,308.969 378.907,308.969C379.855,308.969 380.635,308.189 380.635,307.241C380.635,307.183 380.632,307.126 380.626,307.068L380.626,301.768L383.009,301.768L383.009,307.068C383.009,309.474 381.394,310.997 378.828,310.997C376.262,310.997 374.598,309.473 374.598,307.068L374.598,301.768L376.981,301.768L376.981,307.068C376.978,307.109 376.977,307.15 376.977,307.191C376.977,308.167 377.78,308.97 378.756,308.97C378.785,308.97 378.813,308.969 378.842,308.968Z" style="fill:white;fill-rule:nonzero;"/>
                                </g>
                                <g id="Trazado_3497" transform="matrix(1,0,0,1,-359.541,-301.769)">
                                    <path d="M383.5,307.98L383.5,310.9L381.117,310.9L381.117,308.051L377.758,301.774L380.141,301.774L382.303,305.694L384.414,301.774L386.794,301.774L383.5,307.98Z" style="fill:white;fill-rule:nonzero;"/>
                                </g>
                            </g>
                        </g>
                        <g id="Grupo_1767" transform="matrix(1,0,0,1,356.251,283.231)">
                            <g id="Trazado_3498" transform="matrix(1,0,0,1,-267.688,-223.997)">
                                <path d="M366.522,279.547C363.481,280.104 360.379,280.241 357.301,279.954C356.197,279.854 355.109,279.618 354.062,279.254C354.211,283.094 354.24,292.095 351.508,295.824C351.508,295.824 352.49,300.248 360.483,300.38C368.476,300.512 369.375,294.48 369.375,294.48C369.375,294.48 366.685,285.211 366.522,279.547Z" style="fill:rgb(248,134,103);fill-rule:nonzero;"/>
                            </g>
                            <g id="Trazado_3499" transform="matrix(1,0,0,1,-267.688,-223.997)">
                                <path d="M351.55,295.959C351.584,296.065 351.624,296.17 351.67,296.271L351.69,296.311C351.764,296.471 351.847,296.627 351.939,296.778L351.95,296.801C352.075,296.998 352.21,297.187 352.357,297.368L352.426,297.448C352.844,297.937 353.332,298.36 353.875,298.705L353.975,298.777C354.322,298.991 354.683,299.181 355.057,299.344C355.109,299.367 355.166,299.387 355.217,299.41C355.672,299.602 356.14,299.762 356.617,299.888C356.86,297.815 357.675,295.851 358.971,294.215C361.195,291.392 364.416,289.522 367.971,288.992C367.209,285.893 366.722,282.732 366.516,279.547C363.475,280.104 360.373,280.241 357.295,279.954C356.191,279.854 355.103,279.618 354.056,279.254C354.205,283.094 354.234,292.095 351.502,295.824L351.528,295.918L351.55,295.959Z" style="fill:rgb(228,89,64);fill-rule:nonzero;"/>
                            </g>
                            <g id="Trazado_3500" transform="matrix(1,0,0,1,-267.36,-239.097)">
                                <path d="M355.123,273.092C355.123,273.092 368.223,269.226 370.304,272.392C372.385,275.558 372.011,280.685 372.881,282.942C373.751,285.199 376.999,287.578 377.346,288.48C377.693,289.382 375.17,291.109 374.817,291.813C374.464,292.517 373.147,299.929 370.874,301.564C368.601,303.199 356.409,298.858 353.388,293.102C350.367,287.346 351.612,274.987 355.123,273.092Z" style="fill:rgb(248,134,103);fill-rule:nonzero;"/>
                            </g>
                            <g id="Trazado_3501" transform="matrix(1,0,0,1,-271.95,-240.085)">
                                <path d="M365.678,276.379C365.836,278.717 365.36,281.054 364.298,283.143C363.516,284.709 367.425,288.873 366.337,290.766C365.613,292.026 364.553,291.708 363.591,289.217C363.14,288.369 362.383,287.723 361.475,287.41C358.275,286.024 357.523,290.91 360.398,292.359C362.408,293.373 361.211,298.467 361.211,298.467C359.052,300.128 351.911,298.123 352.694,292.911C353.194,289.592 353.413,288.329 352.25,287.521C350.15,286.058 347.407,281.994 350.87,278.552C355.644,273.807 351.291,272.298 356.809,270.929C362.327,269.56 366.887,272.928 365.678,276.379Z" style="fill:rgb(17,2,57);fill-rule:nonzero;"/>
                            </g>
                            <g id="Trazado_3502" transform="matrix(1,0,0,1,-267.596,-242.425)">
                                <path d="M351.556,275.927C351.865,274.727 354.045,273.172 355.121,272.37C356.818,271.158 358.737,270.292 360.768,269.821C362.825,269.292 364.974,269.219 367.062,269.609C368.852,269.95 370.352,270.746 372.185,270.952C373.878,271.147 375.561,271.069 376.75,270.067C377.072,271.424 377.149,272.827 376.976,274.211C376.503,275.87 375.702,277.419 374.622,278.764C371.965,282.727 364.739,284.924 359.645,282.828C357.182,281.817 354.974,280.941 353.766,278.802C353.168,277.745 352.424,276.777 351.556,275.927Z" style="fill:rgb(17,2,57);fill-rule:nonzero;"/>
                            </g>
                            <g id="Trazado_3503" transform="matrix(1,0,0,1,-231.55,-232.595)">
                                <path d="M385.4,274.636L398.061,302.736C398.061,302.736 394.355,306.903 393.118,305.978C391.881,305.053 372.897,282.255 371.044,281.072C369.191,279.889 385.4,274.636 385.4,274.636Z" style="fill:rgb(17,2,57);fill-rule:nonzero;"/>
                            </g>
                            <g id="Trazado_3504" transform="matrix(1,0,0,1,-242.54,-253.795)">
                                <path d="M365,299.336C365,299.336 365.052,307.415 369.992,309.267C369.992,309.267 395.31,298.774 400.405,297.767C405.5,296.76 424.025,296.604 424.025,296.604L405.345,263.258C405.345,263.258 396.39,281.165 388.208,287.033C380.026,292.901 365,299.336 365,299.336Z" style="fill:rgb(97,211,46);fill-rule:nonzero;"/>
                            </g>
                            <g id="Trazado_3505" transform="matrix(1,0,0,1,-235.117,-235.875)">
                                <path d="M374,286.716C376,285.916 378.092,285.095 380.151,284.302C377.455,280.994 375.624,277.067 374.822,272.876C372.903,273.976 370.913,275.038 368.986,276.023C369.709,279.959 371.436,283.643 374,286.716Z" style="fill:rgb(17,2,57);fill-rule:nonzero;"/>
                            </g>
                            <g id="Trazado_3506" transform="matrix(1,0,0,1,-219.438,-259.955)">
                                <path d="M407.816,278C413.091,290.718 411.227,303.576 403.655,306.715C396.083,309.854 385.668,302.087 380.396,289.369C375.124,276.651 376.985,263.793 384.557,260.654C392.129,257.515 402.543,265.278 407.816,278Z" style="fill:rgb(1,199,226);fill-rule:nonzero;"/>
                            </g>
                            <g id="Trazado_3507" transform="matrix(1,0,0,1,-217.146,-257.927)">
                                <path d="M404.5,276.394C408.985,287.213 407.4,298.15 400.958,300.819C394.516,303.488 385.658,296.884 381.172,286.065C376.686,275.246 378.272,264.309 384.712,261.637C391.152,258.965 400.017,265.572 404.5,276.394Z" style="fill:rgb(17,2,57);fill-rule:nonzero;"/>
                            </g>
                            <g id="Trazado_3508" transform="matrix(1,0,0,1,-225.444,-223.698)">
                                <path d="M377.63,285.972C377.03,285.605 377.198,283.343 377.321,282.756C377.513,281.834 378.149,280.634 377.51,279.756C376.382,278.198 374.792,282.388 374.586,282.995C374.187,283.869 374.085,284.85 374.297,285.787C374.85,287.157 375.674,288.401 376.72,289.444C376.602,289.862 376.474,290.295 376.313,290.756C377.362,291.207 378.381,291.724 379.366,292.302C380.589,293.002 380.523,293.877 381.666,294.662L382.809,292.039C382.329,291.439 378.635,286.579 377.63,285.972Z" style="fill:rgb(248,134,103);fill-rule:nonzero;"/>
                            </g>
                            <g id="Trazado_3509" transform="matrix(1,0,0,1,-222.634,-225.871)">
                                <path d="M382.93,278.949C381.836,277.769 380.13,278.222 378.809,279.19C377.841,279.89 375.058,282.145 375.809,283.778C376.433,285.138 380.016,282.131 380.016,282.131C378.696,283.268 376.236,284.176 376.854,285.313C377.544,286.579 380.671,284.775 381.354,284.271C380.654,284.451 377.154,286.571 378.554,287.679C379.513,288.435 382.079,286.846 382.854,286.304C381.823,286.616 380.42,287.533 380.692,288.962C381.139,289.741 382.692,289.225 383.564,288.87C384.876,288.34 386.107,288.134 386.213,286.507C386.246,286.214 386.261,285.92 386.256,285.625C386.127,284.377 385.735,283.17 385.105,282.085C384.513,280.953 383.782,279.9 382.93,278.949Z" style="fill:rgb(248,134,103);fill-rule:nonzero;"/>
                            </g>
                            <g id="Trazado_3510" transform="matrix(1,0,0,1,-322.238,-236.081)">
                                <path d="M349.258,298.484C348.647,297.509 348.156,296.463 347.795,295.371C347.469,294.437 347.239,293.484 346.916,292.553C346.53,291.682 346.316,290.744 346.286,289.792C346.338,289.219 346.453,288.653 346.627,288.105C346.813,287.389 347.077,286.693 347.227,285.969C347.359,285.322 347.301,284.695 347.427,284.05C347.603,282.817 347.979,281.621 348.541,280.51C349.004,279.709 349.549,278.959 350.168,278.271C350.459,277.903 350.781,277.56 351.13,277.246C351.52,276.974 351.825,276.598 352.012,276.161C352.06,276.039 352.085,275.909 352.085,275.779C352.085,275.288 351.737,274.86 351.256,274.761C349.938,274.506 348.579,274.952 347.668,275.938C346.714,277.25 346.268,278.856 345.202,280.122C341.955,283.991 338.908,279.435 335.119,277.799C333.825,277.131 332.598,276.339 331.456,275.436C330.78,274.926 327.871,272.163 326.496,272.884C325.485,273.414 327.464,275.736 328.423,276.303C328.801,276.526 332.046,279.164 332.47,279.29C331.513,279.127 329.025,277.483 327.026,275.919C325.588,274.794 324.197,273.685 323.412,274.327C321.001,276.303 330.463,280.827 331.201,281.24C330.413,281.306 323.001,276.062 322.306,277.99C321.919,279.05 323.457,280.101 324.714,280.79C326.289,281.646 328.935,282.259 329.531,282.72C328.414,283.101 323.511,279.765 323.508,281.801C323.508,283.133 326.552,284.129 327.698,284.479C328.881,284.84 332.349,287.2 333.448,287.721C337.108,289.465 338.62,289.265 340.063,291.455C340.982,292.855 342.62,300.235 343.949,303.045L349.258,298.484Z" style="fill:rgb(248,134,103);fill-rule:nonzero;"/>
                            </g>
                            <g id="Trazado_3511" transform="matrix(1,0,0,1,-251.34,-216.969)">
                                <path d="M401.487,283.02C398.222,292.52 391.241,309.338 388.938,308.158C384.614,305.941 375.309,298.335 368.359,293.682C365.82,291.876 363.113,290.316 360.277,289.026L365.114,311.967C365.114,311.967 388.05,329.387 392.855,326.718C396.635,324.618 405.937,298.132 409.219,287.155C409.219,287.155 401.542,283.063 401.487,283.02Z" style="fill:rgb(40,109,201);fill-rule:nonzero;"/>
                            </g>
                            <g id="Trazado_3512" transform="matrix(1,0,0,1,-249.143,-205.481)">
                                <path d="M376.575,304.262C373.992,300.906 364.126,291.243 361.457,289.184L362.227,300.066C362.227,300.066 385.346,317.446 390.463,315.275C386.059,312.443 379.716,308.337 376.575,304.262Z" style="fill:rgb(0,49,114);fill-rule:nonzero;"/>
                            </g>
                            <g id="Trazado_3513" transform="matrix(1,0,0,1,-311.238,-224.83)">
                                <path d="M381.257,298.1C381.257,298.1 353.049,309.486 349.979,308.684C346.909,307.882 336.679,278.801 336.679,278.801L328.137,282.272C328.137,282.272 337.261,324.22 343.137,326.179C349.013,328.138 384.017,318.029 384.017,318.029C384.238,311.277 383.305,304.537 381.257,298.1Z" style="fill:rgb(40,109,201);fill-rule:nonzero;"/>
                            </g>
                            <g id="Trazado_3514" transform="matrix(1,0,0,1,-297.248,-206.239)">
                                <path d="M343.2,304.974C340.714,305.867 338.186,306.744 335.645,307.491C347.61,305.91 370.027,299.438 370.027,299.438C370.134,295.873 369.929,292.305 369.414,288.776C362.471,296.3 352.594,301.6 343.2,304.974Z" style="fill:rgb(0,49,114);fill-rule:nonzero;"/>
                            </g>
                            <g id="Trazado_3515" transform="matrix(1,0,0,1,-216.544,-246.438)">
                                <path d="M390.535,272.649C389.243,268.671 385.363,266.363 381.864,267.497C380.7,267.888 379.683,268.625 378.949,269.61C379.366,271.304 379.91,272.964 380.576,274.576C381.69,277.286 383.153,279.838 384.929,282.168C385.474,282.156 386.015,282.068 386.536,281.907C390.034,280.773 391.823,276.627 390.535,272.649Z" style="fill:rgb(208,209,222);fill-rule:nonzero;"/>
                            </g>
                            <g id="Grupo_1766" transform="matrix(1,0,0,1,67.708,69.384)">
                                <g id="Trazado_3516" transform="matrix(1,0,0,1,-345.881,-284.184)">
                                    <path d="M348.238,322.381C347.244,332.172 346.468,352.748 345.881,355.626L392.165,355.626C392.981,340.253 392.709,317.991 391.947,309.797C390.621,295.524 387.11,286.856 387.11,286.856C387.11,286.856 383.653,285.762 379.555,284.184C379.555,284.184 371.035,289.39 363.103,284.256C363.103,284.256 348.784,287.647 347.055,288.474C345.617,289.158 349.3,311.928 348.238,322.381Z" style="fill:rgb(40,109,201);fill-rule:nonzero;"/>
                                </g>
                                <g id="Trazado_3517" transform="matrix(1,0,0,1,-345.881,-273.656)">
                                    <path d="M360.48,325.255C360.441,320.678 359.542,316.149 357.831,311.904C357.42,310.945 357.134,309.936 356.98,308.904C356.743,306.526 356.079,304.211 355.021,302.068C353.987,300.504 352.939,298.949 351.921,297.377C351.351,296.61 350.755,295.793 350.097,294.831C349.047,293.228 348.103,291.557 347.27,289.831C347.811,297.019 348.77,306.618 348.241,311.85C347.247,321.641 346.471,342.217 345.884,345.095L367.425,345.095C364.656,341.532 362.995,337.195 361.368,331.907C360.757,329.743 360.458,327.503 360.48,325.255Z" style="fill:rgb(0,49,114);fill-rule:nonzero;"/>
                                </g>
                            </g>
                        </g>
                    </g>
                </g>
            </g>
        </g>
    </g>
</svg>
