<?xml version="1.0" encoding="UTF-8" standalone="no"?>
<!DOCTYPE svg PUBLIC "-//W3C//DTD SVG 1.1//EN" "http://www.w3.org/Graphics/SVG/1.1/DTD/svg11.dtd">
<svg width="100%" height="100%" viewBox="0 0 400 400" version="1.1" xmlns="http://www.w3.org/2000/svg" xmlns:xlink="http://www.w3.org/1999/xlink" xml:space="preserve" xmlns:serif="http://www.serif.com/" style="fill-rule:evenodd;clip-rule:evenodd;stroke-linejoin:round;stroke-miterlimit:2;">
    <rect id="Mesa-de-trabajo1" serif:id="Mesa de trabajo1" x="0" y="0" width="400" height="400" style="fill:none;"/>
    <g id="Mesa-de-trabajo11" serif:id="Mesa de trabajo1">
        <g id="vector2" transform="matrix(1.29504,0,0,1.29504,200,200)">
            <g transform="matrix(1,0,0,1,-154.435,-115.59)">
                <clipPath id="_clip1">
                    <rect x="0" y="0" width="308.87" height="231.18"/>
                </clipPath>
                <g clip-path="url(#_clip1)">
                    <g id="vector21" serif:id="vector2" transform="matrix(1,0,0,1,-290.438,-354.131)">
                        <g id="Grupo_1771" transform="matrix(1,0,0,1,290.438,354.131)">
                            <g id="Rectángulo_382" transform="matrix(1,0,0,1,56.391,171.857)">
                                <rect x="0" y="0" width="8.745" height="49.004" style="fill:rgb(17,2,57);"/>
                            </g>
                            <g id="Rectángulo_383" transform="matrix(1,0,0,1,221.697,171.857)">
                                <rect x="0" y="0" width="8.745" height="49.004" style="fill:rgb(17,2,57);"/>
                            </g>
                            <rect id="Rectángulo_384" x="0" y="0" width="286.833" height="176.319" style="fill:rgb(208,209,222);"/>
                            <g id="Rectángulo_385" transform="matrix(1,0,0,1,13.709,11.811)">
                                <rect x="0" y="0" width="259.416" height="152.697" style="fill:white;"/>
                            </g>
                            <g id="Trazado_3518" transform="matrix(1,0,0,1,-269.921,-311.803)">
                                <path d="M464.312,461.969L300.693,461.969C300.693,461.969 301.506,400.316 321.593,391.455C341.68,382.594 355.116,427.192 364.567,427.783C374.018,428.374 373.182,391.272 386.936,385.772C422.379,371.594 418.76,427.489 425.257,426.898C431.754,426.307 437.583,375.288 446.522,375.288C468.447,375.288 464.312,461.969 464.312,461.969Z" style="fill:rgb(228,229,236);fill-rule:nonzero;"/>
                            </g>
                            <g id="Trazado_3519" transform="matrix(1,0,0,1,-269.921,-307.964)">
                                <path d="M464.312,458.13L300.693,458.13C300.693,458.13 304.828,405.56 324.914,396.699C345,387.838 353.855,430.369 363.307,430.96C372.759,431.551 381.62,401.425 396.386,400.243C411.152,399.061 421.195,435.095 427.691,434.504C434.187,433.913 437.656,377.204 446.591,377.204C464.312,377.207 464.312,458.13 464.312,458.13Z" style="fill:rgb(97,211,46);fill-rule:nonzero;"/>
                            </g>
                            <g id="Trazado_3520" transform="matrix(1,0,0,1,-269.921,-290.553)">
                                <path d="M464.312,440.718L300.693,440.718C300.693,440.718 306.01,414.727 326.093,405.869C346.176,397.011 356.81,421.52 366.259,422.111C375.708,422.702 379.552,387.111 394.318,385.933C409.084,384.755 400.889,428.905 424.297,428.905C441.277,428.905 438.688,392.577 447.627,392.577C465.348,392.577 464.312,440.718 464.312,440.718Z" style="fill:rgb(253,156,21);fill-rule:nonzero;"/>
                            </g>
                            <g id="Rectángulo_386" transform="matrix(1,0,0,1,213.438,60.741)">
                                <rect x="0" y="0" width="48.509" height="8.501" style="fill:rgb(228,229,236);"/>
                            </g>
                            <g id="Rectángulo_387" transform="matrix(1,0,0,1,213.438,79.658)">
                                <rect x="0" y="0" width="48.509" height="8.501" style="fill:rgb(228,229,236);"/>
                            </g>
                            <g id="Rectángulo_388" transform="matrix(1,0,0,1,213.438,98.575)">
                                <rect x="0" y="0" width="48.509" height="8.501" style="fill:rgb(253,156,21);"/>
                            </g>
                            <g id="Rectángulo_389" transform="matrix(1,0,0,1,213.438,117.492)">
                                <rect x="0" y="0" width="48.509" height="8.501" style="fill:rgb(228,229,236);"/>
                            </g>
                            <g id="Rectángulo_390" transform="matrix(1,0,0,1,213.438,136.409)">
                                <rect x="0" y="0" width="48.509" height="8.501" style="fill:rgb(97,211,46);"/>
                            </g>
                            <g id="Rectángulo_391" transform="matrix(1,0,0,1,26.363,20.985)">
                                <rect x="0" y="0" width="8.858" height="8.858" style="fill:rgb(0,147,163);"/>
                            </g>
                            <g id="Rectángulo_392" transform="matrix(1,0,0,1,43.763,20.985)">
                                <rect x="0" y="0" width="40.178" height="8.858" style="fill:rgb(228,229,236);"/>
                            </g>
                            <g id="Rectángulo_393" transform="matrix(1,0,0,1,26.363,35.854)">
                                <rect x="0" y="0" width="8.858" height="8.858" style="fill:rgb(0,147,163);"/>
                            </g>
                            <g id="Rectángulo_394" transform="matrix(1,0,0,1,43.763,35.854)">
                                <rect x="0" y="0" width="40.178" height="8.858" style="fill:rgb(228,229,236);"/>
                            </g>
                            <g id="Rectángulo_395" transform="matrix(1,0,0,1,26.363,50.723)">
                                <rect x="0" y="0" width="8.858" height="8.858" style="fill:rgb(0,147,163);"/>
                            </g>
                            <g id="Rectángulo_396" transform="matrix(1,0,0,1,43.763,50.723)">
                                <rect x="0" y="0" width="40.178" height="8.858" style="fill:rgb(228,229,236);"/>
                            </g>
                            <g id="Rectángulo_397" transform="matrix(1,0,0,1,135.813,20.985)">
                                <rect x="0" y="0" width="126.133" height="12.338" style="fill:rgb(228,229,236);"/>
                            </g>
                            <g id="Rectángulo_398" transform="matrix(1,0,0,1,101.405,47.243)">
                                <rect x="0" y="0" width="63.272" height="10.44" style="fill:rgb(228,229,236);"/>
                            </g>
                            <g id="Rectángulo_399" transform="matrix(1,0,0,1,49.144,214.636)">
                                <rect x="0" y="0" width="23.238" height="8.663" style="fill:rgb(208,209,222);"/>
                            </g>
                            <g id="Rectángulo_400" transform="matrix(1,0,0,1,214.45,214.636)">
                                <rect x="0" y="0" width="23.239" height="8.663" style="fill:rgb(208,209,222);"/>
                            </g>
                            <g transform="matrix(1,0,0,1,-222.595,-341.174)">
                                <g id="Grupo_1770">
                                    <g id="Grupo_1769">
                                        <path id="Trazado_3521" d="M333.411,364.514C336.574,364.751 339.463,366.104 339.481,369.267L334.206,369.297C334.173,368.097 332.943,367.854 332.175,367.857C331.689,367.857 330.123,367.869 330.129,368.838C330.141,371.004 339.848,368.694 339.884,374.824C339.908,378.5 337.036,379.886 333.502,380.162L333.754,384.069L330.531,384.087L330.708,380.15C327.428,379.829 324.368,378.308 324.35,375.001L329.622,374.971L329.622,375.082C329.658,376.537 331.284,376.813 332.109,376.807C332.909,376.807 334.476,376.738 334.47,375.682C334.455,373.429 324.748,375.541 324.712,369.612C324.694,366.191 327.337,364.862 330.612,364.559L330.39,360.625L333.61,360.607L333.411,364.514Z" style="fill:rgb(255,213,34);fill-rule:nonzero;"/>
                                    </g>
                                </g>
                            </g>
                            <g id="Trazado_3522" transform="matrix(1,0,0,1,-209.45,-341.581)">
                                <path d="M340.845,370.064L335.882,360.404L330.919,370.064L334.324,370.064L334.324,384.494L337.48,384.494L337.48,370.064L340.845,370.064Z" style="fill:rgb(253,156,21);fill-rule:nonzero;"/>
                            </g>
                        </g>
                        <g id="Grupo_1772" transform="matrix(1,0,0,1,516.425,393.173)">
                            <g id="Trazado_3523" transform="matrix(1,0,0,1,-365.752,-344.783)">
                                <path d="M408.679,386.149C408.679,386.149 404.022,388.984 400.121,396.771C396.22,404.558 393.784,408.731 393.321,408.359C391.245,406.697 385.763,402.004 377.739,389.428C376.764,387.898 377.775,386.907 377.808,385.713C377.841,384.519 379.443,381.749 379.095,380.963C378.747,380.177 377.775,380.363 376.833,382.253C375.891,384.143 376.203,385.302 375.447,384.767C374.227,383.622 373.15,382.333 372.239,380.929C371.639,379.954 369.755,378.037 369.25,378.351C368.773,378.651 368.659,379.161 371.503,383.239C370.471,381.787 367.929,378.423 367.05,379.23C366.393,379.83 368.895,382.852 370.027,384.193C369.058,383.068 366.846,380.693 366.057,381.48C365.1,382.431 369.808,386.008 369.808,386.008C369.808,386.008 366.294,383.223 365.823,384.043C365.352,384.863 367.395,386.668 369.409,387.803C371.423,388.938 371.782,389.342 372.596,389.753C373.35,390.427 373.975,391.233 374.438,392.132C374.471,392.198 389.183,423.698 394.464,420.797C399.745,417.896 406.764,407.57 406.764,407.57C408.152,405.006 409.073,402.216 409.483,399.33C410.158,394.91 409.741,388.846 408.679,386.149Z" style="fill:rgb(248,134,103);fill-rule:nonzero;"/>
                            </g>
                            <g id="Trazado_3524" transform="matrix(1,0,0,1,-344.77,-341.785)">
                                <path d="M376.24,396.653C377.305,394.162 383.465,381.689 387.861,379.817L393.761,382.117C396.361,385.358 393.041,393.045 391.967,393.917C391.061,394.652 386.692,403.639 385.786,404.575C382.394,402.198 379.201,399.549 376.24,396.653Z" style="fill:rgb(196,0,30);fill-rule:nonzero;"/>
                            </g>
                            <g id="Trazado_3525" transform="matrix(1,0,0,1,-332.441,-353.789)">
                                <path d="M386.146,373.817L394.602,375.134C394.602,375.134 392.226,382.65 395.871,389.063C395.871,389.063 389.792,395.649 385.552,393.906C381.021,392.046 382.71,387.47 382.71,387.47C382.71,387.47 387.325,383.815 386.146,373.817Z" style="fill:rgb(228,89,64);fill-rule:nonzero;"/>
                            </g>
                            <g id="Trazado_3526" transform="matrix(1,0,0,1,-333.398,-248.691)">
                                <path d="M404.038,426.71C404.038,426.71 406.318,435.76 405.016,437.233C403.714,438.706 384.753,441.944 382.926,440.441C381.099,438.938 381.666,435.931 385.526,434.299C389.667,432.547 391.926,433.444 394.471,431.971C397.016,430.498 395.752,426.351 395.752,426.351L404.038,426.71Z" style="fill:rgb(17,2,57);fill-rule:nonzero;"/>
                            </g>
                            <g id="Trazado_3527" transform="matrix(1,0,0,1,-350.449,-249.712)">
                                <path d="M397.513,426.176C397.513,426.176 397.969,437.527 396.457,438.785C394.945,440.043 375.711,440.333 374.135,438.566C372.559,436.799 373.472,434.284 377.373,433.42C380.873,432.643 383.488,433.33 386.192,432.175C388.565,431.161 389.751,425.841 389.751,425.841L397.513,426.176Z" style="fill:rgb(17,2,57);fill-rule:nonzero;"/>
                            </g>
                            <g id="Trazado_3528" transform="matrix(1,0,0,1,-340.842,-315.503)">
                                <path d="M379.79,397.347L404.512,392.954C404.512,392.954 395.156,443.854 393.912,449.722C392.668,455.59 388.982,494.284 388.982,494.284L378.2,493.018C378.2,493.018 378.326,450.731 378.866,446.968C379.406,443.205 379.79,397.347 379.79,397.347Z" style="fill:rgb(40,109,201);fill-rule:nonzero;"/>
                            </g>
                            <g id="Trazado_3529" transform="matrix(1,0,0,1,-337.469,-315.791)">
                                <path d="M385.548,417.9C384.324,409.918 385.148,403.716 383.388,399.824C382.688,398.279 380.405,398.681 379.888,397.102C380.203,396.737 380.461,396.328 380.656,395.887L401.186,392.811C401.186,392.811 391.875,436.689 389.46,447.455C389.461,447.454 386.526,424.268 385.548,417.9Z" style="fill:rgb(0,49,114);fill-rule:nonzero;"/>
                            </g>
                            <g id="Trazado_3530" transform="matrix(1,0,0,1,-332.946,-314.219)">
                                <path d="M382.15,393.6L402,398.649C403.604,403.983 404.014,409.606 403.2,415.116C401.565,426.161 401.4,443.484 401.2,445.833C401,448.182 404.912,485.507 405.212,494.44L394.512,494.893C394.512,494.893 386.312,448.138 385.831,447.115C385.35,446.092 382.15,393.6 382.15,393.6Z" style="fill:rgb(40,109,201);fill-rule:nonzero;"/>
                            </g>
                            <g id="Trazado_3531" transform="matrix(1,0,0,1,-341.643,-345.208)">
                                <path d="M381.665,407.2C382.082,398.834 379.823,386.214 384.735,383.243C388.852,380.756 392.252,378.743 392.252,378.743C392.252,378.743 393.482,381.738 396.411,382.131C399.34,382.524 404,378.106 404,378.106C404,378.106 409.356,381.266 414.187,383.423C413.017,387.3 415.429,390.775 415.411,394.639C415.405,396.767 415.688,398.887 416.251,400.939C414.289,405.139 412.389,409.251 411.972,412.206C410.901,419.831 414.346,431.536 414.346,431.536C408.287,432.89 402.141,433.822 395.952,434.324C390.236,434.804 383.631,433.624 377.807,432.167C377.8,432.165 381.251,415.559 381.665,407.2Z" style="fill:rgb(196,0,30);fill-rule:nonzero;"/>
                            </g>
                            <g id="Trazado_3532" transform="matrix(1,0,0,1,-325.42,-338.15)">
                                <path d="M400.021,393.867C399.868,393.3 399.781,392.709 399.664,392.127C399.58,391.695 399.464,391.278 399.4,390.837C399.252,389.758 399.18,388.67 399.184,387.581C399.193,385.688 399.058,383.662 399.043,381.634C398.043,382.366 396.82,384.124 395.607,383.413C389.918,380.076 389.138,395.319 389.138,402.998C389.138,410.653 388.946,419.645 385.912,426.598C393.212,425.662 398.119,424.473 398.119,424.473C398.119,424.473 397.633,422.826 397.084,420.365C396.811,419.138 396.52,417.704 396.268,416.17C396.181,415.66 396.1,415.138 396.028,414.61C395.793,413.001 395.64,411.382 395.569,409.758C395.491,408.217 395.55,406.673 395.746,405.143C396.162,402.188 398.061,398.071 400.021,393.867Z" style="fill:rgb(137,0,24);fill-rule:nonzero;"/>
                            </g>
                            <g id="Trazado_3533" transform="matrix(1,0,0,1,-334.631,-363.745)">
                                <path d="M396.63,369.823C396.63,369.823 384.53,367.99 383.13,369.331C381.73,370.672 381.507,375.548 381.564,379.668C381.621,383.788 379.89,391.668 384.699,393.129C389.508,394.59 398.682,390.092 401.928,381.929C406.067,371.537 397.461,369.943 396.63,369.823Z" style="fill:rgb(248,134,103);fill-rule:nonzero;"/>
                            </g>
                            <g id="Trazado_3534" transform="matrix(1,0,0,1,-328.073,-363.74)">
                                <path d="M392.124,368.85C392.124,368.85 386.399,369.05 385.394,377.672C384.941,381.558 383.963,384.555 385.16,384.75C385.301,384.781 385.445,384.796 385.589,384.796C386.609,384.796 387.477,384.023 387.596,383.01C387.596,381.888 387.944,378.224 390.228,379.244C392.512,380.264 391.737,384.672 388.836,385.944C388.524,387.465 389.219,389.026 390.558,389.812C391.897,390.598 396.592,386.012 397.458,379.241C398.324,372.47 395.778,368.658 392.124,368.85Z" style="fill:rgb(17,2,57);fill-rule:nonzero;"/>
                            </g>
                            <g id="Trazado_3535" transform="matrix(1,0,0,1,-336.373,-367.142)">
                                <path d="M402.716,373.014C401.662,369.617 398.537,367.257 394.981,367.175C388.599,366.749 383.492,370.575 380.437,375.685C380.437,375.685 382.177,378.739 388.752,379.127C392.186,379.229 395.602,378.596 398.771,377.27C402.179,375.5 402.716,373.014 402.716,373.014Z" style="fill:rgb(17,2,57);fill-rule:nonzero;"/>
                            </g>
                            <g id="Trazado_3536" transform="matrix(1,0,0,1,-321.532,-328.315)">
                                <path d="M404.292,404.2C403.892,402.256 402.065,390.793 401.423,386.55C397.708,387.774 394.285,389.044 390.459,390.064C392.216,395.186 393.577,400.434 394.531,405.764C394.942,409.635 393.187,426.747 392.662,432.676C392.62,433.15 392.584,433.552 392.554,433.885C392.373,435.145 391.905,436.346 391.186,437.396C390.319,438.485 387.417,442.032 387.912,443.577C388.407,445.122 390.82,442.293 391.705,441.33C392.59,440.367 392.743,443.586 392.524,445.318C392.305,447.05 388.815,449.954 389.184,451.142C389.445,451.973 390.513,451.373 391.866,449.842C391.23,450.793 390.75,451.717 391.104,451.96C391.578,452.284 392.448,451.687 393.396,450.66C392.889,451.446 392.562,452.151 392.896,452.322C393.391,452.583 394.387,451.755 395.296,450.762C394.825,451.479 394.504,452.162 394.837,452.373C395.467,452.773 397.508,450.903 398.285,448.445C398.918,446.456 397.415,440.845 396.875,437.979C396.715,437.127 396.777,436.247 397.055,435.426C398.7,430.455 405.4,409.64 404.292,404.2Z" style="fill:rgb(248,134,103);fill-rule:nonzero;"/>
                            </g>
                            <g id="Trazado_3537" transform="matrix(1,0,0,1,-322.282,-341.949)">
                                <path d="M391.209,407.436C395.798,406.595 400.279,405.249 404.571,403.421C403.548,396.213 401.012,386.312 397.289,382.366C396.254,381.266 394.414,379.26 392.737,379.837C390.532,380.593 387.708,383.606 387.483,389.457C387.805,393.765 388.545,398.032 389.694,402.197C390.15,403.422 390.6,405.666 391.209,407.436Z" style="fill:rgb(196,0,30);fill-rule:nonzero;"/>
                            </g>
                        </g>
                    </g>
                </g>
            </g>
        </g>
    </g>
</svg>
