<?xml version="1.0" encoding="UTF-8" standalone="no"?>
<!DOCTYPE svg PUBLIC "-//W3C//DTD SVG 1.1//EN" "http://www.w3.org/Graphics/SVG/1.1/DTD/svg11.dtd">
<svg width="100%" height="100%" viewBox="0 0 400 400" version="1.1" xmlns="http://www.w3.org/2000/svg" xmlns:xlink="http://www.w3.org/1999/xlink" xml:space="preserve" xmlns:serif="http://www.serif.com/" style="fill-rule:evenodd;clip-rule:evenodd;stroke-linejoin:round;stroke-miterlimit:2;">
    <rect id="Mesa-de-trabajo1" serif:id="Mesa de trabajo1" x="0" y="0" width="400" height="400" style="fill:none;"/>
    <g id="Mesa-de-trabajo11" serif:id="Mesa de trabajo1">
        <g id="vector3" transform="matrix(1.52461,0,0,1.52461,200,200)">
            <g transform="matrix(1,0,0,1,-131.181,-115.248)">
                <clipPath id="_clip1">
                    <rect x="0" y="0" width="262.363" height="230.496"/>
                </clipPath>
                <g clip-path="url(#_clip1)">
                    <g id="vector31" serif:id="vector3" transform="matrix(1,0,0,1,-418.051,-136.843)">
                        <g id="Grupo_1795" transform="matrix(1,0,0,1,418.051,136.843)">
                            <g id="Grupo_1780" transform="matrix(1,0,0,1,0,35.967)">
                                <g id="Rectángulo_401" transform="matrix(1,0,0,1,38.911,128.647)">
                                    <rect x="0" y="0" width="184.541" height="27.097" style="fill:rgb(17,2,57);"/>
                                </g>
                                <g id="Rectángulo_402" transform="matrix(1,0,0,1,21.401,0)">
                                    <path d="M219.561,3.995C219.561,1.79 217.771,0 215.566,0L3.995,0C1.79,0 0,1.79 0,3.995L0,143.186C0,145.391 1.79,147.181 3.995,147.181L215.566,147.181C217.771,147.181 219.561,145.391 219.561,143.186L219.561,3.995Z" style="fill:rgb(17,2,57);"/>
                                </g>
                                <g id="Rectángulo_403" transform="matrix(1,0,0,1,31.51,9.751)">
                                    <rect x="0" y="0" width="199.343" height="126.155" style="fill:rgb(254,254,254);"/>
                                </g>
                                <g id="Grupo_1779" transform="matrix(1,0,0,1,0,155.434)">
                                    <g id="Grupo_1778">
                                        <g id="Trazado_3538" transform="matrix(1,0,0,1,-418.051,-184.32)">
                                            <path d="M418.051,215.361L418.051,219.387C418.051,221.611 420.473,223.415 423.465,223.415L675,223.415C677.989,223.415 680.411,221.615 680.411,219.387L680.411,215.361L418.051,215.361Z" style="fill:rgb(17,2,57);fill-rule:nonzero;"/>
                                        </g>
                                        <g id="Trazado_3539" transform="matrix(1,0,0,1,-418.051,-204.404)">
                                            <path d="M656.917,204.4L441.548,204.4C441.182,204.788 424.255,219.942 419.082,231.2C416.872,236.013 418.317,238.546 422.434,238.546L676.034,238.546C680.148,238.546 681.592,236.013 679.383,231.2C674.213,219.944 657.283,204.791 656.917,204.4Z" style="fill:rgb(17,2,57);fill-rule:nonzero;"/>
                                        </g>
                                        <g id="Trazado_3540" transform="matrix(1,0,0,1,-405.573,-201.268)">
                                            <path d="M654.311,229.654L424.858,229.654L440.758,206.114L638.41,206.114L654.311,229.654Z" style="fill:rgb(156,158,185);fill-rule:nonzero;"/>
                                        </g>
                                        <g transform="matrix(1,0,0,1,-403.768,-201.268)">
                                            <g id="Grupo_1777">
                                                <g id="Grupo_1776">
                                                    <g id="Grupo_1775">
                                                        <g id="Grupo_1774">
                                                            <path id="Trazado_3541" d="M649.713,225.524L649.213,224.787L633.905,224.787L631.055,219.076L645.355,219.076L644.855,218.339L630.687,218.339L627.834,212.628L641,212.628L640.5,211.894L627.46,211.894L624.573,206.115L623.25,206.115L626.092,211.894L609.708,211.894L607.408,206.115L606.085,206.115L608.34,211.894L591.948,211.894L590.237,206.115L588.914,206.115L590.58,211.894L574.188,211.894L573.063,206.115L571.74,206.115L572.819,211.894L556.428,211.894L555.89,206.115L554.567,206.115L555.06,211.894L539.5,211.894L539.5,206.115L538.044,206.115L538.044,211.894L521.916,211.894L522.409,206.115L521.086,206.115L520.548,211.894L504.156,211.894L505.235,206.115L503.912,206.115L502.787,211.894L486.4,211.894L488.066,206.115L486.743,206.115L485.032,211.894L468.636,211.894L470.888,206.115L469.565,206.115L467.265,211.894L450.876,211.894L453.718,206.115L452.395,206.115L449.508,211.894L435.05,211.894L434.55,212.628L449.137,212.628L446.287,218.339L430.7,218.339L430.2,219.076L445.923,219.076L443.073,224.787L426.342,224.787L425.842,225.524L442.7,225.524L440.638,229.655L442.145,229.655L444.176,225.524L461.846,225.524L460.203,229.655L461.71,229.655L463.319,225.524L480.989,225.524L479.768,229.655L481.275,229.655L482.465,225.524L500.135,225.524L499.335,229.655L500.842,229.655L501.613,225.524L519.282,225.524L518.9,229.655L520.407,229.655L520.758,225.524L538.042,225.524L538.042,229.655L539.5,229.655L539.5,225.524L556.221,225.524L556.572,229.655L558.079,229.655L557.696,225.524L575.366,225.524L576.137,229.655L577.644,229.655L576.844,225.524L594.514,225.524L595.704,229.655L597.211,229.655L595.987,225.524L613.657,225.524L615.269,229.655L616.776,229.655L615.133,225.524L632.8,225.524L634.831,229.655L636.338,229.655L634.276,225.524L649.713,225.524ZM468.349,212.624L484.809,212.624L483.118,218.335L466.118,218.335L468.349,212.624ZM450.512,212.624L466.975,212.624L464.703,218.335L447.703,218.335L450.512,212.624ZM462.139,224.783L444.539,224.783L447.347,219.072L464.413,219.072L462.139,224.783ZM481.211,224.783L463.611,224.783L465.838,219.072L482.9,219.072L481.211,224.783ZM500.28,224.783L482.68,224.783L484.326,219.072L501.392,219.072L500.28,224.783ZM501.535,218.335L484.535,218.335L486.181,212.624L502.644,212.624L501.535,218.335ZM519.349,224.783L501.749,224.783L502.817,219.072L519.88,219.072L519.349,224.783ZM519.949,218.335L502.949,218.335L504.017,212.624L520.477,212.624L519.949,218.335ZM538.041,224.783L520.82,224.783L521.304,219.072L538.041,219.072L538.041,224.783ZM538.041,218.335L521.367,218.335L521.854,212.624L538.042,212.624L538.041,218.335ZM539.497,212.624L555.121,212.624L555.608,218.335L539.5,218.335L539.497,212.624ZM539.497,224.783L539.497,219.072L555.671,219.072L556.155,224.783L539.497,224.783ZM626.459,212.624L629.266,218.335L612.266,218.335L610,212.628L626.459,212.624ZM608.625,212.624L610.852,218.335L593.852,218.335L592.161,212.624L608.625,212.624ZM556.495,212.624L572.955,212.624L574.023,218.335L557.023,218.335L556.495,212.624ZM557.625,224.783L557.092,219.072L574.16,219.072L575.225,224.783L557.625,224.783ZM574.325,212.624L590.788,212.624L592.434,218.335L575.434,218.335L574.325,212.624ZM576.69,224.783L575.58,219.072L592.646,219.072L594.292,224.783L576.69,224.783ZM595.759,224.783L594.071,219.072L611.134,219.072L613.361,224.783L595.759,224.783ZM614.831,224.783L612.559,219.072L629.63,219.072L632.438,224.783L614.831,224.783Z" style="fill:rgb(208,209,222);fill-rule:nonzero;"/>
                                                        </g>
                                                    </g>
                                                </g>
                                            </g>
                                        </g>
                                    </g>
                                    <g id="Trazado_3542" transform="matrix(1,0,0,1,-340.384,-182.313)">
                                        <path d="M482.709,216.456L460.422,216.456C460.411,217.02 460.609,217.569 460.977,217.997C461.208,218.206 461.51,218.318 461.821,218.311L481.31,218.311C481.621,218.319 481.923,218.206 482.154,217.997C482.522,217.569 482.72,217.02 482.709,216.456Z" style="fill:rgb(17,2,57);fill-rule:nonzero;"/>
                                    </g>
                                </g>
                            </g>
                            <g id="Rectángulo_404" transform="matrix(1,0,0,1,31.51,45.728)">
                                <rect x="0" y="0" width="199.328" height="126.144" style="fill:rgb(254,254,254);"/>
                            </g>
                            <g id="Trazado_3543" transform="matrix(1,0,0,1,-397.664,-121.545)">
                                <path d="M532.538,231.622L514.551,239.622L491.8,216.872L429.173,264.6L429.173,293.422L628.5,293.422L628.5,145.189L545.22,245.971L532.538,231.622Z" style="fill:rgb(253,156,21);fill-rule:nonzero;"/>
                            </g>
                            <g id="Grupo_1781" transform="matrix(1,0,0,1,70.817,133.369)">
                                <rect id="Rectángulo_405" x="0" y="0" width="6.362" height="4.823" style="fill:rgb(254,254,254);"/>
                                <g id="Rectángulo_406" transform="matrix(1,0,0,1,8.971,0)">
                                    <rect x="0" y="0" width="6.362" height="4.823" style="fill:rgb(254,254,254);"/>
                                </g>
                                <g id="Rectángulo_407" transform="matrix(1,0,0,1,17.942,0)">
                                    <rect x="0" y="0" width="6.362" height="4.823" style="fill:rgb(0,147,163);"/>
                                </g>
                                <g id="Rectángulo_408" transform="matrix(1,0,0,1,26.913,0)">
                                    <rect x="0" y="0" width="6.362" height="4.823" style="fill:rgb(254,254,254);"/>
                                </g>
                                <g id="Rectángulo_409" transform="matrix(1,0,0,1,35.884,0)">
                                    <rect x="0" y="0" width="6.362" height="4.823" style="fill:rgb(254,254,254);"/>
                                </g>
                                <g id="Rectángulo_410" transform="matrix(1,0,0,1,44.855,0)">
                                    <rect x="0" y="0" width="6.362" height="4.823" style="fill:rgb(0,147,163);"/>
                                </g>
                                <g id="Rectángulo_411" transform="matrix(1,0,0,1,0,8.235)">
                                    <rect x="0" y="0" width="6.362" height="4.823" style="fill:rgb(254,254,254);"/>
                                </g>
                                <g id="Rectángulo_412" transform="matrix(1,0,0,1,8.971,8.235)">
                                    <rect x="0" y="0" width="6.362" height="4.823" style="fill:rgb(254,254,254);"/>
                                </g>
                                <g id="Rectángulo_413" transform="matrix(1,0,0,1,17.942,8.235)">
                                    <rect x="0" y="0" width="6.362" height="4.823" style="fill:rgb(254,254,254);"/>
                                </g>
                                <g id="Rectángulo_414" transform="matrix(1,0,0,1,26.913,8.235)">
                                    <rect x="0" y="0" width="6.362" height="4.823" style="fill:rgb(254,254,254);"/>
                                </g>
                                <g id="Rectángulo_415" transform="matrix(1,0,0,1,35.884,8.235)">
                                    <rect x="0" y="0" width="6.362" height="4.823" style="fill:rgb(0,147,163);"/>
                                </g>
                                <g id="Rectángulo_416" transform="matrix(1,0,0,1,44.855,8.235)">
                                    <rect x="0" y="0" width="6.362" height="4.823" style="fill:rgb(254,254,254);"/>
                                </g>
                                <g id="Rectángulo_417" transform="matrix(1,0,0,1,0,16.47)">
                                    <rect x="0" y="0" width="6.362" height="4.823" style="fill:rgb(254,254,254);"/>
                                </g>
                                <g id="Rectángulo_418" transform="matrix(1,0,0,1,8.971,16.47)">
                                    <rect x="0" y="0" width="6.362" height="4.823" style="fill:rgb(0,147,163);"/>
                                </g>
                                <g id="Rectángulo_419" transform="matrix(1,0,0,1,17.942,16.47)">
                                    <rect x="0" y="0" width="6.362" height="4.823" style="fill:rgb(254,254,254);"/>
                                </g>
                                <g id="Rectángulo_420" transform="matrix(1,0,0,1,26.913,16.47)">
                                    <rect x="0" y="0" width="6.362" height="4.823" style="fill:rgb(254,254,254);"/>
                                </g>
                                <g id="Rectángulo_421" transform="matrix(1,0,0,1,35.884,16.47)">
                                    <rect x="0" y="0" width="6.362" height="4.823" style="fill:rgb(254,254,254);"/>
                                </g>
                                <g id="Rectángulo_422" transform="matrix(1,0,0,1,44.855,16.47)">
                                    <rect x="0" y="0" width="6.362" height="4.823" style="fill:rgb(254,254,254);"/>
                                </g>
                                <g id="Rectángulo_423" transform="matrix(1,0,0,1,0,24.705)">
                                    <rect x="0" y="0" width="6.362" height="4.823" style="fill:rgb(254,254,254);"/>
                                </g>
                                <g id="Rectángulo_424" transform="matrix(1,0,0,1,8.971,24.705)">
                                    <rect x="0" y="0" width="6.362" height="4.823" style="fill:rgb(254,254,254);"/>
                                </g>
                                <g id="Rectángulo_425" transform="matrix(1,0,0,1,17.942,24.705)">
                                    <rect x="0" y="0" width="6.362" height="4.823" style="fill:rgb(0,147,163);"/>
                                </g>
                                <g id="Rectángulo_426" transform="matrix(1,0,0,1,26.913,24.705)">
                                    <rect x="0" y="0" width="6.362" height="4.823" style="fill:rgb(254,254,254);"/>
                                </g>
                            </g>
                            <g id="Grupo_1791" transform="matrix(1,0,0,1,35.226,38.056)">
                                <g transform="matrix(1,0,0,1,-365.884,-98.864)">
                                    <g id="Grupo_1782">
                                        <path id="Trazado_3544" d="M467.686,180.532L467.048,179.9L466.239,180.239L465.727,178.991L467.314,178.323L468.576,179.568L467.686,180.532Z" style="fill:white;fill-rule:nonzero;"/>
                                    </g>
                                </g>
                                <g transform="matrix(1,0,0,1,-374.327,-97.844)">
                                    <g id="Grupo_1783">
                                        <path id="Trazado_3545" d="M461.635,184.708L461.122,183.453L463.306,182.538L463.819,183.79L461.635,184.708ZM465.995,182.872L465.485,181.62L467.661,180.708L468.174,181.957L465.995,182.872ZM470.344,181.042L469.834,179.793L472.004,178.881L472.514,180.133L470.344,181.042Z" style="fill:white;fill-rule:nonzero;"/>
                                    </g>
                                </g>
                                <g transform="matrix(1,0,0,1,-377.284,-94.46)">
                                    <g id="Grupo_1784">
                                        <path id="Trazado_3546" d="M460.827,182.907L459.509,181.753L460.35,180.726L461.05,181.339L461.893,180.986L462.404,182.242L460.827,182.907Z" style="fill:white;fill-rule:nonzero;"/>
                                    </g>
                                </g>
                                <g transform="matrix(1,0,0,1,-389.772,-105.356)">
                                    <g id="Grupo_1785">
                                        <path id="Trazado_3547" d="M470.068,190.964L468.139,189.281L468.983,188.255L470.909,189.938L470.068,190.964ZM466.209,187.596L464.28,185.91L465.124,184.887L467.053,186.57L466.209,187.596ZM462.348,184.228L460.419,182.542L461.266,181.519L463.192,183.205L462.348,184.228ZM458.487,180.857L456.558,179.171L457.408,178.151L459.337,179.834L458.487,180.857ZM454.628,177.489L452.7,175.8L453.55,174.78L455.482,176.463L454.628,177.489Z" style="fill:white;fill-rule:nonzero;"/>
                                    </g>
                                </g>
                                <g transform="matrix(1,0,0,1,-392.347,-107.24)">
                                    <g id="Grupo_1786">
                                        <path id="Trazado_3548" d="M453.341,176L452.719,175.457L452.049,175.925L451.291,174.808L452.791,173.757L454.191,174.982L453.341,176Z" style="fill:white;fill-rule:nonzero;"/>
                                    </g>
                                </g>
                                <g transform="matrix(1,0,0,1,-430.485,-105.552)">
                                    <g id="Grupo_1787">
                                        <path id="Trazado_3549" d="M431.261,215.629L430.485,214.485L432.802,212.859L433.578,214.001L431.261,215.629ZM435.89,212.377L435.117,211.235L437.426,209.612L438.2,210.754L435.89,212.377ZM440.505,209.133L439.731,207.994L442.031,206.379L442.804,207.518L440.505,209.133ZM445.105,205.903L444.332,204.767L446.624,203.158L447.397,204.294L445.105,205.903ZM449.683,202.685L448.912,201.552L451.198,199.946L451.971,201.082L449.683,202.685ZM454.25,199.478L453.479,198.345L455.757,196.745L456.528,197.875L454.25,199.478ZM458.8,196.285L458.029,195.152L460.298,193.56L461.066,194.69L458.8,196.285ZM463.333,193.101L462.565,191.971L464.826,190.387L465.594,191.512L463.333,193.101ZM467.849,189.928L467.081,188.8L469.333,187.219L470.101,188.347L467.849,189.928ZM472.349,186.766L471.581,185.641L473.825,184.069L474.593,185.191L472.349,186.766ZM476.831,183.616L476.066,182.494L478.301,180.925L479.066,182.047L476.831,183.616ZM481.296,180.477L480.537,179.358L482.767,177.794L483.529,178.913L481.296,180.477ZM485.752,177.352L484.99,176.233L487.208,174.675L487.973,175.791L485.752,177.352Z" style="fill:white;fill-rule:nonzero;"/>
                                    </g>
                                </g>
                                <g transform="matrix(1,0,0,1,-355.236,-150.276)">
                                    <g id="Grupo_1788">
                                        <path id="Trazado_3550" d="M472.514,240.731L471.537,239.822L473.245,237.833L474.222,238.742L472.514,240.731ZM475.928,236.753L474.953,235.844L476.653,233.864L477.628,234.771L475.928,236.753ZM479.328,232.79L478.353,231.883L480.053,229.906L481.028,230.813L479.328,232.79ZM482.719,228.841L481.747,227.934L483.438,225.965L484.41,226.872L482.719,228.841ZM486.099,224.903L485.127,224.003L486.813,222.043L487.782,222.943L486.099,224.903ZM489.465,220.982L488.496,220.082L490.176,218.127L491.145,219.027L489.465,220.982ZM492.819,217.072L491.853,216.172L493.525,214.223L494.494,215.123L492.819,217.072ZM496.162,213.172L495.196,212.272L496.865,210.331L497.831,211.231L496.162,213.172ZM499.5,209.3L498.537,208.4L500.2,206.462L501.163,207.362L499.5,209.3ZM502.82,205.43L501.857,204.538L503.514,202.609L504.477,203.501L502.82,205.43ZM506.129,201.577L505.169,200.685L506.821,198.761L507.779,199.653L506.129,201.577ZM509.429,197.735L508.469,196.843L510.115,194.928L511.072,195.818L509.429,197.735ZM512.715,193.905L511.757,193.015L513.395,191.108L514.353,191.995L512.715,193.905ZM515.987,190.092L515.032,189.202L516.667,187.302L517.622,188.189L515.987,190.092ZM519.253,186.292L518.298,185.402L519.927,183.51L520.879,184.397L519.253,186.292ZM522.5,182.5L521.548,181.613L523.168,179.723L524.12,180.61L522.5,182.5ZM525.741,178.724L524.789,177.837L526.407,175.956L527.356,176.843L525.741,178.724ZM528.971,174.962L528.022,174.078L529.631,172.202L530.58,173.086L528.971,174.962ZM532.189,171.211L531.24,170.33L532.846,168.46L533.792,169.341L532.189,171.211ZM535.396,167.474L534.45,166.593L536.05,164.732L536.996,165.613L535.396,167.474ZM538.596,163.751L537.653,162.87L539.253,161.014L540.196,161.892L538.596,163.751ZM541.783,160.037L540.84,159.159L542.429,157.309L543.372,158.187L541.783,160.037ZM544.749,156.521L543.806,155.643L545.395,153.793L546.338,154.671L544.749,156.521ZM547.711,153L546.768,152.122L548.357,150.272L549.3,151.15L547.711,153Z" style="fill:white;fill-rule:nonzero;"/>
                                    </g>
                                </g>
                                <g transform="matrix(1,0,0,1,-357.484,-91.047)">
                                    <g id="Grupo_1789">
                                        <path id="Trazado_3551" d="M471.754,185.006L470.311,183.584L471.196,182.615L471.658,183.07L472.07,182.589L473.049,183.498L471.754,185.006Z" style="fill:white;fill-rule:nonzero;"/>
                                    </g>
                                </g>
                                <g transform="matrix(1,0,0,1,-363.191,-96.653)">
                                    <g id="Grupo_1790">
                                        <path id="Trazado_3552" d="M473.812,187.015L471.612,184.842L472.499,183.876L474.699,186.049L473.812,187.015ZM469.404,182.669L467.2,180.5L468.09,179.534L470.29,181.707L469.404,182.669Z" style="fill:white;fill-rule:nonzero;"/>
                                    </g>
                                </g>
                            </g>
                            <g id="Grupo_1793" transform="matrix(1,0,0,1,31.509,0)">
                                <g transform="matrix(1,0,0,1,-429.173,-131.073)">
                                    <g id="Grupo_1792">
                                        <path id="Trazado_3553" d="M623.206,139.991L545.506,238.491L532.933,223.317L514.533,232.048L491.148,207.1L429.173,257.488L429.173,263.545L490.921,213.345L513.951,237.919L532.251,229.241L545.551,245.301L626.187,143.08C625.127,142.117 624.131,141.085 623.206,139.991Z" style="fill:rgb(97,211,46);fill-rule:nonzero;"/>
                                    </g>
                                </g>
                                <g id="Trazado_3554" transform="matrix(1,0,0,1,-307.704,-136.843)">
                                    <path d="M513.775,136.843L495.44,143.051L507.567,155.178L513.775,136.843Z" style="fill:rgb(97,211,46);fill-rule:nonzero;"/>
                                </g>
                            </g>
                            <g transform="matrix(1,0,0,1,-389.819,-100.174)">
                                <g id="Grupo_1794">
                                    <path id="Trazado_3555" d="M445.315,161.964C449.457,162.273 453.236,164.043 453.262,168.182L446.362,168.224C446.317,166.657 444.71,166.332 443.702,166.337C443.067,166.337 441.016,166.351 441.022,167.62C441.039,170.456 453.748,167.433 453.793,175.456C453.821,180.269 450.065,182.082 445.438,182.445L445.767,187.556L441.551,187.581L441.78,182.428C437.488,182.006 433.48,180.017 433.457,175.688L440.357,175.645L440.357,175.795C440.405,177.695 442.536,178.059 443.618,178.053C444.663,178.047 446.718,177.959 446.706,176.58C446.689,173.631 433.98,176.393 433.935,168.631C433.91,164.155 437.369,162.415 441.658,162.019L441.369,156.871L445.584,156.846L445.315,161.964Z" style="fill:rgb(255,213,34);fill-rule:nonzero;"/>
                                </g>
                            </g>
                        </g>
                        <g id="Grupo_1796" transform="matrix(1,0,0,1,534.972,186.813)">
                            <g id="Trazado_3556" transform="matrix(1,0,0,1,-440.008,-57.305)">
                                <path d="M483.892,207.918C483.892,207.918 484.178,213.53 483.362,214.363C482.546,215.196 471.432,216.408 470.393,215.463C469.354,214.518 469.781,212.752 472.121,211.902C474.628,210.987 475.94,211.585 477.492,210.791C479.044,209.997 478.421,207.496 478.421,207.496L483.892,207.918Z" style="fill:rgb(17,2,57);fill-rule:nonzero;"/>
                            </g>
                            <g id="Trazado_3557" transform="matrix(1,0,0,1,-407.386,-57.305)">
                                <path d="M487.705,207.918C487.705,207.918 487.416,213.53 488.232,214.363C489.048,215.196 500.162,216.408 501.202,215.463C502.242,214.518 501.814,212.752 499.477,211.902C496.967,210.987 495.655,211.585 494.103,210.791C492.551,209.997 493.174,207.496 493.174,207.496L487.705,207.918Z" style="fill:rgb(17,2,57);fill-rule:nonzero;"/>
                            </g>
                            <g id="Trazado_3558" transform="matrix(1,0,0,1,-434.964,-99.358)">
                                <path d="M515.89,217.508C514.678,211.397 508.167,194.708 505.753,188.923C504.784,188.594 503.722,188.271 502.645,187.96C502.926,186.66 503.115,185.535 503.325,184.555C501.435,185.055 499.425,185.297 497.396,185.94C497.121,186.028 496.812,186.121 496.496,186.218C496.173,186.118 495.864,186.028 495.589,185.94C493.558,185.297 491.552,185.056 489.662,184.555C489.869,185.535 490.062,186.655 490.342,187.96C489.265,188.272 488.203,188.595 487.231,188.923C484.82,194.711 478.307,211.397 477.094,217.508C475.417,225.967 472.612,251.045 472.612,251.045L479.763,251.986C479.763,251.986 486.945,218.296 487.97,216.432C489.811,213.083 491.741,210.12 493.463,207.5C494.131,206.477 495.273,205.859 496.495,205.859C497.716,205.859 498.858,206.477 499.526,207.5C501.246,210.121 503.178,213.084 505.019,216.432C506.045,218.296 513.226,251.986 513.226,251.986L520.376,251.045C520.376,251.045 517.57,225.967 515.89,217.508Z" style="fill:rgb(253,66,95);fill-rule:nonzero;"/>
                            </g>
                            <g id="Trazado_3559" transform="matrix(1,0,0,1,-409.876,-154.481)">
                                <path d="M492.773,168.385C492.351,165.485 491.917,165.031 490.943,164.461C490.475,164.242 490.057,163.928 489.716,163.54C489.326,163.096 488.888,162.697 488.41,162.35C487.907,162.035 487.504,161.584 487.246,161.05C487.019,160.35 487.934,160.55 488.524,160.761C489.167,160.993 490.371,162.761 491.051,162.515C491.731,162.269 490.133,160.215 489.81,159.807C489.042,158.852 488.133,158.98 487.11,158.541C486.515,158.283 486.322,157.983 486.966,157.6C487.483,157.412 488.056,157.453 488.541,157.713C489.583,158.046 490.526,158.632 491.286,159.418C490.618,158.648 489.804,158.017 488.892,157.562C488.376,157.298 485.985,156.562 486.328,155.718C487.014,154.018 491.663,157.218 492.17,158.118C491.526,157.319 490.751,156.635 489.878,156.095C489.385,155.744 488.187,154.965 489.192,154.56C490.679,153.96 492.478,156.722 493.501,157.809C493.032,156.956 492.45,156.171 491.77,155.475C490.951,154.475 491.97,154.223 492.985,155.098C493.451,155.548 493.887,156.027 494.291,156.534C495.912,158.579 495.974,159.951 496.26,162.444C496.36,163.344 496.387,164.801 496.682,167.41C496.855,168.917 494.028,168.144 492.773,168.385Z" style="fill:rgb(248,134,103);fill-rule:nonzero;"/>
                            </g>
                            <g id="Trazado_3560" transform="matrix(1,0,0,1,-459.322,-125.441)">
                                <path d="M472.632,179.913C469.887,178.882 469.547,177.78 469.198,176.706C469.084,176.2 468.867,175.724 468.561,175.306C468.211,174.83 467.915,174.317 467.677,173.776C467.478,173.218 467.125,172.728 466.66,172.362C466.028,171.991 466.02,172.926 466.102,173.549C466.193,174.226 467.66,175.779 467.278,176.393C466.896,177.007 465.224,175.002 464.898,174.6C464.127,173.645 464.447,172.784 464.235,171.7C464.11,171.063 463.858,170.81 463.348,171.357C463.053,171.821 462.971,172.389 463.121,172.918C463.224,174.007 463.594,175.055 464.2,175.966C463.59,175.148 463.148,174.218 462.9,173.229C462.753,172.671 462.546,170.178 461.648,170.329C459.841,170.635 461.974,175.862 462.748,176.55C462.105,175.75 461.603,174.846 461.261,173.878C461.023,173.323 460.519,171.978 459.907,172.878C459.007,174.201 461.318,176.547 462.162,177.778C461.428,177.138 460.786,176.4 460.253,175.585C459.453,174.574 458.987,175.511 459.624,176.693C459.963,177.246 460.339,177.775 460.749,178.277C462.401,180.297 463.726,180.651 466.101,181.464C467.683,181.874 469.215,182.454 470.673,183.192C472.026,183.859 472.128,181.088 472.632,179.913Z" style="fill:rgb(248,134,103);fill-rule:nonzero;"/>
                            </g>
                            <g id="Trazado_3561" transform="matrix(1,0,0,1,-422.166,-122.835)">
                                <path d="M487.218,171.871C485.675,172.161 484.099,172.237 482.535,172.098C481.976,172.049 481.425,171.931 480.895,171.747C480.963,173.696 480.963,178.218 479.595,180.07C479.595,180.07 480.082,182.254 484.063,182.311C488.044,182.368 488.536,180.07 488.536,180.07C487.536,177.457 487.088,174.666 487.218,171.871Z" style="fill:rgb(248,134,103);fill-rule:nonzero;"/>
                            </g>
                            <g id="Trazado_3562" transform="matrix(1,0,0,1,-430.055,-119.288)">
                                <path d="M510.425,179.338C509.34,177.953 504.192,174.904 500.705,174.352C495.04,173.457 489.27,173.457 483.605,174.352C480.118,174.904 476.65,175.788 475.565,177.171C474.205,178.908 478.273,188.642 478.95,197.571C479.511,204.976 480.52,210.699 480.52,210.699C482.755,214.799 500.22,214.915 502.453,210.809C502.453,210.809 502.875,204.48 504.085,197.57C505.663,188.577 511.8,181.1 510.425,179.338Z" style="fill:rgb(229,230,237);fill-rule:nonzero;"/>
                            </g>
                            <g id="Trazado_3563" transform="matrix(1,0,0,1,-429.839,-114.66)">
                                <path d="M482.157,190.887C482.268,188.487 483.064,184.178 482.177,181.974C480.911,178.827 478.052,177.645 475.406,176.206C476.196,180.235 478.267,186.756 478.735,192.946C479.296,200.351 480.305,206.074 480.305,206.074C480.955,206.968 481.888,207.617 482.951,207.918C480.469,203.168 481.936,195.572 482.157,190.887Z" style="fill:rgb(171,173,196);fill-rule:nonzero;"/>
                            </g>
                            <g id="Trazado_3564" transform="matrix(1,0,0,1,-424.41,-132.262)">
                                <path d="M494.825,170.452C494.825,170.452 486.572,165.599 485.325,166.792C484.078,167.985 482.118,172.047 481.169,172.665C480.22,173.283 478.738,173.872 478.869,174.603C479,175.334 479.481,175.382 479.441,176.119C479.401,176.856 477.73,180.371 478.641,181.411C479.552,182.451 485.551,184.74 489.154,182.343C492.757,179.946 498.887,172.625 494.825,170.452Z" style="fill:rgb(248,134,103);fill-rule:nonzero;"/>
                            </g>
                            <g id="Trazado_3565" transform="matrix(1,0,0,1,-419.848,-128.638)">
                                <path d="M492.081,168.613L485.132,168.724C484.208,170.936 482.737,172.878 480.857,174.367C478.977,175.856 481.024,175.393 481.767,175.183C482.467,175.103 483.094,174.707 483.467,174.109C483.967,173.327 485.467,171.301 486.484,173.081C487.501,174.861 485.325,175.469 484.41,175.455C484.41,175.455 481.246,179.291 483.71,180.011C483.71,180.011 486.455,179.603 490.637,175.164C494.819,170.725 493.957,168.265 492.081,168.613Z" style="fill:rgb(17,2,57);fill-rule:nonzero;"/>
                            </g>
                            <g id="Trazado_3566" transform="matrix(1,0,0,1,-421.968,-133.874)">
                                <path d="M481.056,165.724C481.056,165.724 477.676,167.775 481.589,171.886C485.502,175.997 494.709,173.829 494.709,173.829C494.709,173.829 495.689,171.152 492.361,168.341C489.874,166.241 487.145,165.171 484.953,166.177C481.226,167.891 481.056,165.724 481.056,165.724Z" style="fill:rgb(17,2,57);fill-rule:nonzero;"/>
                            </g>
                            <g id="Trazado_3567" transform="matrix(1,0,0,1,-453.208,-120.088)">
                                <path d="M465.612,173.245L462.657,177.945C467.754,182.731 473.219,187.11 479,191.042C484.085,194.416 501.511,189.019 504.2,188.212C508.044,187.059 510.937,178.92 504.52,175.894C500.763,174.123 485.683,185.58 481.989,183.639C477.363,181.206 465.612,173.245 465.612,173.245Z" style="fill:rgb(229,230,237);fill-rule:nonzero;"/>
                            </g>
                            <g id="Trazado_3568" transform="matrix(1,0,0,1,-412.478,-146.91)">
                                <path d="M494.1,159.592L499.964,158.612C499.964,158.612 503.837,175.548 503.607,181.65C503.377,187.752 493.677,209.918 491.465,211.65C488.805,213.735 481.43,207.715 486.776,201.23C492.122,194.745 495.584,181.376 495.726,180.83C495.868,180.284 494.1,159.592 494.1,159.592Z" style="fill:rgb(229,230,237);fill-rule:nonzero;"/>
                            </g>
                        </g>
                        <g id="Rectángulo_427" transform="matrix(1,0,0,1,495.306,189.832)">
                            <rect x="0" y="0" width="47.312" height="4.255" style="fill:rgb(208,209,222);"/>
                        </g>
                        <g id="Rectángulo_428" transform="matrix(1,0,0,1,495.306,196.557)">
                            <rect x="0" y="0" width="47.312" height="4.255" style="fill:rgb(208,209,222);"/>
                        </g>
                        <g id="Rectángulo_429" transform="matrix(1,0,0,1,495.306,203.281)">
                            <rect x="0" y="0" width="35.808" height="4.255" style="fill:rgb(208,209,222);"/>
                        </g>
                    </g>
                </g>
            </g>
        </g>
    </g>
</svg>
