<?xml version="1.0" encoding="UTF-8" standalone="no"?>
<!DOCTYPE svg PUBLIC "-//W3C//DTD SVG 1.1//EN" "http://www.w3.org/Graphics/SVG/1.1/DTD/svg11.dtd">
<svg width="100%" height="100%" viewBox="0 0 400 400" version="1.1" xmlns="http://www.w3.org/2000/svg" xmlns:xlink="http://www.w3.org/1999/xlink" xml:space="preserve" xmlns:serif="http://www.serif.com/" style="fill-rule:evenodd;clip-rule:evenodd;stroke-linejoin:round;stroke-miterlimit:2;">
    <rect id="Mesa-de-trabajo1" serif:id="Mesa de trabajo1" x="0" y="0" width="400" height="400" style="fill:none;"/>
    <g id="Mesa-de-trabajo11" serif:id="Mesa de trabajo1">
        <g id="vector4" transform="matrix(1.28553,0,0,1.28553,200,200)">
            <g transform="matrix(1,0,0,1,-155.577,-115.352)">
                <clipPath id="_clip1">
                    <rect x="0" y="0" width="311.155" height="230.704"/>
                </clipPath>
                <g clip-path="url(#_clip1)">
                    <g id="vector41" serif:id="vector4" transform="matrix(1,0,0,1,-25.163,-31.645)">
                        <g id="Grupo_1804" transform="matrix(1,0,0,1,25.163,31.645)">
                            <g id="Rectángulo_430" transform="matrix(1,0,0,1,46.148,152.571)">
                                <rect x="0" y="0" width="218.859" height="32.136" style="fill:rgb(17,2,57);"/>
                            </g>
                            <g id="Rectángulo_431" transform="matrix(1,0,0,1,25.381,0)">
                                <path d="M260.392,4.28C260.392,1.918 258.474,0 256.112,0L4.28,0C1.918,0 0,1.918 0,4.28L0,170.271C0,172.633 1.918,174.551 4.28,174.551L256.112,174.551C258.474,174.551 260.392,172.633 260.392,170.271L260.392,4.28Z" style="fill:rgb(17,2,57);"/>
                            </g>
                            <g id="Rectángulo_432" transform="matrix(1,0,0,1,37.37,11.564)">
                                <rect x="0" y="0" width="236.414" height="149.615" style="fill:rgb(254,254,254);"/>
                            </g>
                            <g id="Grupo_1803" transform="matrix(1,0,0,1,0,184.34)">
                                <g id="Grupo_1802">
                                    <g id="Trazado_3569" transform="matrix(1,0,0,1,-25.163,-65.352)">
                                        <path d="M25.163,102.168L25.163,106.938C25.163,109.578 28.039,111.717 31.582,111.717L329.9,111.717C333.444,111.717 336.319,109.578 336.319,106.938L336.319,102.168L25.163,102.168Z" style="fill:rgb(17,2,57);fill-rule:nonzero;"/>
                                    </g>
                                    <g id="Trazado_3570" transform="matrix(1,0,0,1,-25.163,-90.428)">
                                        <path d="M180.742,90.428L53.029,90.428C52.596,90.886 32.52,108.858 26.386,122.21C23.764,127.917 25.48,130.922 30.359,130.922L331.121,130.922C336,130.922 337.716,127.922 335.094,122.214C328.96,108.861 308.884,90.889 308.451,90.432L180.742,90.428Z" style="fill:rgb(17,2,57);fill-rule:nonzero;"/>
                                    </g>
                                    <g id="Trazado_3571" transform="matrix(1,0,0,1,-9.585,-86.514)">
                                        <path d="M304.58,120.178L32.456,120.178L51.314,92.261L285.721,92.261L304.58,120.178Z" style="fill:rgb(156,158,185);fill-rule:nonzero;"/>
                                    </g>
                                    <g transform="matrix(1,0,0,1,-7.33,-86.513)">
                                        <g id="Grupo_1801">
                                            <g id="Grupo_1800">
                                                <g id="Grupo_1799">
                                                    <g id="Grupo_1798">
                                                        <path id="Trazado_3572" d="M299.014,115.279L298.424,114.404L280.264,114.404L276.884,107.634L293.849,107.634L293.259,106.759L276.448,106.759L273.068,99.989L288.688,99.989L288.095,99.114L272.631,99.114L269.207,92.262L267.639,92.262L271.007,99.114L251.568,99.114L248.843,92.262L247.272,92.262L249.947,99.114L230.5,99.114L228.471,92.262L226.903,92.262L228.879,99.114L209.439,99.114L208.106,92.262L206.535,92.262L207.814,99.114L188.374,99.114L187.737,92.262L186.169,92.262L186.752,99.114L168.3,99.114L168.3,92.261L166.572,92.261L166.572,99.113L147.449,99.113L148.032,92.261L146.464,92.261L145.827,99.113L126.387,99.113L127.666,92.261L126.1,92.261L124.764,99.113L105.324,99.113L107.3,92.261L105.732,92.261L103.7,99.113L84.26,99.113L86.932,92.261L85.364,92.261L82.639,99.113L63.2,99.113L66.568,92.261L65,92.261L61.579,99.113L44.428,99.113L43.838,99.988L61.138,99.988L57.757,106.758L39.266,106.758L38.673,107.633L57.323,107.633L53.939,114.403L34.1,114.403L33.51,115.278L53.507,115.278L51.058,120.178L52.845,120.178L55.253,115.278L76.211,115.278L74.264,120.178L76.051,120.178L77.961,115.278L98.915,115.278L97.466,120.178L99.253,120.178L100.664,115.278L121.621,115.278L120.668,120.178L122.455,120.178L123.368,115.278L144.325,115.278L143.87,120.178L145.657,120.178L146.074,115.278L166.574,115.278L166.574,120.178L168.3,120.178L168.3,115.278L188.128,115.278L188.545,120.178L190.332,120.178L189.877,115.278L210.834,115.278L211.747,120.178L213.534,120.178L212.581,115.278L233.538,115.278L234.949,120.178L236.736,120.178L235.287,115.278L256.241,115.278L258.154,120.178L259.941,120.178L257.99,115.278L278.947,115.278L281.355,120.178L283.142,120.178L280.693,115.278L299.014,115.279ZM83.922,99.988L103.443,99.988L101.443,106.758L81.281,106.758L83.922,99.988ZM62.77,99.988L82.291,99.988L79.597,106.758L59.44,106.758L62.77,99.988ZM76.559,114.4L55.683,114.4L59.013,107.63L79.249,107.63L76.559,114.4ZM99.175,114.4L78.3,114.4L80.94,107.63L101.179,107.63L99.175,114.4ZM121.791,114.4L100.915,114.4L102.869,107.63L123.108,107.63L121.791,114.4ZM123.277,106.755L103.12,106.755L105.074,99.985L124.595,99.985L123.277,106.755ZM144.407,114.4L123.531,114.4L124.798,107.63L145.034,107.63L144.407,114.4ZM145.116,106.755L124.961,106.755L126.225,99.985L145.746,99.985L145.116,106.755ZM166.575,114.4L146.151,114.4L146.725,107.63L166.575,107.63L166.575,114.4ZM166.575,106.755L146.8,106.755L147.377,99.985L166.577,99.985L166.575,106.755ZM168.303,99.985L186.83,99.985L187.407,106.755L168.3,106.755L168.303,99.985ZM168.303,114.401L168.303,107.631L187.482,107.631L188.059,114.401L168.303,114.401ZM271.437,99.988L274.764,106.758L254.609,106.758L251.915,99.988L271.437,99.988ZM250.285,99.988L252.925,106.758L232.768,106.758L230.768,99.988L250.285,99.988ZM188.461,99.988L207.982,99.988L209.246,106.758L189.091,106.758L188.461,99.988ZM189.8,114.4L189.173,107.63L209.412,107.63L210.676,114.4L189.8,114.4ZM209.613,99.984L229.134,99.984L231.088,106.754L210.929,106.754L209.613,99.984ZM212.413,114.4L211.096,107.63L231.335,107.63L233.289,114.4L212.413,114.4ZM235.029,114.4L233.029,107.63L253.268,107.63L255.908,114.4L235.029,114.4ZM257.645,114.4L254.951,107.63L275.19,107.63L278.52,114.4L257.645,114.4Z" style="fill:rgb(208,209,222);fill-rule:nonzero;"/>
                                                    </g>
                                                </g>
                                            </g>
                                        </g>
                                    </g>
                                </g>
                                <g id="Trazado_3573" transform="matrix(1,0,0,1,71.801,-62.847)">
                                    <path d="M96.993,103.341L70.56,103.341C70.549,104.01 70.783,104.661 71.219,105.169C71.493,105.415 71.851,105.547 72.219,105.539L95.334,105.539C95.702,105.547 96.06,105.415 96.334,105.169C96.77,104.661 97.004,104.01 96.993,103.341Z" style="fill:rgb(17,2,57);fill-rule:nonzero;"/>
                                </g>
                            </g>
                        </g>
                        <g id="Grupo_1809" transform="matrix(1,0,0,1,87.496,65.401)">
                            <g id="Grupo_1807">
                                <g transform="matrix(1,0,0,1,-45.04,-42.409)">
                                    <g id="Grupo_1806">
                                        <g id="Grupo_1805">
                                            <path id="Trazado_3574" d="M231.529,156.211L45.04,156.211L45.04,42.409L231.529,42.409L231.529,156.211ZM48.521,152.73L228.049,152.73L228.049,45.89L48.521,45.89L48.521,152.73Z" style="fill:rgb(208,209,222);fill-rule:nonzero;"/>
                                        </g>
                                    </g>
                                </g>
                                <g id="Rectángulo_433" transform="matrix(1,0,0,1,142.023,28.641)">
                                    <rect x="0" y="0" width="17.342" height="74.232" style="fill:rgb(253,156,21);"/>
                                </g>
                                <g id="Rectángulo_434" transform="matrix(1,0,0,1,109.888,68.739)">
                                    <rect x="0" y="0" width="17.343" height="34.134" style="fill:rgb(208,209,222);"/>
                                </g>
                                <g id="Rectángulo_435" transform="matrix(1,0,0,1,77.752,60.479)">
                                    <rect x="0" y="0" width="17.343" height="42.394" style="fill:rgb(97,211,46);"/>
                                </g>
                                <g id="Rectángulo_436" transform="matrix(1,0,0,1,45.617,36.472)">
                                    <rect x="0" y="0" width="17.343" height="66.401" style="fill:rgb(208,209,222);"/>
                                </g>
                                <g id="Rectángulo_437" transform="matrix(1,0,0,1,13.481,51.046)">
                                    <rect x="0" y="0" width="17.343" height="51.827" style="fill:rgb(208,209,222);"/>
                                </g>
                            </g>
                            <g transform="matrix(1,0,0,1,-30.344,-36.43)">
                                <g id="Grupo_1808">
                                    <path id="Trazado_3575" d="M149.286,91.92L116.351,85.379L84.609,55.049L53.073,82.909L51.92,81.6L84.656,52.687L117.186,83.771L148.52,89.992L180.33,45.207L181.747,46.213L149.286,91.92Z" style="fill:rgb(17,2,57);fill-rule:nonzero;"/>
                                </g>
                            </g>
                            <g id="Trazado_3576" transform="matrix(1,0,0,1,-32.62,-13.863)">
                                <path d="M58.689,59.688C58.689,59.689 58.689,59.69 58.689,59.691C58.689,61.84 56.921,63.608 54.772,63.608C52.623,63.608 50.855,61.84 50.855,59.691C50.855,57.542 52.623,55.774 54.772,55.774C56.92,55.773 58.688,57.54 58.689,59.688Z" style="fill:rgb(253,66,95);fill-rule:nonzero;"/>
                            </g>
                            <g id="Elipse_63" transform="matrix(1,0,0,1,50.155,13.523)">
                                <circle cx="3.915" cy="3.915" r="3.915" style="fill:rgb(253,66,95);"/>
                            </g>
                            <g id="Trazado_3577" transform="matrix(1,0,0,1,11.158,-12.308)">
                                <path d="M79.181,60.419C79.179,62.565 77.412,64.33 75.266,64.33C73.118,64.33 71.351,62.563 71.351,60.415C71.351,58.268 73.118,56.501 75.265,56.5C75.265,56.5 75.266,56.5 75.266,56.5C77.414,56.5 79.181,58.267 79.181,60.415C79.181,60.416 79.181,60.418 79.181,60.419Z" style="fill:rgb(253,66,95);fill-rule:nonzero;"/>
                            </g>
                            <g id="Trazado_3578" transform="matrix(1,0,0,1,33.045,-8.529)">
                                <path d="M89.431,62.185C89.431,62.186 89.431,62.187 89.431,62.188C89.431,64.337 87.663,66.105 85.514,66.105C83.365,66.105 81.597,64.337 81.597,62.188C81.597,60.039 83.365,58.271 85.514,58.271C87.662,58.27 89.43,60.037 89.431,62.185Z" style="fill:rgb(253,66,95);fill-rule:nonzero;"/>
                            </g>
                            <g id="Trazado_3579" transform="matrix(1,0,0,1,54.933,-38.235)">
                                <path d="M99.676,48.277C99.676,48.277 99.676,48.278 99.676,48.278C99.676,50.426 97.909,52.193 95.761,52.193C93.613,52.193 91.846,50.426 91.846,48.278C91.846,46.13 93.613,44.363 95.761,44.363C95.761,44.363 95.762,44.363 95.762,44.363C97.909,44.364 99.675,46.13 99.676,48.277Z" style="fill:rgb(253,66,95);fill-rule:nonzero;"/>
                            </g>
                        </g>
                        <g id="Grupo_1810" transform="matrix(1,0,0,1,58.337,58.794)">
                            <g id="Trazado_3580" transform="matrix(1,0,0,1,20.44,-12.596)">
                                <path d="M62.248,58.307C63.5,58.036 64.657,57.436 65.6,56.57C65.963,56.101 66.42,55.712 66.942,55.429C67.535,55.101 68.091,54.71 68.6,54.262C69.08,53.778 69.686,53.439 70.35,53.284C71.184,53.206 70.742,54.184 70.35,54.789C69.927,55.451 67.641,56.357 67.744,57.182C67.847,58.007 70.557,56.734 71.093,56.47C72.357,55.852 72.441,54.799 73.193,53.77C73.632,53.17 74.015,53.027 74.284,53.842C74.484,54.453 74.064,55.078 73.76,55.579C73.124,56.664 72.228,57.575 71.154,58.229C72.185,57.673 73.098,56.92 73.838,56.012C74.261,55.501 75.688,53.005 76.551,53.6C78.282,54.8 73.522,59.2 72.387,59.546C73.445,59.025 74.406,58.328 75.231,57.486C75.748,57.025 76.931,55.874 77.125,57.107C77.42,58.923 73.876,60.243 72.396,61.118C73.471,60.809 74.499,60.353 75.45,59.763C76.773,59.098 76.802,60.302 75.566,61.221C74.944,61.63 74.295,61.997 73.625,62.321C70.925,63.621 69.26,63.647 66.39,63.34C65.361,63.227 63.358,64.111 62.752,63.45C61.583,62.177 62.2,59.778 62.248,58.307Z" style="fill:rgb(248,134,103);fill-rule:nonzero;"/>
                            </g>
                            <g id="Trazado_3581" transform="matrix(1,0,0,1,-12.961,-16.65)">
                                <path d="M96.4,61.986L98.5,68.941C98.5,68.941 73.9,75.291 67.912,76.223C61.924,77.155 48.783,62.117 48.783,62.117C48.783,62.117 44.3,51.236 47.651,51.377C50.235,51.49 69.072,65.868 70.117,66.426C71.162,66.984 96.4,61.986 96.4,61.986Z" style="fill:rgb(253,156,21);fill-rule:nonzero;"/>
                            </g>
                            <g id="Trazado_3582" transform="matrix(1,0,0,1,-27.154,73.264)">
                                <path d="M46.143,96.282C46.143,96.282 45.967,100.989 46.764,103.2C47.561,105.411 53.24,108.791 53.24,108.791C53.24,108.791 48.1,109.785 46.128,108.261C44.156,106.737 39.474,98.761 39.778,97.715C40.082,96.669 41.5,93.472 41.5,93.472L46.143,96.282Z" style="fill:rgb(248,134,103);fill-rule:nonzero;"/>
                            </g>
                            <g id="Trazado_3583" transform="matrix(1,0,0,1,-6.301,71.299)">
                                <path d="M55.909,95.362C55.909,95.362 55.73,100.069 56.527,102.28C57.324,104.491 63,107.871 63,107.871C63,107.871 57.86,108.871 55.888,107.341C53.916,105.811 49.234,97.841 49.538,96.798C49.842,95.755 51.263,92.552 51.263,92.552L55.909,95.362Z" style="fill:rgb(248,134,103);fill-rule:nonzero;"/>
                            </g>
                            <g id="Trazado_3584" transform="matrix(1,0,0,1,-28.666,75.178)">
                                <path d="M42.461,94.368C42.461,94.368 38.149,95.804 39.228,99.577C39.908,102.399 40.211,105.299 40.128,108.201L41.385,108.201C41.385,108.201 41.652,102.81 42.461,102.992C43.27,103.174 45.067,108.201 46.861,108.201L57.015,108.201C57.015,108.201 58.094,107.122 57.015,106.495C55.936,105.868 49.056,106.134 48.275,104.607C47.494,103.08 42.461,94.368 42.461,94.368Z" style="fill:rgb(17,2,57);fill-rule:nonzero;"/>
                            </g>
                            <g id="Trazado_3585" transform="matrix(1,0,0,1,-7.646,73.131)">
                                <path d="M52.3,93.41C52.3,93.41 47.988,94.846 49.067,98.619C49.748,101.441 50.05,104.341 49.967,107.243L51.224,107.243C51.224,107.243 51.494,101.852 52.303,102.034C53.112,102.216 54.909,107.243 56.703,107.243L66.856,107.243C66.856,107.243 67.932,106.164 66.856,105.537C65.78,104.91 58.897,105.176 58.116,103.649C57.335,102.122 52.3,93.41 52.3,93.41Z" style="fill:rgb(17,2,57);fill-rule:nonzero;"/>
                            </g>
                            <g id="Trazado_3586" transform="matrix(1,0,0,1,-28.059,9.266)">
                                <path d="M69.861,63.509C69.861,63.509 57.781,67.755 49.029,63.509C49.029,63.509 43.729,67.959 42.886,77.044C42.654,80.452 42.773,83.875 43.243,87.258C43.851,92.313 45.322,105.558 44.403,113.735C43.058,125.702 39.339,160.419 39.339,160.419L47.668,161.719C47.668,161.719 55.316,119.811 56.22,114.636C57.124,109.461 60.04,88.451 60.04,88.451C60.04,88.451 65.221,104.698 66.556,112.566C66.763,113.773 70.456,158.272 70.456,158.272L78.528,158.225C78.528,158.225 78.076,108.797 78.076,111.396C78.077,112.451 75.891,78.057 69.861,63.509Z" style="fill:rgb(80,80,80);fill-rule:nonzero;"/>
                            </g>
                            <g id="Trazado_3587" transform="matrix(1,0,0,1,-14.654,21.712)">
                                <path d="M52.26,82.523C50.451,77.023 49.337,74.266 45.615,69.336C45.994,71.591 46.339,73.836 46.603,76.116L46.634,76C46.634,76 51.068,89.908 52.79,98.218C52.6,89.252 53.593,86.568 52.26,82.523Z" style="fill-rule:nonzero;"/>
                            </g>
                            <g id="Trazado_3588" transform="matrix(1,0,0,1,-20.489,-31.344)">
                                <path d="M53.743,54.757C52.906,54.585 48.904,46.14 47.189,44.496C46.371,50.263 42.883,63.942 42.883,63.942C47.113,68.48 55.549,65.698 55.549,65.698C54.24,62.204 53.627,58.487 53.743,54.757Z" style="fill:rgb(228,89,64);fill-rule:nonzero;"/>
                            </g>
                            <g id="Trazado_3589" transform="matrix(1,0,0,1,-17.874,-38.143)">
                                <path d="M49.45,41.451C49.45,41.451 57.66,43.298 59.231,45.694C60.802,48.09 60.799,54.318 61.671,55.964C62.198,56.964 62.671,57.764 62.932,58.35C63.161,58.861 62.581,59.162 61.866,59.416C61.5,59.545 61.216,59.839 61.098,60.209C60.612,61.717 59.257,65.562 57.898,66.095C56.205,66.763 47.841,66.506 45.326,59.221C42.811,51.936 44.188,39.889 49.45,41.451Z" style="fill:rgb(248,134,103);fill-rule:nonzero;"/>
                            </g>
                            <g id="Trazado_3590" transform="matrix(1,0,0,1,-26.399,-20.043)">
                                <path d="M50.051,49.787C53.723,51.43 57.487,52.858 61.325,54.064C65.163,55.27 67.953,67.154 68.4,70.8C68.847,74.446 72.26,99.349 72.26,99.349C72.26,99.349 59.136,107.691 40.114,101.077C40.114,101.077 44.68,81.465 43.636,73.722C42.592,65.979 43.5,55.526 50.051,49.787Z" style="fill:rgb(253,156,21);fill-rule:nonzero;"/>
                            </g>
                            <g id="Trazado_3591" transform="matrix(1,0,0,1,-26.399,-10.306)">
                                <path d="M47.746,93.281C47.53,84.952 49.433,77.381 49.602,69.044C49.74,62.314 46.965,58.476 43.581,54.344C43.203,57.548 43.222,60.787 43.637,63.987C44.681,71.726 40.115,91.342 40.115,91.342C42.598,92.206 45.151,92.855 47.746,93.281Z" style="fill:rgb(111,66,3);fill-rule:nonzero;"/>
                            </g>
                            <g id="Trazado_3592" transform="matrix(1,0,0,1,-32.064,-40.302)">
                                <path d="M45.781,93.095C50.4,89.25 48.516,85.4 53.17,81.746C53.506,81.479 53.847,81.222 54.183,80.962C54.424,78.952 49.583,79.99 50.919,77.967C52.788,75.132 60.631,70.842 60.462,68.083C60.292,67.217 60.358,66.321 60.653,65.49C61.053,63.358 61.953,62.95 60.283,61.39C59.113,60.296 58.129,59.116 59.057,57.467C59.816,56.122 61.033,55.727 62.08,56.99C62.356,57.319 63.739,60.098 64.093,58.536C64.193,58.097 63.607,57.25 63.554,56.764C63.428,56.119 63.637,55.452 64.109,54.995C64.937,54.12 66.16,53.65 67.009,52.765C68.078,51.658 68.216,50.2 69.762,49.588C70.554,49.294 71.42,49.259 72.233,49.488C72.597,49.588 74.158,50.636 74.409,50.535C77.062,49.497 75.873,45.383 74.058,44.116C70.77,41.731 66.832,40.406 62.772,40.316C57.965,40.416 53.572,44.132 50.78,47.736C48.754,50.351 48.892,53.12 47.434,55.936C46.104,58.495 43.234,59.774 41.507,62.079C39.889,64.246 39.876,67.068 40.507,69.618C41.007,71.609 41.558,73.418 41.231,75.463C40.823,78.006 38.785,79.878 38.092,82.334C37.288,84.583 37.246,87.036 37.973,89.311C39.2,93.86 41.912,95.1 45.781,93.095Z" style="fill:rgb(17,2,57);fill-rule:nonzero;"/>
                            </g>
                            <g id="Trazado_3593" transform="matrix(1,0,0,1,-35.701,23.251)">
                                <path d="M42.287,71C42.271,72.221 42.577,73.425 43.174,74.49C43.531,74.932 43.794,75.442 43.945,75.99C44.118,76.614 44.359,77.218 44.663,77.79C45.008,78.341 45.192,78.978 45.193,79.628C45.083,80.428 44.271,79.8 43.793,79.305C43.269,78.769 42.927,76.448 42.137,76.364C41.347,76.28 41.943,79.077 42.071,79.632C42.371,80.943 43.328,81.25 44.122,82.172C44.586,82.711 44.633,83.097 43.822,83.172C43.21,83.225 42.722,82.702 42.322,82.31C41.453,81.482 40.802,80.451 40.428,79.31C40.72,80.385 41.22,81.393 41.9,82.275C42.283,82.775 44.29,84.649 43.549,85.32C42.056,86.672 38.999,81.284 38.93,80.155C39.186,81.252 39.625,82.297 40.23,83.247C40.547,83.83 41.359,85.172 40.17,85.091C38.417,84.969 37.962,81.391 37.47,79.823C37.522,80.89 37.722,81.944 38.063,82.956C38.392,84.333 37.263,84.094 36.683,82.746C36.437,82.08 36.237,81.398 36.083,80.705C35.517,78.385 35.737,75.941 36.71,73.759C37.039,72.825 36.657,70.77 37.4,70.35C38.838,69.537 40.933,70.635 42.287,71Z" style="fill:rgb(248,134,103);fill-rule:nonzero;"/>
                            </g>
                            <g id="Trazado_3594" transform="matrix(1,0,0,1,-35.742,-16.648)">
                                <path d="M43.316,110.982L35.743,111.382C35.743,111.382 35.651,89.006 37.662,81.4C39.673,73.794 54.012,53.328 57.283,51.773C61.212,49.904 72.883,54.89 64.333,61.538C55.783,68.186 47.669,84.007 47.333,84.65C46.997,85.293 43.316,110.982 43.316,110.982Z" style="fill:rgb(253,156,21);fill-rule:nonzero;"/>
                            </g>
                        </g>
                    </g>
                </g>
            </g>
        </g>
    </g>
</svg>
