<?xml version="1.0" encoding="UTF-8" standalone="no"?>
<!DOCTYPE svg PUBLIC "-//W3C//DTD SVG 1.1//EN" "http://www.w3.org/Graphics/SVG/1.1/DTD/svg11.dtd">
<svg width="100%" height="100%" viewBox="0 0 400 400" version="1.1" xmlns="http://www.w3.org/2000/svg" xmlns:xlink="http://www.w3.org/1999/xlink" xml:space="preserve" xmlns:serif="http://www.serif.com/" style="fill-rule:evenodd;clip-rule:evenodd;stroke-linejoin:round;stroke-miterlimit:2;">
    <rect id="Mesa-de-trabajo1" serif:id="Mesa de trabajo1" x="0" y="0" width="400" height="400" style="fill:none;"/>
    <g id="Mesa-de-trabajo11" serif:id="Mesa de trabajo1">
        <g id="vector5" transform="matrix(1.53846,0,0,1.53846,200,200)">
            <g transform="matrix(1,0,0,1,-130,-122.918)">
                <clipPath id="_clip1">
                    <rect x="0" y="0" width="260" height="245.837"/>
                </clipPath>
                <g clip-path="url(#_clip1)">
                    <g id="vector51" serif:id="vector5" transform="matrix(1,0,0,1,-294.16,-133.202)">
                        <g id="Grupo_2534" transform="matrix(1,0,0,1,449.999,133.202)">
                            <g id="Trazado_3595" transform="matrix(1,0,0,1,-305.144,-119.259)">
                                <path d="M381.687,140.825C381.687,140.825 394.505,143.682 409.306,156.585L391.557,188.991C386.511,184.119 380.209,180.745 373.357,179.248L381.687,140.825Z" style="fill:rgb(253,156,21);fill-rule:nonzero;"/>
                            </g>
                            <g id="Trazado_3596" transform="matrix(1,0,0,1,-305.144,-119.259)">
                                <path d="M384.883,161.389C386.439,155.589 387.709,149.708 389.211,143.895C386.782,142.688 384.266,141.662 381.686,140.826L373.36,179.249C378.005,175.212 379.247,176.749 380.06,176.324C381.449,171.327 383.548,166.359 384.883,161.389Z" style="fill:rgb(152,88,0);fill-rule:nonzero;"/>
                            </g>
                            <g id="Trazado_3597" transform="matrix(1,0,0,1,-344.669,-131.218)">
                                <path d="M351.75,135.126C351.75,135.126 401.941,130.126 429.832,144.546L419.586,188.282C419.586,188.282 394.971,175.059 354.124,180.712L351.75,135.126Z" style="fill:rgb(253,156,21);fill-rule:nonzero;"/>
                            </g>
                            <g id="Rectángulo_2786" transform="matrix(1,0,0,1,7.036,0)">
                                <rect x="0" y="0" width="4.017" height="172.008" style="fill:rgb(17,2,57);"/>
                            </g>
                            <g id="Rectángulo_2787" transform="matrix(1,0,0,1,3.966,166.81)">
                                <rect x="0" y="0" width="10.158" height="8.07" style="fill:rgb(17,2,57);"/>
                            </g>
                            <g id="Rectángulo_2788" transform="matrix(1,0,0,1,0,173.118)">
                                <rect x="0" y="0" width="18.089" height="4.058" style="fill:rgb(17,2,57);"/>
                            </g>
                        </g>
                        <g id="Grupo_2535" transform="matrix(1,0,0,1,294.16,205.607)">
                            <g id="Trazado_3598" transform="matrix(1,0,0,1,-235.299,-158.796)">
                                <path d="M326.343,162.5L326.343,191.166L333.503,191.166L333.503,170.966C333.503,168.936 335.173,167.266 337.203,167.266L367.939,167.266C369.969,167.266 371.639,168.936 371.639,170.966L371.639,191.166L378.796,191.166L378.796,162.5C378.796,160.47 377.126,158.8 375.096,158.8L330.04,158.8C328.011,158.802 326.343,160.471 326.343,162.5Z" style="fill:rgb(208,209,222);fill-rule:nonzero;"/>
                            </g>
                            <g id="Rectángulo_2789" transform="matrix(1,0,0,1,0,22.656)">
                                <path d="M4.442,0L230.1,0C232.536,-0 234.541,2.005 234.541,4.441L234.541,146.335C234.541,148.771 232.536,150.776 230.1,150.776L4.441,150.776C2.005,150.776 -0,148.771 -0,146.335L0,4.442C-0,2.005 2.005,0 4.442,0Z" style="fill:rgb(17,2,57);fill-rule:nonzero;"/>
                            </g>
                            <g id="Trazado_3599" transform="matrix(1,0,0,1,-294.16,-144.148)">
                                <path d="M528.7,208.812L528.7,179.368C528.7,179.367 528.7,179.366 528.7,179.365C528.7,172.472 523.029,166.801 516.136,166.8L306.726,166.8C299.833,166.799 294.161,172.47 294.16,179.363L294.16,208.807C294.16,226.561 308.769,241.171 326.523,241.173L496.336,241.173C514.089,241.171 528.697,226.565 528.7,208.812Z" style="fill:rgb(69,57,100);fill-rule:nonzero;"/>
                            </g>
                            <g id="Rectángulo_2790" transform="matrix(1,0,0,1,109.809,90.239)">
                                <rect x="0" y="0" width="14.922" height="16.943" style="fill:rgb(208,209,222);"/>
                            </g>
                            <g id="Rectángulo_2791" transform="matrix(1,0,0,1,114.86,98.361)">
                                <rect x="0" y="0" width="4.823" height="4.188" style="fill:rgb(17,2,57);"/>
                            </g>
                        </g>
                        <g id="Grupo_2538" transform="matrix(1,0,0,1,311.024,140.633)">
                            <g id="Trazado_3600" transform="matrix(1,0,0,1,-282.084,-127.445)">
                                <path d="M321.31,140.412L313.46,140.412C313.46,140.412 312.331,151.105 310.283,152.378C310.283,152.378 307.757,165.009 317.383,165.009C329.033,165.009 324.483,152.378 324.483,152.378C322.441,151.105 321.31,140.412 321.31,140.412Z" style="fill:rgb(248,134,103);fill-rule:nonzero;"/>
                            </g>
                            <g id="Trazado_3601" transform="matrix(1,0,0,1,-282.084,-127.445)">
                                <path d="M321.31,140.412L313.46,140.412C313.46,140.412 312.331,151.105 310.283,152.378C310.283,152.378 307.757,165.009 317.383,165.009C329.033,165.009 324.483,152.378 324.483,152.378C322.441,151.105 321.31,140.412 321.31,140.412Z" style="fill:rgb(228,89,64);fill-rule:nonzero;"/>
                            </g>
                            <g id="Grupo_2536" transform="matrix(1,0,0,1,25.223,0)">
                                <g id="Trazado_3602" transform="matrix(1,0,0,1,-309.021,-133.471)">
                                    <path d="M329.3,148.531C328.214,147.281 326.907,149.185 326.907,149.185C326.907,149.185 328.707,142.113 326.907,139.015C325.107,135.917 319.294,137.547 319.294,137.547C319.294,137.547 313.472,135.915 311.678,139.015C309.884,142.115 311.678,149.185 311.678,149.185C311.678,149.185 310.378,147.285 309.285,148.531C308.192,149.777 311.079,152.931 311.732,153.318C311.732,153.318 315.922,161.151 319.294,161.151C322.666,161.151 326.853,153.318 326.853,153.318C327.51,152.936 330.393,149.782 329.3,148.531Z" style="fill:rgb(248,134,103);fill-rule:nonzero;"/>
                                </g>
                                <g id="Trazado_3603" transform="matrix(1,0,0,1,-309.037,-133.723)">
                                    <path d="M317.848,140.6C317.848,140.6 313.448,141.375 312.954,143.74C312.807,144.92 312.887,146.118 313.189,147.268C313.425,148.555 313.551,149.86 313.565,151.168C313.369,151.222 313.16,151.185 312.994,151.068C312.413,150.543 311.912,149.937 311.506,149.268C310.669,148.043 309.466,148.247 309.118,149.022C309.118,149.022 308.139,137.422 312.994,137.01C317.849,136.598 317.848,140.6 317.848,140.6Z" style="fill:rgb(17,2,57);fill-rule:nonzero;"/>
                                </g>
                                <g id="Trazado_3604" transform="matrix(1,0,0,1,-301.487,-133.723)">
                                    <path d="M313.166,140.6C313.166,140.6 317.566,141.375 318.06,143.74C318.207,144.92 318.127,146.118 317.825,147.268C317.589,148.555 317.463,149.86 317.449,151.168C317.645,151.222 317.854,151.185 318.02,151.068C318.601,150.543 319.102,149.937 319.508,149.268C320.345,148.043 321.548,148.247 321.896,149.022C321.896,149.022 322.875,137.422 318.02,137.01C313.165,136.598 313.166,140.6 313.166,140.6Z" style="fill:rgb(17,2,57);fill-rule:nonzero;"/>
                                </g>
                                <g id="Trazado_3605" transform="matrix(1,0,0,1,-308.333,-135.828)">
                                    <path d="M327.28,140.75C326.914,139.024 325.727,137.581 324.103,136.891C321.132,135.684 317.845,135.487 314.751,136.331C308.592,137.893 308.499,144.272 310.83,146.193C312.335,147.676 314.395,148.463 316.505,148.36C325.046,148.359 328.6,143.341 327.28,140.75Z" style="fill:rgb(17,2,57);fill-rule:nonzero;"/>
                                </g>
                            </g>
                            <g id="Trazado_3606" transform="matrix(1,0,0,1,-292.168,-119.709)">
                                <path d="M334.57,144.642C334.16,155.381 327.47,154.272 327.47,154.272C327.47,154.272 320.782,155.381 320.37,144.642C320.37,144.642 309.685,147.595 304.47,151.086C305.893,157.591 306.683,164.219 306.829,170.877L312.937,194.536L327.466,195.255L342,194.536L348.108,170.877C348.254,164.219 349.044,157.591 350.467,151.086C345.252,147.6 334.57,144.642 334.57,144.642Z" style="fill:rgb(40,109,201);fill-rule:nonzero;"/>
                            </g>
                            <g id="Trazado_3607" transform="matrix(1,0,0,1,-291.562,-112.422)">
                                <path d="M346.446,150.007C339.804,153.546 336.576,161.688 330.126,165.679C323.453,169.806 318.731,161.467 315.483,157.13C312.772,153.369 309.075,150.427 304.801,148.63C305.646,153.576 306.122,158.578 306.224,163.595L312.332,187.254L326.861,187.973L341.39,187.254L347.498,163.595C347.597,158.656 348.06,153.73 348.884,148.859C348.041,149.22 347.215,149.594 346.446,150.007Z" style="fill:rgb(0,84,122);fill-opacity:0.32;fill-rule:nonzero;"/>
                            </g>
                            <g id="Trazado_3608" transform="matrix(1,0,0,1,-295.568,-90.155)">
                                <path d="M357.807,174.564C357.807,166.264 347.507,160.801 347.507,160.801L312.907,160.801C312.907,160.801 302.607,166.261 302.607,174.564C302.717,176.719 302.996,178.862 303.439,180.974L314.933,180.974C314.466,181.817 314.042,182.603 313.705,183.268C313.605,183.468 313.49,183.647 313.383,183.839L321.742,183.839C322.373,183.839 322.169,184.102 321.994,183.174C321.739,181.853 320.922,181.103 321.725,179.717C322.356,178.631 325.442,177.74 326.687,177.717C326.959,177.711 327.23,177.711 327.493,177.717C329.301,177.76 331.109,177.76 332.916,177.717C333.598,177.757 334.274,177.869 334.933,178.051C335.519,178.151 337.256,177.997 338.005,178.982C338.376,179.587 338.579,180.279 338.593,180.988C338.559,181.946 338.453,182.9 338.276,183.842L348.752,183.842C348.029,182.926 347.358,181.969 346.744,180.976L356.971,180.976C357.416,178.864 357.695,176.72 357.807,174.564Z" style="fill:rgb(253,66,95);fill-rule:nonzero;"/>
                            </g>
                            <g id="Trazado_3609" transform="matrix(1,0,0,1,-295.568,-90.155)">
                                <path d="M357.807,174.564C357.807,166.264 347.507,160.801 347.507,160.801L312.907,160.801C312.907,160.801 302.607,166.261 302.607,174.564C302.717,176.719 302.996,178.862 303.439,180.974L314.933,180.974C314.466,181.817 314.042,182.603 313.705,183.268C313.605,183.468 313.49,183.647 313.383,183.839L321.742,183.839C322.373,183.839 322.169,184.102 321.994,183.174C321.739,181.853 320.922,181.103 321.725,179.717C322.356,178.631 325.442,177.74 326.687,177.717C326.959,177.711 327.23,177.711 327.493,177.717C329.301,177.76 331.109,177.76 332.916,177.717C333.598,177.757 334.274,177.869 334.933,178.051C335.519,178.151 337.256,177.997 338.005,178.982C338.376,179.587 338.579,180.279 338.593,180.988C338.559,181.946 338.453,182.9 338.276,183.842L348.752,183.842C348.029,182.926 347.358,181.969 346.744,180.976L356.971,180.976C357.416,178.864 357.695,176.72 357.807,174.564Z" style="fill:rgb(2,32,72);fill-rule:nonzero;"/>
                            </g>
                            <g id="Trazado_3610" transform="matrix(1,0,0,1,-300.121,-115.543)">
                                <path d="M312.424,146.92C312.424,146.92 299.21,175.475 300.172,179.275C300.412,180.226 316.484,189.932 324.051,188.54L327.129,187.971C327.129,187.971 315.9,146.717 312.424,146.92Z" style="fill:rgb(40,109,201);fill-rule:nonzero;"/>
                            </g>
                            <g id="Trazado_3611" transform="matrix(1,0,0,1,-271.956,-115.543)">
                                <path d="M330.226,146.92C330.226,146.92 343.44,175.475 342.478,179.275C342.238,180.226 326.166,189.932 318.599,188.54L315.521,187.971C315.521,187.971 326.752,146.717 330.226,146.92Z" style="fill:rgb(40,109,201);fill-rule:nonzero;"/>
                            </g>
                            <g id="Trazado_3612" transform="matrix(1,0,0,1,-290.406,-109.085)">
                                <path d="M307.859,150.451C307.838,151.855 307.668,153.253 307.353,154.621C306.185,159.781 304.343,165.167 306.275,170.407C307.951,174.49 309.945,178.436 312.238,182.207C312.94,182.243 313.645,182.202 314.338,182.085L317.416,181.516C317.416,181.516 312.264,162.6 307.859,150.451Z" style="fill:rgb(0,84,122);fill-opacity:0.32;fill-rule:nonzero;"/>
                            </g>
                            <g id="Trazado_3613" transform="matrix(1,0,0,1,-271.956,-108.176)">
                                <path d="M323,181.028C324.018,178.623 324.517,176.029 324.463,173.418C324.288,168.145 324.257,162.872 324.341,157.596C324.378,155.319 324.441,153.109 324.57,150.948C320.287,163.096 315.52,180.604 315.52,180.604L318.598,181.173C320.062,181.383 321.553,181.334 323,181.028Z" style="fill:rgb(0,84,122);fill-opacity:0.32;fill-rule:nonzero;"/>
                            </g>
                            <g id="Trazado_3614" transform="matrix(1,0,0,1,-292.022,-49.629)">
                                <path d="M314.135,183.457C314.135,183.457 305.753,193.432 304.771,195.557C303.789,197.682 306.188,200.346 309.453,199.257C312.718,198.168 314.624,195.939 314.678,194.521C314.732,193.103 316.478,192.351 317.235,192.238C317.992,192.125 322.353,187.174 321.917,185.813C321.481,184.452 319.295,182.961 319.295,182.961L314.135,183.457Z" style="fill-rule:nonzero;"/>
                            </g>
                            <g id="Trazado_3615" transform="matrix(1,0,0,1,-274.677,-49.629)">
                                <path d="M321.849,183.457C321.849,183.457 330.228,193.432 331.21,195.557C332.192,197.682 329.796,200.346 326.528,199.257C323.26,198.168 321.357,195.939 321.303,194.521C321.249,193.103 319.503,192.351 318.746,192.238C317.989,192.125 313.628,187.174 314.064,185.813C314.5,184.452 316.686,182.961 316.686,182.961L321.849,183.457Z" style="fill-rule:nonzero;"/>
                            </g>
                            <g id="Trazado_3616" transform="matrix(1,0,0,1,-295.621,-86.323)">
                                <path d="M320.667,170.294C319.667,167.92 319.467,162.894 312.743,162.894C299.795,162.894 302.83,173.271 303.028,174.821C304.986,190.27 314.381,221.091 314.381,221.091L327.349,221.091C327.349,221.091 322.633,183.325 321.903,177.503C321.8,176.7 321.352,171.926 320.667,170.294Z" style="fill:rgb(0,49,114);fill-rule:nonzero;"/>
                            </g>
                            <g id="Trazado_3617" transform="matrix(1,0,0,1,-275.824,-86.323)">
                                <path d="M320.088,170.294C321.088,167.92 321.288,162.894 328.012,162.894C340.969,162.894 337.925,173.271 337.727,174.821C335.769,190.27 326.374,221.091 326.374,221.091L313.406,221.091C313.406,221.091 318.122,183.325 318.852,177.503C318.951,176.7 319.4,171.926 320.088,170.294Z" style="fill:rgb(0,49,114);fill-rule:nonzero;"/>
                            </g>
                            <g id="Grupo_2537" transform="matrix(1,0,0,1,8.405,46.357)">
                                <g id="Rectángulo_2792" transform="matrix(1,0,0,1,7.856,26.4)">
                                    <rect x="0" y="0" width="38.078" height="2.258" style="fill:rgb(17,2,57);"/>
                                </g>
                                <g id="Trazado_3618" transform="matrix(1,0,0,1,-303.092,-152.215)">
                                    <path d="M354.626,152.215L305.349,152.215C305.349,152.215 302.69,152.215 303.149,155.183C303.608,158.151 309.817,178.907 311.07,178.907L348.916,178.907C350.016,178.907 356.379,158.151 356.834,155.183C357.289,152.215 354.626,152.215 354.626,152.215Z" style="fill:rgb(17,2,57);fill-rule:nonzero;"/>
                                </g>
                                <g id="Trazado_3619" transform="matrix(1,0,0,1,-287.022,-144.243)">
                                    <path d="M315.958,158.611C315.958,158.612 315.958,158.613 315.958,158.614C315.958,159.733 315.037,160.654 313.918,160.654C312.799,160.654 311.878,159.733 311.878,158.614C311.878,157.495 312.799,156.574 313.918,156.574C315.036,156.573 315.957,157.493 315.958,158.611Z" style="fill:rgb(208,209,222);fill-rule:nonzero;"/>
                                </g>
                            </g>
                        </g>
                        <g id="Grupo_2539" transform="matrix(1,0,0,1,387.457,341.476)">
                            <g id="Trazado_3620" transform="matrix(1,0,0,1,-327.139,-206.824)">
                                <path d="M336.823,206.824L339.109,213.86L346.509,213.86L340.524,218.208L342.81,225.244L336.825,220.896L330.84,225.244L333.126,218.208L327.141,213.86L334.541,213.86L336.823,206.824Z" style="fill:rgb(97,211,46);fill-rule:nonzero;"/>
                            </g>
                            <g id="Trazado_3621" transform="matrix(1,0,0,1,-310.053,-206.824)">
                                <path d="M346.166,206.824L348.452,213.86L355.852,213.86L349.867,218.208L352.153,225.244L346.168,220.896L340.183,225.244L342.469,218.208L336.484,213.86L343.884,213.86L346.166,206.824Z" style="fill:rgb(97,211,46);fill-rule:nonzero;"/>
                            </g>
                            <g id="Trazado_3622" transform="matrix(1,0,0,1,-292.966,-206.824)">
                                <path d="M355.508,206.824L357.794,213.86L365.194,213.86L359.209,218.208L361.495,225.244L355.511,220.896L349.525,225.244L351.811,218.208L345.826,213.86L353.226,213.86L355.508,206.824Z" style="fill:rgb(97,211,46);fill-rule:nonzero;"/>
                            </g>
                            <g id="Trazado_3623" transform="matrix(1,0,0,1,-275.879,-206.824)">
                                <path d="M364.85,206.824L367.136,213.86L374.536,213.86L368.551,218.208L370.837,225.244L364.85,220.9L358.865,225.248L361.151,218.212L355.166,213.864L362.566,213.864L364.85,206.824Z" style="fill:rgb(97,211,46);fill-rule:nonzero;"/>
                            </g>
                            <g id="Trazado_3624" transform="matrix(1,0,0,1,-258.793,-206.824)">
                                <path d="M374.193,206.824L376.479,213.86L383.879,213.86L377.894,218.208L380.18,225.244L374.195,220.896L368.21,225.244L370.496,218.208L364.511,213.86L371.911,213.86L374.193,206.824Z" style="fill:rgb(97,211,46);fill-rule:nonzero;"/>
                            </g>
                        </g>
                    </g>
                </g>
            </g>
        </g>
    </g>
</svg>
