<?xml version="1.0" encoding="UTF-8" standalone="no"?>
<!DOCTYPE svg PUBLIC "-//W3C//DTD SVG 1.1//EN" "http://www.w3.org/Graphics/SVG/1.1/DTD/svg11.dtd">
<svg width="100%" height="100%" viewBox="0 0 400 400" version="1.1" xmlns="http://www.w3.org/2000/svg" xmlns:xlink="http://www.w3.org/1999/xlink" xml:space="preserve" xmlns:serif="http://www.serif.com/" style="fill-rule:evenodd;clip-rule:evenodd;stroke-linejoin:round;stroke-miterlimit:2;">
    <rect id="Mesa-de-trabajo1" serif:id="Mesa de trabajo1" x="0" y="0" width="400" height="400" style="fill:none;"/>
    <g id="Mesa-de-trabajo11" serif:id="Mesa de trabajo1">
        <g id="vector6" transform="matrix(1.44358,0,0,1.44358,200,200)">
            <g transform="matrix(1,0,0,1,-138.544,-114.256)">
                <g id="vector61" serif:id="vector6" transform="matrix(1,0,0,1,-422.346,-354.693)">
                    <g id="Grupo_2542" transform="matrix(1,0,0,1,422.346,367.422)">
                        <g id="Elipse_64" transform="matrix(1,0,0,1,2.181,2.181)">
                            <circle cx="88.35" cy="88.35" r="88.35" style="fill:rgb(97,211,46);"/>
                        </g>
                        <g id="Elipse_65" transform="matrix(0.22745,-0.97379,0.97379,0.22745,0,146.778)">
                            <circle cx="75.364" cy="75.364" r="75.364" style="fill:rgb(17,2,57);"/>
                        </g>
                        <g id="Grupo_2541" transform="matrix(1,0,0,1,53.282,29.004)">
                            <g id="Rectángulo_2793" transform="matrix(1,0,0,1,35.838,0)">
                                <path d="M2.964,0.458C2.964,0.205 2.759,0 2.506,0L0.458,0C0.205,0 0,0.205 0,0.458L0,62.962C0,63.215 0.205,63.42 0.458,63.42L2.506,63.42C2.759,63.42 2.964,63.215 2.964,62.962L2.964,0.458Z" style="fill:rgb(254,254,254);"/>
                            </g>
                            <g id="Trazado_3625" transform="matrix(1,0,0,1,-438.991,-339.332)">
                                <path d="M477.618,402.084L477.602,402.11C477.347,402.586 476.849,402.885 476.309,402.885C476.066,402.885 475.828,402.825 475.614,402.71L439.762,383.424C439.052,383.042 438.781,382.144 439.162,381.433L439.178,381.407C439.433,380.933 439.929,380.637 440.466,380.637C440.711,380.637 440.951,380.698 441.166,380.815L477.022,400.1C477.729,400.482 477.997,401.376 477.618,402.084Z" style="fill:rgb(254,254,254);fill-rule:nonzero;"/>
                            </g>
                        </g>
                    </g>
                    <g id="Grupo_2545" transform="matrix(1,0,0,1,510.788,461.07)">
                        <g id="Grupo_2543" transform="matrix(1,0,0,1,27.795,0)">
                            <rect id="Rectángulo_2794" x="0" y="0" width="160.851" height="99.563" style="fill:rgb(208,209,222);"/>
                            <g id="Trazado_3626" transform="matrix(1,0,0,1,-458.658,-387.925)">
                                <path d="M539.084,442.119L619.51,392.338L619.51,387.925L458.658,387.925L458.658,392.338L539.084,442.119Z" style="fill:rgb(17,2,57);fill-rule:nonzero;"/>
                            </g>
                            <g id="Trazado_3627" transform="matrix(1,0,0,1,-458.658,-387.925)">
                                <path d="M539.084,437.706L458.658,387.925L619.509,387.925L539.084,437.706Z" style="fill:rgb(208,209,222);fill-rule:nonzero;"/>
                            </g>
                        </g>
                        <g id="Trazado_3628" transform="matrix(1,0,0,1,-430.863,-377.189)">
                            <rect x="458.658" y="392.8" width="140.825" height="83.952" style="fill:rgb(177,179,200);fill-opacity:0.32;fill-rule:nonzero;"/>
                        </g>
                        <g id="Grupo_2544" transform="matrix(1,0,0,1,0,22.571)">
                            <rect id="Rectángulo_2795" x="0" y="0" width="160.851" height="99.563" style="fill:rgb(208,209,222);"/>
                            <g id="Trazado_3629" transform="matrix(1,0,0,1,-449.975,-394.976)">
                                <path d="M530.4,449.17L610.825,399.388L610.825,394.976L449.975,394.976L449.975,399.389L530.4,449.17Z" style="fill:rgb(17,2,57);fill-rule:nonzero;"/>
                            </g>
                            <g id="Trazado_3630" transform="matrix(1,0,0,1,-449.975,-394.976)">
                                <path d="M530.4,444.758L449.974,394.976L610.826,394.976L530.4,444.758Z" style="fill:rgb(208,209,222);fill-rule:nonzero;"/>
                            </g>
                        </g>
                    </g>
                    <g id="Trazado_3631" transform="matrix(1,0,0,1,137.563,12.476)">
                        <path d="M489.076,361.174L494.841,360.768L500.603,360.361C500.603,360.361 503.369,375.95 506.509,377.605C506.509,377.605 511.525,395.896 497.383,396.891C480.27,398.098 485.645,379.074 485.645,379.074C488.523,376.994 489.076,361.174 489.076,361.174Z" style="fill:rgb(227,132,0);fill-rule:nonzero;"/>
                    </g>
                    <g id="Trazado_3632" transform="matrix(1,0,0,1,124.511,24.333)">
                        <path d="M535.9,436.788L542.152,402.883C541.284,387.583 539.197,372.489 539.197,372.489C531.185,367.899 519.559,365.748 519.559,365.748L519.459,365.831C513.623,370.687 505.286,371.279 498.822,367.297L498.694,367.217C498.694,367.217 486.418,371.017 479.126,376.689C478.65,383.143 478.968,389.631 480.074,396.007C481.554,404.822 483.702,413.511 486.5,422L491.449,436.789L535.9,436.788Z" style="fill:rgb(253,156,21);fill-rule:nonzero;"/>
                    </g>
                    <g id="Trazado_3633" transform="matrix(1,0,0,1,124.876,42.714)">
                        <path d="M535.537,418.408L541.789,384.503C541.61,381.311 541.568,378.191 541.613,375.233C532.772,388.54 522.368,401.555 505.595,397.307C495.252,394.689 488.258,382.025 480.72,375.489C480.166,375.012 479.62,374.558 479.081,374.1C479.34,375.438 479.596,376.837 479.836,378.287C481.273,386.907 483.388,395.4 486.161,403.687L491.087,418.412L535.537,418.408Z" style="fill:rgb(227,132,0);fill-rule:nonzero;"/>
                    </g>
                    <g id="Grupo_2546" transform="matrix(1,0,0,1,616.991,358.389)">
                        <g id="Trazado_3634" transform="matrix(1,0,0,1,-482.911,-355.292)">
                            <path d="M483.552,374.275C485.018,372.326 487.134,374.986 487.134,374.986C487.134,374.986 483.767,364.786 486.081,360.047C488.395,355.308 497.112,357.105 497.112,357.105C497.112,357.105 505.492,354.105 508.45,358.472C511.408,362.839 509.5,373.411 509.5,373.411C509.5,373.411 511.222,370.479 512.948,372.204C514.674,373.929 510.768,378.862 509.848,379.486C509.848,379.486 504.505,391.423 499.553,391.772C494.601,392.121 487.639,381.052 487.639,381.052C486.641,380.559 482.083,376.224 483.552,374.275Z" style="fill:rgb(248,134,103);fill-rule:nonzero;"/>
                        </g>
                        <g id="Trazado_3635" transform="matrix(1,0,0,1,-471.713,-355.848)">
                            <path d="M488.355,361.624C488.355,361.624 494.904,362.306 495.868,365.724C496.206,367.443 496.212,369.211 495.887,370.932C495.787,371.825 495.497,376.598 495.737,376.694C496.029,376.755 496.334,376.682 496.566,376.494C497.366,375.666 498.04,374.725 498.566,373.7C499.666,371.815 501.457,371.991 502.045,373.095C502.045,373.095 502.285,355.947 495.112,355.851C487.939,355.755 488.355,361.624 488.355,361.624Z" style="fill:rgb(17,2,57);fill-rule:nonzero;"/>
                        </g>
                        <g id="Trazado_3636" transform="matrix(1,0,0,1,-483.153,-355.048)">
                            <path d="M495.583,361.118C495.583,361.118 489.194,362.712 488.717,366.24C488.626,367.988 488.868,369.737 489.431,371.394C489.655,372.268 490.609,376.951 490.385,377.082C490.104,377.181 489.793,377.15 489.537,376.996C488.629,376.287 487.829,375.448 487.165,374.506C485.808,372.797 484.065,373.219 483.634,374.394C483.634,374.394 480.996,357.451 488.083,356.35C495.17,355.249 495.583,361.118 495.583,361.118Z" style="fill:rgb(17,2,57);fill-rule:nonzero;"/>
                        </g>
                    </g>
                    <g id="Trazado_3637" transform="matrix(1,0,0,1,149.184,83.065)">
                        <path d="M499.325,407.374C498.803,408.344 496.383,409.688 497.084,411.119C497.436,411.836 499.626,410.562 500.131,410.008C500.845,409.23 505.867,402.681 506.731,400.744C507.41,399.227 508.047,397.744 508.78,396.368C507.232,395.237 505.834,393.914 504.619,392.431C502.257,393.292 499.719,394.547 497.401,395.347C496.156,395.773 494.808,396.032 493.55,396.384C492.756,396.608 491.079,396.89 490.925,397.917C490.752,399.044 492.433,398.845 493.095,398.768C494.052,398.656 495.854,397.897 496.43,399.034C497.272,400.679 494.189,402.257 493.117,403.247C492.117,404.162 488.517,406.941 490.95,407.389C491.459,407.482 495.185,404.777 495.761,404.428C495.639,404.559 493.229,406.534 493.107,406.675C492.467,407.405 490.661,408.887 491.094,409.726C492.022,411.526 496.068,407.316 496.677,406.759L495.137,408.424C493.837,409.676 492.992,410.754 493.962,411.263C495.183,411.9 498.128,408.418 499.325,407.374Z" style="fill:rgb(248,134,103);fill-rule:nonzero;"/>
                    </g>
                    <g id="Trazado_3638" transform="matrix(1,0,0,1,155.937,29.059)">
                        <path d="M493.193,447.411L501.269,453.551C501.269,453.551 529.369,423.461 527.316,411.586C523.949,392.079 513.993,369.838 508.091,367.94C505.639,367.153 502.835,377.111 506.097,391.186C506.097,391.186 511.885,411.919 511.516,414.086C511.147,416.253 493.193,447.411 493.193,447.411Z" style="fill:rgb(253,156,21);fill-rule:nonzero;"/>
                    </g>
                    <g id="Grupo_2547" transform="matrix(1,0,0,1,586.591,400.403)">
                        <g id="Trazado_3639" transform="matrix(1,0,0,1,-457.463,-306.247)">
                            <path d="M489.534,412.794C489.973,413.802 492.274,415.345 491.461,416.712C491.051,417.397 488.974,415.947 488.513,415.355C487.87,414.52 483.398,407.583 482.697,405.582C482.146,404.014 481.631,402.482 481.013,401.049C482.648,400.05 484.15,398.848 485.482,397.47C487.768,398.52 490.194,399.98 492.441,400.97C493.641,401.498 494.967,401.87 496.189,402.321C496.964,402.609 498.612,403.028 498.683,404.066C498.76,405.202 497.102,404.866 496.449,404.735C495.505,404.546 493.77,403.643 493.104,404.725C492.131,406.3 495.073,408.125 496.062,409.197C496.978,410.189 500.339,413.256 497.88,413.502C497.365,413.553 493.88,410.554 493.325,410.157C493.437,410.298 495.678,412.465 495.79,412.615C496.366,413.393 498.044,415.015 497.544,415.815C496.472,417.531 492.784,413.004 492.224,412.403L493.624,414.186C494.824,415.54 495.57,416.686 494.562,417.109C493.292,417.647 490.642,413.934 489.534,412.794Z" style="fill:rgb(248,134,103);fill-rule:nonzero;"/>
                        </g>
                        <g id="Trazado_3640" transform="matrix(1,0,0,1,-473.656,-368.973)">
                            <path d="M505.228,461.653L497.593,466.74C497.593,466.74 471.223,434.24 473.838,422.473C478.13,403.164 485.432,373.628 491.338,369.109C493.384,367.54 499.938,379.925 499.453,387.659C499.453,387.659 489.683,426.228 489.946,428.408C490.209,430.588 505.228,461.653 505.228,461.653Z" style="fill:rgb(253,156,21);fill-rule:nonzero;"/>
                        </g>
                    </g>
                    <g id="Trazado_3641" transform="matrix(1,0,0,1,132.825,0)">
                        <path d="M510.069,360.436C510.001,358.603 508.901,356.958 507.233,356.195C502.92,354.193 497.935,354.193 493.622,356.195C488.922,358.544 487.498,359.076 486.128,358.295C484.758,357.514 485.628,356.73 485.628,356.73C485.628,356.73 482.552,356.701 482.699,361.474C482.846,366.247 488.717,372.174 496.383,372.174C508.091,372.174 511.881,363.989 510.069,360.436Z" style="fill:rgb(17,2,57);fill-rule:nonzero;"/>
                    </g>
                </g>
            </g>
        </g>
    </g>
</svg>
