<svg xmlns="http://www.w3.org/2000/svg" width="61" height="61" viewBox="0 0 61 61">
  <g id="in" transform="translate(-0.375)">
    <g id="linkedin-logo_1_" data-name="linkedin-logo (1)" transform="translate(17.692 16.084)">
      <path id="LinkedIn" d="M27.29,26.517v10.7H21.441V27.234c0-2.508-.846-4.22-2.963-4.22a3.226,3.226,0,0,0-3,2.27,4.485,4.485,0,0,0-.194,1.513V37.22H9.431s.079-16.912,0-18.664h5.851V21.2c-.012.02-.027.041-.038.06h.038V21.2a5.767,5.767,0,0,1,5.273-3.084C24.4,18.117,27.29,20.784,27.29,26.517ZM3.311,9.558A3.135,3.135,0,0,0,0,12.782a3.117,3.117,0,0,0,3.233,3.226h.039a3.136,3.136,0,0,0,3.309-3.226A3.123,3.123,0,0,0,3.311,9.558ZM.348,37.22H6.2V18.555H.348Z" transform="translate(0 -9.558)" fill="#9c9ca8"/>
    </g>
    <g id="Elipse_17" data-name="Elipse 17" transform="translate(0.375)" fill="none" stroke="#9c9ca8" stroke-width="1">
      <circle cx="30.5" cy="30.5" r="30.5" stroke="none"/>
      <circle cx="30.5" cy="30.5" r="30" fill="none"/>
    </g>
  </g>
</svg>
