<svg xmlns="http://www.w3.org/2000/svg" width="45.407" height="45.408" viewBox="0 0 45.407 45.408">
  <g id="Grupo_1518" data-name="Grupo 1518" transform="translate(-1587.715 -7402)">
    <circle id="Elipse_68" data-name="Elipse 68" cx="22" cy="22" r="22" transform="translate(1588 7403)" fill="#07336f"/>
    <path id="linkedin" d="M22.7,0a22.7,22.7,0,1,0,22.7,22.7A22.706,22.706,0,0,0,22.7,0Zm-6.6,34.322H10.577V17.686h5.529ZM13.342,15.415h-.036a2.882,2.882,0,1,1,.073-5.748,2.883,2.883,0,1,1-.037,5.748Zm22.7,18.907H30.515v-8.9c0-2.237-.8-3.762-2.8-3.762a3.027,3.027,0,0,0-2.837,2.022,3.787,3.787,0,0,0-.182,1.349v9.29H19.166s.072-15.075,0-16.635H24.7v2.355A5.489,5.489,0,0,1,29.678,17.3c3.638,0,6.366,2.378,6.366,7.487Zm0,0" transform="translate(1587.715 7402)" fill="#fff"/>
  </g>
</svg>
