<svg xmlns="http://www.w3.org/2000/svg" xmlns:xlink="http://www.w3.org/1999/xlink" width="201.569" height="47.077" viewBox="0 0 201.569 47.077">
  <defs>
    <linearGradient id="linear-gradient" y1="0.5" x2="1" y2="0.5" gradientUnits="objectBoundingBox">
      <stop offset="0.252" stop-color="#001557"/>
      <stop offset="0.341" stop-color="#001959"/>
      <stop offset="0.437" stop-color="#002661"/>
      <stop offset="0.536" stop-color="#003b6e"/>
      <stop offset="0.637" stop-color="#005980"/>
      <stop offset="0.722" stop-color="#007993"/>
      <stop offset="1" stop-color="#007f96"/>
    </linearGradient>
  </defs>
  <g id="logoarcsa" transform="translate(-98.456 281.043)">
    <path id="Trazado_3421" data-name="Trazado 3421" d="M173.285-220.685" transform="translate(-49.832 -40.195)" fill="#003172"/>
    <path id="Trazado_3422" data-name="Trazado 3422" d="M173.285-220.685" transform="translate(-49.832 -40.195)" fill="#003172"/>
    <path id="Trazado_3423" data-name="Trazado 3423" d="M173.285-220.685" transform="translate(-49.832 -40.195)" fill="#003172"/>
    <g id="Grupo_1331" data-name="Grupo 1331" transform="translate(116.027 -250.895)">
      <path id="Trazado_3424" data-name="Trazado 3424" d="M152.206-188.339a.744.744,0,0,0,.425-.123.741.741,0,0,0,.272-.332h.27a1.01,1.01,0,0,1-.372.506,1.091,1.091,0,0,1-.653.2,1.034,1.034,0,0,1-.8-.338,1.184,1.184,0,0,1-.291-.82,1.183,1.183,0,0,1,.291-.82,1.034,1.034,0,0,1,.8-.338,1.093,1.093,0,0,1,.653.2,1.012,1.012,0,0,1,.372.506h-.27a.74.74,0,0,0-.272-.331.744.744,0,0,0-.425-.123,1.017,1.017,0,0,0-.4.07.768.768,0,0,0-.27.193.935.935,0,0,0-.222.646.935.935,0,0,0,.222.646A.851.851,0,0,0,152.206-188.339Z" transform="translate(-151.054 190.536)" fill="#003172"/>
      <path id="Trazado_3425" data-name="Trazado 3425" d="M159.5-187.287a.691.691,0,0,1-.612.3.774.774,0,0,1-.6-.257.9.9,0,0,1-.225-.625.906.906,0,0,1,.225-.625.8.8,0,0,1,.618-.256.678.678,0,0,1,.595.3v-.277h.256v1.708H159.5Zm-.577.068a.541.541,0,0,0,.437-.191.682.682,0,0,0,.154-.458.683.683,0,0,0-.154-.458.542.542,0,0,0-.437-.191.569.569,0,0,0-.444.191.664.664,0,0,0-.161.458.663.663,0,0,0,.161.458A.568.568,0,0,0,158.921-187.218Z" transform="translate(-155.72 189.432)" fill="#003172"/>
      <path id="Trazado_3426" data-name="Trazado 3426" d="M164.719-188.321h-.256v-2.392h.256Z" transform="translate(-159.984 190.74)" fill="#003172"/>
      <path id="Trazado_3427" data-name="Trazado 3427" d="M166.8-190.529v.335h-.277v-.335Zm-.267.622h.256v1.708h-.256Z" transform="translate(-161.359 190.618)" fill="#003172"/>
      <path id="Trazado_3428" data-name="Trazado 3428" d="M169.036-190.552a.4.4,0,0,0-.272.08.328.328,0,0,0-.091.258v.13h.4v.225h-.4v1.483h-.256v-1.483h-.294v-.225h.294v-.15a.516.516,0,0,1,.167-.42.7.7,0,0,1,.465-.14h.02v.243Z" transform="translate(-162.422 190.795)" fill="#003172"/>
      <path id="Trazado_3429" data-name="Trazado 3429" d="M172.042-190.529v.335h-.277v-.335Zm-.266.622h.256v1.708h-.256Z" transform="translate(-164.846 190.618)" fill="#003172"/>
      <path id="Trazado_3430" data-name="Trazado 3430" d="M174.47-187.218a.48.48,0,0,0,.291-.092.533.533,0,0,0,.184-.239h.277a.78.78,0,0,1-.287.407.865.865,0,0,1-.519.157.793.793,0,0,1-.612-.257.888.888,0,0,1-.229-.625.889.889,0,0,1,.229-.625.794.794,0,0,1,.612-.256.867.867,0,0,1,.519.157.78.78,0,0,1,.287.407h-.277a.533.533,0,0,0-.184-.239.48.48,0,0,0-.291-.093.68.68,0,0,0-.278.051.557.557,0,0,0-.193.14.656.656,0,0,0-.167.458.656.656,0,0,0,.167.458A.6.6,0,0,0,174.47-187.218Z" transform="translate(-166.052 189.432)" fill="#003172"/>
      <path id="Trazado_3431" data-name="Trazado 3431" d="M180.577-187.287a.691.691,0,0,1-.611.3.773.773,0,0,1-.6-.257.9.9,0,0,1-.225-.625.906.906,0,0,1,.225-.625.794.794,0,0,1,.618-.256.678.678,0,0,1,.594.3v-.277h.257v1.708h-.257Zm-.577.068a.541.541,0,0,0,.437-.191.682.682,0,0,0,.154-.458.683.683,0,0,0-.154-.458.542.542,0,0,0-.437-.191.569.569,0,0,0-.444.191.665.665,0,0,0-.16.458.665.665,0,0,0,.16.458A.568.568,0,0,0,180-187.218Z" transform="translate(-169.757 189.432)" fill="#003172"/>
      <path id="Trazado_3432" data-name="Trazado 3432" d="M186.662-188.595a.691.691,0,0,1-.612.3.774.774,0,0,1-.6-.257.9.9,0,0,1-.225-.625.906.906,0,0,1,.225-.625.8.8,0,0,1,.618-.256.678.678,0,0,1,.595.3v-.96h.256v2.392h-.256Zm-.578.068a.541.541,0,0,0,.438-.191.684.684,0,0,0,.154-.458.685.685,0,0,0-.154-.458.542.542,0,0,0-.438-.191.568.568,0,0,0-.444.191.664.664,0,0,0-.161.458.663.663,0,0,0,.161.458A.567.567,0,0,0,186.085-188.526Z" transform="translate(-173.809 190.74)" fill="#003172"/>
      <path id="Trazado_3433" data-name="Trazado 3433" d="M192.157-188.749a.812.812,0,0,1,.622.256.89.89,0,0,1,.225.625.889.889,0,0,1-.225.625.811.811,0,0,1-.622.257.812.812,0,0,1-.622-.257.889.889,0,0,1-.225-.625.89.89,0,0,1,.225-.625A.813.813,0,0,1,192.157-188.749Zm0,1.531a.541.541,0,0,0,.437-.191.682.682,0,0,0,.154-.458.683.683,0,0,0-.154-.458.542.542,0,0,0-.437-.191.541.541,0,0,0-.437.191.683.683,0,0,0-.154.458.682.682,0,0,0,.154.458A.54.54,0,0,0,192.157-187.218Z" transform="translate(-177.862 189.432)" fill="#003172"/>
      <path id="Trazado_3434" data-name="Trazado 3434" d="M198.3-188.749v.256h-.031a.547.547,0,0,0-.451.222.8.8,0,0,0-.164.506v.752H197.4v-1.708h.256v.42a.623.623,0,0,1,.355-.393.621.621,0,0,1,.273-.055Z" transform="translate(-181.914 189.432)" fill="#003172"/>
      <path id="Trazado_3435" data-name="Trazado 3435" d="M201.911-187.287a.691.691,0,0,1-.611.3.774.774,0,0,1-.6-.257.9.9,0,0,1-.225-.625.906.906,0,0,1,.225-.625.8.8,0,0,1,.619-.256.678.678,0,0,1,.594.3v-.277h.256v1.708h-.256Zm-.577.068a.541.541,0,0,0,.437-.191.682.682,0,0,0,.154-.458.683.683,0,0,0-.154-.458.542.542,0,0,0-.437-.191.569.569,0,0,0-.444.191.666.666,0,0,0-.161.458.665.665,0,0,0,.161.458A.568.568,0,0,0,201.334-187.218Z" transform="translate(-183.964 189.432)" fill="#003172"/>
      <path id="Trazado_3436" data-name="Trazado 3436" d="M210.175-188.595a.691.691,0,0,1-.612.3.774.774,0,0,1-.6-.257.9.9,0,0,1-.225-.625.906.906,0,0,1,.225-.625.8.8,0,0,1,.618-.256.678.678,0,0,1,.595.3v-.96h.256v2.392h-.256Zm-.578.068a.54.54,0,0,0,.437-.191.682.682,0,0,0,.154-.458.683.683,0,0,0-.154-.458.541.541,0,0,0-.437-.191.568.568,0,0,0-.444.191.664.664,0,0,0-.161.458.663.663,0,0,0,.161.458A.567.567,0,0,0,209.6-188.526Z" transform="translate(-189.468 190.74)" fill="#003172"/>
      <path id="Trazado_3437" data-name="Trazado 3437" d="M215.69-187.218a.517.517,0,0,0,.5-.287h.28a.825.825,0,0,1-.282.376.812.812,0,0,1-.5.144.826.826,0,0,1-.629-.257.874.874,0,0,1-.236-.625.888.888,0,0,1,.226-.625.811.811,0,0,1,.622-.256.811.811,0,0,1,.622.256.888.888,0,0,1,.226.625v.1h-1.432a.621.621,0,0,0,.188.39A.578.578,0,0,0,215.69-187.218Zm-.02-1.3a.565.565,0,0,0-.4.147.605.605,0,0,0-.185.366h1.162a.607.607,0,0,0-.184-.366A.567.567,0,0,0,215.67-188.517Z" transform="translate(-193.52 189.432)" fill="#003172"/>
      <path id="Trazado_3438" data-name="Trazado 3438" d="M223.9-188.339a.745.745,0,0,0,.425-.123.741.741,0,0,0,.272-.332h.27a1.013,1.013,0,0,1-.372.506,1.09,1.09,0,0,1-.652.2,1.035,1.035,0,0,1-.8-.338,1.183,1.183,0,0,1-.29-.82,1.183,1.183,0,0,1,.29-.82,1.035,1.035,0,0,1,.8-.338,1.092,1.092,0,0,1,.652.2,1.014,1.014,0,0,1,.372.506h-.27a.74.74,0,0,0-.272-.331.745.745,0,0,0-.425-.123,1.015,1.015,0,0,0-.4.07.765.765,0,0,0-.27.193.933.933,0,0,0-.222.646.933.933,0,0,0,.222.646A.85.85,0,0,0,223.9-188.339Z" transform="translate(-198.799 190.536)" fill="#003172"/>
      <path id="Trazado_3439" data-name="Trazado 3439" d="M230.974-188.749v.256h-.031a.548.548,0,0,0-.451.222.8.8,0,0,0-.164.506v.752h-.256v-1.708h.256v.42a.623.623,0,0,1,.355-.393.622.622,0,0,1,.273-.055Z" transform="translate(-203.676 189.432)" fill="#003172"/>
      <path id="Trazado_3440" data-name="Trazado 3440" d="M234.018-188.356a.517.517,0,0,0,.5-.287h.28a.827.827,0,0,1-.282.376.812.812,0,0,1-.5.144.826.826,0,0,1-.629-.257.873.873,0,0,1-.236-.625.89.89,0,0,1,.225-.625.812.812,0,0,1,.622-.256.812.812,0,0,1,.622.256.89.89,0,0,1,.225.625v.1h-1.431a.62.62,0,0,0,.188.39A.58.58,0,0,0,234.018-188.356Zm-.02-1.3a.566.566,0,0,0-.4.147.607.607,0,0,0-.184.366h1.162a.609.609,0,0,0-.185-.366A.565.565,0,0,0,234-189.654Zm-.034-.8h.366l-.366.359h-.208Z" transform="translate(-205.725 190.57)" fill="#003172"/>
      <path id="Trazado_3441" data-name="Trazado 3441" d="M240.285-188.595a.691.691,0,0,1-.612.3.774.774,0,0,1-.6-.257.9.9,0,0,1-.225-.625.906.906,0,0,1,.225-.625.8.8,0,0,1,.618-.256.678.678,0,0,1,.595.3v-.96h.256v2.392h-.256Zm-.578.068a.54.54,0,0,0,.437-.191.682.682,0,0,0,.154-.458.683.683,0,0,0-.154-.458.541.541,0,0,0-.437-.191.568.568,0,0,0-.444.191.664.664,0,0,0-.161.458.663.663,0,0,0,.161.458A.567.567,0,0,0,239.708-188.526Z" transform="translate(-209.519 190.74)" fill="#003172"/>
      <path id="Trazado_3442" data-name="Trazado 3442" d="M245.5-190.529v.335h-.277v-.335Zm-.267.622h.256v1.708h-.256Z" transform="translate(-213.763 190.618)" fill="#003172"/>
      <path id="Trazado_3443" data-name="Trazado 3443" d="M247.2-188.178v-1.483h-.348v-.225h.348v-.612h.256v.612h.393v.225h-.393v1.483Z" transform="translate(-214.852 190.597)" fill="#003172"/>
      <path id="Trazado_3444" data-name="Trazado 3444" d="M251.108-188.749a.813.813,0,0,1,.622.256.89.89,0,0,1,.225.625.889.889,0,0,1-.225.625.812.812,0,0,1-.622.257.811.811,0,0,1-.622-.257.889.889,0,0,1-.225-.625.89.89,0,0,1,.225-.625A.811.811,0,0,1,251.108-188.749Zm0,1.531a.54.54,0,0,0,.437-.191.682.682,0,0,0,.154-.458.683.683,0,0,0-.154-.458.541.541,0,0,0-.437-.191.542.542,0,0,0-.437.191.683.683,0,0,0-.154.458.682.682,0,0,0,.154.458A.541.541,0,0,0,251.108-187.218Z" transform="translate(-217.12 189.432)" fill="#003172"/>
      <path id="Trazado_3445" data-name="Trazado 3445" d="M257.112-188.264q-.034-.267-.429-.267t-.395.246a.172.172,0,0,0,.084.155.759.759,0,0,0,.21.087c.084.023.176.044.275.063a1.4,1.4,0,0,1,.275.082.589.589,0,0,1,.21.145.364.364,0,0,1,.083.253.437.437,0,0,1-.188.381.873.873,0,0,1-.509.132.814.814,0,0,1-.544-.171.523.523,0,0,1-.2-.393h.267a.356.356,0,0,0,.267.318.589.589,0,0,0,.176.027,1.173,1.173,0,0,0,.162-.01.665.665,0,0,0,.147-.037.227.227,0,0,0,.164-.222.184.184,0,0,0-.084-.162.743.743,0,0,0-.21-.092c-.084-.024-.176-.045-.275-.065a1.474,1.474,0,0,1-.275-.081.585.585,0,0,1-.21-.14.345.345,0,0,1-.084-.246.426.426,0,0,1,.169-.36.821.821,0,0,1,.5-.128.753.753,0,0,1,.5.15.492.492,0,0,1,.174.335Z" transform="translate(-220.934 189.432)" fill="#003172"/>
    </g>
    <g id="Grupo_1332" data-name="Grupo 1332" transform="translate(130.441 -265.858)">
      <path id="Trazado_3446" data-name="Trazado 3446" d="M195.721-233.637a1.011,1.011,0,0,1-.489.123,1,1,0,0,1-.728-.3,1.007,1.007,0,0,1-.3-.727,1,1,0,0,1,.3-.725.992.992,0,0,1,.727-.3,1.023,1.023,0,0,1,.464.109.994.994,0,0,1,.364.307l-.2.14a.753.753,0,0,0-.276-.231.783.783,0,0,0-.351-.082.753.753,0,0,0-.551.23.751.751,0,0,0-.232.554.751.751,0,0,0,.232.554.751.751,0,0,0,.551.229.748.748,0,0,0,.615-.3v-.364h-.615v-.246h.859v.688A1.013,1.013,0,0,1,195.721-233.637Z" transform="translate(-194.204 235.575)" fill="#003172"/>
      <path id="Trazado_3447" data-name="Trazado 3447" d="M202.208-233.473l-.445-.685a.4.4,0,0,0-.366-.17H201.1v.856h-.244v-1.958h.831a.644.644,0,0,1,.425.151.515.515,0,0,1,.188.4.492.492,0,0,1-.126.336.594.594,0,0,1-.316.193c.046,0,.111.068.193.193l.445.685Zm-.27-1.634a.4.4,0,0,0-.249-.078H201.1v.61h.588a.383.383,0,0,0,.249-.082.267.267,0,0,0,.117-.224A.275.275,0,0,0,201.938-235.107Z" transform="translate(-198.635 235.483)" fill="#003172"/>
      <path id="Trazado_3448" data-name="Trazado 3448" d="M207.563-233.661a.755.755,0,0,1-.554.233.756.756,0,0,1-.554-.232.75.75,0,0,1-.229-.551v-1.225h.243v1.225a.53.53,0,0,0,.157.38.521.521,0,0,0,.383.156.519.519,0,0,0,.38-.157.531.531,0,0,0,.156-.38v-1.225h.246v1.225A.752.752,0,0,1,207.563-233.661Z" transform="translate(-202.209 235.487)" fill="#003172"/>
      <path id="Trazado_3449" data-name="Trazado 3449" d="M213.183-234.492a.644.644,0,0,1-.425.154h-.587v.856h-.244v-1.958h.831a.646.646,0,0,1,.425.151.516.516,0,0,1,.188.4A.5.5,0,0,1,213.183-234.492Zm-.176-.624a.4.4,0,0,0-.249-.078h-.587v.61h.588a.385.385,0,0,0,.249-.081.266.266,0,0,0,.118-.224A.275.275,0,0,0,213.007-235.116Z" transform="translate(-206.007 235.489)" fill="#003172"/>
      <path id="Trazado_3450" data-name="Trazado 3450" d="M218.648-233.833a.993.993,0,0,1-.727.3.991.991,0,0,1-.727-.3,1,1,0,0,1-.3-.727,1,1,0,0,1,.3-.728.989.989,0,0,1,.727-.3.988.988,0,0,1,.727.3.989.989,0,0,1,.3.727A.991.991,0,0,1,218.648-233.833Zm-.174-1.281a.756.756,0,0,0-.554-.229.752.752,0,0,0-.551.23.75.75,0,0,0-.231.554.749.749,0,0,0,.233.554.752.752,0,0,0,.551.229.755.755,0,0,0,.554-.23.755.755,0,0,0,.229-.554A.756.756,0,0,0,218.474-235.114Z" transform="translate(-209.314 235.586)" fill="#003172"/>
    </g>
    <g id="Grupo_1333" data-name="Grupo 1333" transform="translate(111.123 -262.419)">
      <path id="Trazado_3451" data-name="Trazado 3451" d="M140.9-225.293l-4.527,9.615h.79l1.484-3.137h4.028l1.437,3.137h1.606l-4.426-9.615Zm-1.977,5.87,1.754-3.718,1.707,3.718Z" transform="translate(-136.374 225.293)" fill="#003172"/>
      <path id="Trazado_3452" data-name="Trazado 3452" d="M173.281-220.157a2.988,2.988,0,0,0,.729-.533,2.24,2.24,0,0,0,.469-.688,2.038,2.038,0,0,0,.165-.82,2.233,2.233,0,0,0-.216-.981,2.151,2.151,0,0,0-.641-.776,3.134,3.134,0,0,0-1.063-.509,5.435,5.435,0,0,0-1.488-.182h-3.252v9.4h1.579v-4.42h1.106l3.266,4.42h1.829l-3.421-4.561A3.9,3.9,0,0,0,173.281-220.157Zm-1.825-.125a3.256,3.256,0,0,1-.982.142h-.911v-3.92h1.39a2.177,2.177,0,0,1,.8.142,1.873,1.873,0,0,1,.627.395,1.793,1.793,0,0,1,.412.607,1.981,1.981,0,0,1,.148.773,1.83,1.83,0,0,1-.185.83,1.842,1.842,0,0,1-.516.631A2.439,2.439,0,0,1,171.456-220.281Z" transform="translate(-157.424 224.863)" fill="#003172"/>
      <path id="Trazado_3453" data-name="Trazado 3453" d="M196.578-223.471a3.61,3.61,0,0,1,1.235-.85,3.9,3.9,0,0,1,1.525-.3,2.762,2.762,0,0,1,1.673.533,4.741,4.741,0,0,1,1.323,1.674l.681-.459a5.894,5.894,0,0,0-.7-.911,4.675,4.675,0,0,0-.928-.773,4.921,4.921,0,0,0-1.154-.536,4.5,4.5,0,0,0-1.38-.2,5.845,5.845,0,0,0-1.485.182,5.414,5.414,0,0,0-1.279.509,4.922,4.922,0,0,0-1.049.786,4.821,4.821,0,0,0-.786,1.009,4.909,4.909,0,0,0-.493,1.174,4.818,4.818,0,0,0-.172,1.285,4.862,4.862,0,0,0,.169,1.282,4.86,4.86,0,0,0,.482,1.164,4.742,4.742,0,0,0,.769,1,4.687,4.687,0,0,0,1.032.772,5.374,5.374,0,0,0,1.265.5,5.818,5.818,0,0,0,1.464.179,4.944,4.944,0,0,0,1.464-.2,4.757,4.757,0,0,0,1.174-.536,4.491,4.491,0,0,0,.914-.772,6.286,6.286,0,0,0,.685-.911l-.661-.425a4.592,4.592,0,0,1-.513.786,4.206,4.206,0,0,1-.705.695,3.729,3.729,0,0,1-.854.5,2.442,2.442,0,0,1-.951.192,4.083,4.083,0,0,1-1.542-.287,3.487,3.487,0,0,1-1.231-.83,3.883,3.883,0,0,1-.816-1.326,4.972,4.972,0,0,1-.3-1.775,4.931,4.931,0,0,1,.3-1.781A4.008,4.008,0,0,1,196.578-223.471Z" transform="translate(-174.481 225.293)" fill="#003172"/>
      <path id="Trazado_3454" data-name="Trazado 3454" d="M230.914-219.787a5.178,5.178,0,0,0-.85-.621q-.48-.284-.975-.547l-.975-.516a6.5,6.5,0,0,1-.851-.529,2.912,2.912,0,0,1-.6-.584,1.107,1.107,0,0,1-.229-.678,1.274,1.274,0,0,1,.111-.516,1.34,1.34,0,0,1,.331-.452,1.7,1.7,0,0,1,.553-.324,2.224,2.224,0,0,1,.779-.125,2.727,2.727,0,0,1,.9.138,2.231,2.231,0,0,1,.7.395,2.485,2.485,0,0,1,.526.614,3.722,3.722,0,0,1,.361.789l.81-.371a3.114,3.114,0,0,0-1.117-1.619,3.526,3.526,0,0,0-2.108-.56,4.1,4.1,0,0,0-1.312.192,2.839,2.839,0,0,0-.961.529,2.222,2.222,0,0,0-.594.8,2.469,2.469,0,0,0-.2,1,1.985,1.985,0,0,0,.223.955,2.848,2.848,0,0,0,.584.749,4.738,4.738,0,0,0,.826.607q.465.274.948.523t.948.5a5.494,5.494,0,0,1,.826.53,2.675,2.675,0,0,1,.584.617,1.347,1.347,0,0,1,.223.766,1.216,1.216,0,0,1-.162.631,1.5,1.5,0,0,1-.428.462,1.934,1.934,0,0,1-.607.284,2.575,2.575,0,0,1-.692.094,2.814,2.814,0,0,1-.867-.131,2.479,2.479,0,0,1-.742-.385,2.632,2.632,0,0,1-.584-.617,3.173,3.173,0,0,1-.4-.823l-.85.351a3.952,3.952,0,0,0,.479.931,2.806,2.806,0,0,0,.7.695,3.079,3.079,0,0,0,.941.432,4.511,4.511,0,0,0,1.208.148,4.6,4.6,0,0,0,1.468-.212,3.108,3.108,0,0,0,1.056-.58,2.375,2.375,0,0,0,.638-.857,2.6,2.6,0,0,0,.212-1.049,1.769,1.769,0,0,0-.229-.894A3.037,3.037,0,0,0,230.914-219.787Z" transform="translate(-195.423 225.293)" fill="#003172"/>
      <path id="Trazado_3455" data-name="Trazado 3455" d="M251.919-225.293h-.391L247-215.678h.789l1.484-3.137H253.3l1.437,3.137h1.606Zm-2.368,5.87,1.754-3.718,1.707,3.718Z" transform="translate(-210.045 225.293)" fill="#003172"/>
    </g>
    <g id="Grupo_1334" data-name="Grupo 1334" transform="translate(178.689 -265.056)">
      <path id="Trazado_3456" data-name="Trazado 3456" d="M338.633-229.531h1.744a5.742,5.742,0,0,1,2.04.261,2.078,2.078,0,0,1,.987.846,2.613,2.613,0,0,1,.361,1.4,2.352,2.352,0,0,1-.473,1.5,2.455,2.455,0,0,1-1.283.834,7.369,7.369,0,0,1-1.732.135v3.659h-1.644Zm1.644,3.377h.523a2.814,2.814,0,0,0,.857-.089.761.761,0,0,0,.379-.292.856.856,0,0,0,.138-.492.787.787,0,0,0-.388-.731,2.21,2.21,0,0,0-1.045-.171h-.464Z" transform="translate(-338.633 230.752)" fill="#003172"/>
      <path id="Trazado_3457" data-name="Trazado 3457" d="M357.161-223.126h1.374v.8a1.716,1.716,0,0,1,.593-.722,1.432,1.432,0,0,1,.81-.247,1.5,1.5,0,0,1,.652.165l-.5,1.38a1.1,1.1,0,0,0-.464-.141.734.734,0,0,0-.625.458,4.2,4.2,0,0,0-.255,1.8l.006.311v2.584h-1.591Z" transform="translate(-350.972 226.597)" fill="#003172"/>
      <path id="Trazado_3458" data-name="Trazado 3458" d="M372.18-223.291a3.388,3.388,0,0,1,1.7.452,3.265,3.265,0,0,1,1.242,1.227,3.3,3.3,0,0,1,.446,1.674,3.356,3.356,0,0,1-.449,1.691,3.246,3.246,0,0,1-1.224,1.23,3.384,3.384,0,0,1-1.709.443,3.187,3.187,0,0,1-2.346-.978,3.242,3.242,0,0,1-.972-2.375,3.232,3.232,0,0,1,1.1-2.5A3.209,3.209,0,0,1,372.18-223.291Zm.026,1.509a1.65,1.65,0,0,0-1.244.52,1.845,1.845,0,0,0-.5,1.33,1.879,1.879,0,0,0,.491,1.351,1.641,1.641,0,0,0,1.244.517,1.661,1.661,0,0,0,1.253-.522,1.865,1.865,0,0,0,.5-1.345,1.854,1.854,0,0,0-.491-1.336A1.661,1.661,0,0,0,372.206-221.782Z" transform="translate(-358.768 226.597)" fill="#003172"/>
      <path id="Trazado_3459" data-name="Trazado 3459" d="M391.785-229.847h1.6v2.355h.951v1.38h-.951v5.009h-1.6v-5.009h-.822v-1.38h.822Z" transform="translate(-373.482 230.963)" fill="#003172"/>
      <path id="Trazado_3460" data-name="Trazado 3460" d="M409.441-219.468h-5.15a1.713,1.713,0,0,0,.6,1.083,1.87,1.87,0,0,0,1.236.4,2.137,2.137,0,0,0,1.544-.628l1.351.634a3.193,3.193,0,0,1-1.21,1.06,3.785,3.785,0,0,1-1.674.343,3.307,3.307,0,0,1-2.449-.948,3.229,3.229,0,0,1-.945-2.375,3.338,3.338,0,0,1,.942-2.428,3.166,3.166,0,0,1,2.364-.966,3.282,3.282,0,0,1,2.454.966,3.491,3.491,0,0,1,.945,2.552Zm-1.6-1.262a1.608,1.608,0,0,0-.626-.869,1.818,1.818,0,0,0-1.085-.335,1.918,1.918,0,0,0-1.176.376,2.094,2.094,0,0,0-.588.828Z" transform="translate(-381.325 226.597)" fill="#003172"/>
      <path id="Trazado_3461" data-name="Trazado 3461" d="M430.842-223.126h1.6v5.473a3.622,3.622,0,0,1-.652,2.384,3.262,3.262,0,0,1-2.637,1.034,4.618,4.618,0,0,1-1.58-.235,2.839,2.839,0,0,1-1.08-.69,2.811,2.811,0,0,1-.652-1.107h1.768a1.463,1.463,0,0,0,.6.408,2.508,2.508,0,0,0,.875.138,2.308,2.308,0,0,0,1.039-.2,1.2,1.2,0,0,0,.555-.517,2.619,2.619,0,0,0,.161-1.092,2.654,2.654,0,0,1-.887.608,2.819,2.819,0,0,1-1.051.185,2.888,2.888,0,0,1-2.173-.928,3.262,3.262,0,0,1-.887-2.349,3.267,3.267,0,0,1,.94-2.443,2.8,2.8,0,0,1,2.032-.834,2.7,2.7,0,0,1,1.042.2,3.294,3.294,0,0,1,.983.666Zm-1.662,1.333a1.67,1.67,0,0,0-1.251.508,1.759,1.759,0,0,0-.493,1.277,1.785,1.785,0,0,0,.505,1.31,1.71,1.71,0,0,0,1.268.511,1.64,1.64,0,0,0,1.23-.5,1.8,1.8,0,0,0,.485-1.31,1.78,1.78,0,0,0-.487-1.3A1.68,1.68,0,0,0,429.18-221.793Z" transform="translate(-396.707 226.597)" fill="#003172"/>
      <path id="Trazado_3462" data-name="Trazado 3462" d="M450.29-230.673a.98.98,0,0,1,.723.305,1.013,1.013,0,0,1,.3.74,1,1,0,0,1-.3.731.969.969,0,0,1-.715.3.981.981,0,0,1-.729-.308,1.03,1.03,0,0,1-.3-.749.986.986,0,0,1,.3-.722A.98.98,0,0,1,450.29-230.673Zm-.8,2.631h1.6v6.389h-1.6Z" transform="translate(-412.312 231.513)" fill="#003172"/>
      <path id="Trazado_3463" data-name="Trazado 3463" d="M464.883-219.468h-5.15a1.717,1.717,0,0,0,.6,1.083,1.871,1.871,0,0,0,1.236.4,2.137,2.137,0,0,0,1.544-.628l1.351.634a3.192,3.192,0,0,1-1.21,1.06,3.787,3.787,0,0,1-1.674.343,3.307,3.307,0,0,1-2.449-.948,3.227,3.227,0,0,1-.945-2.375,3.336,3.336,0,0,1,.942-2.428,3.165,3.165,0,0,1,2.363-.966,3.283,3.283,0,0,1,2.455.966,3.492,3.492,0,0,1,.945,2.552Zm-1.6-1.262a1.608,1.608,0,0,0-.626-.869,1.816,1.816,0,0,0-1.085-.335,1.92,1.92,0,0,0-1.176.376,2.1,2.1,0,0,0-.588.828Z" transform="translate(-418.247 226.597)" fill="#003172"/>
      <path id="Trazado_3464" data-name="Trazado 3464" d="M482.124-223.126h1.6v.655a3.844,3.844,0,0,1,.988-.639,2.388,2.388,0,0,1,.906-.18,2.194,2.194,0,0,1,1.613.664,2.279,2.279,0,0,1,.557,1.668v4.222h-1.585v-2.8a7.094,7.094,0,0,0-.1-1.519,1.041,1.041,0,0,0-.357-.572,1,1,0,0,0-.63-.2,1.179,1.179,0,0,0-.835.326,1.737,1.737,0,0,0-.483.9,7.28,7.28,0,0,0-.07,1.3v2.563h-1.6Z" transform="translate(-434.19 226.597)" fill="#003172"/>
      <path id="Trazado_3465" data-name="Trazado 3465" d="M507.858-230.181h1.6v8.855h-1.6V-222a3.144,3.144,0,0,1-.942.643,2.629,2.629,0,0,1-1.023.2,2.842,2.842,0,0,1-2.141-.96,3.349,3.349,0,0,1-.9-2.387,3.431,3.431,0,0,1,.874-2.425,2.784,2.784,0,0,1,2.123-.946,2.7,2.7,0,0,1,1.079.217,2.943,2.943,0,0,1,.933.652Zm-1.685,3.782a1.62,1.62,0,0,0-1.235.525,1.893,1.893,0,0,0-.492,1.348,1.914,1.914,0,0,0,.5,1.362,1.621,1.621,0,0,0,1.232.534,1.651,1.651,0,0,0,1.252-.525,1.92,1.92,0,0,0,.5-1.377,1.864,1.864,0,0,0-.5-1.351A1.672,1.672,0,0,0,506.173-226.4Z" transform="translate(-447.992 231.185)" fill="#003172"/>
      <path id="Trazado_3466" data-name="Trazado 3466" d="M529.874-223.291a3.386,3.386,0,0,1,1.7.452,3.264,3.264,0,0,1,1.242,1.227,3.3,3.3,0,0,1,.446,1.674,3.354,3.354,0,0,1-.449,1.691,3.242,3.242,0,0,1-1.224,1.23,3.383,3.383,0,0,1-1.709.443,3.187,3.187,0,0,1-2.346-.978,3.242,3.242,0,0,1-.972-2.375,3.232,3.232,0,0,1,1.1-2.5A3.208,3.208,0,0,1,529.874-223.291Zm.026,1.509a1.649,1.649,0,0,0-1.244.52,1.845,1.845,0,0,0-.5,1.33,1.88,1.88,0,0,0,.491,1.351,1.643,1.643,0,0,0,1.244.517,1.661,1.661,0,0,0,1.253-.522,1.865,1.865,0,0,0,.5-1.345,1.853,1.853,0,0,0-.491-1.336A1.66,1.66,0,0,0,529.9-221.782Z" transform="translate(-463.783 226.597)" fill="#003172"/>
      <path id="Trazado_3467" data-name="Trazado 3467" d="M568.222-228.446l-1.15,1.1a3.561,3.561,0,0,0-2.64-1.24,2.837,2.837,0,0,0-2.086.846,2.833,2.833,0,0,0-.848,2.087,3.088,3.088,0,0,0,.375,1.534,2.694,2.694,0,0,0,1.062,1.052,3.082,3.082,0,0,0,1.526.382,3.143,3.143,0,0,0,1.308-.268,4.685,4.685,0,0,0,1.3-.973l1.115,1.163a6.127,6.127,0,0,1-1.809,1.3,4.937,4.937,0,0,1-1.944.361,4.475,4.475,0,0,1-3.3-1.277,4.423,4.423,0,0,1-1.283-3.274,4.477,4.477,0,0,1,.585-2.3,4.344,4.344,0,0,1,1.673-1.615,4.719,4.719,0,0,1,2.346-.611,4.9,4.9,0,0,1,2.058.451A4.924,4.924,0,0,1,568.222-228.446Z" transform="translate(-485.954 231.185)" fill="#003172"/>
      <path id="Trazado_3468" data-name="Trazado 3468" d="M587.558-223.126h1.374v.8a1.716,1.716,0,0,1,.593-.722,1.433,1.433,0,0,1,.81-.247,1.5,1.5,0,0,1,.652.165l-.5,1.38a1.1,1.1,0,0,0-.464-.141.734.734,0,0,0-.625.458,4.2,4.2,0,0,0-.255,1.8l.006.311v2.584h-1.591Z" transform="translate(-504.403 226.597)" fill="#003172"/>
      <path id="Trazado_3469" data-name="Trazado 3469" d="M606-226.058h-5.15a1.715,1.715,0,0,0,.6,1.083,1.869,1.869,0,0,0,1.236.4,2.137,2.137,0,0,0,1.544-.628l1.351.634a3.192,3.192,0,0,1-1.21,1.06,3.786,3.786,0,0,1-1.674.343,3.307,3.307,0,0,1-2.449-.948,3.227,3.227,0,0,1-.945-2.375,3.336,3.336,0,0,1,.942-2.428,3.165,3.165,0,0,1,2.363-.966,3.283,3.283,0,0,1,2.455.966,3.491,3.491,0,0,1,.945,2.552Zm-1.6-1.262a1.612,1.612,0,0,0-.626-.869,1.817,1.817,0,0,0-1.085-.335,1.92,1.92,0,0,0-1.177.376,2.094,2.094,0,0,0-.588.828Zm-1.5-5.866h1.9l-2.149,2.3H601.5Z" transform="translate(-512.222 233.187)" fill="#003172"/>
      <path id="Trazado_3470" data-name="Trazado 3470" d="M627.371-230.181h1.6v8.855h-1.6V-222a3.142,3.142,0,0,1-.941.643,2.63,2.63,0,0,1-1.023.2,2.843,2.843,0,0,1-2.141-.96,3.351,3.351,0,0,1-.9-2.387,3.43,3.43,0,0,1,.874-2.425,2.784,2.784,0,0,1,2.123-.946,2.7,2.7,0,0,1,1.079.217,2.94,2.94,0,0,1,.933.652Zm-1.685,3.782a1.621,1.621,0,0,0-1.235.525,1.9,1.9,0,0,0-.491,1.348,1.914,1.914,0,0,0,.5,1.362,1.621,1.621,0,0,0,1.232.534,1.651,1.651,0,0,0,1.252-.525,1.921,1.921,0,0,0,.5-1.377,1.866,1.866,0,0,0-.5-1.351A1.672,1.672,0,0,0,625.686-226.4Z" transform="translate(-527.58 231.185)" fill="#003172"/>
      <path id="Trazado_3471" data-name="Trazado 3471" d="M646.848-230.673a.981.981,0,0,1,.723.305,1.013,1.013,0,0,1,.3.74,1,1,0,0,1-.3.731.969.969,0,0,1-.715.3.982.982,0,0,1-.729-.308,1.031,1.031,0,0,1-.3-.749.986.986,0,0,1,.3-.722A.979.979,0,0,1,646.848-230.673Zm-.8,2.631h1.6v6.389h-1.6Z" transform="translate(-543.208 231.513)" fill="#003172"/>
      <path id="Trazado_3472" data-name="Trazado 3472" d="M654.579-229.847h1.6v2.355h.951v1.38h-.951v5.009h-1.6v-5.009h-.822v-1.38h.822Z" transform="translate(-548.488 230.963)" fill="#003172"/>
      <path id="Trazado_3473" data-name="Trazado 3473" d="M668.811-223.291a3.387,3.387,0,0,1,1.7.452,3.266,3.266,0,0,1,1.242,1.227,3.3,3.3,0,0,1,.446,1.674,3.357,3.357,0,0,1-.449,1.691,3.244,3.244,0,0,1-1.224,1.23,3.384,3.384,0,0,1-1.709.443,3.188,3.188,0,0,1-2.346-.978,3.244,3.244,0,0,1-.972-2.375,3.233,3.233,0,0,1,1.1-2.5A3.209,3.209,0,0,1,668.811-223.291Zm.026,1.509a1.649,1.649,0,0,0-1.244.52,1.844,1.844,0,0,0-.5,1.33,1.88,1.88,0,0,0,.491,1.351,1.642,1.642,0,0,0,1.244.517,1.661,1.661,0,0,0,1.253-.522,1.865,1.865,0,0,0,.5-1.345,1.854,1.854,0,0,0-.491-1.336A1.661,1.661,0,0,0,668.837-221.782Z" transform="translate(-556.307 226.597)" fill="#003172"/>
      <path id="Trazado_3474" data-name="Trazado 3474" d="M692.38-222.234l-.992.992a1.679,1.679,0,0,0-1.1-.6.693.693,0,0,0-.423.115.344.344,0,0,0-.153.285.35.35,0,0,0,.1.238,1.809,1.809,0,0,0,.479.3l.587.294a3.46,3.46,0,0,1,1.274.934,1.845,1.845,0,0,1,.346,1.116,1.843,1.843,0,0,1-.625,1.421,2.4,2.4,0,0,1-1.676.57,2.665,2.665,0,0,1-2.232-1.092l.986-1.074a2.275,2.275,0,0,0,.661.531,1.458,1.458,0,0,0,.672.2.8.8,0,0,0,.511-.153.443.443,0,0,0,.194-.352q0-.37-.7-.722l-.54-.27q-1.55-.781-1.55-1.955a1.7,1.7,0,0,1,.584-1.295,2.122,2.122,0,0,1,1.495-.538,2.593,2.593,0,0,1,1.171.273A2.591,2.591,0,0,1,692.38-222.234Z" transform="translate(-571.268 226.597)" fill="#003172"/>
    </g>
    <g id="Grupo_1335" data-name="Grupo 1335" transform="translate(231.018 -253.27)">
      <path id="Trazado_3475" data-name="Trazado 3475" d="M498.687-182.548a4.913,4.913,0,0,0,.946-.084,5.689,5.689,0,0,0,.852-.239V-182a3.4,3.4,0,0,1-.849.266,5.706,5.706,0,0,1-1.084.1,4.6,4.6,0,0,1-1.289-.175,2.667,2.667,0,0,1-1.043-.566,2.623,2.623,0,0,1-.69-1.02,4.125,4.125,0,0,1-.249-1.518,4.307,4.307,0,0,1,.242-1.518,3.194,3.194,0,0,1,.645-1.074,2.633,2.633,0,0,1,.927-.647,2.859,2.859,0,0,1,1.095-.215,2.8,2.8,0,0,1,1,.178,2.06,2.06,0,0,1,.809.562,2.745,2.745,0,0,1,.54.99,4.7,4.7,0,0,1,.2,1.454v.138q0,.057-.007.26h-4.417a2.612,2.612,0,0,0,.185,1.04,1.829,1.829,0,0,0,.505.693,2,2,0,0,0,.751.387A3.418,3.418,0,0,0,498.687-182.548Zm-.551-4.929a1.6,1.6,0,0,0-.671.141,1.738,1.738,0,0,0-.542.384,1.934,1.934,0,0,0-.375.569,2.228,2.228,0,0,0-.177.7h3.272a2.426,2.426,0,0,0-.1-.7,1.714,1.714,0,0,0-.29-.569,1.36,1.36,0,0,0-.47-.38A1.445,1.445,0,0,0,498.136-187.476Z" transform="translate(-495.28 191.557)" fill="#0093a3"/>
      <path id="Trazado_3476" data-name="Trazado 3476" d="M517.937-187.315h.02a3.346,3.346,0,0,1,.387-.414,2.521,2.521,0,0,1,.475-.337,2.453,2.453,0,0,1,.576-.225,2.736,2.736,0,0,1,.684-.081,2.721,2.721,0,0,1,.821.121,1.689,1.689,0,0,1,.666.391,1.868,1.868,0,0,1,.448.7,3.022,3.022,0,0,1,.165,1.067v4.282h-1.044v-4.114a1.793,1.793,0,0,0-.32-1.192,1.176,1.176,0,0,0-.933-.363,2.019,2.019,0,0,0-1.044.3,2.782,2.782,0,0,0-.868.825v4.545h-1.044v-6.4h.808Z" transform="translate(-509.696 191.557)" fill="#0093a3"/>
      <path id="Trazado_3477" data-name="Trazado 3477" d="M549.257-182.548a4.913,4.913,0,0,0,.946-.084,5.7,5.7,0,0,0,.852-.239V-182a3.4,3.4,0,0,1-.848.266,5.707,5.707,0,0,1-1.084.1,4.6,4.6,0,0,1-1.289-.175,2.667,2.667,0,0,1-1.043-.566,2.622,2.622,0,0,1-.69-1.02,4.124,4.124,0,0,1-.249-1.518,4.315,4.315,0,0,1,.242-1.518,3.2,3.2,0,0,1,.645-1.074,2.635,2.635,0,0,1,.927-.647,2.859,2.859,0,0,1,1.1-.215,2.8,2.8,0,0,1,1,.178,2.059,2.059,0,0,1,.809.562,2.75,2.75,0,0,1,.541.99,4.713,4.713,0,0,1,.2,1.454v.138q0,.057-.007.26h-4.417a2.612,2.612,0,0,0,.185,1.04,1.822,1.822,0,0,0,.505.693,2,2,0,0,0,.751.387A3.416,3.416,0,0,0,549.257-182.548Zm-.551-4.929a1.6,1.6,0,0,0-.671.141,1.735,1.735,0,0,0-.542.384,1.936,1.936,0,0,0-.375.569,2.229,2.229,0,0,0-.178.7h3.272a2.413,2.413,0,0,0-.1-.7,1.713,1.713,0,0,0-.29-.569,1.36,1.36,0,0,0-.47-.38A1.444,1.444,0,0,0,548.706-187.476Z" transform="translate(-528.957 191.557)" fill="#0093a3"/>
      <path id="Trazado_3478" data-name="Trazado 3478" d="M567.7-188.156v-9.749h1.044v9.749Z" transform="translate(-543.506 197.905)" fill="#0093a3"/>
      <path id="Trazado_3479" data-name="Trazado 3479" d="M590.559-181.807h-1.044v-4.114a2.413,2.413,0,0,0-.091-.711,1.262,1.262,0,0,0-.263-.482,1.031,1.031,0,0,0-.411-.276,1.55,1.55,0,0,0-.535-.087,1.816,1.816,0,0,0-1.017.3,3.025,3.025,0,0,0-.821.825v4.545h-1.044v-6.4h.808l.2.889h.02a3.657,3.657,0,0,1,.38-.414,2.446,2.446,0,0,1,.458-.337,2.3,2.3,0,0,1,.556-.225,2.557,2.557,0,0,1,.66-.081,1.96,1.96,0,0,1,1.185.343,2.213,2.213,0,0,1,.727.936h.027a3.406,3.406,0,0,1,.971-.939,2.364,2.364,0,0,1,1.275-.34,2.952,2.952,0,0,1,.714.094,1.812,1.812,0,0,1,.695.347,1.91,1.91,0,0,1,.526.7,2.7,2.7,0,0,1,.209,1.145v4.282H593.7v-4.114a2.413,2.413,0,0,0-.091-.711,1.257,1.257,0,0,0-.262-.482,1.031,1.031,0,0,0-.411-.276,1.556,1.556,0,0,0-.535-.087,1.833,1.833,0,0,0-1.02.3,3,3,0,0,0-.824.825Z" transform="translate(-555.251 191.557)" fill="#0093a3"/>
      <path id="Trazado_3480" data-name="Trazado 3480" d="M621.941-181.3a3.423,3.423,0,0,1-.9-.108,2.44,2.44,0,0,1-.7-.3,2.034,2.034,0,0,1-.508-.468,2.33,2.33,0,0,1-.33-.6,2.373,2.373,0,0,1-.135-.532,4.639,4.639,0,0,1-.04-.633v-3.925h1.044v3.918a2.425,2.425,0,0,0,.141.889,1.323,1.323,0,0,0,.521.637,1.669,1.669,0,0,0,.919.232,1.611,1.611,0,0,0,.953-.256,1.4,1.4,0,0,0,.515-.686,2.513,2.513,0,0,0,.115-.815v-3.918h1.044v3.932a4.531,4.531,0,0,1-.037.6,2.65,2.65,0,0,1-.118.515,2.319,2.319,0,0,1-.333.609,2.072,2.072,0,0,1-.522.482,2.52,2.52,0,0,1-.717.313A3.5,3.5,0,0,1,621.941-181.3Z" transform="translate(-577.894 191.221)" fill="#0093a3"/>
      <path id="Trazado_3481" data-name="Trazado 3481" d="M641.912-187.315h.02a3.373,3.373,0,0,1,.387-.414,2.514,2.514,0,0,1,.474-.337,2.461,2.461,0,0,1,.576-.225,2.736,2.736,0,0,1,.683-.081,2.723,2.723,0,0,1,.821.121,1.688,1.688,0,0,1,.666.391,1.868,1.868,0,0,1,.448.7,3.022,3.022,0,0,1,.165,1.067v4.282H645.11v-4.114a1.792,1.792,0,0,0-.32-1.192,1.177,1.177,0,0,0-.933-.363,2.019,2.019,0,0,0-1.044.3,2.783,2.783,0,0,0-.869.825v4.545H640.9v-6.4h.808Z" transform="translate(-592.256 191.557)" fill="#0093a3"/>
      <path id="Trazado_3482" data-name="Trazado 3482" d="M661.562-191.273a4.8,4.8,0,0,1,.131-1.182,3.693,3.693,0,0,1,.347-.9,2.484,2.484,0,0,1,.505-.643,2.916,2.916,0,0,1,.6-.421,2.534,2.534,0,0,1,.63-.232,2.774,2.774,0,0,1,.6-.071,2.442,2.442,0,0,1,1.017.2,2.362,2.362,0,0,1,.775.572h.02v-3.952h1.044v9.749h-.788l-.215-.714H666.2a3.2,3.2,0,0,1-.283.313,1.945,1.945,0,0,1-.38.286,2.094,2.094,0,0,1-.505.205,2.558,2.558,0,0,1-.663.077,3.081,3.081,0,0,1-1.03-.178,2.379,2.379,0,0,1-.9-.572,2.907,2.907,0,0,1-.636-1.017A4.2,4.2,0,0,1,661.562-191.273Zm1.09-.013a3.724,3.724,0,0,0,.125,1,2.257,2.257,0,0,0,.36.761,1.6,1.6,0,0,0,.579.481,1.766,1.766,0,0,0,.788.168,1.93,1.93,0,0,0,.6-.088,2.069,2.069,0,0,0,.481-.222,2.092,2.092,0,0,0,.364-.286,2.038,2.038,0,0,0,.239-.279V-193.1a2.555,2.555,0,0,0-.747-.528,2.135,2.135,0,0,0-.916-.2,1.923,1.923,0,0,0-.623.111,1.525,1.525,0,0,0-.606.4,2.215,2.215,0,0,0-.461.777A3.637,3.637,0,0,0,662.652-191.287Z" transform="translate(-606.014 197.905)" fill="#0093a3"/>
      <path id="Trazado_3483" data-name="Trazado 3483" d="M689.745-185a4.157,4.157,0,0,1-.215,1.373,3.1,3.1,0,0,1-.609,1.061,2.7,2.7,0,0,1-.953.683,3.118,3.118,0,0,1-1.252.242,3.2,3.2,0,0,1-1.276-.242,2.694,2.694,0,0,1-.956-.683,3.007,3.007,0,0,1-.6-1.061,4.276,4.276,0,0,1-.209-1.373,4.191,4.191,0,0,1,.215-1.38,3.13,3.13,0,0,1,.61-1.064,2.67,2.67,0,0,1,.956-.686,3.138,3.138,0,0,1,1.256-.243,3.2,3.2,0,0,1,1.272.243,2.636,2.636,0,0,1,.956.686,3.078,3.078,0,0,1,.6,1.064A4.3,4.3,0,0,1,689.745-185Zm-1.091,0a3.519,3.519,0,0,0-.145-1.054,2.337,2.337,0,0,0-.4-.781,1.708,1.708,0,0,0-.616-.485,1.84,1.84,0,0,0-.781-.165,1.839,1.839,0,0,0-.781.165,1.714,1.714,0,0,0-.616.485,2.344,2.344,0,0,0-.4.781,3.52,3.52,0,0,0-.145,1.054,3.488,3.488,0,0,0,.145,1.047,2.257,2.257,0,0,0,.408.778,1.753,1.753,0,0,0,.619.481,1.843,1.843,0,0,0,.781.165,1.816,1.816,0,0,0,.777-.165,1.728,1.728,0,0,0,.613-.481,2.293,2.293,0,0,0,.4-.778A3.488,3.488,0,0,0,688.654-185Z" transform="translate(-620.738 191.557)" fill="#0093a3"/>
    </g>
    <path id="Trazado_3484" data-name="Trazado 3484" d="M221.119-223.684s-10.241,26.332-52.07,26.7c0,0,18.118,4.452,33.615-3.678h0C210.259-204.648,217.223-211.653,221.119-223.684Z" transform="translate(-47.011 -38.198)" fill="url(#linear-gradient)"/>
    <path id="Trazado_3485" data-name="Trazado 3485" d="M98.456-250.025s7.28-33.039,46.912-30.162C145.368-280.187,103.262-289.006,98.456-250.025Z" fill="url(#linear-gradient)"/>
  </g>
</svg>
