<svg xmlns="http://www.w3.org/2000/svg" width="88.965" height="107.668" viewBox="0 0 88.965 107.668"><defs><style>.a{fill:#0093a3;}</style></defs><path class="a" d="M173.855,87.718a1.578,1.578,0,0,0,1.862-1.233,29.287,29.287,0,0,0,.587-5.844,28.964,28.964,0,1,0-3.208,13.29,1.578,1.578,0,1,0-2.8-1.452,25.865,25.865,0,1,1,2.856-11.839,26.106,26.106,0,0,1-.523,5.21,1.582,1.582,0,0,0,1.229,1.867Z" transform="translate(-102.903 -40.775)"/><path class="a" d="M207.355,113.6a1.579,1.579,0,0,0-1.276-1.077l-10.28-1.477-4.577-9.35a1.586,1.586,0,0,0-2.832,0l-4.577,9.35-10.28,1.477a1.594,1.594,0,0,0-.875,2.7l7.451,7.256-1.776,10.263a1.589,1.589,0,0,0,2.291,1.67l9.183-4.866,9.183,4.866a1.589,1.589,0,0,0,2.291-1.67L199.5,122.48l7.451-7.256a1.584,1.584,0,0,0,.4-1.624Zm-10.648,7.192a1.585,1.585,0,0,0-.456,1.406l1.369,7.912-7.079-3.751a1.574,1.574,0,0,0-1.474,0l-7.079,3.751,1.369-7.912a1.585,1.585,0,0,0-.456-1.406l-5.744-5.594,7.925-1.139a1.578,1.578,0,0,0,1.192-.869l3.529-7.208,3.529,7.208a1.578,1.578,0,0,0,1.192.869l7.925,1.139Z" transform="translate(-145.322 -79.62)"/><path class="a" d="M133.21,94.043,117.793,67.259A39.8,39.8,0,0,0,69.68,4.988a1.581,1.581,0,0,0,1.531,2.767A36.743,36.743,0,1,1,65.4,11.771,1.58,1.58,0,0,0,63.368,9.35,39.916,39.916,0,0,0,60.131,67.3l-4.366,7.585A1.579,1.579,0,0,0,58.5,76.464l3.969-6.9a39.654,39.654,0,0,0,16.9,8.989L65.753,102.2,62.271,91.212a1.577,1.577,0,0,0-1.841-1.066L49.2,92.617l5.618-9.759a1.579,1.579,0,1,0-2.732-1.582l-7.4,12.864a1.592,1.592,0,0,0,1.7,2.337L59.7,93.546l4.128,13.032a1.586,1.586,0,0,0,2.869.312L82.622,79.224a39.7,39.7,0,0,0,12.694-.008l9.565,16.616a1.579,1.579,0,1,0,2.732-1.582l-9.04-15.7a39.656,39.656,0,0,0,16.886-9.01L128.69,92.521,117.459,90.05a1.577,1.577,0,0,0-1.841,1.066l-3.482,10.991-.842-1.463a1.579,1.579,0,1,0-2.732,1.582l2.629,4.568a1.586,1.586,0,0,0,2.869-.312l4.128-13.032,13.317,2.93a1.592,1.592,0,0,0,1.7-2.337Z" transform="translate(-44.462 0)"/></svg>