<svg xmlns="http://www.w3.org/2000/svg" width="107.682" height="107.682" viewBox="0 0 107.682 107.682"><defs><style>.a{fill:#0093a3;}</style></defs><g transform="translate(85.388 89.594)"><path class="a" d="M408.1,426a2.1,2.1,0,1,0,2.1,2.1A2.1,2.1,0,0,0,408.1,426Z" transform="translate(-406 -426)"/></g><path class="a" d="M93.8,9.976V6.309A6.317,6.317,0,0,0,87.491,0H20.19a6.317,6.317,0,0,0-6.309,6.309V9.976C.163,35.311,0,34.559,0,35.751V39.96a10.468,10.468,0,0,0,5.468,8.964v56.655a2.1,2.1,0,0,0,2.1,2.1H100.11a2.1,2.1,0,0,0,2.1-2.1V48.924a10.584,10.584,0,0,0,5.468-8.964V35.751C107.681,34.546,107.385,35.064,93.8,9.976Zm8.221,23.675H89.007L82,12.619h8.457ZM72.769,37.857H85.388v2.1a6.309,6.309,0,0,1-12.619,0Zm-.322-4.206L68.943,12.619h8.62l7.01,21.032ZM18.087,6.309a2.106,2.106,0,0,1,2.1-2.1h67.3a2.106,2.106,0,0,1,2.1,2.1v2.1H18.087ZM68.563,37.857v2.1a6.309,6.309,0,0,1-12.619,0v-2.1ZM55.944,33.65V12.619h8.734L68.184,33.65Zm-16.446,0L43,12.619h8.734V33.65Zm12.239,4.206v2.1a6.309,6.309,0,0,1-12.619,0v-2.1ZM23.108,33.65l7.01-21.032h8.62L35.234,33.65Zm11.8,4.206v2.1a6.309,6.309,0,0,1-12.619,0v-2.1ZM17.227,12.619h8.457L18.674,33.65H5.66ZM4.206,39.96v-2.1H18.087v2.1c0,3.3-3.308,6.309-6.94,6.309A7.049,7.049,0,0,1,8.4,45.693,6.541,6.541,0,0,1,4.206,39.96Zm39.119,63.515H22.293V85.388H43.325Zm0-22.293H22.293V63.095H43.325Zm54.682,22.293H47.531V60.992a2.1,2.1,0,0,0-2.1-2.1H20.19a2.1,2.1,0,0,0-2.1,2.1v42.484H9.675v-53.1a10.927,10.927,0,0,0,1.472.1,11.593,11.593,0,0,0,7.676-3.009,11.371,11.371,0,0,0,1.264-1.349,10.5,10.5,0,0,0,16.929.144,10.5,10.5,0,0,0,16.825,0,10.5,10.5,0,0,0,16.825,0,10.5,10.5,0,0,0,16.929-.144,11.386,11.386,0,0,0,1.264,1.349,11.593,11.593,0,0,0,7.676,3.009,10.882,10.882,0,0,0,1.472-.1Zm5.468-63.515a6.546,6.546,0,0,1-4.348,5.8,6.987,6.987,0,0,1-2.592.51c-3.632,0-6.94-3.007-6.94-6.309v-2.1h13.881Z"/><g transform="translate(55.944 58.888)"><path class="a" d="M301.754,302.293h-2.1V282.1a2.1,2.1,0,0,0-2.1-2.1H272.309a2.1,2.1,0,0,0-2.1,2.1v20.19h-2.1a2.1,2.1,0,0,0,0,4.206h33.651a2.1,2.1,0,0,0,0-4.206Zm-6.309,0H274.413V284.206h21.032Z" transform="translate(-266 -280)"/></g><g transform="translate(60.15 89.594)"><path class="a" d="M304.928,426H288.1a2.1,2.1,0,0,0,0,4.206h16.825a2.1,2.1,0,0,0,0-4.206Z" transform="translate(-286 -426)"/></g></svg>