<svg xmlns="http://www.w3.org/2000/svg" width="35.06" height="31.102" viewBox="0 0 35.06 31.102"><defs><style>.a{fill:#909090;}.b{fill:#0093a3;}</style></defs><g transform="translate(0 -28)"><g transform="translate(0 28)"><path class="a" d="M28.839,61.065a.566.566,0,0,0-.565.565V80.285H1.131V53.142H23.75a.565.565,0,1,0,0-1.131H.565A.565.565,0,0,0,0,52.576V80.85a.565.565,0,0,0,.565.565H28.839a.565.565,0,0,0,.565-.565V61.631A.565.565,0,0,0,28.839,61.065Z" transform="translate(0 -50.314)"/><path class="b" d="M79.19,28.171a.566.566,0,0,0-.8-.009L56.2,49.8l-7.524-8.6a.565.565,0,1,0-.848.744l7.917,9.048a.565.565,0,0,0,.4.193h.023a.566.566,0,0,0,.4-.161L79.181,28.972A.566.566,0,0,0,79.19,28.171Z" transform="translate(-44.292 -28)"/></g></g></svg>