<svg xmlns="http://www.w3.org/2000/svg" width="311.155" height="230.704" viewBox="0 0 311.155 230.704">
  <g id="vector4" transform="translate(-25.163 -31.645)">
    <g id="Grupo_1804" data-name="Grupo 1804" transform="translate(25.163 31.645)">
      <rect id="Rectángulo_430" data-name="Rectángulo 430" width="218.859" height="32.136" transform="translate(46.148 152.571)" fill="#110239"/>
      <rect id="Rectángulo_431" data-name="Rectángulo 431" width="260.392" height="174.551" rx="4.28" transform="translate(25.381)" fill="#110239"/>
      <rect id="Rectángulo_432" data-name="Rectángulo 432" width="236.414" height="149.615" transform="translate(37.37 11.564)" fill="#fefefe"/>
      <g id="Grupo_1803" data-name="Grupo 1803" transform="translate(0 184.34)">
        <g id="Grupo_1802" data-name="Grupo 1802">
          <path id="Trazado_3569" data-name="Trazado 3569" d="M25.163,102.168v4.77c0,2.64,2.876,4.779,6.419,4.779H329.9c3.544,0,6.419-2.139,6.419-4.779v-4.77Z" transform="translate(-25.163 -65.352)" fill="#110239"/>
          <path id="Trazado_3570" data-name="Trazado 3570" d="M180.742,90.428H53.029c-.433.458-20.509,18.43-26.643,31.782-2.622,5.707-.906,8.712,3.973,8.712l150.383,0H331.121c4.879,0,6.595-3,3.973-8.708-6.134-13.353-26.21-31.325-26.643-31.782Z" transform="translate(-25.163 -90.428)" fill="#110239"/>
          <path id="Trazado_3571" data-name="Trazado 3571" d="M304.58,120.178H32.456L51.314,92.261H285.721Z" transform="translate(-9.585 -86.514)" fill="#9c9eb9"/>
          <g id="Grupo_1801" data-name="Grupo 1801" transform="translate(26.182 5.748)">
            <g id="Grupo_1800" data-name="Grupo 1800">
              <g id="Grupo_1799" data-name="Grupo 1799">
                <g id="Grupo_1798" data-name="Grupo 1798">
                  <path id="Trazado_3572" data-name="Trazado 3572" d="M299.014,115.279l-.59-.875h-18.16l-3.38-6.77h16.965l-.59-.875H276.448l-3.38-6.77h15.62l-.593-.875H272.631l-3.424-6.852h-1.568l3.368,6.852H251.568l-2.725-6.852h-1.571l2.675,6.852H230.5l-2.029-6.852h-1.568l1.976,6.852h-19.44l-1.333-6.852h-1.571l1.279,6.852h-19.44l-.637-6.852h-1.568l.583,6.852H168.3V92.261h-1.728v6.852H147.449l.583-6.852h-1.568l-.637,6.852h-19.44l1.279-6.852H126.1l-1.336,6.852h-19.44l1.976-6.852h-1.568L103.7,99.113H84.26l2.672-6.852H85.364l-2.725,6.852H63.2l3.368-6.852H65l-3.421,6.852H44.428l-.59.875h17.3l-3.381,6.77H39.266l-.593.875H57.323l-3.384,6.77H34.1l-.59.875H53.507l-2.449,4.9h1.787l2.408-4.9H76.211l-1.947,4.9h1.787l1.91-4.9H98.915l-1.449,4.9h1.787l1.411-4.9h20.957l-.953,4.9h1.787l.913-4.9h20.957l-.455,4.9h1.787l.417-4.9h20.5v4.9H168.3v-4.9h19.828l.417,4.9h1.787l-.455-4.9h20.957l.913,4.9h1.787l-.953-4.9h20.957l1.411,4.9h1.787l-1.449-4.9h20.954l1.913,4.9h1.787l-1.951-4.9h20.957l2.408,4.9h1.787l-2.449-4.9ZM83.922,99.988h19.521l-2,6.77H81.281Zm-21.152,0H82.291l-2.694,6.77H59.44ZM76.559,114.4H55.683l3.33-6.77H79.249Zm22.616,0H78.3l2.64-6.77h20.239Zm22.616,0H100.915l1.954-6.77h20.239Zm1.486-7.645H103.12l1.954-6.77h19.521Zm21.13,7.645H123.531l1.267-6.77h20.236Zm.709-7.645H124.961l1.264-6.77h19.521Zm21.459,7.645H146.151l.574-6.77h19.85Zm0-7.645H146.8l.577-6.77h19.2Zm1.728-6.77H186.83l.577,6.77H168.3Zm0,14.416v-6.77h19.179l.577,6.77ZM271.437,99.988l3.327,6.77H254.609l-2.694-6.77Zm-21.152,0,2.64,6.77H232.768l-2-6.77Zm-61.824,0h19.521l1.264,6.77H189.091ZM189.8,114.4l-.627-6.77h20.239l1.264,6.77Zm19.813-14.416h19.521l1.954,6.77H210.929Zm2.8,14.416-1.317-6.77h20.239l1.954,6.77Zm22.616,0-2-6.77h20.239l2.64,6.77Zm22.616,0-2.694-6.77h20.239l3.33,6.77Z" transform="translate(-33.512 -92.261)" fill="#d0d1de"/>
                </g>
              </g>
            </g>
          </g>
        </g>
        <path id="Trazado_3573" data-name="Trazado 3573" d="M83.775,103.341H70.56a2.736,2.736,0,0,0,.659,1.828,1.447,1.447,0,0,0,1,.37H95.334a1.447,1.447,0,0,0,1-.37,2.736,2.736,0,0,0,.659-1.828Z" transform="translate(71.801 -62.847)" fill="#110239"/>
      </g>
    </g>
    <g id="Grupo_1809" data-name="Grupo 1809" transform="translate(87.496 65.401)">
      <g id="Grupo_1807" data-name="Grupo 1807">
        <g id="Grupo_1806" data-name="Grupo 1806">
          <g id="Grupo_1805" data-name="Grupo 1805">
            <path id="Trazado_3574" data-name="Trazado 3574" d="M231.529,156.211H45.04V42.409H231.529ZM48.521,152.73H228.049V45.89H48.521Z" transform="translate(-45.04 -42.409)" fill="#d0d1de"/>
          </g>
        </g>
        <rect id="Rectángulo_433" data-name="Rectángulo 433" width="17.342" height="74.232" transform="translate(142.023 28.641)" fill="#fd9c15"/>
        <rect id="Rectángulo_434" data-name="Rectángulo 434" width="17.343" height="34.134" transform="translate(109.888 68.739)" fill="#d0d1de"/>
        <rect id="Rectángulo_435" data-name="Rectángulo 435" width="17.343" height="42.394" transform="translate(77.752 60.479)" fill="#61d32e"/>
        <rect id="Rectángulo_436" data-name="Rectángulo 436" width="17.343" height="66.401" transform="translate(45.617 36.472)" fill="#d0d1de"/>
        <rect id="Rectángulo_437" data-name="Rectángulo 437" width="17.343" height="51.827" transform="translate(13.481 51.046)" fill="#d0d1de"/>
      </g>
      <g id="Grupo_1808" data-name="Grupo 1808" transform="translate(21.576 8.778)">
        <path id="Trazado_3575" data-name="Trazado 3575" d="M149.286,91.92l-32.935-6.541L84.609,55.049,53.073,82.909,51.92,81.6,84.656,52.687l32.53,31.084,31.334,6.221,31.81-44.785,1.417,1.006Z" transform="translate(-51.92 -45.208)" fill="#110239"/>
      </g>
      <path id="Trazado_3576" data-name="Trazado 3576" d="M58.689,59.688a3.917,3.917,0,1,1-3.917-3.914A3.916,3.916,0,0,1,58.689,59.688Z" transform="translate(-32.62 -13.863)" fill="#fd425f"/>
      <circle id="Elipse_63" data-name="Elipse 63" cx="3.915" cy="3.915" r="3.915" transform="translate(50.155 13.523)" fill="#fd425f"/>
      <path id="Trazado_3577" data-name="Trazado 3577" d="M79.181,60.419A3.915,3.915,0,1,1,75.265,56.5,3.915,3.915,0,0,1,79.181,60.419Z" transform="translate(11.158 -12.308)" fill="#fd425f"/>
      <path id="Trazado_3578" data-name="Trazado 3578" d="M89.431,62.185a3.917,3.917,0,1,1-3.917-3.914A3.916,3.916,0,0,1,89.431,62.185Z" transform="translate(33.045 -8.529)" fill="#fd425f"/>
      <path id="Trazado_3579" data-name="Trazado 3579" d="M99.676,48.277a3.915,3.915,0,1,1-3.914-3.914A3.915,3.915,0,0,1,99.676,48.277Z" transform="translate(54.933 -38.235)" fill="#fd425f"/>
    </g>
    <g id="Grupo_1810" data-name="Grupo 1810" transform="translate(58.337 58.794)">
      <path id="Trazado_3580" data-name="Trazado 3580" d="M62.248,58.307A7.219,7.219,0,0,0,65.6,56.57a4.275,4.275,0,0,1,1.342-1.141A9.347,9.347,0,0,0,68.6,54.262a3.62,3.62,0,0,1,1.75-.978c.834-.078.392.9,0,1.505-.423.662-2.709,1.568-2.606,2.393s2.813-.448,3.349-.712c1.264-.618,1.348-1.671,2.1-2.7.439-.6.822-.743,1.091.072.2.611-.22,1.236-.524,1.737a7.609,7.609,0,0,1-2.606,2.65,8.926,8.926,0,0,0,2.684-2.217c.423-.511,1.85-3.007,2.713-2.412,1.731,1.2-3.029,5.6-4.164,5.946a10.435,10.435,0,0,0,2.844-2.06c.517-.461,1.7-1.612,1.894-.379.295,1.816-3.249,3.136-4.729,4.011a12.185,12.185,0,0,0,3.054-1.355c1.323-.665,1.352.539.116,1.458a17.076,17.076,0,0,1-1.941,1.1c-2.7,1.3-4.365,1.326-7.235,1.019-1.029-.113-3.032.771-3.638.11C61.583,62.177,62.2,59.778,62.248,58.307Z" transform="translate(20.44 -12.596)" fill="#f88667"/>
      <path id="Trazado_3581" data-name="Trazado 3581" d="M96.4,61.986l2.1,6.955s-24.6,6.35-30.588,7.282S48.783,62.117,48.783,62.117,44.3,51.236,47.651,51.377c2.584.113,21.421,14.491,22.466,15.049S96.4,61.986,96.4,61.986Z" transform="translate(-12.961 -16.65)" fill="#fd9c15"/>
      <path id="Trazado_3582" data-name="Trazado 3582" d="M46.143,96.282s-.176,4.707.621,6.918,6.476,5.591,6.476,5.591-5.14.994-7.112-.53-6.654-9.5-6.35-10.546S41.5,93.472,41.5,93.472Z" transform="translate(-27.154 73.264)" fill="#f88667"/>
      <path id="Trazado_3583" data-name="Trazado 3583" d="M55.909,95.362s-.179,4.707.618,6.918S63,107.871,63,107.871s-5.14,1-7.112-.53-6.654-9.5-6.35-10.543,1.725-4.246,1.725-4.246Z" transform="translate(-6.301 71.299)" fill="#f88667"/>
      <path id="Trazado_3584" data-name="Trazado 3584" d="M42.461,94.368s-4.312,1.436-3.233,5.209a32.831,32.831,0,0,1,.9,8.624h1.257s.267-5.391,1.076-5.209,2.606,5.209,4.4,5.209H57.015s1.079-1.079,0-1.706-7.959-.361-8.74-1.888S42.461,94.368,42.461,94.368Z" transform="translate(-28.666 75.178)" fill="#110239"/>
      <path id="Trazado_3585" data-name="Trazado 3585" d="M52.3,93.41s-4.312,1.436-3.233,5.209a32.763,32.763,0,0,1,.9,8.624h1.257s.27-5.391,1.079-5.209,2.606,5.209,4.4,5.209H66.856s1.076-1.079,0-1.706-7.959-.361-8.74-1.888S52.3,93.41,52.3,93.41Z" transform="translate(-7.646 73.131)" fill="#110239"/>
      <path id="Trazado_3586" data-name="Trazado 3586" d="M69.861,63.509s-12.08,4.246-20.832,0c0,0-5.3,4.45-6.143,13.535a49.7,49.7,0,0,0,.357,10.214c.608,5.055,2.079,18.3,1.16,26.477-1.345,11.967-5.064,46.684-5.064,46.684l8.329,1.3s7.648-41.908,8.552-47.083,3.82-26.185,3.82-26.185,5.181,16.247,6.516,24.115c.207,1.207,3.9,45.706,3.9,45.706l8.072-.047s-.452-49.428-.452-46.829C78.077,112.451,75.891,78.057,69.861,63.509Z" transform="translate(-28.059 9.266)" fill="#505050"/>
      <path id="Trazado_3587" data-name="Trazado 3587" d="M52.26,82.523c-1.809-5.5-2.923-8.257-6.645-13.187.379,2.255.724,4.5.988,6.78L46.634,76s4.434,13.908,6.156,22.218C52.6,89.252,53.593,86.568,52.26,82.523Z" transform="translate(-14.654 21.712)"/>
      <path id="Trazado_3588" data-name="Trazado 3588" d="M53.743,54.757c-.837-.172-4.839-8.617-6.554-10.261-.818,5.767-4.306,19.446-4.306,19.446,4.23,4.538,12.666,1.756,12.666,1.756A28.647,28.647,0,0,1,53.743,54.757Z" transform="translate(-20.489 -31.344)" fill="#e45940"/>
      <path id="Trazado_3589" data-name="Trazado 3589" d="M49.45,41.451s8.21,1.847,9.781,4.243,1.568,8.624,2.44,10.27c.527,1,1,1.8,1.261,2.386.229.511-.351.812-1.066,1.066a1.24,1.24,0,0,0-.768.793c-.486,1.508-1.841,5.353-3.2,5.886-1.693.668-10.057.411-12.572-6.874S44.188,39.889,49.45,41.451Z" transform="translate(-17.874 -38.143)" fill="#f88667"/>
      <path id="Trazado_3590" data-name="Trazado 3590" d="M50.051,49.787a103.6,103.6,0,0,0,11.274,4.277S67.953,67.154,68.4,70.8s3.86,28.549,3.86,28.549-13.124,8.342-32.146,1.728c0,0,4.566-19.612,3.522-27.355S43.5,55.526,50.051,49.787Z" transform="translate(-26.399 -20.043)" fill="#fd9c15"/>
      <path id="Trazado_3591" data-name="Trazado 3591" d="M47.746,93.281c-.216-8.329,1.687-15.9,1.856-24.237.138-6.73-2.637-10.568-6.021-14.7a39.233,39.233,0,0,0,.056,9.643c1.044,7.739-3.522,27.355-3.522,27.355A45.812,45.812,0,0,0,47.746,93.281Z" transform="translate(-26.399 -10.306)" fill="#6f4203"/>
      <path id="Trazado_3592" data-name="Trazado 3592" d="M45.781,93.095C50.4,89.25,48.516,85.4,53.17,81.746c.336-.267.677-.524,1.013-.784.241-2.01-4.6-.972-3.264-2.995,1.869-2.835,9.712-7.125,9.543-9.884a4.915,4.915,0,0,1,.191-2.593c.4-2.132,1.3-2.54-.37-4.1-1.17-1.094-2.154-2.274-1.226-3.923.759-1.345,1.976-1.74,3.023-.477.276.329,1.659,3.108,2.013,1.546.1-.439-.486-1.286-.539-1.772a1.943,1.943,0,0,1,.555-1.769c.828-.875,2.051-1.345,2.9-2.23,1.069-1.107,1.207-2.565,2.753-3.177a3.988,3.988,0,0,1,2.471-.1c.364.1,1.925,1.148,2.176,1.047,2.653-1.038,1.464-5.152-.351-6.419a19.972,19.972,0,0,0-11.286-3.8c-4.807.1-9.2,3.816-11.992,7.42-2.026,2.615-1.888,5.384-3.346,8.2-1.33,2.559-4.2,3.838-5.927,6.143-1.618,2.167-1.631,4.989-1,7.539.5,1.991,1.051,3.8.724,5.845-.408,2.543-2.446,4.415-3.139,6.871a10.882,10.882,0,0,0-.119,6.977C39.2,93.86,41.912,95.1,45.781,93.095Z" transform="translate(-32.064 -40.302)" fill="#110239"/>
      <path id="Trazado_3593" data-name="Trazado 3593" d="M42.287,71a6.954,6.954,0,0,0,.887,3.49,4.128,4.128,0,0,1,.771,1.5,8.879,8.879,0,0,0,.718,1.8,3.469,3.469,0,0,1,.53,1.838c-.11.8-.922.172-1.4-.323-.524-.536-.866-2.857-1.656-2.941s-.194,2.713-.066,3.268c.3,1.311,1.257,1.618,2.051,2.54.464.539.511.925-.3,1-.612.053-1.1-.47-1.5-.862a7.272,7.272,0,0,1-1.894-3A8.5,8.5,0,0,0,41.9,82.275c.383.5,2.39,2.374,1.649,3.045-1.493,1.352-4.55-4.036-4.619-5.165a9.976,9.976,0,0,0,1.3,3.092c.317.583,1.129,1.925-.06,1.844-1.753-.122-2.208-3.7-2.7-5.268a11.582,11.582,0,0,0,.593,3.133c.329,1.377-.8,1.138-1.38-.21a15.776,15.776,0,0,1-.6-2.041,10.782,10.782,0,0,1,.627-6.946c.329-.934-.053-2.989.69-3.409C38.838,69.537,40.933,70.635,42.287,71Z" transform="translate(-35.701 23.251)" fill="#f88667"/>
      <path id="Trazado_3594" data-name="Trazado 3594" d="M43.316,110.982l-7.573.4S35.651,89.006,37.662,81.4,54.012,53.328,57.283,51.773c3.929-1.869,15.6,3.117,7.05,9.765s-16.664,22.469-17,23.112S43.316,110.982,43.316,110.982Z" transform="translate(-35.742 -16.648)" fill="#fd9c15"/>
    </g>
  </g>
</svg>
