<svg xmlns="http://www.w3.org/2000/svg" width="269" height="230.692" viewBox="0 0 269 230.692">
  <g id="vector1" transform="translate(-303.988 -247.467)">
    <g id="Grupo_1760" data-name="Grupo 1760" transform="translate(334.478 283.359)">
      <path id="Trazado_3486" data-name="Trazado 3486" d="M388.684,358.734H347.052l3.422-50.187h34.788Z" transform="translate(-254.217 -169.52)" fill="#110239"/>
      <path id="Trazado_3487" data-name="Trazado 3487" d="M402.088,324.053a2.721,2.721,0,0,0-2.26-1.208H351.8a2.721,2.721,0,0,0-2.259,1.208l-6.292,9.385a2.722,2.722,0,0,0,2.262,4.235h60.6a2.721,2.721,0,0,0,2.26-4.235Z" transform="translate(-262.165 -142.874)" fill="#110239"/>
      <rect id="Rectángulo_364" data-name="Rectángulo 364" width="227.302" height="152.37" rx="4.091" fill="#110239"/>
      <rect id="Rectángulo_365" data-name="Rectángulo 365" width="206.372" height="130.602" transform="translate(10.465 10.095)" fill="#fefefe"/>
      <rect id="Rectángulo_366" data-name="Rectángulo 366" width="196.06" height="116.379" transform="translate(15.621 24.318)" fill="#e5e6ed"/>
      <rect id="Rectángulo_367" data-name="Rectángulo 367" width="196.06" height="9.628" transform="translate(15.621 24.318)" fill="#b3eef6"/>
      <rect id="Rectángulo_368" data-name="Rectángulo 368" width="60.888" height="8.037" transform="translate(141.276 65.348)" fill="#fefefe"/>
      <rect id="Rectángulo_369" data-name="Rectángulo 369" width="60.888" height="8.038" transform="translate(141.276 79.557)" fill="#fefefe"/>
      <rect id="Rectángulo_370" data-name="Rectángulo 370" width="60.888" height="8.037" transform="translate(141.276 93.766)" fill="#fefefe"/>
      <rect id="Rectángulo_371" data-name="Rectángulo 371" width="60.889" height="8.037" transform="translate(33.703 43.607)" fill="#fefefe"/>
      <rect id="Rectángulo_372" data-name="Rectángulo 372" width="60.889" height="8.037" transform="translate(33.703 57.817)" fill="#fefefe"/>
    </g>
    <g id="Grupo_1763" data-name="Grupo 1763" transform="translate(303.988 247.467)">
      <g id="Grupo_1761" data-name="Grupo 1761" transform="translate(0 96.193)">
        <path id="Trazado_3488" data-name="Trazado 3488" d="M426.233,281.057H311.279a7.289,7.289,0,0,0-7.291,7.288v37.068a7.291,7.291,0,0,0,7.291,7.288H383.3l27.429,23.325L397.7,332.7h28.531a7.29,7.29,0,0,0,7.288-7.288V288.345A7.289,7.289,0,0,0,426.233,281.057Z" transform="translate(-303.988 -281.057)" fill="#fd9c15"/>
        <rect id="Rectángulo_373" data-name="Rectángulo 373" width="77.469" height="4.46" transform="translate(43.317 9.995)" fill="#fff"/>
        <rect id="Rectángulo_374" data-name="Rectángulo 374" width="77.469" height="4.46" transform="translate(43.317 19.095)" fill="#fff"/>
        <rect id="Rectángulo_375" data-name="Rectángulo 375" width="77.469" height="4.46" transform="translate(43.317 28.195)" fill="#fff"/>
        <rect id="Rectángulo_376" data-name="Rectángulo 376" width="51.417" height="4.46" transform="translate(43.317 37.295)" fill="#fff"/>
        <path id="Trazado_3489" data-name="Trazado 3489" d="M336.424,299.523a14.944,14.944,0,1,1-14.946-14.946A14.945,14.945,0,0,1,336.424,299.523Z" transform="translate(-299.241 -274.497)" fill="#110239"/>
        <ellipse id="Elipse_62" data-name="Elipse 62" cx="4.218" cy="4.35" rx="4.218" ry="4.35" transform="translate(18.02 16.232)" fill="#fff"/>
        <path id="Trazado_3490" data-name="Trazado 3490" d="M316.752,289.992H316.6a7.487,7.487,0,0,0-7.489,7.486v4.774a14.527,14.527,0,0,0,15.129,0v-4.774A7.487,7.487,0,0,0,316.752,289.992Z" transform="translate(-294.438 -264.404)" fill="#fff"/>
      </g>
      <g id="Grupo_1762" data-name="Grupo 1762" transform="translate(139.47)">
        <path id="Trazado_3491" data-name="Trazado 3491" d="M474.932,247.467H359.978a7.287,7.287,0,0,0-7.288,7.288v37.068a7.287,7.287,0,0,0,7.288,7.288h33.282l-8.918,23.325,23.322-23.325h67.267a7.288,7.288,0,0,0,7.288-7.288V254.755A7.288,7.288,0,0,0,474.932,247.467Z" transform="translate(-352.69 -247.467)" fill="#d0d1de"/>
        <rect id="Rectángulo_377" data-name="Rectángulo 377" width="77.469" height="4.461" transform="translate(43.315 9.996)" fill="#fff"/>
        <rect id="Rectángulo_378" data-name="Rectángulo 378" width="77.469" height="4.46" transform="translate(43.315 19.096)" fill="#fff"/>
        <rect id="Rectángulo_379" data-name="Rectángulo 379" width="77.469" height="4.46" transform="translate(43.315 28.196)" fill="#fff"/>
        <rect id="Rectángulo_380" data-name="Rectángulo 380" width="51.417" height="4.46" transform="translate(43.315 37.296)" fill="#fff"/>
        <path id="Trazado_3492" data-name="Trazado 3492" d="M385.125,265.933a14.944,14.944,0,1,1-14.943-14.946A14.945,14.945,0,0,1,385.125,265.933Z" transform="translate(-347.945 -240.907)" fill="#110239"/>
        <path id="Trazado_3493" data-name="Trazado 3493" d="M367.416,257.485a4.219,4.219,0,1,1-4.215-4.35A4.284,4.284,0,0,1,367.416,257.485Z" transform="translate(-340.963 -236.903)" fill="#fff"/>
        <path id="Trazado_3494" data-name="Trazado 3494" d="M365.453,256.4H365.3a7.49,7.49,0,0,0-7.489,7.489v4.774a14.544,14.544,0,0,0,15.129,0v-4.774A7.49,7.49,0,0,0,365.453,256.4Z" transform="translate(-343.142 -230.814)" fill="#fff"/>
      </g>
    </g>
    <g id="Grupo_1765" data-name="Grupo 1765" transform="translate(481.156 398.223)">
      <rect id="Rectángulo_381" data-name="Rectángulo 381" width="59.024" height="18.733" rx="2.345" fill="#fd9c15"/>
      <g id="Grupo_1764" data-name="Grupo 1764" transform="translate(15.883 4.751)">
        <path id="Trazado_3495" data-name="Trazado 3495" d="M379.121,304.074a2.024,2.024,0,0,1-1.578,1.979,2.252,2.252,0,0,1,1.876,2.3c0,1.564-1.366,2.54-3.514,2.54h-4.5v-9.127h4.333C377.806,301.769,379.121,302.668,379.121,304.074Zm-2.448.415c0-.547-.4-.87-1.068-.859h-1.821V305.4H375.6C376.268,305.4,376.672,305.062,376.672,304.49Zm.286,3.568c0-.573-.521-.936-1.354-.925h-1.821v1.913H375.6C376.437,309.046,376.958,308.682,376.958,308.058Z" transform="translate(-371.4 -301.769)" fill="#fff"/>
        <path id="Trazado_3496" data-name="Trazado 3496" d="M378.842,308.968a1.728,1.728,0,0,0,1.784-1.9v-5.3h2.383v5.3c0,2.406-1.615,3.929-4.181,3.929s-4.23-1.524-4.23-3.929v-5.3h2.383v5.3A1.779,1.779,0,0,0,378.842,308.968Z" transform="translate(-365.44 -301.769)" fill="#fff"/>
        <path id="Trazado_3497" data-name="Trazado 3497" d="M383.5,307.98V310.9h-2.383v-2.849l-3.359-6.277h2.383l2.162,3.92,2.111-3.92h2.38Z" transform="translate(-359.541 -301.769)" fill="#fff"/>
      </g>
    </g>
    <g id="Grupo_1767" data-name="Grupo 1767" transform="translate(356.251 283.231)">
      <path id="Trazado_3498" data-name="Trazado 3498" d="M366.522,279.547a33.785,33.785,0,0,1-9.221.407,13.6,13.6,0,0,1-3.239-.7c.149,3.84.178,12.841-2.554,16.57,0,0,.982,4.424,8.975,4.556s8.892-5.9,8.892-5.9S366.685,285.211,366.522,279.547Z" transform="translate(-267.688 -223.997)" fill="#f88667"/>
      <path id="Trazado_3499" data-name="Trazado 3499" d="M351.55,295.959a2.713,2.713,0,0,0,.12.312l.02.04a4.551,4.551,0,0,0,.249.467l.011.023a6.024,6.024,0,0,0,.407.567l.069.08a6.462,6.462,0,0,0,1.449,1.257l.1.072a8.632,8.632,0,0,0,1.082.567c.052.023.109.043.16.066a10.551,10.551,0,0,0,1.4.478,11.247,11.247,0,0,1,2.354-5.673,14.108,14.108,0,0,1,9-5.223,54.192,54.192,0,0,1-1.455-9.445,33.785,33.785,0,0,1-9.221.407,13.6,13.6,0,0,1-3.239-.7c.149,3.84.178,12.841-2.554,16.57l.026.094Z" transform="translate(-267.688 -223.997)" fill="#e45940"/>
      <path id="Trazado_3500" data-name="Trazado 3500" d="M355.123,273.092s13.1-3.866,15.181-.7,1.707,8.293,2.577,10.55,4.118,4.636,4.465,5.538-2.176,2.629-2.529,3.333-1.67,8.116-3.943,9.751-14.465-2.706-17.486-8.462S351.612,274.987,355.123,273.092Z" transform="translate(-267.36 -239.097)" fill="#f88667"/>
      <path id="Trazado_3501" data-name="Trazado 3501" d="M365.678,276.379a12.99,12.99,0,0,1-1.38,6.764c-.782,1.566,3.127,5.73,2.039,7.623-.724,1.26-1.784.942-2.746-1.549a3.794,3.794,0,0,0-2.116-1.807c-3.2-1.386-3.952,3.5-1.077,4.949,2.01,1.014.813,6.108.813,6.108-2.159,1.661-9.3-.344-8.517-5.556.5-3.319.719-4.582-.444-5.39-2.1-1.463-4.843-5.527-1.38-8.969,4.774-4.745.421-6.254,5.939-7.623S366.887,272.928,365.678,276.379Z" transform="translate(-271.95 -240.085)" fill="#110239"/>
      <path id="Trazado_3502" data-name="Trazado 3502" d="M351.556,275.927c.309-1.2,2.489-2.755,3.565-3.557a15.877,15.877,0,0,1,5.647-2.549,14.551,14.551,0,0,1,6.294-.212c1.79.341,3.29,1.137,5.123,1.343,1.693.195,3.376.117,4.565-.885a11.686,11.686,0,0,1,.226,4.144,12.94,12.94,0,0,1-2.354,4.553c-2.657,3.963-9.883,6.16-14.977,4.064-2.463-1.011-4.671-1.887-5.879-4.026A12.923,12.923,0,0,0,351.556,275.927Z" transform="translate(-267.596 -242.425)" fill="#110239"/>
      <path id="Trazado_3503" data-name="Trazado 3503" d="M385.4,274.636l12.661,28.1s-3.706,4.167-4.943,3.242-20.221-23.723-22.074-24.906S385.4,274.636,385.4,274.636Z" transform="translate(-231.55 -232.595)" fill="#110239"/>
      <path id="Trazado_3504" data-name="Trazado 3504" d="M365,299.336s.052,8.079,4.992,9.931c0,0,25.318-10.493,30.413-11.5s23.62-1.163,23.62-1.163l-18.68-33.346s-8.955,17.907-17.137,23.775S365,299.336,365,299.336Z" transform="translate(-242.54 -253.795)" fill="#61d32e"/>
      <path id="Trazado_3505" data-name="Trazado 3505" d="M374,286.716c2-.8,4.092-1.621,6.151-2.414a25.745,25.745,0,0,1-5.329-11.426c-1.919,1.1-3.909,2.162-5.836,3.147A23.246,23.246,0,0,0,374,286.716Z" transform="translate(-235.117 -235.875)" fill="#110239"/>
      <path id="Trazado_3506" data-name="Trazado 3506" d="M407.816,278c5.275,12.718,3.411,25.576-4.161,28.715s-17.987-4.628-23.259-17.346-3.411-25.576,4.161-28.715S402.543,265.278,407.816,278Z" transform="translate(-219.438 -259.955)" fill="#01c7e2"/>
      <path id="Trazado_3507" data-name="Trazado 3507" d="M404.5,276.394c4.485,10.819,2.9,21.756-3.542,24.425s-15.3-3.935-19.786-14.754-2.9-21.756,3.54-24.428S400.017,265.572,404.5,276.394Z" transform="translate(-217.146 -257.927)" fill="#110239"/>
      <path id="Trazado_3508" data-name="Trazado 3508" d="M377.63,285.972c-.6-.367-.432-2.629-.309-3.216.192-.922.828-2.122.189-3-1.128-1.558-2.718,2.632-2.924,3.239a4.393,4.393,0,0,0-.289,2.792,10.947,10.947,0,0,0,2.423,3.657c-.118.418-.246.851-.407,1.312a27.5,27.5,0,0,1,3.053,1.546c1.223.7,1.157,1.575,2.3,2.36l1.143-2.623C382.329,291.439,378.635,286.579,377.63,285.972Z" transform="translate(-225.444 -223.698)" fill="#f88667"/>
      <path id="Trazado_3509" data-name="Trazado 3509" d="M382.93,278.949c-1.094-1.18-2.8-.727-4.121.241-.968.7-3.751,2.955-3,4.588.624,1.36,4.207-1.647,4.207-1.647-1.32,1.137-3.78,2.045-3.162,3.182.69,1.266,3.817-.538,4.5-1.042-.7.18-4.2,2.3-2.8,3.408.959.756,3.525-.833,4.3-1.375-1.031.312-2.434,1.229-2.162,2.658.447.779,2,.263,2.872-.092,1.312-.53,2.543-.736,2.649-2.363a6.867,6.867,0,0,0,.043-.882,8.857,8.857,0,0,0-1.151-3.54A15.379,15.379,0,0,0,382.93,278.949Z" transform="translate(-222.634 -225.871)" fill="#f88667"/>
      <path id="Trazado_3510" data-name="Trazado 3510" d="M349.258,298.484a14.373,14.373,0,0,1-1.463-3.113c-.326-.934-.556-1.887-.879-2.818a7.4,7.4,0,0,1-.63-2.761,7.943,7.943,0,0,1,.341-1.687c.186-.716.45-1.412.6-2.136.132-.647.074-1.274.2-1.919a11.439,11.439,0,0,1,1.114-3.54,13.3,13.3,0,0,1,1.627-2.239,8.338,8.338,0,0,1,.962-1.025,2.542,2.542,0,0,0,.882-1.085,1.039,1.039,0,0,0-.756-1.4,3.883,3.883,0,0,0-3.588,1.177c-.954,1.312-1.4,2.918-2.466,4.184-3.247,3.869-6.294-.687-10.083-2.323a22.686,22.686,0,0,1-3.663-2.363c-.676-.51-3.585-3.273-4.96-2.552-1.011.53.968,2.852,1.927,3.419.378.223,3.623,2.861,4.047,2.987-.957-.163-3.445-1.807-5.444-3.371-1.438-1.125-2.829-2.234-3.614-1.592-2.411,1.976,7.051,6.5,7.789,6.913-.788.066-8.2-5.178-8.895-3.25-.387,1.06,1.151,2.111,2.408,2.8,1.575.856,4.221,1.469,4.817,1.93-1.117.381-6.02-2.955-6.023-.919,0,1.332,3.044,2.328,4.19,2.678,1.183.361,4.651,2.721,5.75,3.242,3.66,1.744,5.172,1.544,6.615,3.734.919,1.4,2.557,8.78,3.886,11.59Z" transform="translate(-322.238 -236.081)" fill="#f88667"/>
      <path id="Trazado_3511" data-name="Trazado 3511" d="M401.487,283.02c-3.265,9.5-10.246,26.318-12.549,25.138-4.324-2.217-13.629-9.823-20.579-14.476a48.81,48.81,0,0,0-8.082-4.656l4.837,22.941s22.936,17.42,27.741,14.751c3.78-2.1,13.082-28.586,16.364-39.563C409.219,287.155,401.542,283.063,401.487,283.02Z" transform="translate(-251.34 -216.969)" fill="#286dc9"/>
      <path id="Trazado_3512" data-name="Trazado 3512" d="M376.575,304.262c-2.583-3.356-12.449-13.019-15.118-15.078l.77,10.882s23.119,17.38,28.236,15.209C386.059,312.443,379.716,308.337,376.575,304.262Z" transform="translate(-249.143 -205.481)" fill="#003172"/>
      <path id="Trazado_3513" data-name="Trazado 3513" d="M381.257,298.1s-28.208,11.386-31.278,10.584-13.3-29.883-13.3-29.883l-8.542,3.471s9.124,41.948,15,43.907,40.88-8.15,40.88-8.15A59.319,59.319,0,0,0,381.257,298.1Z" transform="translate(-311.238 -224.83)" fill="#286dc9"/>
      <path id="Trazado_3514" data-name="Trazado 3514" d="M343.2,304.974c-2.486.893-5.014,1.77-7.555,2.517,11.965-1.581,34.382-8.053,34.382-8.053a61.224,61.224,0,0,0-.613-10.662C362.471,296.3,352.594,301.6,343.2,304.974Z" transform="translate(-297.248 -206.239)" fill="#003172"/>
      <path id="Trazado_3515" data-name="Trazado 3515" d="M390.535,272.649c-1.292-3.978-5.172-6.286-8.671-5.152a6.031,6.031,0,0,0-2.915,2.113,34.85,34.85,0,0,0,1.627,4.966,33.583,33.583,0,0,0,4.353,7.592,5.872,5.872,0,0,0,1.607-.261C390.034,280.773,391.823,276.627,390.535,272.649Z" transform="translate(-216.544 -246.438)" fill="#d0d1de"/>
      <g id="Grupo_1766" data-name="Grupo 1766" transform="translate(67.708 69.384)">
        <path id="Trazado_3516" data-name="Trazado 3516" d="M348.238,322.381c-.994,9.791-1.77,30.367-2.357,33.245h46.284c.816-15.373.544-37.635-.218-45.829-1.326-14.273-4.837-22.941-4.837-22.941s-3.457-1.094-7.555-2.672c0,0-8.52,5.206-16.452.072,0,0-14.319,3.391-16.048,4.218C345.617,289.158,349.3,311.928,348.238,322.381Z" transform="translate(-345.881 -284.184)" fill="#286dc9"/>
        <path id="Trazado_3517" data-name="Trazado 3517" d="M360.48,325.255a36.56,36.56,0,0,0-2.649-13.351,12.193,12.193,0,0,1-.851-3,19.9,19.9,0,0,0-1.959-6.836c-1.034-1.564-2.082-3.119-3.1-4.691-.57-.767-1.166-1.584-1.824-2.546a44.03,44.03,0,0,1-2.827-5c.541,7.188,1.5,16.787.971,22.019-.994,9.791-1.77,30.367-2.357,33.245h21.541c-2.769-3.563-4.43-7.9-6.057-13.188A23.611,23.611,0,0,1,360.48,325.255Z" transform="translate(-345.881 -273.656)" fill="#003172"/>
      </g>
    </g>
  </g>
</svg>
