<svg xmlns="http://www.w3.org/2000/svg" width="262.363" height="230.496" viewBox="0 0 262.363 230.496">
  <g id="vector3" transform="translate(-418.051 -136.843)">
    <g id="Grupo_1795" data-name="Grupo 1795" transform="translate(418.051 136.843)">
      <g id="Grupo_1780" data-name="Grupo 1780" transform="translate(0 35.967)">
        <rect id="Rectángulo_401" data-name="Rectángulo 401" width="184.541" height="27.097" transform="translate(38.911 128.647)" fill="#110239"/>
        <rect id="Rectángulo_402" data-name="Rectángulo 402" width="219.561" height="147.181" rx="3.995" transform="translate(21.401)" fill="#110239"/>
        <rect id="Rectángulo_403" data-name="Rectángulo 403" width="199.343" height="126.155" transform="translate(31.51 9.751)" fill="#fefefe"/>
        <g id="Grupo_1779" data-name="Grupo 1779" transform="translate(0 155.434)">
          <g id="Grupo_1778" data-name="Grupo 1778">
            <path id="Trazado_3538" data-name="Trazado 3538" d="M418.051,215.361v4.026c0,2.224,2.422,4.028,5.414,4.028H675c2.989,0,5.411-1.8,5.411-4.028v-4.026Z" transform="translate(-418.051 -184.32)" fill="#110239"/>
            <path id="Trazado_3539" data-name="Trazado 3539" d="M549.233,204.4H441.548c-.366.388-17.293,15.542-22.466,26.8-2.21,4.813-.765,7.346,3.352,7.346h253.6c4.114,0,5.558-2.533,3.349-7.346-5.17-11.256-22.1-26.409-22.466-26.8Z" transform="translate(-418.051 -204.404)" fill="#110239"/>
            <path id="Trazado_3540" data-name="Trazado 3540" d="M654.311,229.654H424.858l15.9-23.54H638.41Z" transform="translate(-405.573 -201.268)" fill="#9c9eb9"/>
            <g id="Grupo_1777" data-name="Grupo 1777" transform="translate(22.075 4.847)">
              <g id="Grupo_1776" data-name="Grupo 1776">
                <g id="Grupo_1775" data-name="Grupo 1775">
                  <g id="Grupo_1774" data-name="Grupo 1774">
                    <path id="Trazado_3541" data-name="Trazado 3541" d="M649.713,225.524l-.5-.737H633.905l-2.85-5.711h14.3l-.5-.737H630.687l-2.853-5.711H641l-.5-.734h-13.04l-2.887-5.779h-1.323l2.842,5.779H609.708l-2.3-5.779h-1.323l2.255,5.779H591.948l-1.711-5.779h-1.323l1.666,5.779H574.188l-1.125-5.779H571.74l1.079,5.779H556.428l-.538-5.779h-1.323l.493,5.779H539.5v-5.779h-1.456v5.779H521.916l.493-5.779h-1.323l-.538,5.779H504.156l1.079-5.779h-1.323l-1.125,5.779H486.4l1.666-5.779h-1.323l-1.711,5.779H468.636l2.252-5.779h-1.323l-2.3,5.779H450.876l2.842-5.779h-1.323l-2.887,5.779H435.05l-.5.734h14.587l-2.85,5.711H430.7l-.5.737h15.723l-2.85,5.711H426.342l-.5.737H442.7l-2.062,4.131h1.507l2.031-4.131h17.67l-1.643,4.131h1.507l1.609-4.131h17.67l-1.221,4.131h1.507l1.19-4.131h17.67l-.8,4.131h1.507l.771-4.131h17.669l-.382,4.131h1.507l.351-4.131h17.284v4.131H539.5v-4.131h16.721l.351,4.131h1.507l-.383-4.131h17.67l.771,4.131h1.507l-.8-4.131h17.67l1.19,4.131h1.507l-1.224-4.131h17.67l1.612,4.131h1.507l-1.643-4.131H632.8l2.031,4.131h1.507l-2.062-4.131Zm-181.364-12.9h16.46l-1.691,5.711h-17Zm-17.837,0h16.463l-2.272,5.711h-17Zm11.627,12.159h-17.6l2.808-5.711h17.066Zm19.072,0h-17.6l2.227-5.711H482.9Zm19.069,0h-17.6l1.646-5.711h17.066Zm1.255-6.448h-17l1.646-5.711h16.463Zm17.814,6.448h-17.6l1.068-5.711h17.063Zm.6-6.448h-17l1.068-5.711h16.46Zm18.092,6.448H520.82l.484-5.711h16.737Zm0-6.448H521.367l.487-5.711h16.188Zm1.456-5.711h15.624l.487,5.711H539.5Zm0,12.159v-5.711h16.174l.484,5.711Zm86.962-12.159,2.807,5.711h-17L610,212.628Zm-17.834,0,2.227,5.711h-17l-1.691-5.711Zm-52.13,0h16.46l1.068,5.711h-17Zm1.13,12.159-.533-5.711H574.16l1.065,5.711Zm16.7-12.159h16.463l1.646,5.711h-17Zm2.365,12.159-1.11-5.711h17.066l1.646,5.711Zm19.069,0-1.688-5.711h17.063l2.227,5.711Zm19.072,0-2.272-5.711H629.63l2.808,5.711Z" transform="translate(-425.843 -206.115)" fill="#d0d1de"/>
                  </g>
                </g>
              </g>
            </g>
          </g>
          <path id="Trazado_3542" data-name="Trazado 3542" d="M471.564,216.456H460.422a2.292,2.292,0,0,0,.555,1.541,1.214,1.214,0,0,0,.844.314H481.31a1.213,1.213,0,0,0,.844-.314,2.291,2.291,0,0,0,.555-1.541Z" transform="translate(-340.384 -182.313)" fill="#110239"/>
        </g>
      </g>
      <rect id="Rectángulo_404" data-name="Rectángulo 404" width="199.328" height="126.144" transform="translate(31.51 45.728)" fill="#fefefe"/>
      <path id="Trazado_3543" data-name="Trazado 3543" d="M532.538,231.622l-17.987,8L491.8,216.872,429.173,264.6v28.822H628.5V145.189l-83.28,100.782Z" transform="translate(-397.664 -121.545)" fill="#fd9c15"/>
      <g id="Grupo_1781" data-name="Grupo 1781" transform="translate(70.817 133.369)">
        <rect id="Rectángulo_405" data-name="Rectángulo 405" width="6.362" height="4.823" fill="#fefefe"/>
        <rect id="Rectángulo_406" data-name="Rectángulo 406" width="6.362" height="4.823" transform="translate(8.971)" fill="#fefefe"/>
        <rect id="Rectángulo_407" data-name="Rectángulo 407" width="6.362" height="4.823" transform="translate(17.942)" fill="#0093a3"/>
        <rect id="Rectángulo_408" data-name="Rectángulo 408" width="6.362" height="4.823" transform="translate(26.913)" fill="#fefefe"/>
        <rect id="Rectángulo_409" data-name="Rectángulo 409" width="6.362" height="4.823" transform="translate(35.884)" fill="#fefefe"/>
        <rect id="Rectángulo_410" data-name="Rectángulo 410" width="6.362" height="4.823" transform="translate(44.855)" fill="#0093a3"/>
        <rect id="Rectángulo_411" data-name="Rectángulo 411" width="6.362" height="4.823" transform="translate(0 8.235)" fill="#fefefe"/>
        <rect id="Rectángulo_412" data-name="Rectángulo 412" width="6.362" height="4.823" transform="translate(8.971 8.235)" fill="#fefefe"/>
        <rect id="Rectángulo_413" data-name="Rectángulo 413" width="6.362" height="4.823" transform="translate(17.942 8.235)" fill="#fefefe"/>
        <rect id="Rectángulo_414" data-name="Rectángulo 414" width="6.362" height="4.823" transform="translate(26.913 8.235)" fill="#fefefe"/>
        <rect id="Rectángulo_415" data-name="Rectángulo 415" width="6.362" height="4.823" transform="translate(35.884 8.235)" fill="#0093a3"/>
        <rect id="Rectángulo_416" data-name="Rectángulo 416" width="6.362" height="4.823" transform="translate(44.855 8.235)" fill="#fefefe"/>
        <rect id="Rectángulo_417" data-name="Rectángulo 417" width="6.362" height="4.823" transform="translate(0 16.47)" fill="#fefefe"/>
        <rect id="Rectángulo_418" data-name="Rectángulo 418" width="6.362" height="4.823" transform="translate(8.971 16.47)" fill="#0093a3"/>
        <rect id="Rectángulo_419" data-name="Rectángulo 419" width="6.362" height="4.823" transform="translate(17.942 16.47)" fill="#fefefe"/>
        <rect id="Rectángulo_420" data-name="Rectángulo 420" width="6.362" height="4.823" transform="translate(26.913 16.47)" fill="#fefefe"/>
        <rect id="Rectángulo_421" data-name="Rectángulo 421" width="6.362" height="4.823" transform="translate(35.884 16.47)" fill="#fefefe"/>
        <rect id="Rectángulo_422" data-name="Rectángulo 422" width="6.362" height="4.823" transform="translate(44.855 16.47)" fill="#fefefe"/>
        <rect id="Rectángulo_423" data-name="Rectángulo 423" width="6.362" height="4.823" transform="translate(0 24.705)" fill="#fefefe"/>
        <rect id="Rectángulo_424" data-name="Rectángulo 424" width="6.362" height="4.823" transform="translate(8.971 24.705)" fill="#fefefe"/>
        <rect id="Rectángulo_425" data-name="Rectángulo 425" width="6.362" height="4.823" transform="translate(17.942 24.705)" fill="#0093a3"/>
        <rect id="Rectángulo_426" data-name="Rectángulo 426" width="6.362" height="4.823" transform="translate(26.913 24.705)" fill="#fefefe"/>
      </g>
      <g id="Grupo_1791" data-name="Grupo 1791" transform="translate(35.226 38.056)">
        <g id="Grupo_1782" data-name="Grupo 1782" transform="translate(99.844 79.46)">
          <path id="Trazado_3544" data-name="Trazado 3544" d="M467.686,180.532l-.638-.632-.809.339-.512-1.248,1.587-.668,1.262,1.245Z" transform="translate(-465.728 -178.324)" fill="#fff"/>
        </g>
        <g id="Grupo_1783" data-name="Grupo 1783" transform="translate(86.795 81.036)">
          <path id="Trazado_3545" data-name="Trazado 3545" d="M461.635,184.708l-.513-1.255,2.184-.915.513,1.252Zm4.36-1.836-.51-1.252,2.176-.912.513,1.249Zm4.349-1.83-.51-1.249,2.17-.912.51,1.252Z" transform="translate(-461.122 -178.88)" fill="#fff"/>
        </g>
        <g id="Grupo_1784" data-name="Grupo 1784" transform="translate(82.225 86.266)">
          <path id="Trazado_3546" data-name="Trazado 3546" d="M460.827,182.907l-1.318-1.154.841-1.027.7.613.843-.353.511,1.256Z" transform="translate(-459.509 -180.726)" fill="#fff"/>
        </g>
        <g id="Grupo_1785" data-name="Grupo 1785" transform="translate(62.924 69.426)">
          <path id="Trazado_3547" data-name="Trazado 3547" d="M470.068,190.964l-1.929-1.683.844-1.026,1.926,1.683Zm-3.859-3.368-1.929-1.686.844-1.023,1.929,1.683Zm-3.861-3.368-1.929-1.686.847-1.023,1.926,1.686Zm-3.861-3.371-1.929-1.686.85-1.02,1.929,1.683Zm-3.859-3.368L452.7,175.8l.85-1.02,1.932,1.683Z" transform="translate(-452.696 -174.782)" fill="#fff"/>
        </g>
        <g id="Grupo_1786" data-name="Grupo 1786" transform="translate(58.945 66.514)">
          <path id="Trazado_3548" data-name="Trazado 3548" d="M453.341,176l-.622-.543-.67.468-.758-1.117,1.5-1.051,1.4,1.225Z" transform="translate(-451.292 -173.754)" fill="#fff"/>
        </g>
        <g id="Grupo_1787" data-name="Grupo 1787" transform="translate(0 69.123)">
          <path id="Trazado_3549" data-name="Trazado 3549" d="M431.261,215.629l-.776-1.144,2.317-1.626.776,1.142Zm4.629-3.252-.773-1.142,2.309-1.623.774,1.142Zm4.615-3.244-.774-1.139,2.3-1.615.773,1.139Zm4.6-3.23-.773-1.136,2.292-1.609.773,1.136Zm4.578-3.218-.771-1.133,2.286-1.606.773,1.136Zm4.567-3.207-.771-1.133,2.278-1.6.771,1.13Zm4.55-3.193-.771-1.133,2.269-1.592.768,1.13Zm4.533-3.184-.768-1.13,2.261-1.584.768,1.125Zm4.516-3.173-.768-1.128,2.252-1.581.768,1.128Zm4.5-3.162-.768-1.125,2.244-1.572.768,1.122Zm4.482-3.15-.765-1.122,2.235-1.569.765,1.122Zm4.465-3.139-.759-1.119,2.23-1.564.762,1.119Zm4.456-3.125-.762-1.119,2.218-1.558.765,1.116Z" transform="translate(-430.485 -174.675)" fill="#fff"/>
        </g>
        <g id="Grupo_1788" data-name="Grupo 1788" transform="translate(116.301)">
          <path id="Trazado_3550" data-name="Trazado 3550" d="M472.514,240.731l-.977-.909,1.708-1.989.977.909Zm3.414-3.978-.975-.909,1.7-1.98.975.907Zm3.4-3.963-.975-.907,1.7-1.977.975.907Zm3.391-3.949-.972-.907,1.691-1.969.972.907Zm3.38-3.938-.972-.9,1.686-1.96.969.9Zm3.366-3.921-.969-.9,1.68-1.955.969.9Zm3.354-3.91-.966-.9,1.672-1.949.969.9Zm3.343-3.9-.966-.9,1.669-1.941.966.9ZM499.5,209.3l-.963-.9,1.663-1.938.963.9Zm3.32-3.87-.963-.892,1.657-1.929.963.892Zm3.309-3.853-.96-.892,1.652-1.924.958.892Zm3.3-3.842-.96-.892,1.646-1.915.957.89Zm3.286-3.83-.958-.89,1.638-1.907.958.887Zm3.272-3.813-.955-.89,1.635-1.9.955.887Zm3.266-3.8-.955-.89,1.629-1.892.952.887ZM522.5,182.5l-.952-.887,1.62-1.89.952.887Zm3.241-3.776-.952-.887,1.618-1.881.949.887Zm3.23-3.762-.949-.884,1.609-1.876.949.884Zm3.218-3.751-.949-.881,1.606-1.87.946.881Zm3.207-3.737-.946-.881,1.6-1.861.946.881Zm3.2-3.723-.943-.881,1.6-1.856.943.878Zm3.187-3.714-.943-.878,1.589-1.85.943.878Zm2.966-3.516-.943-.878,1.589-1.85.943.878ZM547.711,153l-.943-.878,1.589-1.85.943.878Z" transform="translate(-471.537 -150.276)" fill="#fff"/>
        </g>
        <g id="Grupo_1789" data-name="Grupo 1789" transform="translate(112.826 91.542)">
          <path id="Trazado_3551" data-name="Trazado 3551" d="M471.754,185.006l-1.443-1.422.885-.969.462.455.412-.481.979.909Z" transform="translate(-470.31 -182.589)" fill="#fff"/>
        </g>
        <g id="Grupo_1790" data-name="Grupo 1790" transform="translate(104.006 82.877)">
          <path id="Trazado_3552" data-name="Trazado 3552" d="M473.812,187.015l-2.2-2.173.887-.966,2.2,2.173Zm-4.408-4.346L467.2,180.5l.89-.966,2.2,2.173Z" transform="translate(-467.197 -179.53)" fill="#fff"/>
        </g>
      </g>
      <g id="Grupo_1793" data-name="Grupo 1793" transform="translate(31.509)">
        <g id="Grupo_1792" data-name="Grupo 1792" transform="translate(0 8.918)">
          <path id="Trazado_3553" data-name="Trazado 3553" d="M623.206,139.991l-77.7,98.5-12.573-15.174-18.4,8.731L491.148,207.1l-61.975,50.388v6.057l61.748-50.2,23.03,24.574,18.3-8.678,13.3,16.06,80.636-102.221A32.613,32.613,0,0,1,623.206,139.991Z" transform="translate(-429.173 -139.991)" fill="#61d32e"/>
        </g>
        <path id="Trazado_3554" data-name="Trazado 3554" d="M513.775,136.843l-18.335,6.208,12.127,12.127Z" transform="translate(-307.704 -136.843)" fill="#61d32e"/>
      </g>
      <g id="Grupo_1794" data-name="Grupo 1794" transform="translate(43.634 56.674)">
        <path id="Trazado_3555" data-name="Trazado 3555" d="M445.315,161.964c4.142.309,7.921,2.079,7.947,6.218l-6.9.042c-.045-1.567-1.652-1.892-2.66-1.887-.635,0-2.686.014-2.68,1.283.017,2.836,12.726-.187,12.771,7.836.028,4.813-3.728,6.626-8.355,6.989l.329,5.111-4.216.025.229-5.153c-4.292-.422-8.3-2.411-8.323-6.74l6.9-.043v.15c.048,1.9,2.179,2.264,3.261,2.258,1.045-.006,3.1-.094,3.088-1.473-.017-2.949-12.726-.187-12.771-7.949-.025-4.476,3.434-6.216,7.723-6.612l-.289-5.148,4.215-.025Z" transform="translate(-433.453 -156.848)" fill="#ffd522"/>
      </g>
    </g>
    <g id="Grupo_1796" data-name="Grupo 1796" transform="translate(534.972 186.813)">
      <path id="Trazado_3556" data-name="Trazado 3556" d="M483.892,207.918s.286,5.612-.53,6.445-11.93,2.045-12.969,1.1-.612-2.711,1.728-3.561c2.507-.915,3.819-.317,5.371-1.111s.929-3.295.929-3.295Z" transform="translate(-440.008 -57.305)" fill="#110239"/>
      <path id="Trazado_3557" data-name="Trazado 3557" d="M487.705,207.918s-.289,5.612.527,6.445,11.93,2.045,12.97,1.1.612-2.711-1.725-3.561c-2.51-.915-3.822-.317-5.374-1.111s-.929-3.295-.929-3.295Z" transform="translate(-407.386 -57.305)" fill="#110239"/>
      <path id="Trazado_3558" data-name="Trazado 3558" d="M515.89,217.508c-1.212-6.111-7.723-22.8-10.137-28.585-.969-.329-2.031-.652-3.108-.963.281-1.3.47-2.425.68-3.405-1.89.5-3.9.742-5.929,1.385-.275.088-.584.181-.9.278-.323-.1-.632-.19-.907-.278-2.031-.643-4.037-.884-5.927-1.385.207.98.4,2.1.68,3.405-1.077.312-2.139.635-3.111.963-2.411,5.788-8.924,22.474-10.137,28.585-1.677,8.459-4.482,33.537-4.482,33.537l7.151.941s7.182-33.69,8.207-35.554c1.841-3.349,3.771-6.312,5.493-8.932a3.621,3.621,0,0,1,6.063,0c1.72,2.621,3.652,5.584,5.493,8.932,1.026,1.864,8.207,35.554,8.207,35.554l7.15-.941S517.57,225.967,515.89,217.508Z" transform="translate(-434.964 -99.358)" fill="#fd425f"/>
      <path id="Trazado_3559" data-name="Trazado 3559" d="M492.773,168.385c-.422-2.9-.856-3.354-1.83-3.924a3.749,3.749,0,0,1-1.227-.921,8.01,8.01,0,0,0-1.306-1.19,3.151,3.151,0,0,1-1.164-1.3c-.227-.7.688-.5,1.278-.289.643.232,1.847,2,2.527,1.754s-.918-2.3-1.241-2.708c-.768-.955-1.677-.827-2.7-1.266-.595-.258-.788-.558-.144-.941a1.936,1.936,0,0,1,1.575.113,6.628,6.628,0,0,1,2.745,1.705,7.743,7.743,0,0,0-2.394-1.856c-.516-.264-2.907-1-2.564-1.844.686-1.7,5.335,1.5,5.842,2.4a9.069,9.069,0,0,0-2.292-2.023c-.493-.351-1.691-1.13-.686-1.535,1.487-.6,3.286,2.162,4.309,3.249a10.754,10.754,0,0,0-1.731-2.334c-.819-1,.2-1.252,1.215-.377a14.91,14.91,0,0,1,1.306,1.436c1.621,2.045,1.683,3.417,1.969,5.91.1.9.127,2.357.422,4.966C496.855,168.917,494.028,168.144,492.773,168.385Z" transform="translate(-409.876 -154.481)" fill="#f88667"/>
      <path id="Trazado_3560" data-name="Trazado 3560" d="M472.632,179.913c-2.745-1.031-3.085-2.133-3.434-3.207a3.764,3.764,0,0,0-.637-1.4,8.1,8.1,0,0,1-.884-1.53,3.145,3.145,0,0,0-1.017-1.414c-.632-.371-.64.564-.558,1.187.091.677,1.558,2.23,1.176,2.844s-2.054-1.391-2.38-1.793c-.771-.955-.451-1.816-.663-2.9-.125-.637-.377-.89-.887-.343a1.928,1.928,0,0,0-.227,1.561,6.628,6.628,0,0,0,1.079,3.048,7.724,7.724,0,0,1-1.3-2.737c-.147-.558-.354-3.051-1.252-2.9-1.807.306.326,5.533,1.1,6.221a9.108,9.108,0,0,1-1.487-2.672c-.238-.555-.742-1.9-1.354-1-.9,1.323,1.411,3.669,2.255,4.9a10.6,10.6,0,0,1-1.909-2.193c-.8-1.011-1.266-.074-.629,1.108a14.506,14.506,0,0,0,1.125,1.584c1.652,2.02,2.977,2.374,5.352,3.187a22.78,22.78,0,0,1,4.572,1.728C472.026,183.859,472.128,181.088,472.632,179.913Z" transform="translate(-459.322 -125.441)" fill="#f88667"/>
      <path id="Trazado_3561" data-name="Trazado 3561" d="M487.218,171.871a17.132,17.132,0,0,1-4.683.227,6.815,6.815,0,0,1-1.64-.351c.068,1.949.068,6.471-1.3,8.323,0,0,.487,2.184,4.468,2.241s4.473-2.241,4.473-2.241A20.3,20.3,0,0,1,487.218,171.871Z" transform="translate(-422.166 -122.835)" fill="#f88667"/>
      <path id="Trazado_3562" data-name="Trazado 3562" d="M510.425,179.338c-1.085-1.385-6.233-4.434-9.72-4.986a54.776,54.776,0,0,0-17.1,0c-3.487.552-6.955,1.436-8.04,2.819-1.36,1.737,2.708,11.471,3.385,20.4.561,7.405,1.57,13.128,1.57,13.128,2.235,4.1,19.7,4.216,21.933.11,0,0,.422-6.329,1.632-13.239C505.663,188.577,511.8,181.1,510.425,179.338Z" transform="translate(-430.055 -119.288)" fill="#e5e6ed"/>
      <path id="Trazado_3563" data-name="Trazado 3563" d="M482.157,190.887c.111-2.4.907-6.709.02-8.913-1.266-3.147-4.125-4.329-6.771-5.768.79,4.029,2.861,10.55,3.329,16.74.561,7.405,1.57,13.128,1.57,13.128a4.934,4.934,0,0,0,2.646,1.844C480.469,203.168,481.936,195.572,482.157,190.887Z" transform="translate(-429.839 -114.66)" fill="#abadc4"/>
      <path id="Trazado_3564" data-name="Trazado 3564" d="M494.825,170.452s-8.253-4.853-9.5-3.66-3.207,5.255-4.156,5.873-2.431,1.207-2.3,1.938.612.779.572,1.516-1.711,4.252-.8,5.292,6.91,3.329,10.513.932S498.887,172.625,494.825,170.452Z" transform="translate(-424.41 -132.262)" fill="#f88667"/>
      <path id="Trazado_3565" data-name="Trazado 3565" d="M492.081,168.613l-6.949.111a14.16,14.16,0,0,1-4.275,5.643s.167,1.026.91.816a2.315,2.315,0,0,0,1.7-1.074c.5-.782,2-2.808,3.017-1.028s-1.159,2.388-2.074,2.374c0,0-3.164,3.836-.7,4.556,0,0,2.745-.408,6.927-4.847S493.957,168.265,492.081,168.613Z" transform="translate(-419.848 -128.638)" fill="#110239"/>
      <path id="Trazado_3566" data-name="Trazado 3566" d="M481.056,165.724s-3.38,2.051.533,6.162,13.12,1.943,13.12,1.943.98-2.677-2.348-5.488c-2.487-2.1-5.216-3.17-7.408-2.164C481.226,167.891,481.056,165.724,481.056,165.724Z" transform="translate(-421.968 -133.874)" fill="#110239"/>
      <path id="Trazado_3567" data-name="Trazado 3567" d="M465.612,173.245l-2.955,4.7A133.8,133.8,0,0,0,479,191.042c5.085,3.374,22.511-2.023,25.2-2.83,3.844-1.153,6.737-9.292.32-12.318-3.757-1.771-18.837,9.686-22.531,7.745C477.363,181.206,465.612,173.245,465.612,173.245Z" transform="translate(-453.208 -120.088)" fill="#e5e6ed"/>
      <path id="Trazado_3568" data-name="Trazado 3568" d="M494.1,159.592l5.864-.98s3.873,16.936,3.643,23.038-9.93,28.268-12.142,30c-2.66,2.085-10.035-3.935-4.689-10.42s8.808-19.854,8.95-20.4S494.1,159.592,494.1,159.592Z" transform="translate(-412.478 -146.91)" fill="#e5e6ed"/>
    </g>
    <rect id="Rectángulo_427" data-name="Rectángulo 427" width="47.312" height="4.255" transform="translate(495.306 189.832)" fill="#d0d1de"/>
    <rect id="Rectángulo_428" data-name="Rectángulo 428" width="47.312" height="4.255" transform="translate(495.306 196.557)" fill="#d0d1de"/>
    <rect id="Rectángulo_429" data-name="Rectángulo 429" width="35.808" height="4.255" transform="translate(495.306 203.281)" fill="#d0d1de"/>
  </g>
</svg>
