<svg xmlns="http://www.w3.org/2000/svg" width="277.089" height="228.512" viewBox="0 0 277.089 228.512">
  <g id="vector6" transform="translate(-422.346 -354.693)">
    <g id="Grupo_2542" data-name="Grupo 2542" transform="translate(422.346 367.422)">
      <circle id="Elipse_64" data-name="Elipse 64" cx="88.35" cy="88.35" r="88.35" transform="translate(2.181 2.181)" fill="#61d32e"/>
      <circle id="Elipse_65" data-name="Elipse 65" cx="75.364" cy="75.364" r="75.364" transform="translate(0 146.778) rotate(-76.853)" fill="#110239"/>
      <g id="Grupo_2541" data-name="Grupo 2541" transform="translate(53.282 29.004)">
        <rect id="Rectángulo_2793" data-name="Rectángulo 2793" width="2.964" height="63.42" rx="0.458" transform="translate(35.838)" fill="#fefefe"/>
        <path id="Trazado_3625" data-name="Trazado 3625" d="M477.618,402.084l-.016.026a1.467,1.467,0,0,1-1.988.6l-35.852-19.286a1.471,1.471,0,0,1-.6-1.991l.016-.026a1.463,1.463,0,0,1,1.988-.592L477.022,400.1A1.467,1.467,0,0,1,477.618,402.084Z" transform="translate(-438.991 -339.332)" fill="#fefefe"/>
      </g>
    </g>
    <g id="Grupo_2545" data-name="Grupo 2545" transform="translate(510.788 461.07)">
      <g id="Grupo_2543" data-name="Grupo 2543" transform="translate(27.795)">
        <rect id="Rectángulo_2794" data-name="Rectángulo 2794" width="160.851" height="99.563" fill="#d0d1de"/>
        <path id="Trazado_3626" data-name="Trazado 3626" d="M539.084,442.119l80.426-49.781v-4.413H458.658v4.413Z" transform="translate(-458.658 -387.925)" fill="#110239"/>
        <path id="Trazado_3627" data-name="Trazado 3627" d="M539.084,437.706l-80.426-49.781H619.509Z" transform="translate(-458.658 -387.925)" fill="#d0d1de"/>
      </g>
      <path id="Trazado_3628" data-name="Trazado 3628" d="M458.658,476.752H599.483V392.8H458.658Z" transform="translate(-430.863 -377.189)" fill="#b1b3c8" opacity="0.32" style="mix-blend-mode: multiply;isolation: isolate"/>
      <g id="Grupo_2544" data-name="Grupo 2544" transform="translate(0 22.571)">
        <rect id="Rectángulo_2795" data-name="Rectángulo 2795" width="160.851" height="99.563" fill="#d0d1de"/>
        <path id="Trazado_3629" data-name="Trazado 3629" d="M530.4,449.17l80.425-49.782v-4.412H449.975v4.413Z" transform="translate(-449.975 -394.976)" fill="#110239"/>
        <path id="Trazado_3630" data-name="Trazado 3630" d="M530.4,444.758l-80.426-49.782H610.826Z" transform="translate(-449.975 -394.976)" fill="#d0d1de"/>
      </g>
    </g>
    <path id="Trazado_3631" data-name="Trazado 3631" d="M489.076,361.174l5.765-.406,5.762-.407s2.766,15.589,5.906,17.244c0,0,5.016,18.291-9.126,19.286-17.113,1.207-11.738-17.817-11.738-17.817C488.523,376.994,489.076,361.174,489.076,361.174Z" transform="translate(137.563 12.476)" fill="#e38400"/>
    <path id="Trazado_3632" data-name="Trazado 3632" d="M535.9,436.788l6.252-33.905c-.868-15.3-2.955-30.394-2.955-30.394-8.012-4.59-19.638-6.741-19.638-6.741l-.1.083a17.728,17.728,0,0,1-20.637,1.466l-.128-.08s-12.276,3.8-19.568,9.472a79.05,79.05,0,0,0,.948,19.318A176.325,176.325,0,0,0,486.5,422l4.949,14.789Z" transform="translate(124.511 24.333)" fill="#fd9c15"/>
    <path id="Trazado_3633" data-name="Trazado 3633" d="M535.537,418.408l6.252-33.905c-.179-3.192-.221-6.312-.176-9.27-8.841,13.307-19.245,26.322-36.018,22.074-10.343-2.618-17.337-15.282-24.875-21.818-.554-.477-1.1-.931-1.639-1.389.259,1.338.515,2.737.755,4.187a166.234,166.234,0,0,0,6.325,25.4l4.926,14.725Z" transform="translate(124.876 42.714)" fill="#e38400"/>
    <g id="Grupo_2546" data-name="Grupo 2546" transform="translate(616.991 358.389)">
      <path id="Trazado_3634" data-name="Trazado 3634" d="M483.552,374.275c1.466-1.949,3.582.711,3.582.711s-3.367-10.2-1.053-14.939,11.031-2.942,11.031-2.942,8.38-3,11.338,1.367,1.05,14.939,1.05,14.939,1.722-2.932,3.448-1.207-2.18,6.658-3.1,7.282c0,0-5.343,11.937-10.295,12.286s-11.914-10.72-11.914-10.72C486.641,380.559,482.083,376.224,483.552,374.275Z" transform="translate(-482.911 -355.292)" fill="#f88667"/>
      <path id="Trazado_3635" data-name="Trazado 3635" d="M488.355,361.624s6.549.682,7.513,4.1a13.768,13.768,0,0,1,.019,5.208c-.1.893-.39,5.666-.15,5.762a.994.994,0,0,0,.829-.2,11.715,11.715,0,0,0,2-2.794c1.1-1.885,2.891-1.709,3.479-.605,0,0,.24-17.148-6.933-17.244S488.355,361.624,488.355,361.624Z" transform="translate(-471.713 -355.848)" fill="#110239"/>
      <path id="Trazado_3636" data-name="Trazado 3636" d="M495.583,361.118s-6.389,1.594-6.866,5.122a13.8,13.8,0,0,0,.714,5.154c.224.874,1.178,5.557.954,5.688a1,1,0,0,1-.848-.086,11.763,11.763,0,0,1-2.372-2.49c-1.357-1.709-3.1-1.287-3.531-.112,0,0-2.638-16.943,4.449-18.044S495.583,361.118,495.583,361.118Z" transform="translate(-483.153 -355.048)" fill="#110239"/>
    </g>
    <path id="Trazado_3637" data-name="Trazado 3637" d="M499.325,407.374c-.522.97-2.942,2.314-2.241,3.745.352.717,2.542-.557,3.047-1.111.714-.778,5.736-7.327,6.6-9.264.679-1.517,1.316-3,2.049-4.376a22.707,22.707,0,0,1-4.161-3.937c-2.362.861-4.9,2.116-7.218,2.916-1.245.426-2.593.685-3.851,1.037-.794.224-2.471.506-2.625,1.533-.173,1.127,1.508.928,2.17.851.957-.112,2.759-.871,3.335.266.842,1.645-2.241,3.223-3.313,4.213-1,.915-4.6,3.694-2.167,4.142.509.093,4.235-2.612,4.811-2.961-.122.131-2.532,2.106-2.654,2.247-.64.73-2.446,2.212-2.013,3.051.928,1.8,4.974-2.41,5.583-2.967l-1.54,1.665c-1.3,1.252-2.145,2.33-1.175,2.839C495.183,411.9,498.128,408.418,499.325,407.374Z" transform="translate(149.184 83.065)" fill="#f88667"/>
    <path id="Trazado_3638" data-name="Trazado 3638" d="M493.193,447.411l8.076,6.14s28.1-30.09,26.047-41.965c-3.367-19.507-13.323-41.748-19.225-43.646-2.452-.787-5.256,9.171-1.994,23.246,0,0,5.788,20.733,5.419,22.9S493.193,447.411,493.193,447.411Z" transform="translate(155.937 29.059)" fill="#fd9c15"/>
    <g id="Grupo_2547" data-name="Grupo 2547" transform="translate(586.591 400.403)">
      <path id="Trazado_3639" data-name="Trazado 3639" d="M489.534,412.794c.439,1.008,2.74,2.551,1.927,3.918-.41.685-2.487-.765-2.948-1.357-.643-.835-5.115-7.772-5.816-9.773-.551-1.568-1.066-3.1-1.684-4.533a22.579,22.579,0,0,0,4.469-3.579c2.286,1.05,4.712,2.51,6.959,3.5,1.2.528,2.526.9,3.748,1.351.775.288,2.423.707,2.494,1.745.077,1.136-1.581.8-2.234.669-.944-.189-2.679-1.092-3.345-.01-.973,1.575,1.969,3.4,2.958,4.472.916.992,4.277,4.059,1.818,4.305-.515.051-4-2.948-4.555-3.345.112.141,2.353,2.308,2.465,2.458.576.778,2.254,2.4,1.754,3.2-1.072,1.716-4.76-2.811-5.32-3.412l1.4,1.783c1.2,1.354,1.946,2.5.938,2.923C493.292,417.647,490.642,413.934,489.534,412.794Z" transform="translate(-457.463 -306.247)" fill="#f88667"/>
      <path id="Trazado_3640" data-name="Trazado 3640" d="M505.228,461.653l-7.635,5.087s-26.37-32.5-23.755-44.267c4.292-19.309,11.594-48.845,17.5-53.364,2.046-1.569,8.6,10.816,8.115,18.55,0,0-9.77,38.569-9.507,40.749S505.228,461.653,505.228,461.653Z" transform="translate(-473.656 -368.973)" fill="#fd9c15"/>
    </g>
    <path id="Trazado_3641" data-name="Trazado 3641" d="M510.069,360.436a4.861,4.861,0,0,0-2.836-4.241,16.164,16.164,0,0,0-13.611,0c-4.7,2.349-6.124,2.881-7.494,2.1s-.5-1.565-.5-1.565-3.076-.029-2.929,4.744,6.018,10.7,13.684,10.7C508.091,372.174,511.881,363.989,510.069,360.436Z" transform="translate(132.825 0)" fill="#110239"/>
  </g>
</svg>
