<svg xmlns="http://www.w3.org/2000/svg" width="308.87" height="231.18" viewBox="0 0 308.87 231.18">
  <g id="vector2" transform="translate(-290.438 -354.131)">
    <g id="Grupo_1771" data-name="Grupo 1771" transform="translate(290.438 354.131)">
      <rect id="Rectángulo_382" data-name="Rectángulo 382" width="8.745" height="49.004" transform="translate(56.391 171.857)" fill="#110239"/>
      <rect id="Rectángulo_383" data-name="Rectángulo 383" width="8.745" height="49.004" transform="translate(221.697 171.857)" fill="#110239"/>
      <rect id="Rectángulo_384" data-name="Rectángulo 384" width="286.833" height="176.319" fill="#d0d1de"/>
      <rect id="Rectángulo_385" data-name="Rectángulo 385" width="259.416" height="152.697" transform="translate(13.709 11.811)" fill="#fff"/>
      <path id="Trazado_3518" data-name="Trazado 3518" d="M464.312,461.969H300.693s.813-61.653,20.9-70.514,33.523,35.737,42.974,36.328,8.615-36.511,22.369-42.011c35.443-14.178,31.824,41.717,38.321,41.126s12.326-51.61,21.265-51.61C468.447,375.288,464.312,461.969,464.312,461.969Z" transform="translate(-269.921 -311.803)" fill="#e4e5ec"/>
      <path id="Trazado_3519" data-name="Trazado 3519" d="M464.312,458.13H300.693s4.135-52.57,24.221-61.431,28.941,33.67,38.393,34.261,18.313-29.535,33.079-30.717,24.809,34.852,31.305,34.261,9.965-57.3,18.9-57.3C464.312,377.207,464.312,458.13,464.312,458.13Z" transform="translate(-269.921 -307.964)" fill="#61d32e"/>
      <path id="Trazado_3520" data-name="Trazado 3520" d="M464.312,440.718H300.693s5.317-25.991,25.4-34.849,30.717,15.651,40.166,16.242,13.293-35,28.059-36.178,6.571,42.972,29.979,42.972c16.98,0,14.391-36.328,23.33-36.328C465.348,392.577,464.312,440.718,464.312,440.718Z" transform="translate(-269.921 -290.553)" fill="#fd9c15"/>
      <rect id="Rectángulo_386" data-name="Rectángulo 386" width="48.509" height="8.501" transform="translate(213.438 60.741)" fill="#e4e5ec"/>
      <rect id="Rectángulo_387" data-name="Rectángulo 387" width="48.509" height="8.501" transform="translate(213.438 79.658)" fill="#e4e5ec"/>
      <rect id="Rectángulo_388" data-name="Rectángulo 388" width="48.509" height="8.501" transform="translate(213.438 98.575)" fill="#fd9c15"/>
      <rect id="Rectángulo_389" data-name="Rectángulo 389" width="48.509" height="8.501" transform="translate(213.438 117.492)" fill="#e4e5ec"/>
      <rect id="Rectángulo_390" data-name="Rectángulo 390" width="48.509" height="8.501" transform="translate(213.438 136.409)" fill="#61d32e"/>
      <rect id="Rectángulo_391" data-name="Rectángulo 391" width="8.858" height="8.858" transform="translate(26.363 20.985)" fill="#0093a3"/>
      <rect id="Rectángulo_392" data-name="Rectángulo 392" width="40.178" height="8.858" transform="translate(43.763 20.985)" fill="#e4e5ec"/>
      <rect id="Rectángulo_393" data-name="Rectángulo 393" width="8.858" height="8.858" transform="translate(26.363 35.854)" fill="#0093a3"/>
      <rect id="Rectángulo_394" data-name="Rectángulo 394" width="40.178" height="8.858" transform="translate(43.763 35.854)" fill="#e4e5ec"/>
      <rect id="Rectángulo_395" data-name="Rectángulo 395" width="8.858" height="8.858" transform="translate(26.363 50.723)" fill="#0093a3"/>
      <rect id="Rectángulo_396" data-name="Rectángulo 396" width="40.178" height="8.858" transform="translate(43.763 50.723)" fill="#e4e5ec"/>
      <rect id="Rectángulo_397" data-name="Rectángulo 397" width="126.133" height="12.338" transform="translate(135.813 20.985)" fill="#e4e5ec"/>
      <rect id="Rectángulo_398" data-name="Rectángulo 398" width="63.272" height="10.44" transform="translate(101.405 47.243)" fill="#e4e5ec"/>
      <rect id="Rectángulo_399" data-name="Rectángulo 399" width="23.238" height="8.663" transform="translate(49.144 214.636)" fill="#d0d1de"/>
      <rect id="Rectángulo_400" data-name="Rectángulo 400" width="23.239" height="8.663" transform="translate(214.45 214.636)" fill="#d0d1de"/>
      <g id="Grupo_1770" data-name="Grupo 1770" transform="translate(101.754 19.433)">
        <g id="Grupo_1769" data-name="Grupo 1769">
          <path id="Trazado_3521" data-name="Trazado 3521" d="M333.411,364.514c3.163.237,6.052,1.59,6.07,4.753l-5.275.03c-.033-1.2-1.263-1.443-2.031-1.44-.486,0-2.052.012-2.046.981.012,2.166,9.719-.144,9.755,5.986.024,3.676-2.848,5.062-6.382,5.338l.252,3.907-3.223.018.177-3.937c-3.28-.321-6.34-1.842-6.358-5.149l5.272-.03,0,.111c.036,1.455,1.662,1.731,2.487,1.725.8,0,2.367-.069,2.361-1.125-.015-2.253-9.722-.141-9.758-6.07-.018-3.421,2.625-4.75,5.9-5.053l-.222-3.934,3.22-.018Z" transform="translate(-324.349 -360.607)" fill="#ffd522"/>
        </g>
      </g>
      <path id="Trazado_3522" data-name="Trazado 3522" d="M340.845,370.064l-4.963-9.66-4.963,9.66h3.405v14.43h3.156v-14.43Z" transform="translate(-209.45 -341.581)" fill="#fd9c15"/>
    </g>
    <g id="Grupo_1772" data-name="Grupo 1772" transform="translate(516.425 393.173)">
      <path id="Trazado_3523" data-name="Trazado 3523" d="M408.679,386.149s-4.657,2.835-8.558,10.622-6.337,11.96-6.8,11.588c-2.076-1.662-7.558-6.355-15.582-18.931-.975-1.53.036-2.521.069-3.715s1.635-3.964,1.287-4.75-1.32-.6-2.262,1.29-.63,3.049-1.386,2.514a20.761,20.761,0,0,1-3.208-3.838c-.6-.975-2.484-2.892-2.989-2.578-.477.3-.591.81,2.253,4.888-1.032-1.452-3.574-4.816-4.453-4.009-.657.6,1.845,3.622,2.977,4.963-.969-1.125-3.181-3.5-3.97-2.713-.957.951,3.751,4.528,3.751,4.528s-3.514-2.785-3.985-1.965,1.572,2.625,3.586,3.76,2.373,1.539,3.187,1.95a8.265,8.265,0,0,1,1.842,2.379c.033.066,14.745,31.566,20.026,28.665s12.3-13.227,12.3-13.227a24.575,24.575,0,0,0,2.719-8.24C410.158,394.91,409.741,388.846,408.679,386.149Z" transform="translate(-365.752 -344.783)" fill="#f88667"/>
      <path id="Trazado_3524" data-name="Trazado 3524" d="M376.24,396.653c1.065-2.491,7.225-14.964,11.621-16.836l5.9,2.3c2.6,3.241-.72,10.928-1.794,11.8-.906.735-5.275,9.722-6.181,10.658A76.153,76.153,0,0,1,376.24,396.653Z" transform="translate(-344.77 -341.785)" fill="#c4001e"/>
      <path id="Trazado_3525" data-name="Trazado 3525" d="M386.146,373.817l8.456,1.317s-2.376,7.516,1.269,13.929c0,0-6.079,6.586-10.319,4.843-4.531-1.86-2.842-6.436-2.842-6.436S387.325,383.815,386.146,373.817Z" transform="translate(-332.441 -353.789)" fill="#e45940"/>
      <path id="Trazado_3526" data-name="Trazado 3526" d="M404.038,426.71s2.28,9.05.978,10.523-20.263,4.711-22.09,3.208-1.26-4.51,2.6-6.142c4.141-1.752,6.4-.855,8.945-2.328s1.281-5.62,1.281-5.62Z" transform="translate(-333.398 -248.691)" fill="#110239"/>
      <path id="Trazado_3527" data-name="Trazado 3527" d="M397.513,426.176s.456,11.351-1.056,12.609-20.746,1.548-22.322-.219-.663-4.282,3.238-5.146c3.5-.777,6.115-.09,8.819-1.245,2.373-1.014,3.559-6.334,3.559-6.334Z" transform="translate(-350.449 -249.712)" fill="#110239"/>
      <path id="Trazado_3528" data-name="Trazado 3528" d="M379.79,397.347l24.722-4.393s-9.356,50.9-10.6,56.768-4.93,44.562-4.93,44.562L378.2,493.018s.126-42.287.666-46.05S379.79,397.347,379.79,397.347Z" transform="translate(-340.842 -315.503)" fill="#286dc9"/>
      <path id="Trazado_3529" data-name="Trazado 3529" d="M385.548,417.9c-1.224-7.982-.4-14.184-2.16-18.076-.7-1.545-2.983-1.143-3.5-2.722a4.881,4.881,0,0,0,.768-1.215l20.53-3.076s-9.311,43.878-11.726,54.644C389.461,447.454,386.526,424.268,385.548,417.9Z" transform="translate(-337.469 -315.791)" fill="#003172"/>
      <path id="Trazado_3530" data-name="Trazado 3530" d="M382.15,393.6,402,398.649a37.932,37.932,0,0,1,1.2,16.467c-1.635,11.045-1.8,28.368-2,30.717s3.712,39.674,4.012,48.607l-10.7.453s-8.2-46.755-8.681-47.778S382.15,393.6,382.15,393.6Z" transform="translate(-332.946 -314.219)" fill="#286dc9"/>
      <path id="Trazado_3531" data-name="Trazado 3531" d="M381.665,407.2c.417-8.366-1.842-20.986,3.07-23.957,4.117-2.487,7.517-4.5,7.517-4.5s1.23,2.995,4.159,3.388S404,378.106,404,378.106s5.356,3.16,10.187,5.317c-1.17,3.877,1.242,7.352,1.224,11.216a23.542,23.542,0,0,0,.84,6.3c-1.962,4.2-3.862,8.312-4.279,11.267-1.071,7.625,2.374,19.33,2.374,19.33a134.014,134.014,0,0,1-18.394,2.788c-5.716.48-12.321-.7-18.145-2.157C377.8,432.165,381.251,415.559,381.665,407.2Z" transform="translate(-341.643 -345.208)" fill="#c4001e"/>
      <path id="Trazado_3532" data-name="Trazado 3532" d="M400.021,393.867c-.153-.567-.24-1.158-.357-1.74-.084-.432-.2-.849-.264-1.29a23.274,23.274,0,0,1-.216-3.256c.009-1.893-.126-3.919-.141-5.947-1,.732-2.223,2.49-3.436,1.779-5.689-3.337-6.469,11.906-6.469,19.585,0,7.655-.192,16.647-3.226,23.6,7.3-.936,12.207-2.125,12.207-2.125s-.486-1.647-1.035-4.108c-.273-1.227-.564-2.661-.816-4.195-.087-.51-.168-1.032-.24-1.56a48.328,48.328,0,0,1-.459-4.852,26.011,26.011,0,0,1,.177-4.615C396.162,402.188,398.061,398.071,400.021,393.867Z" transform="translate(-325.42 -338.15)" fill="#890018"/>
      <path id="Trazado_3533" data-name="Trazado 3533" d="M396.63,369.823s-12.1-1.833-13.5-.492-1.623,6.217-1.566,10.337-1.674,12,3.135,13.461,13.983-3.037,17.229-11.2C406.067,371.537,397.461,369.943,396.63,369.823Z" transform="translate(-334.631 -363.745)" fill="#f88667"/>
      <path id="Trazado_3534" data-name="Trazado 3534" d="M392.124,368.85s-5.725.2-6.73,8.822c-.453,3.886-1.431,6.883-.234,7.078a2.021,2.021,0,0,0,2.436-1.74c0-1.122.348-4.786,2.632-3.766s1.509,5.428-1.392,6.7a3.637,3.637,0,0,0,1.722,3.868s6.034-3.8,6.9-10.571S395.778,368.658,392.124,368.85Z" transform="translate(-328.073 -363.74)" fill="#110239"/>
      <path id="Trazado_3535" data-name="Trazado 3535" d="M402.716,373.014a8.3,8.3,0,0,0-7.735-5.839c-6.382-.426-11.489,3.4-14.544,8.51,0,0,1.74,3.054,8.315,3.442a24.11,24.11,0,0,0,10.019-1.857C402.179,375.5,402.716,373.014,402.716,373.014Z" transform="translate(-336.373 -367.142)" fill="#110239"/>
      <path id="Trazado_3536" data-name="Trazado 3536" d="M404.292,404.2c-.4-1.944-2.227-13.407-2.869-17.65-3.715,1.224-7.138,2.494-10.964,3.514a105.938,105.938,0,0,1,4.072,15.7c.411,3.871-1.344,20.983-1.869,26.912h0c-.042.474-.078.876-.108,1.209a8.318,8.318,0,0,1-1.368,3.511c-.867,1.089-3.769,4.636-3.274,6.181s2.908-1.284,3.793-2.247,1.038,2.256.819,3.988-3.709,4.636-3.34,5.824c.261.831,1.329.231,2.682-1.3-.636.951-1.116,1.875-.762,2.118.474.324,1.344-.273,2.292-1.3-.507.786-.834,1.491-.5,1.662.495.261,1.491-.567,2.4-1.56-.471.717-.792,1.4-.459,1.611.63.4,2.671-1.47,3.448-3.928.633-1.989-.87-7.6-1.41-10.466a5.06,5.06,0,0,1,.18-2.553C398.7,430.455,405.4,409.64,404.292,404.2Z" transform="translate(-321.532 -328.315)" fill="#f88667"/>
      <path id="Trazado_3537" data-name="Trazado 3537" d="M391.209,407.436a63.181,63.181,0,0,0,13.362-4.015c-1.023-7.208-3.559-17.109-7.282-21.055-1.035-1.1-2.875-3.106-4.552-2.529-2.205.756-5.029,3.769-5.254,9.62a66.566,66.566,0,0,0,2.211,12.74C390.15,403.422,390.6,405.666,391.209,407.436Z" transform="translate(-322.282 -341.949)" fill="#c4001e"/>
    </g>
  </g>
</svg>
