<svg xmlns="http://www.w3.org/2000/svg" width="260" height="245.837" viewBox="0 0 260 245.837">
  <g id="vector5" transform="translate(-294.16 -133.202)">
    <g id="Grupo_2534" data-name="Grupo 2534" transform="translate(449.999 133.202)">
      <path id="Trazado_3595" data-name="Trazado 3595" d="M381.687,140.825s12.818,2.857,27.619,15.76l-17.749,32.406a37.83,37.83,0,0,0-18.2-9.743Z" transform="translate(-305.144 -119.259)" fill="#fd9c15"/>
      <path id="Trazado_3596" data-name="Trazado 3596" d="M384.883,161.389c1.556-5.8,2.826-11.681,4.328-17.494a55.087,55.087,0,0,0-7.525-3.069l-8.326,38.423c4.645-4.037,5.887-2.5,6.7-2.925C381.449,171.327,383.548,166.359,384.883,161.389Z" transform="translate(-305.144 -119.259)" fill="#985800"/>
      <path id="Trazado_3597" data-name="Trazado 3597" d="M351.75,135.126s50.191-5,78.082,9.42l-10.246,43.736s-24.615-13.223-65.462-7.57Z" transform="translate(-344.669 -131.218)" fill="#fd9c15"/>
      <rect id="Rectángulo_2786" data-name="Rectángulo 2786" width="4.017" height="172.008" transform="translate(7.036)" fill="#110239"/>
      <rect id="Rectángulo_2787" data-name="Rectángulo 2787" width="10.158" height="8.07" transform="translate(3.966 166.81)" fill="#110239"/>
      <rect id="Rectángulo_2788" data-name="Rectángulo 2788" width="18.089" height="4.058" transform="translate(0 173.118)" fill="#110239"/>
    </g>
    <g id="Grupo_2535" data-name="Grupo 2535" transform="translate(294.16 205.607)">
      <path id="Trazado_3598" data-name="Trazado 3598" d="M326.343,162.5v28.666h7.16v-20.2a3.7,3.7,0,0,1,3.7-3.7h30.736a3.7,3.7,0,0,1,3.7,3.7v20.2h7.157V162.5a3.7,3.7,0,0,0-3.7-3.7H330.04A3.7,3.7,0,0,0,326.343,162.5Z" transform="translate(-235.299 -158.796)" fill="#d0d1de"/>
      <path id="Rectángulo_2789" data-name="Rectángulo 2789" d="M4.442,0H230.1a4.441,4.441,0,0,1,4.441,4.441V146.335a4.441,4.441,0,0,1-4.441,4.441H4.441A4.441,4.441,0,0,1,0,146.335V4.442A4.442,4.442,0,0,1,4.442,0Z" transform="translate(0 22.656)" fill="#110239"/>
      <path id="Trazado_3599" data-name="Trazado 3599" d="M528.7,208.812V179.368A12.565,12.565,0,0,0,516.136,166.8H306.726a12.565,12.565,0,0,0-12.566,12.563v29.444a32.366,32.366,0,0,0,32.363,32.366H496.336A32.367,32.367,0,0,0,528.7,208.812Z" transform="translate(-294.16 -144.148)" fill="#453964"/>
      <rect id="Rectángulo_2790" data-name="Rectángulo 2790" width="14.922" height="16.943" transform="translate(109.809 90.239)" fill="#d0d1de"/>
      <rect id="Rectángulo_2791" data-name="Rectángulo 2791" width="4.823" height="4.188" transform="translate(114.86 98.361)" fill="#110239"/>
    </g>
    <g id="Grupo_2538" data-name="Grupo 2538" transform="translate(311.024 140.633)">
      <path id="Trazado_3600" data-name="Trazado 3600" d="M321.31,140.412h-7.85s-1.129,10.693-3.177,11.966c0,0-2.526,12.631,7.1,12.631,11.65,0,7.1-12.631,7.1-12.631C322.441,151.105,321.31,140.412,321.31,140.412Z" transform="translate(-282.084 -127.445)" fill="#f88667"/>
      <path id="Trazado_3601" data-name="Trazado 3601" d="M321.31,140.412h-7.85s-1.129,10.693-3.177,11.966c0,0-2.526,12.631,7.1,12.631,11.65,0,7.1-12.631,7.1-12.631C322.441,151.105,321.31,140.412,321.31,140.412Z" transform="translate(-282.084 -127.445)" fill="#e45940"/>
      <g id="Grupo_2536" data-name="Grupo 2536" transform="translate(25.223)">
        <path id="Trazado_3602" data-name="Trazado 3602" d="M329.3,148.531c-1.086-1.25-2.393.654-2.393.654s1.8-7.072,0-10.17-7.613-1.468-7.613-1.468-5.822-1.632-7.616,1.468,0,10.17,0,10.17-1.3-1.9-2.393-.654,1.794,4.4,2.447,4.787c0,0,4.19,7.833,7.562,7.833s7.559-7.833,7.559-7.833C327.51,152.936,330.393,149.782,329.3,148.531Z" transform="translate(-309.021 -133.471)" fill="#f88667"/>
        <path id="Trazado_3603" data-name="Trazado 3603" d="M317.848,140.6s-4.4.775-4.894,3.14a9.345,9.345,0,0,0,.235,3.528,22.994,22.994,0,0,1,.376,3.9.679.679,0,0,1-.571-.1,8.058,8.058,0,0,1-1.488-1.8c-.837-1.225-2.04-1.021-2.388-.246,0,0-.979-11.6,3.876-12.012S317.848,140.6,317.848,140.6Z" transform="translate(-309.037 -133.723)" fill="#110239"/>
        <path id="Trazado_3604" data-name="Trazado 3604" d="M313.166,140.6s4.4.775,4.894,3.14a9.343,9.343,0,0,1-.235,3.528,23,23,0,0,0-.376,3.9.679.679,0,0,0,.571-.1,8.055,8.055,0,0,0,1.488-1.8c.837-1.225,2.04-1.021,2.388-.246,0,0,.979-11.6-3.876-12.012S313.166,140.6,313.166,140.6Z" transform="translate(-301.487 -133.723)" fill="#110239"/>
        <path id="Trazado_3605" data-name="Trazado 3605" d="M327.28,140.75a5.412,5.412,0,0,0-3.177-3.859,14.621,14.621,0,0,0-9.352-.56c-6.159,1.562-6.252,7.941-3.921,9.862a7.559,7.559,0,0,0,5.675,2.167C325.046,148.359,328.6,143.341,327.28,140.75Z" transform="translate(-308.333 -135.828)" fill="#110239"/>
      </g>
      <path id="Trazado_3606" data-name="Trazado 3606" d="M334.57,144.642c-.41,10.739-7.1,9.63-7.1,9.63s-6.688,1.109-7.1-9.63c0,0-10.685,2.953-15.9,6.444a103.145,103.145,0,0,1,2.359,19.791l6.108,23.659,14.529.719L342,194.536l6.108-23.659a103.145,103.145,0,0,1,2.359-19.791C345.252,147.6,334.57,144.642,334.57,144.642Z" transform="translate(-292.168 -119.709)" fill="#286dc9"/>
      <path id="Trazado_3607" data-name="Trazado 3607" d="M346.446,150.007c-6.642,3.539-9.87,11.681-16.32,15.672-6.673,4.127-11.395-4.212-14.643-8.549a25.214,25.214,0,0,0-10.682-8.5,101.007,101.007,0,0,1,1.423,14.965l6.108,23.659,14.529.719,14.529-.719,6.108-23.659a100.343,100.343,0,0,1,1.386-14.736C348.041,149.22,347.215,149.594,346.446,150.007Z" transform="translate(-291.562 -112.422)" fill="#00547a" opacity="0.32" style="mix-blend-mode: multiply;isolation: isolate"/>
      <path id="Trazado_3608" data-name="Trazado 3608" d="M357.807,174.564c0-8.3-10.3-13.763-10.3-13.763h-34.6s-10.3,5.46-10.3,13.763a41.525,41.525,0,0,0,.832,6.41h11.494c-.467.843-.891,1.629-1.228,2.294-.1.2-.215.379-.322.571h8.359c.631,0,.427.263.252-.665-.255-1.321-1.072-2.071-.269-3.457.631-1.086,3.717-1.977,4.962-2,.272-.006.543-.006.806,0q2.712.064,5.423,0a9.663,9.663,0,0,1,2.017.334c.586.1,2.323-.054,3.072.931a3.994,3.994,0,0,1,.588,2.006,19.012,19.012,0,0,1-.317,2.854h10.476a30.769,30.769,0,0,1-2.008-2.866h10.227A41.527,41.527,0,0,0,357.807,174.564Z" transform="translate(-295.568 -90.155)" fill="#fd425f"/>
      <path id="Trazado_3609" data-name="Trazado 3609" d="M357.807,174.564c0-8.3-10.3-13.763-10.3-13.763h-34.6s-10.3,5.46-10.3,13.763a41.525,41.525,0,0,0,.832,6.41h11.494c-.467.843-.891,1.629-1.228,2.294-.1.2-.215.379-.322.571h8.359c.631,0,.427.263.252-.665-.255-1.321-1.072-2.071-.269-3.457.631-1.086,3.717-1.977,4.962-2,.272-.006.543-.006.806,0q2.712.064,5.423,0a9.663,9.663,0,0,1,2.017.334c.586.1,2.323-.054,3.072.931a3.994,3.994,0,0,1,.588,2.006,19.012,19.012,0,0,1-.317,2.854h10.476a30.769,30.769,0,0,1-2.008-2.866h10.227A41.527,41.527,0,0,0,357.807,174.564Z" transform="translate(-295.568 -90.155)" fill="#022048"/>
      <path id="Trazado_3610" data-name="Trazado 3610" d="M312.424,146.92s-13.214,28.555-12.252,32.355c.24.951,16.312,10.657,23.879,9.265l3.078-.569S315.9,146.717,312.424,146.92Z" transform="translate(-300.121 -115.543)" fill="#286dc9"/>
      <path id="Trazado_3611" data-name="Trazado 3611" d="M330.226,146.92s13.214,28.555,12.252,32.355c-.24.951-16.312,10.657-23.879,9.265l-3.078-.569S326.752,146.717,330.226,146.92Z" transform="translate(-271.956 -115.543)" fill="#286dc9"/>
      <path id="Trazado_3612" data-name="Trazado 3612" d="M307.859,150.451a19.94,19.94,0,0,1-.506,4.17c-1.168,5.16-3.01,10.546-1.078,15.786a84.377,84.377,0,0,0,5.963,11.8,9.622,9.622,0,0,0,2.1-.122l3.078-.569S312.264,162.6,307.859,150.451Z" transform="translate(-290.406 -109.085)" fill="#00547a" opacity="0.32" style="mix-blend-mode: multiply;isolation: isolate"/>
      <path id="Trazado_3613" data-name="Trazado 3613" d="M323,181.028a18.546,18.546,0,0,0,1.463-7.61c-.175-5.273-.206-10.546-.122-15.822.037-2.277.1-4.487.229-6.648-4.283,12.148-9.05,29.656-9.05,29.656l3.078.569A12.622,12.622,0,0,0,323,181.028Z" transform="translate(-271.956 -108.176)" fill="#00547a" opacity="0.32" style="mix-blend-mode: multiply;isolation: isolate"/>
      <path id="Trazado_3614" data-name="Trazado 3614" d="M314.135,183.457s-8.382,9.975-9.364,12.1,1.417,4.789,4.682,3.7,5.171-3.318,5.225-4.736,1.8-2.17,2.557-2.283,5.118-5.064,4.682-6.425-2.622-2.852-2.622-2.852Z" transform="translate(-292.022 -49.629)"/>
      <path id="Trazado_3615" data-name="Trazado 3615" d="M321.849,183.457s8.379,9.975,9.361,12.1-1.414,4.789-4.682,3.7-5.171-3.318-5.225-4.736-1.8-2.17-2.557-2.283-5.118-5.064-4.682-6.425,2.622-2.852,2.622-2.852Z" transform="translate(-274.677 -49.629)"/>
      <path id="Trazado_3616" data-name="Trazado 3616" d="M320.667,170.294c-1-2.374-1.2-7.4-7.924-7.4-12.948,0-9.913,10.377-9.715,11.927,1.958,15.449,11.353,46.27,11.353,46.27h12.968s-4.716-37.766-5.446-43.588C321.8,176.7,321.352,171.926,320.667,170.294Z" transform="translate(-295.621 -86.323)" fill="#003172"/>
      <path id="Trazado_3617" data-name="Trazado 3617" d="M320.088,170.294c1-2.374,1.2-7.4,7.924-7.4,12.957,0,9.913,10.377,9.715,11.927-1.958,15.449-11.353,46.27-11.353,46.27H313.406s4.716-37.766,5.446-43.588C318.951,176.7,319.4,171.926,320.088,170.294Z" transform="translate(-275.824 -86.323)" fill="#003172"/>
      <g id="Grupo_2537" data-name="Grupo 2537" transform="translate(8.405 46.357)">
        <rect id="Rectángulo_2792" data-name="Rectángulo 2792" width="38.078" height="2.258" transform="translate(7.856 26.4)" fill="#110239"/>
        <path id="Trazado_3618" data-name="Trazado 3618" d="M354.626,152.215H305.349s-2.659,0-2.2,2.968,6.668,23.724,7.921,23.724h37.846c1.1,0,7.463-20.756,7.918-23.724S354.626,152.215,354.626,152.215Z" transform="translate(-303.092 -152.215)" fill="#110239"/>
        <path id="Trazado_3619" data-name="Trazado 3619" d="M315.958,158.611a2.04,2.04,0,1,1-2.04-2.037A2.039,2.039,0,0,1,315.958,158.611Z" transform="translate(-287.022 -144.243)" fill="#d0d1de"/>
      </g>
    </g>
    <g id="Grupo_2539" data-name="Grupo 2539" transform="translate(387.457 341.476)">
      <path id="Trazado_3620" data-name="Trazado 3620" d="M336.823,206.824l2.286,7.036h7.4l-5.985,4.348,2.286,7.036-5.985-4.348-5.985,4.348,2.286-7.036-5.985-4.348h7.4Z" transform="translate(-327.139 -206.824)" fill="#61d32e"/>
      <path id="Trazado_3621" data-name="Trazado 3621" d="M346.166,206.824l2.286,7.036h7.4l-5.985,4.348,2.286,7.036-5.985-4.348-5.985,4.348,2.286-7.036-5.985-4.348h7.4Z" transform="translate(-310.053 -206.824)" fill="#61d32e"/>
      <path id="Trazado_3622" data-name="Trazado 3622" d="M355.508,206.824l2.286,7.036h7.4l-5.985,4.348,2.286,7.036-5.984-4.348-5.986,4.348,2.286-7.036-5.985-4.348h7.4Z" transform="translate(-292.966 -206.824)" fill="#61d32e"/>
      <path id="Trazado_3623" data-name="Trazado 3623" d="M364.85,206.824l2.286,7.036h7.4l-5.985,4.348,2.286,7.036L364.85,220.9l-5.985,4.348,2.286-7.036-5.985-4.348h7.4Z" transform="translate(-275.879 -206.824)" fill="#61d32e"/>
      <path id="Trazado_3624" data-name="Trazado 3624" d="M374.193,206.824l2.286,7.036h7.4l-5.985,4.348,2.286,7.036-5.985-4.348-5.985,4.348,2.286-7.036-5.985-4.348h7.4Z" transform="translate(-258.793 -206.824)" fill="#61d32e"/>
    </g>
  </g>
</svg>
